<svg xmlns="http://www.w3.org/2000/svg" xmlns:xlink="http://www.w3.org/1999/xlink" width="598" height="423" viewBox="0 0 598 423">
    <defs>
        <path id="a" d="M0 0h597.58v432.097H0z"/>
        <path id="c" d="M0 0h597.58v422.703H0z"/>
    </defs>
    <g fill="none" fill-rule="evenodd">
        <g transform="translate(.371 .097)">
            <mask id="b" fill="#fff">
                <use xlink:href="#a"/>
            </mask>
            <g mask="url(#b)">
                <use fill="#FFF" xlink:href="#c"/>
            </g>
        </g>
        <g fill="#225183">
            <text font-family="Roboto-Medium, Roboto" font-size="25.356" font-weight="400" transform="translate(242.043 154.16)">
                <tspan x="0" y="24">Please wait. We are </tspan> <tspan x="0" y="54">checking the availability.</tspan>
            </text>
            <text font-family="Roboto-Light, Roboto" font-size="20.285" font-weight="300" transform="translate(242.043 154.16)">
                <tspan x="0" y="95.069">Almost done. We are filtering </tspan> <tspan x="0" y="119.069">the applicable options.</tspan>
            </text>
        </g>
        <g fill-rule="nonzero">
            <path fill="#D97125" d="M202.876 199.8h-49.294a5.364 5.364 0 0 1-5.358-5.37v-40.817a5.364 5.364 0 0 1 5.358-5.37h49.294a5.364 5.364 0 0 1 5.358 5.37v40.817a5.364 5.364 0 0 1-5.358 5.37z"/>
            <path fill="#FFF" d="M173.278 187.497c-.82 0-1.64-.313-2.266-.94l-10.57-10.599a3.216 3.216 0 0 1 0-4.541 3.195 3.195 0 0 1 4.53 0l8.306 8.327 17.364-17.413a3.195 3.195 0 0 1 4.529 0 3.216 3.216 0 0 1 0 4.542l-19.628 19.682a3.182 3.182 0 0 1-2.265.942z"/>
            <path fill="#263238" d="M173.278 188.568a4.236 4.236 0 0 1-3.02-1.255l-10.57-10.6a4.252 4.252 0 0 1-1.25-3.027 4.26 4.26 0 0 1 1.25-3.027c1.615-1.62 4.425-1.62 6.04 0l7.55 7.57 16.608-16.653a4.265 4.265 0 0 1 6.038 0 4.256 4.256 0 0 1 1.252 3.027c0 1.144-.445 2.22-1.252 3.028l-19.627 19.682a4.236 4.236 0 0 1-3.02 1.255zm-10.57-17.023a2.139 2.139 0 0 0-2.135 2.141c0 .572.222 1.11.625 1.514l10.57 10.6c.81.808 2.21.808 3.02 0l19.627-19.683c.401-.405.625-.942.625-1.514a2.13 2.13 0 0 0-.625-1.514 2.133 2.133 0 0 0-3.02 0l-17.364 17.413a1.066 1.066 0 0 1-1.51 0l-8.306-8.327a2.11 2.11 0 0 0-1.507-.63z"/>
            <path fill="#225183" d="M127.652 283.477H78.358a5.364 5.364 0 0 1-5.358-5.37v-40.818a5.364 5.364 0 0 1 5.358-5.37h49.294a5.364 5.364 0 0 1 5.358 5.37v40.817a5.364 5.364 0 0 1-5.358 5.37z"/>
            <path fill="#FFF" d="M107.97 257.275l9.084-9.085a3.21 3.21 0 0 0 0-4.541 3.21 3.21 0 0 0-4.541 0l-9.085 9.085-9.085-9.085a3.21 3.21 0 0 0-4.542 0 3.21 3.21 0 0 0 0 4.541l9.085 9.085-9.085 9.085a3.21 3.21 0 0 0 0 4.542 3.21 3.21 0 0 0 4.542 0l9.085-9.085 9.085 9.085a3.21 3.21 0 0 0 4.541 0 3.21 3.21 0 0 0 0-4.542l-9.085-9.085z"/>
            <path fill="#263238" d="M114.783 272.912a4.253 4.253 0 0 1-3.028-1.254l-8.327-8.328-8.327 8.328c-1.62 1.618-4.441 1.618-6.056 0a4.246 4.246 0 0 1-1.255-3.028c0-1.143.446-2.218 1.255-3.028l8.327-8.327-8.327-8.327a4.253 4.253 0 0 1-1.255-3.028c0-1.145.446-2.22 1.255-3.027 1.615-1.617 4.437-1.62 6.056 0l8.327 8.327 8.327-8.327c1.619-1.62 4.44-1.617 6.055 0a4.246 4.246 0 0 1 1.255 3.027 4.253 4.253 0 0 1-1.255 3.028l-8.327 8.327 8.327 8.327a4.253 4.253 0 0 1 1.255 3.028c0 1.146-.445 2.22-1.255 3.028a4.246 4.246 0 0 1-3.027 1.254zm-11.355-12.166c.274 0 .548.105.758.313l9.085 9.085c.81.81 2.218.81 3.027 0 .405-.405.628-.942.628-1.514 0-.572-.223-1.11-.628-1.514l-9.085-9.085a1.071 1.071 0 0 1 0-1.514l9.085-9.085c.405-.405.628-.942.628-1.514 0-.572-.223-1.109-.628-1.514-.809-.809-2.218-.809-3.027 0l-9.085 9.086a1.071 1.071 0 0 1-1.514 0l-9.085-9.083c-.81-.81-2.219-.81-3.028 0a2.127 2.127 0 0 0-.627 1.513c0 .572.222 1.11.627 1.514l9.085 9.085a1.071 1.071 0 0 1 0 1.514l-9.085 9.083a2.127 2.127 0 0 0-.627 1.514c0 .572.222 1.11.627 1.514.81.81 2.218.81 3.028 0l9.085-9.085c.208-.208.482-.313.756-.313zM142.307 248.823c-18.176 0-32.963-14.787-32.963-32.963 0-18.177 14.787-32.964 32.963-32.964 18.177 0 32.964 14.787 32.964 32.964 0 18.176-14.787 32.963-32.964 32.963zm0-63.8c-17.002 0-30.836 13.834-30.836 30.837 0 17.002 13.834 30.836 30.836 30.836 17.005 0 30.837-13.834 30.837-30.836 0-17.003-13.834-30.837-30.837-30.837zm0 57.42c-14.659 0-26.583-11.924-26.583-26.583 0-14.66 11.924-26.584 26.583-26.584 14.66 0 26.584 11.925 26.584 26.584 0 14.659-11.924 26.583-26.584 26.583zm0-51.04c-13.485 0-24.456 10.972-24.456 24.457 0 13.485 10.971 24.456 24.456 24.456 13.486 0 24.457-10.971 24.457-24.456s-10.971-24.457-24.457-24.457zm19.14 25.52a1.064 1.064 0 0 1-1.063-1.063c0-9.968-8.109-18.077-18.077-18.077a1.064 1.064 0 0 1 0-2.127c11.142 0 20.204 9.064 20.204 20.204 0 .587-.474 1.063-1.064 1.063z"/>
            <path fill="#263238" d="M174.15 254.74c-.27 0-.54-.104-.748-.31l-12.189-12.19a1.064 1.064 0 0 1-.309-.818 1.06 1.06 0 0 1 .413-.77 30.818 30.818 0 0 0 5.782-5.785c.186-.241.468-.393.77-.412.3-.005.603.09.819.308l12.19 12.19a1.065 1.065 0 0 1 0 1.498l-5.983 5.982a1.043 1.043 0 0 1-.744.307zm-10.602-13.155l10.603 10.604 4.488-4.487-10.605-10.603a32.699 32.699 0 0 1-4.486 4.486z"/>
            <path fill="#939494" d="M180.956 246.873l-7.637 7.638a2.158 2.158 0 0 0 0 3.054l21.381 21.382a2.158 2.158 0 0 0 3.055 0l7.637-7.638a2.158 2.158 0 0 0 0-3.054l-21.381-21.382a2.158 2.158 0 0 0-3.055 0z"/>
            <path fill="#263238" d="M196.23 280.657a3.235 3.235 0 0 1-2.292-.946l-21.382-21.384a3.245 3.245 0 0 1 0-4.583l7.638-7.638a3.25 3.25 0 0 1 4.581 0l21.382 21.384a3.22 3.22 0 0 1 .948 2.292c0 .864-.337 1.678-.948 2.292l-7.638 7.637a3.21 3.21 0 0 1-2.29.946zm-14.51-33.022l-7.637 7.636a1.083 1.083 0 0 0 0 1.53l21.382 21.381a1.11 1.11 0 0 0 1.527 0l7.638-7.638a1.07 1.07 0 0 0 .315-.764c0-.29-.112-.56-.315-.763l-21.382-21.384a1.085 1.085 0 0 0-1.527.002zM116.74 184.587h-2.113c-.583 0-1.057-.568-1.057-1.268 0-.7.474-1.268 1.057-1.268h2.113c.583 0 1.056.568 1.056 1.268 0 .7-.473 1.268-1.056 1.268zM109.978 184.587H86.735c-.583 0-1.057-.568-1.057-1.268 0-.7.474-1.268 1.057-1.268h23.243c.583 0 1.057.568 1.057 1.268 0 .7-.474 1.268-1.057 1.268zM103.216 178.67H79.973c-.583 0-1.057-.568-1.057-1.268 0-.7.474-1.267 1.057-1.267h23.243c.584 0 1.057.568 1.057 1.267 0 .7-.473 1.268-1.057 1.268z"/>
        </g>
    </g>
</svg>
