<svg width="296" height="230" xmlns="http://www.w3.org/2000/svg"><g fill="none" fill-rule="evenodd"><path d="M24.985 108.069l141.164.002 15.704 6.07v5.558l-26.126 7.299c-8.118 2.267-23.749 7.11-32.214 7.11H36.926c-5.448 0-18.907.187-27.346-2.713-10.687-3.673-13.789-12.223-1.527-14.89 3.3-4.086 6.907-8.436 16.932-8.436" fill="#C8CACF"/><path fill="#243861" d="M178.671 81.047h-16.853l-14.304 18.234-17.912 8.79h36.547l12.522-27.024M1.55 126.297h156.686l-2.509.7c-8.118 2.268-23.749 7.11-32.214 7.11H36.926c-5.448 0-18.907.188-27.346-2.712-3.685-1.267-6.468-3.113-8.03-5.098"/><path fill="#3566A1" d="M179.409 120.382v-7.179l2.444.939v5.557l-2.444.683"/><path fill="#243861" d="M148.39 118.59l25.66-7.541h6.595l-15.701 9.303h-12.502l-3.014-.674-1.039-1.087"/><path d="M166.044 108.071l-20.417 6.258c-7.4 2.269-21.645 7.11-29.36 7.11H37.354c-4.964 0-17.23.188-24.922-2.713-1.663-.627-3.125-1.397-4.35-2.255 3.292-4.077 6.908-8.402 16.904-8.402l141.059.002" fill="#FFF"/><path d="M16.22 116.512h1.767v-2.346l-.684-.682H16.22v3.028zm-4.496 0l2.091-3.028h1.73v3.028h-3.82zm-3.024 0h2.35l2.092-3.028H10.66c-.951.977-1.789 2.007-2.608 3.022l-.012.003.659.003z" fill="#243861"/><path d="M24.997 110.21a.368.368 0 0 0-.367.367v8.842c0 .201.165.366.367.366h4.14a.368.368 0 0 0 .367-.366v-8.842a.368.368 0 0 0-.367-.366h-4.14zm0-.258h4.14c.345 0 .627.281.627.625v8.842a.627.627 0 0 1-.627.625h-4.14a.627.627 0 0 1-.627-.625v-8.842c0-.344.282-.625.627-.625z" fill="#DCC1A2"/><path d="M28.689 114.726a.402.402 0 1 0-.402-.4c0 .22.18.4.402.4m104.761-4.516a.368.368 0 0 0-.368.367v8.842c0 .201.166.366.367.366h4.14a.368.368 0 0 0 .368-.366v-8.842a.368.368 0 0 0-.367-.366h-4.14zm0-.258h4.14c.345 0 .626.281.626.625v8.842a.627.627 0 0 1-.626.625h-4.14a.627.627 0 0 1-.627-.625v-8.842c0-.344.282-.625.626-.625z" fill="#DCC1A2"/><path d="M137.14 114.726a.402.402 0 1 0 0-.803.402.402 0 0 0 0 .803" fill="#DCC1A2"/><path d="M77.402 114.169c.464 0 .843.378.843.84v.662a.844.844 0 0 1-.843.841.844.844 0 0 1-.842-.84v-.663c0-.462.379-.84.842-.84zm38.74 0c.463 0 .842.378.842.84v.662a.844.844 0 0 1-.842.841.844.844 0 0 1-.843-.84v-.663c0-.462.379-.84.843-.84zm3.16 0c.464 0 .843.378.843.84v.662c0 .462-.38.841-.842.841a.844.844 0 0 1-.843-.84v-.663c0-.462.379-.84.843-.84zm3.161 0c.464 0 .843.378.843.84v.662c0 .462-.38.841-.843.841a.845.845 0 0 1-.842-.84v-.663c0-.462.379-.84.842-.84zm3.162 0c.463 0 .843.378.843.84v.662c0 .462-.38.841-.843.841a.845.845 0 0 1-.843-.84v-.663c0-.462.38-.84.843-.84zm-41.093 0c.464 0 .843.378.843.84v.662c0 .462-.38.841-.843.841a.845.845 0 0 1-.843-.84v-.663c0-.462.38-.84.843-.84zm3.161 0c.464 0 .843.378.843.84v.662c0 .462-.38.841-.843.841a.845.845 0 0 1-.843-.84v-.663c0-.462.38-.84.843-.84zm3.161 0c.464 0 .843.378.843.84v.662a.844.844 0 0 1-.843.841.844.844 0 0 1-.842-.84v-.663c0-.462.379-.84.842-.84zm3.161 0c.464 0 .843.378.843.84v.662a.844.844 0 0 1-.843.841.845.845 0 0 1-.843-.84v-.663c0-.462.38-.84.843-.84zm3.161 0c.464 0 .843.378.843.84v.662c0 .462-.38.841-.843.841a.844.844 0 0 1-.842-.84v-.663c0-.462.379-.84.842-.84zm3.161 0c.464 0 .843.378.843.84v.662c0 .462-.38.841-.843.841a.845.845 0 0 1-.843-.84v-.663c0-.462.38-.84.843-.84zm3.161 0c.464 0 .843.378.843.84v.662c0 .462-.38.841-.843.841a.844.844 0 0 1-.843-.84v-.663c0-.462.38-.84.843-.84zm3.161 0c.464 0 .843.378.843.84v.662a.844.844 0 0 1-.843.841.845.845 0 0 1-.843-.84v-.663c0-.462.38-.84.843-.84zm3.162 0c.463 0 .842.378.842.84v.662a.844.844 0 0 1-.842.841.844.844 0 0 1-.843-.84v-.663c0-.462.379-.84.843-.84zm3.16 0c.464 0 .843.378.843.84v.662a.844.844 0 0 1-.842.841.845.845 0 0 1-.843-.84v-.663c0-.462.38-.84.843-.84zm-31.61 0c.464 0 .843.378.843.84v.662a.844.844 0 0 1-.843.841.844.844 0 0 1-.843-.84v-.663c0-.462.38-.84.843-.84zm-41.334 0c.464 0 .843.378.843.84v.662a.844.844 0 0 1-.843.841.844.844 0 0 1-.843-.84v-.663c0-.462.38-.84.843-.84zm3.161 0c.464 0 .843.378.843.84v.662c0 .462-.38.841-.843.841a.845.845 0 0 1-.843-.84v-.663c0-.462.38-.84.843-.84zm3.161 0c.464 0 .843.378.843.84v.662c0 .462-.38.841-.843.841a.844.844 0 0 1-.843-.84v-.663c0-.462.38-.84.843-.84zm3.161 0c.464 0 .843.378.843.84v.662a.844.844 0 0 1-.843.841.844.844 0 0 1-.842-.84v-.663c0-.462.379-.84.842-.84zm3.161 0c.464 0 .843.378.843.84v.662a.844.844 0 0 1-.843.841.844.844 0 0 1-.842-.84v-.663c0-.462.379-.84.842-.84zm3.161 0c.464 0 .843.378.843.84v.662a.844.844 0 0 1-.843.841.844.844 0 0 1-.843-.84v-.663c0-.462.38-.84.843-.84zm3.16 0c.465 0 .844.378.844.84v.662a.844.844 0 0 1-.843.841.844.844 0 0 1-.843-.84v-.663c0-.462.38-.84.843-.84zm3.162 0c.464 0 .843.378.843.84v.662a.844.844 0 0 1-.843.841.844.844 0 0 1-.843-.84v-.663c0-.462.38-.84.843-.84zm3.161 0c.464 0 .843.378.843.84v.662c0 .462-.38.841-.843.841a.845.845 0 0 1-.843-.84v-.663c0-.462.38-.84.843-.84zm3.162 0c.463 0 .843.378.843.84v.662c0 .462-.38.841-.843.841a.844.844 0 0 1-.843-.84v-.663c0-.462.379-.84.843-.84zm-31.61 0c.463 0 .842.378.842.84v.662a.844.844 0 0 1-.843.841.844.844 0 0 1-.843-.84v-.663c0-.462.38-.84.843-.84zm35.609 0c.464 0 .843.378.843.84v.662a.844.844 0 0 1-.843.841.844.844 0 0 1-.843-.84v-.663c0-.462.38-.84.843-.84z" fill="#243861"/><path fill="#3566A1" d="M167.888 81.047h-6.07l-14.304 18.234-17.912 8.79H151.3l16.588-27.024m-15.446 39.305l-3.014-.674-1.039-1.087 25.66-7.542-21.607 9.303"/><path d="M48.96 134.107c-7.809-4.543-.515-12.427 11.297-12.654 10.175-.195 30.612 1.69 43.434 4.831 2.565.628 8.9 2.132 10.152 4.401.742 1.344.34 3.422-2.308 3.422H48.959" fill="#243861"/><path d="M52.036 134.107c-7.336-2.362-3.305-10.13 7.452-10.314 9.266-.16 27.878 1.377 39.555 3.938 2.336.512 8.104 1.737 9.245 3.587.676 1.095.311 2.79-2.102 2.79h-54.15" fill="#3566A1"/><path d="M71.177 112.908a.208.208 0 0 0-.207.206v5.798c0 .113.094.206.207.206h2.618a.208.208 0 0 0 .207-.206v-5.798a.208.208 0 0 0-.207-.206h-2.618zm0-.259h2.618c.256 0 .467.21.467.465v5.798c0 .256-.21.465-.467.465h-2.618a.467.467 0 0 1-.466-.465v-5.798c0-.256.21-.465.466-.465zm4.916.259a.208.208 0 0 0-.207.206v5.798c0 .113.094.206.207.206h2.618a.208.208 0 0 0 .207-.206v-5.798a.208.208 0 0 0-.207-.206h-2.618zm0-.259h2.618c.257 0 .467.21.467.465v5.798c0 .256-.21.465-.467.465h-2.618a.467.467 0 0 1-.466-.465v-5.798c0-.256.21-.465.466-.465z" fill="#DCC1A2"/><path fill="#3566A1" d="M54.441 126.65l44.824-13.215 11.085-13.542h3.925l-6.921 16.806-16.84 14.74H54.441v-4.788"/><path fill="#243861" d="M56.667 130.818l45.177-16.336 10.158-14.589h2.273l-6.921 16.806-16.84 14.74H56.667v-.62"/><path fill="#6690BE" d="M54.441 126.65l17.41 2.02v8.85l-17.41 2.02-2.818-2.02v-8.85l2.818-2.02"/><path fill="#23568E" d="M54.441 126.65l17.41 2.02v8.85l-17.41 2.02v-12.89m18.355 4.006l6.368.764v3.35l-6.368.764v-4.878"/><path fill="#6690BE" d="M71.832 136.202h1.348v-6.213h-1.348z"/><path d="M181.902 113.329L295.108 1.454m-113.206 116l113.206 111.875" stroke="#979797" fill-rule="nonzero"/></g></svg>