<svg width="2985" height="524" xmlns="http://www.w3.org/2000/svg"><path d="M2912.328 180.777c-9.866-57.167-60.86-45.817-66.297-.389-13.36-37.745-33.25-26.772-35.611 8.493-3.835-9.148-18.658-11.373-22.42 7.119h167c0-21.568-10.913-38.784-42.672-15.223zM51.198 71.087c6.301-37.134 32.386-23.768 33.232.222C98.596 54.821 116.134 72.688 114.942 85H0c6.55-31.71 41.343-38.296 51.198-13.913zm296.786-26.929c-4.903-27.617-37.048-31.657-40.872.698C303.02 34.794 282.662 29.886 281 55h97c-.001-15.36-18.367-26.157-30.016-10.842zM158 84h-33c1.877-15.63 26.402-18.956 33 0zm902.328-45.223c-9.866-57.167-60.86-45.817-66.297-.389-13.36-37.745-33.25-26.772-35.611 8.493C954.585 37.733 939.762 35.508 936 54h167c0-21.568-10.913-38.784-42.672-15.223zm108.87 32.31c6.301-37.134 32.386-23.768 33.232.222 14.166-16.488 31.704 1.379 30.512 13.691H1118c6.55-31.71 41.343-38.296 51.198-13.913zm297.786-26.929c-4.903-27.617-37.048-31.657-40.872.698-4.091-10.062-24.45-14.97-26.112 10.144h97c-.001-15.36-18.367-26.157-30.016-10.842zM1338 77h-22c1.251-10.821 17.601-13.124 22 0zM292.382 172.852c-6.617-38.112-40.817-30.546-44.463-.26-8.96-25.163-22.3-17.848-23.883 5.662-2.572-6.098-12.513-7.582-15.036 4.746h112c0-14.379-7.319-25.856-28.618-10.148zM365.28 194.6c4.22-25.09 21.685-16.06 22.251.15 9.486-11.141 21.228.93 20.43 9.25H331c4.386-21.425 27.682-25.875 34.28-9.4zm199.606-17.828c-3.285-18.412-24.826-21.104-27.388.465-2.742-6.708-16.384-9.98-17.498 6.763h65c0-10.24-12.308-17.438-20.114-7.228zM437 204h-22c1.251-10.821 17.601-13.124 22 0zm155.382 141.852c-6.617-38.112-40.817-30.546-44.463-.26-8.96-25.163-22.3-17.848-23.883 5.662-2.572-6.098-12.513-7.582-15.036 4.746h112c0-14.379-7.319-25.856-28.618-10.148zM665.28 367.6c4.22-25.09 21.685-16.06 22.251.15 9.486-11.141 21.228.93 20.43 9.25H631c4.386-21.425 27.682-25.875 34.28-9.4zm199.606-17.828c-3.285-18.412-24.826-21.104-27.388.465-2.742-6.708-16.384-9.98-17.498 6.763h65c0-10.24-12.308-17.438-20.114-7.228zM737 377h-22c1.251-10.821 17.601-13.124 22 0zm306.382-127.148c-6.617-38.112-40.817-30.546-44.463-.26-8.96-25.163-22.3-17.848-23.883 5.662-2.572-6.098-12.513-7.582-15.036 4.746h112c0-14.379-7.319-25.856-28.618-10.148zm401 264c-6.617-38.112-40.817-30.546-44.463-.26-8.96-25.163-22.3-17.848-23.883 5.662-2.572-6.098-12.513-7.582-15.036 4.746h112c0-14.379-7.319-25.856-28.618-10.148zM1116.28 367.6c4.22-25.09 21.685-16.06 22.251.15 9.486-11.141 21.228.93 20.43 9.25H1082c4.386-21.425 27.682-25.875 34.28-9.4zm199.606-17.828c-3.285-18.412-24.826-21.104-27.388.465-2.742-6.708-16.384-9.98-17.498 6.763h65c0-10.24-12.308-17.438-20.114-7.228zM1188 377h-22c1.251-10.821 17.601-13.124 22 0zM743.382 488.852c-6.617-38.112-40.817-30.546-44.463-.26-8.96-25.163-22.3-17.848-23.883 5.662-2.572-6.098-12.513-7.582-15.036 4.746h112c0-14.379-7.319-25.856-28.618-10.148zm-484 0c-6.617-38.112-40.817-30.546-44.463-.26-8.96-25.163-22.3-17.848-23.883 5.662-2.572-6.098-12.513-7.582-15.036 4.746h112c0-14.379-7.319-25.856-28.618-10.148zM816.28 510.6c4.22-25.09 21.685-16.06 22.251.15 9.486-11.141 21.228.93 20.43 9.25H782c4.386-21.425 27.682-25.875 34.28-9.4zm199.606-17.828c-3.285-18.412-24.826-21.104-27.388.465-2.742-6.708-16.384-9.98-17.498 6.763h65c0-10.24-12.308-17.438-20.114-7.228zM888 520h-22c1.251-10.821 17.601-13.124 22 0zM614.328 106.777c-9.866-57.167-60.86-45.817-66.297-.389-13.36-37.745-33.25-26.772-35.611 8.493-3.835-9.148-18.658-11.373-22.42 7.119h167c0-21.568-10.913-38.784-42.672-15.223zM966.28 178.6c4.22-25.09 21.685-16.06 22.251.15 9.486-11.141 21.228.93 20.43 9.25H932c4.386-21.425 27.682-25.875 34.28-9.4zm199.606-17.828c-3.285-18.412-24.826-21.104-27.388.465-2.742-6.708-16.384-9.98-17.498 6.763h65c0-10.24-12.308-17.438-20.114-7.228zM1038 188h-22c1.251-10.821 17.601-13.124 22 0zm831.28-120.4c4.22-25.09 21.685-16.06 22.251.15 9.486-11.141 21.228.93 20.43 9.25H1835c4.386-21.425 27.682-25.875 34.28-9.4zm495.704-23.442c-4.903-27.617-37.048-31.657-40.872.698-4.091-10.062-24.45-14.97-26.112 10.144h97c-.001-15.36-18.367-26.157-30.016-10.842zM1941 77h-22c1.251-10.821 17.601-13.124 22 0zm606.382-31.148c-6.617-38.112-40.817-30.546-44.463-.26-8.96-25.163-22.3-17.848-23.883 5.662-2.572-6.098-12.513-7.582-15.036 4.746h112c0-14.379-7.319-25.856-28.618-10.148zm110.816 71.235c6.301-37.134 32.386-23.768 33.232.222 14.166-16.488 31.704 1.379 30.512 13.691H2607c6.55-31.71 41.343-38.296 51.198-13.913zm296.786-26.929c-4.903-27.617-37.048-31.657-40.872.698-4.091-10.062-24.45-14.97-26.112 10.144h97c-.001-15.36-18.367-26.157-30.016-10.842zM2764 122h-22c1.251-10.821 17.601-13.124 22 0zm-1117.618 50.852c-6.617-38.112-40.817-30.546-44.463-.26-8.96-25.163-22.3-17.848-23.883 5.662-2.572-6.098-12.513-7.582-15.036 4.746h112c0-14.379-7.319-25.856-28.618-10.148zm72.898 21.748c4.22-25.09 21.685-16.06 22.251.15 9.486-11.141 21.228.93 20.43 9.25H1685c4.386-21.425 27.682-25.875 34.28-9.4zm199.606-17.828c-3.285-18.412-24.826-21.104-27.388.465-2.742-6.708-16.384-9.98-17.498 6.763h65c0-10.24-12.308-17.438-20.114-7.228zM1791 204h-22c1.251-10.821 17.601-13.124 22 0zm155.382 141.852c-6.617-38.112-40.817-30.546-44.463-.26-8.96-25.163-22.3-17.848-23.883 5.662-2.572-6.098-12.513-7.582-15.036 4.746h112c0-14.379-7.319-25.856-28.618-10.148zm72.898 21.748c4.22-25.09 21.685-16.06 22.251.15 9.486-11.141 21.228.93 20.43 9.25H1985c4.386-21.425 27.682-25.875 34.28-9.4zm199.606-17.828c-3.285-18.412-24.826-21.104-27.388.465-2.742-6.708-16.384-9.98-17.498 6.763h65c0-10.24-12.308-17.438-20.114-7.228zM2091 377h-22c1.251-10.821 17.601-13.124 22 0zm306.382-92.148c-6.617-38.112-40.817-30.546-44.463-.26-8.96-25.163-22.3-17.848-23.883 5.662-2.572-6.098-12.513-7.582-15.036 4.746h112c0-14.379-7.319-25.856-28.618-10.148zm401 119c-6.617-38.112-40.817-30.546-44.463-.26-8.96-25.163-22.3-17.848-23.883 5.662-2.572-6.098-12.513-7.582-15.036 4.746h112c0-14.379-7.319-25.856-28.618-10.148zM2470.28 367.6c4.22-25.09 21.685-16.06 22.251.15 9.486-11.141 21.228.93 20.43 9.25H2436c4.386-21.425 27.682-25.875 34.28-9.4zm199.606-17.828c-3.285-18.412-24.826-21.104-27.388.465-2.742-6.708-16.384-9.98-17.498 6.763h65c0-10.24-12.308-17.438-20.114-7.228zM2542 377h-22c1.251-10.821 17.601-13.124 22 0zm-444.618 111.852c-6.617-38.112-40.817-30.546-44.463-.26-8.96-25.163-22.3-17.848-23.883 5.662-2.572-6.098-12.513-7.582-15.036 4.746h112c0-14.379-7.319-25.856-28.618-10.148zm-484 0c-6.617-38.112-40.817-30.546-44.463-.26-8.96-25.163-22.3-17.848-23.883 5.662-2.572-6.098-12.513-7.582-15.036 4.746h112c0-14.379-7.319-25.856-28.618-10.148zM2170.28 430.6c4.22-25.09 21.685-16.06 22.251.15 9.486-11.141 21.228.93 20.43 9.25H2136c4.386-21.425 27.682-25.875 34.28-9.4zm199.606 62.172c-3.285-18.412-24.826-21.104-27.388.465-2.742-6.708-16.384-9.98-17.498 6.763h65c0-10.24-12.308-17.438-20.114-7.228zm-122.504-335.92c-6.617-38.112-40.817-30.546-44.463-.26-8.96-25.163-22.3-17.848-23.883 5.662-2.572-6.098-12.513-7.582-15.036 4.746h112c0-14.379-7.319-25.856-28.618-10.148zm72.898 21.748c4.22-25.09 21.685-16.06 22.251.15 9.486-11.141 21.228.93 20.43 9.25H2286c4.386-21.425 27.682-25.875 34.28-9.4zm199.606-17.828c-3.285-18.412-24.826-21.104-27.388.465-2.742-6.708-16.384-9.98-17.498 6.763h65c0-10.24-12.308-17.438-20.114-7.228zM2392 188h-22c1.251-10.821 17.601-13.124 22 0z" fill="#FFF" fill-rule="evenodd" opacity=".9"/></svg>