<svg width="2435" height="281" xmlns="http://www.w3.org/2000/svg" xmlns:xlink="http://www.w3.org/1999/xlink"><defs><path id="a" d="M1980.023 280.466V155.268h-.57v-1.15h-.573v-1.15h1.143v-5.367l-1.814 1.823-1.62-1.626 3.434-3.45v-11.354h3.817v4.067l12.57-12.627v-11.723h-.573v-1.15h.573v-1.15h6.871v1.15h.57v1.15h-.57v4.821l3.46-3.475 22.897 23.006v-4.069h3.817v11.354l3.435 3.45-.763.766-.858.86-1.814-1.823v5.368h1.144v1.148h-.573v1.151h-.57l-.002 29.117 5.73 6.096v89.985h-68.319 4.58z"/><path id="b" d="M948.679 280.466V155.268h-.571v-1.15h-.573v-1.15h1.144v-5.367l-1.814 1.823-1.62-1.626 3.434-3.45v-11.354h3.817v4.067l12.57-12.627v-11.723h-.573v-1.15h.573v-1.15h6.87v1.15h.572v1.15h-.571v4.821l3.46-3.475 22.897 23.006v-4.069h3.817v11.354l3.434 3.45-.762.766-.858.86-1.814-1.823v5.368h1.144v1.148h-.573v1.151h-.571v29.117l5.729 6.096-.001 89.985H939.52h4.58z"/></defs><g fill="none" fill-rule="evenodd"><path fill="#939494" d="M226.367 280.273H0L1.316 178.37l10.484 9.571 33.306-19.299 6.467-2.191 11.934 5.68L84.05 136.25l9.637 10.39 5.816-2.638L112.091 118l39.364 56.53 28.063-8.08z"/><path fill="#A6D7F0" fill-rule="nonzero" d="M949.966 191.425v-64.667h-30.143V16.594h-21.957L887.302.232h-50.266v16.362h-34.848V80.77H758.73V16.594h-47.614v52.719h-35.814l-21.746-38.576H624.63l-28.174 38.576h-58.549L507.66 94.47v21.962h-59.695v164.034h502z"/><path d="M426.95 280.466V126.05h51.089v17.314h11.777v-7.955h12.757v21.525h12.756v-8.89h16.682v42.718l4.89 7.021 10.345 8.749 6.754 7.03v66.905H426.95zm-56.246 0V136.344h43.056v24.694h13.19v119.428h-56.246zm-192.704 0V241.36l8.855-8.697v-8.971l11.22-7.184v-9.493l7.152-8.036v-51.404h17.665V121.37h18.154v10.762h15.702v20.122h10.304V98.44h20.117v20.59h11.285v-15.91l19.136 18.25v23.865h11.777v-15.442h21.098v-12.167h20.24v162.84H178z" fill="#4C7896"/><path fill="#939494" d="M2255 280.268l92.427-127.796 8.152 16.165 3.837-2.192 7.083 5.681L2390.733 137l18.57 27.504 10.259-15.083 14.963 30.496v100.35z"/><path d="M2142.991 185.197v54.01h-82.631v-27.603h-.806v-1.15h-.807v-1.15h1.613V184h-.806v-1.15h-.807v-1.15h1.613v-12.072l20.465-26.838h2.453l2.63 3.45h.251v-4.797h-.806v-1.15h.806v-1.15h7.715v1.15h.807v1.15h-.807v4.797h23.57l2.63-3.45h2.453l20.464 26.837v12.072h.75v1.15h-.343V184h-.407v1.198m118.504 26.896v68.372h87.774-12.845v-68.862h.803v-1.152h.803v-1.15h-1.606v-25.303h.803v-1.151h.803v-1.149h-1.606v-5.367l2.547 1.822 2.27-1.625-4.817-3.45v-11.354h-5.35v4.069l3.898 2.792 1.452 1.042-22.98-16.464v-11.722h.802v-1.15h-.803v-1.15h-9.632v1.15h-.804v1.15h.804v4.821l1.206.864-6.057-4.34-32.112 23.005v-4.067h-5.353v19.974h-1.606v1.149h.803v1.15h.803v25.304h-1.603v1.15h.803v1.152h.8v.49zm-4.816-35.565l2.269 1.625 2.547-1.825v5.37-8.622l-4.816 3.452z" fill="#5E908D"/><path fill="#5E908D" d="M2335.07 280.466h42.277V229.56l-26.65-41.934h-15.627zm-385.058 0h30.147v-92.84h-30.147zm246.9 0h-82.632V169.705h-.806v-1.15h-.806v-1.15h1.612V142.1h-.806v-1.15h-.806v-1.15h1.612v-12.072l20.466-26.838h2.453l2.63 3.45.25-4.797h-.805v-1.15h.806v-1.15h7.715v1.15h.807v1.15h-.807v4.798h23.569l2.631-3.451h2.453l20.464 26.837V139.8h.749v1.15h-.342v1.15h-.407v138.366z"/><use fill="#92BAB8" xlink:href="#a"/><use fill-opacity=".623" fill="#235183" xlink:href="#a"/><path d="M2028.642 280.466h63.804V169.705h.622v-1.15h.623v-1.15h-1.245V142.1h.622v-1.15h.623v-1.15h-1.245v-12.072l-15.803-26.838h-1.894l-2.03 3.45-.195-4.797h.623v-1.15h-.623v-1.15h-5.957v1.15h-.623v1.15h.623v4.798h-18.198l-2.032-3.451h-1.894l-15.801 26.837V139.8h-.58v1.15h.265v1.15h.315v138.366zm159.744-74.058v74.058h106.93v-85.358l-32.002-16.796h.803v-1.15h.803v-1.15h-1.606v-5.367l2.547 1.823 2.27-1.626-4.817-3.45v-11.354h-5.35v4.07l3.898 2.792 1.452 1.042-22.98-16.464v-11.722h.803v-1.15h-.803v-1.15h-9.633v1.15h-.804v1.15h.804v4.82l1.206.865-6.057-4.34-32.112 23.004v-4.067h-5.353v19.975h-1.606v1.149h.803v1.15h.804v25.303h-1.604v1.151h.803v1.151h.8v.491zm-4.817-35.566l2.27 1.626 2.546-1.825v5.37-8.623l-4.816 3.452z" fill="#5E908D"/><path fill="#77ACC5" d="M2116.21 280.466v-74.29h.57v-1.151h.573v-1.15h-1.144v-2.993l9.083 6.389v2.26l.075-2.299-9.158-6.443v-19.918h.571v-1.15h.573v-1.15h-1.144v-23.003h.571v-1.151h.573v-1.149h-1.144V147.9l1.815 1.823 1.62-1.625-3.435-3.45v-11.354h-3.817v4.067l-12.57-12.627V113.01h.573v-1.151h-.573v-1.149h-6.87v1.149h-.571v1.15h.57v4.821l-3.459-3.474-22.898 23.005v-4.068h-3.817v11.353l-3.434 3.45.763.766.857.86 1.814-1.823v5.368h-1.143v1.149h.573v1.15h.57v23.004h-1.143v1.15h.573v1.15h.57v23.003h-1.143v1.15h.573v1.152h.572v74.29h62.588-4.58z"/><path fill="#939494" fill-rule="nonzero" d="M2076.24 172.205h5.582V190.6h-5.582zm10.669 0h5.582V190.6h-5.582zm10.332 0h5.582V190.6h-5.582z"/><path fill="#214261" fill-rule="nonzero" d="M2077.611 174.853h4.21v14.626h-4.21zm10.53 0h4.35v14.626h-4.35zm10.332 0h4.35v14.626h-4.35z"/><path fill="#2491BF" fill-rule="nonzero" d="M2099.451 179.223h3.371v10.257h-3.371zm-10.332 0h3.371v10.257h-3.371zm-10.67 0h3.373v10.257h-3.373z"/><path d="M2081.821 151.714v14.132h-5.581v-14.132a2.798 2.798 0 0 1 2.79-2.804c.687 0 1.312.247 1.798.662.608.51.993 1.284.993 2.142z" fill="#939494" fill-rule="nonzero"/><path d="M2081.821 151.714v13.013h-4.208v-12.632c0-1.503 1.044-2.72 2.339-2.72.312 0 .608.068.876.197.608.51.993 1.284.993 2.142z" fill="#214261" fill-rule="nonzero"/><path fill="#2491BF" fill-rule="nonzero" d="M2078.45 157.632h3.371v7.095h-3.371zm3.371-1.186v-4.524a.442.442 0 0 0-.072-.073 1.925 1.925 0 0 0-1.295-.5c-1.105 0-2.004.948-2.004 2.115v2.983h3.371z"/><path d="M2092.49 151.714v14.132h-5.581v-14.132a2.798 2.798 0 0 1 2.79-2.804c.687 0 1.312.247 1.798.662.608.51.994 1.284.994 2.142z" fill="#939494" fill-rule="nonzero"/><path d="M2092.49 151.714v13.013h-4.208v-12.632c0-1.503 1.044-2.72 2.339-2.72.312 0 .608.068.876.197.608.51.994 1.284.994 2.142z" fill="#214261" fill-rule="nonzero"/><path fill="#2491BF" fill-rule="nonzero" d="M2089.119 157.632h3.371v7.095h-3.371zm3.371-1.186v-4.524a.443.443 0 0 0-.072-.073 1.925 1.925 0 0 0-1.295-.5c-1.105 0-2.004.948-2.004 2.115v2.983h3.372z"/><path d="M2102.823 151.714v14.132h-5.582v-14.132a2.798 2.798 0 0 1 2.79-2.804c.687 0 1.312.247 1.798.662a2.79 2.79 0 0 1 .994 2.142z" fill="#939494" fill-rule="nonzero"/><path d="M2102.823 151.714v13.013h-4.209v-12.632c0-1.503 1.044-2.72 2.339-2.72.312 0 .608.068.876.197a2.79 2.79 0 0 1 .994 2.142z" fill="#215261" fill-rule="nonzero"/><path fill="#939494" d="M1245.776 280.466h-36.304l70.1-181.418L1315 125.826l19.969 27.451 11.609 1.648 17.009-18.482 47.235 37.376 35.71-21.148 25.267 16.164 11.895-2.191 21.953 5.68 37.79-35.881 17.73 10.39 10.698-2.638 23.156-26.002 72.413 56.53 42.926-18.476 8.09-6.628 3.676 1.394 54.091 1.658 118.311 27.445v100.35z"/><path fill="#28CDD1" fill-rule="nonzero" d="M2099.451 157.632h3.371v7.095h-3.371zm3.372-1.186v-4.524a.452.452 0 0 0-.073-.073 1.925 1.925 0 0 0-1.295-.5c-1.105 0-2.004.948-2.004 2.115v2.983h3.372z"/><path d="M1165.567 280.466h-82.631V169.705h-.806v-1.15h-.807v-1.15h1.613V142.1h-.806v-1.15h-.807v-1.15h1.613v-12.072l20.465-26.838h2.454l2.63 3.45.25-4.797h-.806v-1.15h.806v-1.15h7.716v1.15h.807v1.15h-.807v4.798h23.568l2.632-3.451h2.453l20.463 26.837V139.8h.75v1.15h-.342v1.15h-.408v138.366z" fill="#5E908D"/><use fill="#92BAB8" xlink:href="#b"/><use fill-opacity=".623" fill="#235183" xlink:href="#b"/><path d="M997.297 280.466h63.805V169.705h.622v-1.15h.623v-1.15h-1.245V142.1h.622v-1.15h.623v-1.15h-1.245v-12.072l-15.803-26.838h-1.894l-2.031 3.45-.194-4.797h.622v-1.15h-.622v-1.15h-5.957v1.15h-.623v1.15h.623v4.798h-18.199l-2.031-3.451h-1.895l-15.8 26.837V139.8h-.58v1.15h.265v1.15h.314v138.366zm893.713 0h63.804v-68.862h.622v-1.15h.623v-1.15h-1.245V184h.622v-1.15h.623v-1.15h-1.245v-12.072l-15.802-26.838h-1.895l-2.03 3.45-.194-4.797h.622v-1.15h-.622v-1.15h-5.957v1.15h-.624v1.15h.624v4.797h-18.2l-2.03-3.45h-1.895l-15.801 26.837v12.072h-.579v1.15h.264V184h.315v96.468zm-940.48-74.058v74.058h-76.25v-85.358l22.82-16.796h-.573v-1.15h-.572v-1.15h1.145v-5.367l-1.816 1.823-1.619-1.626 3.435-3.45v-11.354h3.815v4.07l-2.78 2.792-1.035 1.042 16.387-16.464v-11.722h-.573v-1.15h.573v-1.15h6.869v1.15h.573v1.15h-.573v4.82l-.86.865 4.319-4.34 22.898 23.004v-4.067h3.817v19.975h1.146v1.149h-.573v1.15h-.573v25.303h1.144v1.151h-.573v1.151h-.57l-.001.491zm3.435-35.566l-1.618 1.626-1.817-1.825v5.37-8.623l3.435 3.452z" fill="#5E908D"/><path d="M848.435 241.952v38.514h76.25v-49.814l-22.82-16.796h.573v-1.15h.572v-1.15h-1.145v-5.367l1.816 1.823 1.618-1.626-3.434-3.45v-11.354h-3.815v4.07l2.78 2.792 1.035 1.042-16.387-16.464V171.3h.573v-1.151h-.573V169h-6.869v1.149h-.573v1.15h.573v4.822l.86.864-4.319-4.34-22.898 23.004v-4.067h-3.817v19.975h-1.146v1.149h.573v1.15h.573v25.303h-1.144v1.151h.573v1.151h.57v.49zM845 206.386l1.618 1.626 1.817-1.825v5.37-8.623L845 206.386zm310.66.022v74.058h76.25v-85.358l-22.82-16.796h.572v-1.15h.573v-1.15h-1.146v-5.367l1.817 1.823 1.618-1.626-3.435-3.45v-11.354h-3.815v4.07l2.78 2.792 1.035 1.042-16.386-16.464v-11.722h.572v-1.15h-.572v-1.15h-6.87v1.15h-.572v1.15h.573v4.82l.86.865-4.32-4.34-22.898 23.004v-4.067h-3.817v19.975h-1.145v1.149h.573v1.15h.572v25.303h-1.143v1.151h.573v1.151h.57v.491zm-3.435-35.566l1.618 1.626 1.816-1.825v5.37-8.623l-3.434 3.452z" fill="#5E908D"/><path fill="#77ACC5" d="M1084.865 280.466v-74.29h.57v-1.151h.573v-1.15h-1.143v-2.993l9.082 6.389v2.26l.076-2.299-9.158-6.443v-19.918h.57v-1.15h.573v-1.15h-1.143v-23.003h.57v-1.151h.573v-1.149h-1.143V147.9l1.814 1.823 1.62-1.625-3.434-3.45v-11.354h-3.817v4.067l-12.57-12.627V113.01h.573v-1.151h-.573v-1.149h-6.87v1.149h-.572v1.15h.571v4.821l-3.46-3.474-22.897 23.005v-4.068h-3.817v11.353l-3.434 3.45.762.766.858.86 1.814-1.823v5.368h-1.144v1.149h.573v1.15h.571v23.004h-1.144v1.15h.573v1.15h.571v23.003h-1.144v1.15h.573v1.152h.573v74.29h62.588-4.58z"/><path fill="#939494" fill-rule="nonzero" d="M1044.895 172.205h5.582V190.6h-5.582zm10.669 0h5.582V190.6h-5.582zm10.333 0h5.582V190.6h-5.582z"/><path fill="#214261" fill-rule="nonzero" d="M1046.267 174.853h4.21v14.626h-4.21zm10.53 0h4.35v14.626h-4.35zm10.332 0h4.35v14.626h-4.35z"/><path fill="#2491BF" fill-rule="nonzero" d="M1068.107 179.223h3.371v10.257h-3.371zm-10.332 0h3.371v10.257h-3.371zm-10.671 0h3.373v10.257h-3.373z"/><path d="M1050.477 151.714v14.132h-5.582v-14.132a2.798 2.798 0 0 1 2.791-2.804c.687 0 1.312.247 1.797.662a2.79 2.79 0 0 1 .994 2.142z" fill="#939494" fill-rule="nonzero"/><path d="M1050.477 151.714v13.013h-4.209v-12.632c0-1.503 1.044-2.72 2.34-2.72.312 0 .608.068.876.197.608.51.993 1.284.993 2.142z" fill="#214261" fill-rule="nonzero"/><path fill="#2491BF" fill-rule="nonzero" d="M1047.106 157.632h3.371v7.095h-3.371zm3.371-1.186v-4.524a.442.442 0 0 0-.073-.073 1.925 1.925 0 0 0-1.295-.5c-1.105 0-2.004.948-2.004 2.115v2.983h3.372z"/><path d="M1061.146 151.714v14.132h-5.582v-14.132a2.798 2.798 0 0 1 2.791-2.804c.687 0 1.312.247 1.797.662.61.51.994 1.284.994 2.142z" fill="#939494" fill-rule="nonzero"/><path d="M1061.146 151.714v13.013h-4.208v-12.632c0-1.503 1.043-2.72 2.338-2.72.313 0 .609.068.877.197.608.51.993 1.284.993 2.142z" fill="#214261" fill-rule="nonzero"/><path fill="#2491BF" fill-rule="nonzero" d="M1057.775 157.632h3.371v7.095h-3.371zm3.371-1.186v-4.524a.442.442 0 0 0-.072-.073 1.925 1.925 0 0 0-1.295-.5c-1.106 0-2.004.948-2.004 2.115v2.983h3.371z"/><path d="M1071.479 151.714v14.132h-5.582v-14.132a2.798 2.798 0 0 1 2.79-2.804c.687 0 1.312.247 1.798.662.608.51.994 1.284.994 2.142z" fill="#939494" fill-rule="nonzero"/><path d="M1071.479 151.714v13.013h-4.21v-12.632c0-1.503 1.045-2.72 2.34-2.72.312 0 .608.068.876.197.608.51.994 1.284.994 2.142z" fill="#215261" fill-rule="nonzero"/><path fill="#28CDD1" fill-rule="nonzero" d="M1068.107 157.632h3.371v7.095h-3.371zm3.372-1.186v-4.524a.452.452 0 0 0-.073-.073 1.925 1.925 0 0 0-1.295-.5c-1.105 0-2.004.948-2.004 2.115v2.983h3.372z"/><path d="M1775.005 280.365l-80.618-129.967c-.561-1.5-1.454-2.585-3.04-3.428l-7.92-4.214c-1.75-.93-2.824-2.414-3.287-4.534l-9.313-42.655c-.712-3.263-1.95-5.24-4.34-6.822l-5.685-3.765c-1.743-1.154-2.943-.714-3.471 1.424l-12.04 48.895h-4.482l-5.687-8.276c-.572-.831-1.658-1.221-2.6-1.002l-2.59.6c-1.444.335-2.302 1.04-2.658 2.191l-8.106 26.199c-.532 1.801-2.401 2.958-4.687 2.513l-9.466-1.844c-.962-.187-1.791.196-2.173.89l-5.709 10.371c-.143.26-.373.345-.735.254l-.673-.167a1.44 1.44 0 0 1-.973-.776l-1.003-2.03c-.258-.523-.577-.814-1.226-1.038l-1.859-.64c-.729-.251-1.274.023-1.465.702l-39.642 117.119h225.448z" fill="#888081"/><path d="M1741.835 250.426l-47.297-100.871c-.558-1.158-1.445-1.995-3.014-2.648.701 1.133.364 2.54-1.781 3.442l-4.966 2.358c-.646.306-.724.77-.594 1.232l.655 2.326c.203.72-.184 1.246-.935 1.54l-27.087 10.6-7.985 82.02h93.004z" fill="#676061"/><path fill="#8ACCD0" d="M1637.808 238.593h4.482V138.527h-4.482z"/><path d="M1637.808 138.593h4.482a3.052 3.052 0 0 1 3.044-3.059h-4.482a3.052 3.052 0 0 0-3.044 3.06" fill="#CCFDFF"/><path fill="#5E908D" fill-rule="nonzero" d="M1219.374 280.466V193.33l20.735-25.66 20.308 25.66v87.137z"/><path fill="#8ACCD0" d="M1611.89 238.593h11.5v-77.529h-11.5z"/><path d="M1611.89 170.616h11.5a3.052 3.052 0 0 1 3.044-3.059h-11.5a3.052 3.052 0 0 0-3.043 3.06" fill="#CCFDFF"/><path d="M1671.163 136.097l12.488 6.645c-1.75-.93-2.823-2.415-3.286-4.534l-9.313-42.656c-.712-3.263-1.95-5.24-4.34-6.822l-2.986-1.978c1.215.805 2.174 2.396 2.302 3.941l3.552 42.995c.077.928.701 1.94 1.583 2.41m-25.843-.564a3.052 3.052 0 0 0-3.043 3.06v100.19h.698l1.179-100.19c.056-1.37.354-3.06 1.167-3.06zm-16.23 32.023c-3.082 0-5.581 1.097-5.581 2.449v68.778h2.012l1.43-68.778c.103-1.096.65-2.449 2.14-2.449zm11.94-32.261l-5.686-8.276c-.572-.831-1.658-1.221-2.6-1.002l-1.787.414c.771-.179 1.78.288 2.134 1.074l4.896 10.849a3.052 3.052 0 0 1 3.044-3.06m-35.694 20.59l7.181 1.39c.99.192 2.05 1.433 2.111 2.729l.35 7.462a3.052 3.052 0 0 0-3.044 3.06l-3.573-11.807c-.45-1.488-1.478-2.533-3.025-2.834" fill="#676061"/><path d="M1607.849 184.932c.564 0 1.022.46 1.022 1.027s-.458 1.027-1.022 1.027c-.565 0-1.023-.46-1.023-1.027s.458-1.027 1.023-1.027M1636.022 165c.565 0 1.023.46 1.023 1.027 0 .568-.458 1.027-1.023 1.027-.564 0-1.022-.46-1.022-1.027s.458-1.027 1.022-1.027m-20 27c.565 0 1.023.46 1.023 1.027 0 .568-.458 1.027-1.023 1.027-.564 0-1.022-.46-1.022-1.027s.458-1.027 1.022-1.027m-6 8c.565 0 1.023.46 1.023 1.027 0 .568-.458 1.027-1.023 1.027-.564 0-1.022-.46-1.022-1.027s.458-1.027 1.022-1.027m29-25c.565 0 1.023.46 1.023 1.027 0 .568-.458 1.027-1.023 1.027-.564 0-1.022-.46-1.022-1.027s.458-1.027 1.022-1.027m0-8c.565 0 1.023.46 1.023 1.027 0 .568-.458 1.027-1.023 1.027-.564 0-1.022-.46-1.022-1.027s.458-1.027 1.022-1.027m-20 28c.565 0 1.023.46 1.023 1.027 0 .568-.458 1.027-1.023 1.027-.564 0-1.022-.46-1.022-1.027s.458-1.027 1.022-1.027m-6 8c.565 0 1.023.46 1.023 1.027 0 .568-.458 1.027-1.023 1.027-.564 0-1.022-.46-1.022-1.027s.458-1.027 1.022-1.027m29-25c.565 0 1.023.46 1.023 1.027 0 .568-.458 1.027-1.023 1.027-.564 0-1.022-.46-1.022-1.027s.458-1.027 1.022-1.027m-3-18c.565 0 1.023.46 1.023 1.027 0 .568-.458 1.027-1.023 1.027-.564 0-1.022-.46-1.022-1.027s.458-1.027 1.022-1.027m-20 28c.565 0 1.023.46 1.023 1.027 0 .568-.458 1.027-1.023 1.027-.564 0-1.022-.46-1.022-1.027s.458-1.027 1.022-1.027m-6 8c.565 0 1.023.46 1.023 1.027 0 .568-.458 1.027-1.023 1.027-.564 0-1.022-.46-1.022-1.027s.458-1.027 1.022-1.027m29-25c.565 0 1.023.46 1.023 1.027 0 .568-.458 1.027-1.023 1.027-.564 0-1.022-.46-1.022-1.027s.458-1.027 1.022-1.027m-29.894 14a3.135 3.135 0 0 1 3.128 3.142c0 1.736-1.4 3.143-3.128 3.143a3.135 3.135 0 0 1-3.128-3.143c0-1.736 1.4-3.142 3.128-3.142" fill="#CCFDFF"/><path d="M1622.128 191a3.135 3.135 0 0 1 3.128 3.142c0 1.736-1.4 3.143-3.128 3.143a3.135 3.135 0 0 1-3.128-3.143c0-1.736 1.4-3.142 3.128-3.142m-6.662-20.45h1.683v14.458a.844.844 0 0 1-.842.846.844.844 0 0 1-.841-.846V170.55" fill="#CCFDFF"/><path d="M1615.466 170.616h1.683a3.052 3.052 0 0 1 3.044-3.059h-1.684a3.052 3.052 0 0 0-3.043 3.06" fill="#FFF"/><path d="M1613.38 170.55h1.28v11.289a.64.64 0 0 1-.64.642.641.641 0 0 1-.64-.642v-11.29" fill="#CCFDFF"/><path d="M1613.38 170.616h1.28a3.052 3.052 0 0 1 3.043-3.059h-1.28a3.052 3.052 0 0 0-3.043 3.06" fill="#FFF"/><path d="M1369.781 280.709h155.109l-16.777-104.305c-.47-.785-1.135-1.297-2.078-1.567l-3.223-.923c-1.112-.319-2.113-.297-3.125.083l-8.76 3.283c-.74.277-1.47.472-2.205.59l-1.421.229c-.938.15-1.586-.107-1.986-.727l-5.564-8.61c-.311-.481-.915-.84-1.605-.87l-1.884-.082c-.672-.029-1.362.163-1.896.608l-.976.814c-.558.466-1.23.294-1.507-.273l-17.25-35.255c-.525-1.071-2.15-1.76-3.34-1.3l-4.6 1.78c-1.135.438-2.04 1.298-2.362 2.482l-3.685 13.573c-.303 1.118-1.287 2.104-2.628 2.357l-3.777.7c-1.264.235-1.888.066-2.67-.795l-1.617-1.778c-.615-.677-1.013-.78-1.881-.607l-2.557.509c-.896.179-1.756.784-2.141 1.7l-13.463 31.96-40.13 96.424z" fill="#676061"/><path d="M1447.773 148.828V136.02c0-1.48.642-2.595 2.112-3.163l-3.296 1.275c-1.134.438-2.04 1.298-2.361 2.482l-3.685 13.573c-.303 1.118-1.287 2.104-2.628 2.357l7.985-1.481c1.175-.218 1.873-1.032 1.873-2.236" fill="#888081"/><path d="M2435 280.466H47h2388z" fill="#FFF" fill-rule="nonzero"/></g></svg>