<?xml version="1.0" encoding="UTF-8"?>
<svg width="272px" height="211px" viewBox="0 0 272 211" version="1.1" xmlns="http://www.w3.org/2000/svg" xmlns:xlink="http://www.w3.org/1999/xlink">
    <!-- Generator: sketchtool 53.2 (72643) - https://sketchapp.com -->
    <title>82BF7814-E3DE-4EF8-9D89-614FFABD737F</title>
    <desc>Created with sketchtool.</desc>
    <g id="Large-Devices:-Desktops-(≥1200px)" stroke="none" stroke-width="1" fill="none" fill-rule="evenodd">
        <g id="B2C_ADV_specification_1200" transform="translate(-172.000000, -317.000000)">
            <g id="Group-24" transform="translate(30.000000, 135.000000)">
                <g transform="translate(-774.000000, 38.000000)" id="Group-12">
                    <g transform="translate(916.596774, 144.338710)">
                        <g id="Plane">
                            <g id="o_011-01" transform="translate(0.000000, 73.548387)">
                                <path d="M22.9703481,24.8857916 L152.749752,24.88827 L167.18734,30.4689022 L167.18734,35.5782167 L143.168806,42.2881937 C135.704836,44.372979 121.334868,48.8242664 113.552709,48.8242664 L33.9476774,48.8242664 C28.9396157,48.8242664 16.5659035,48.9969314 8.80739048,46.3305376 C-1.01790208,42.9540692 -3.86916182,35.0936807 7.4035402,32.6424985 C10.4369188,28.8847627 13.7536396,24.8857916 22.9703481,24.8857916" id="Fill-9" fill="#C8CACF"></path>
                                <polyline id="Fill-10" fill="#243861" points="164.262237 0.0435104802 148.768442 0.0435104802 135.617302 16.8064737 119.150271 24.8874439 152.749752 24.887857 164.262237 0.0435104802"></polyline>
                                <path d="M1.42514588,41.6437979 L145.474953,41.6437979 L143.168806,42.2881937 C135.704836,44.372979 121.334868,48.8242664 113.552709,48.8242664 L33.9476774,48.8242664 C28.9396157,48.8242664 16.5659035,48.9969314 8.80739048,46.3305376 C5.4197305,45.1660815 2.86135441,43.4687597 1.42514588,41.6437979" id="Fill-11" fill="#243861"></path>
                                <polyline id="Fill-12" fill="#3566A1" points="164.940516 36.2056764 164.940516 29.6064033 167.18734 30.4689022 167.18734 35.5782167 164.940516 36.2056764"></polyline>
                                <polyline id="Fill-13" fill="#243861" points="136.422525 34.5591627 160.012935 27.6257126 166.077203 27.6252995 151.641689 36.1780004 140.148702 36.1780004 137.377093 35.5592153 136.422525 34.5591627"></polyline>
                                <path d="M152.653092,24.887857 L133.882817,30.6415672 C127.080117,32.7267656 113.983737,37.1776399 106.891472,37.1776399 L34.3409546,37.1776399 C29.7771966,37.1776399 18.4999312,37.3503049 11.4288237,34.6839111 C9.89927403,34.1072596 8.55557691,33.3996635 7.42926086,32.6102787 C10.4560019,28.8620436 13.7801899,24.8857916 22.9703481,24.8857916 L152.653092,24.887857" id="Fill-14" fill="#FFFFFF"></path>
                                <path d="M14.9110693,32.6482816 L16.5360343,32.6482816 L16.5360343,30.4916213 L15.9079524,29.8645747 L14.9110693,29.8645747 L14.9110693,32.6482816 Z M10.7787547,32.6482816 L12.7011667,29.8645747 L14.2912844,29.8645747 L14.2912844,32.6482816 L10.7787547,32.6482816 Z M7.99801935,32.6482816 L10.1589697,32.6482816 L12.0817966,29.8645747 L9.80095473,29.8645747 C8.9268671,30.7621849 8.15649182,31.709777 7.4035402,32.6424985 L7.39233927,32.644977 L7.99801935,32.6482816 L7.99801935,32.6482816 Z" id="Fill-15" fill="#243861"></path>
                                <path d="M22.9811342,26.8549162 C22.7952817,26.8549162 22.6438616,27.0065144 22.6438616,27.1919847 L22.6438616,35.3208715 C22.6438616,35.5059287 22.7952817,35.6575269 22.9811342,35.6575269 L26.7873772,35.6575269 C26.9732297,35.6575269 27.1250646,35.5059287 27.1250646,35.3208715 L27.1250646,27.1919847 C27.1250646,27.0065144 26.9732297,26.8549162 26.7873772,26.8549162 L22.9811342,26.8549162 Z M22.9811342,26.6169855 L26.7873772,26.6169855 C27.1043221,26.6169855 27.363603,26.8755699 27.363603,27.1919847 L27.363603,35.3208715 C27.363603,35.6372863 27.1043221,35.8954577 26.7873772,35.8954577 L22.9811342,35.8954577 C22.6641893,35.8954577 22.4049084,35.6372863 22.4049084,35.3208715 L22.4049084,27.1919847 C22.4049084,26.8755699 22.6641893,26.6169855 22.9811342,26.6169855 L22.9811342,26.6169855 Z" id="Fill-16" fill="#DCC1A2"></path>
                                <path d="M26.3750169,31.0058986 C26.5778782,31.0058986 26.743818,30.8406689 26.743818,30.6374365 C26.743818,30.434617 26.5778782,30.2693874 26.3750169,30.2693874 C26.1717407,30.2693874 26.005801,30.434617 26.005801,30.6374365 C26.005801,30.8406689 26.1717407,31.0058986 26.3750169,31.0058986" id="Fill-17" fill="#DCC1A2"></path>
                                <path d="M122.687277,26.8549162 C122.501839,26.8549162 122.350005,27.0065144 122.350005,27.1919847 L122.350005,35.3208715 C122.350005,35.5059287 122.501839,35.6575269 122.687277,35.6575269 L126.493935,35.6575269 C126.679373,35.6575269 126.831208,35.5059287 126.831208,35.3208715 L126.831208,27.1919847 C126.831208,27.0065144 126.679373,26.8549162 126.493935,26.8549162 L122.687277,26.8549162 Z M122.687277,26.6169855 L126.493935,26.6169855 C126.81088,26.6169855 127.069746,26.8755699 127.069746,27.1919847 L127.069746,35.3208715 C127.069746,35.6372863 126.81088,35.8954577 126.493935,35.8954577 L122.687277,35.8954577 C122.370332,35.8954577 122.111051,35.6372863 122.111051,35.3208715 L122.111051,27.1919847 C122.111051,26.8755699 122.370332,26.6169855 122.687277,26.6169855 L122.687277,26.6169855 Z" id="Fill-18" fill="#DCC1A2"></path>
                                <path d="M126.080745,31.0058986 C126.284436,31.0058986 126.449961,30.8406689 126.449961,30.6374365 C126.449961,30.434617 126.284436,30.2693874 126.080745,30.2693874 C125.877884,30.2693874 125.711944,30.434617 125.711944,30.6374365 C125.711944,30.8406689 125.877884,31.0058986 126.080745,31.0058986" id="Fill-19" fill="#DCC1A2"></path>
                                <path d="M71.160081,30.4936866 L71.160081,30.4936866 C71.5865462,30.4936866 71.9350196,30.8414951 71.9350196,31.2665484 L71.9350196,31.8750067 C71.9350196,32.30006 71.5865462,32.6482816 71.160081,32.6482816 C70.7340307,32.6482816 70.3855572,32.30006 70.3855572,31.8750067 L70.3855572,31.2665484 C70.3855572,30.8414951 70.7340307,30.4936866 71.160081,30.4936866 Z M106.775315,30.4936866 L106.775315,30.4936866 C107.201365,30.4936866 107.550253,30.8414951 107.550253,31.2665484 L107.550253,31.8750067 C107.550253,32.30006 107.201365,32.6482816 106.775315,32.6482816 C106.348849,32.6482816 106.000376,32.30006 106.000376,31.8750067 L106.000376,31.2665484 C106.000376,30.8414951 106.348849,30.4936866 106.775315,30.4936866 Z M109.681334,30.4936866 L109.681334,30.4936866 C110.107385,30.4936866 110.456273,30.8414951 110.456273,31.2665484 L110.456273,31.8750067 C110.456273,32.30006 110.107385,32.6482816 109.681334,32.6482816 C109.254869,32.6482816 108.906396,32.30006 108.906396,31.8750067 L108.906396,31.2665484 C108.906396,30.8414951 109.254869,30.4936866 109.681334,30.4936866 Z M112.587354,30.4936866 L112.587354,30.4936866 C113.013405,30.4936866 113.362293,30.8414951 113.362293,31.2665484 L113.362293,31.8750067 C113.362293,32.30006 113.013405,32.6482816 112.587354,32.6482816 C112.161304,32.6482816 111.812416,32.30006 111.812416,31.8750067 L111.812416,31.2665484 C111.812416,30.8414951 112.161304,30.4936866 112.587354,30.4936866 Z M115.493789,30.4936866 L115.493789,30.4936866 C115.919839,30.4936866 116.268728,30.8414951 116.268728,31.2665484 L116.268728,31.8750067 C116.268728,32.30006 115.919839,32.6482816 115.493789,32.6482816 C115.067739,32.6482816 114.71885,32.30006 114.71885,31.8750067 L114.71885,31.2665484 C114.71885,30.8414951 115.067739,30.4936866 115.493789,30.4936866 Z M77.715116,30.4936866 L77.715116,30.4936866 C78.1411663,30.4936866 78.4900546,30.8414951 78.4900546,31.2665484 L78.4900546,31.8750067 C78.4900546,32.30006 78.1411663,32.6482816 77.715116,32.6482816 C77.2890657,32.6482816 76.9401773,32.30006 76.9401773,31.8750067 L76.9401773,31.2665484 C76.9401773,30.8414951 77.2890657,30.4936866 77.715116,30.4936866 Z M80.6211358,30.4936866 L80.6211358,30.4936866 C81.0471861,30.4936866 81.3960745,30.8414951 81.3960745,31.2665484 L81.3960745,31.8750067 C81.3960745,32.30006 81.0471861,32.6482816 80.6211358,32.6482816 C80.1950855,32.6482816 79.8461972,32.30006 79.8461972,31.8750067 L79.8461972,31.2665484 C79.8461972,30.8414951 80.1950855,30.4936866 80.6211358,30.4936866 Z M83.5271557,30.4936866 L83.5271557,30.4936866 C83.9536208,30.4936866 84.3020943,30.8414951 84.3020943,31.2665484 L84.3020943,31.8750067 C84.3020943,32.30006 83.9536208,32.6482816 83.5271557,32.6482816 C83.1011054,32.6482816 82.7526319,32.30006 82.7526319,31.8750067 L82.7526319,31.2665484 C82.7526319,30.8414951 83.1011054,30.4936866 83.5271557,30.4936866 Z M86.4335904,30.4936866 L86.4335904,30.4936866 C86.8596407,30.4936866 87.2081142,30.8414951 87.2081142,31.2665484 L87.2081142,31.8750067 C87.2081142,32.30006 86.8596407,32.6482816 86.4335904,32.6482816 C86.0071252,32.6482816 85.6582369,32.30006 85.6582369,31.8750067 L85.6582369,31.2665484 C85.6582369,30.8414951 86.0071252,30.4936866 86.4335904,30.4936866 Z M89.3396103,30.4936866 L89.3396103,30.4936866 C89.7656606,30.4936866 90.1145489,30.8414951 90.1145489,31.2665484 L90.1145489,31.8750067 C90.1145489,32.30006 89.7656606,32.6482816 89.3396103,32.6482816 C88.9131451,32.6482816 88.5646716,32.30006 88.5646716,31.8750067 L88.5646716,31.2665484 C88.5646716,30.8414951 88.9131451,30.4936866 89.3396103,30.4936866 Z M92.2456301,30.4936866 L92.2456301,30.4936866 C92.6716804,30.4936866 93.0205688,30.8414951 93.0205688,31.2665484 L93.0205688,31.8750067 C93.0205688,32.30006 92.6716804,32.6482816 92.2456301,32.6482816 C91.8195798,32.6482816 91.4706915,32.30006 91.4706915,31.8750067 L91.4706915,31.2665484 C91.4706915,30.8414951 91.8195798,30.4936866 92.2456301,30.4936866 Z M95.15165,30.4936866 L95.15165,30.4936866 C95.5777003,30.4936866 95.9265886,30.8414951 95.9265886,31.2665484 L95.9265886,31.8750067 C95.9265886,32.30006 95.5777003,32.6482816 95.15165,32.6482816 C94.7251848,32.6482816 94.3767114,32.30006 94.3767114,31.8750067 L94.3767114,31.2665484 C94.3767114,30.8414951 94.7251848,30.4936866 95.15165,30.4936866 Z M98.0576698,30.4936866 L98.0576698,30.4936866 C98.484135,30.4936866 98.8326085,30.8414951 98.8326085,31.2665484 L98.8326085,31.8750067 C98.8326085,32.30006 98.484135,32.6482816 98.0576698,32.6482816 C97.6316195,32.6482816 97.2827312,32.30006 97.2827312,31.8750067 L97.2827312,31.2665484 C97.2827312,30.8414951 97.6316195,30.4936866 98.0576698,30.4936866 Z M100.964105,30.4936866 L100.964105,30.4936866 C101.390155,30.4936866 101.738628,30.8414951 101.738628,31.2665484 L101.738628,31.8750067 C101.738628,32.30006 101.390155,32.6482816 100.964105,32.6482816 C100.537639,32.6482816 100.189166,32.30006 100.189166,31.8750067 L100.189166,31.2665484 C100.189166,30.8414951 100.537639,30.4936866 100.964105,30.4936866 Z M103.870124,30.4936866 L103.870124,30.4936866 C104.296175,30.4936866 104.645063,30.8414951 104.645063,31.2665484 L104.645063,31.8750067 C104.645063,32.30006 104.296175,32.6482816 103.870124,32.6482816 C103.444074,32.6482816 103.095186,32.30006 103.095186,31.8750067 L103.095186,31.2665484 C103.095186,30.8414951 103.444074,30.4936866 103.870124,30.4936866 Z M74.8090961,30.4936866 L74.8090961,30.4936866 C75.2351464,30.4936866 75.5836199,30.8414951 75.5836199,31.2665484 L75.5836199,31.8750067 C75.5836199,32.30006 75.2351464,32.6482816 74.8090961,32.6482816 C74.382631,32.6482816 74.0341575,32.30006 74.0341575,31.8750067 L74.0341575,31.2665484 C74.0341575,30.8414951 74.382631,30.4936866 74.8090961,30.4936866 Z M36.8084786,30.4936866 L36.8084786,30.4936866 C37.234529,30.4936866 37.5830024,30.8414951 37.5830024,31.2665484 L37.5830024,31.8750067 C37.5830024,32.30006 37.234529,32.6482816 36.8084786,32.6482816 C36.3820135,32.6482816 36.03354,32.30006 36.03354,31.8750067 L36.03354,31.2665484 C36.03354,30.8414951 36.3820135,30.4936866 36.8084786,30.4936866 Z M39.7144985,30.4936866 L39.7144985,30.4936866 C40.1405488,30.4936866 40.4894371,30.8414951 40.4894371,31.2665484 L40.4894371,31.8750067 C40.4894371,32.30006 40.1405488,32.6482816 39.7144985,32.6482816 C39.2884482,32.6482816 38.9395599,32.30006 38.9395599,31.8750067 L38.9395599,31.2665484 C38.9395599,30.8414951 39.2884482,30.4936866 39.7144985,30.4936866 Z M42.6205184,30.4936866 L42.6205184,30.4936866 C43.0465687,30.4936866 43.395457,30.8414951 43.395457,31.2665484 L43.395457,31.8750067 C43.395457,32.30006 43.0465687,32.6482816 42.6205184,32.6482816 C42.1940532,32.6482816 41.8455797,32.30006 41.8455797,31.8750067 L41.8455797,31.2665484 C41.8455797,30.8414951 42.1940532,30.4936866 42.6205184,30.4936866 Z M45.5265382,30.4936866 L45.5265382,30.4936866 C45.9530034,30.4936866 46.3014769,30.8414951 46.3014769,31.2665484 L46.3014769,31.8750067 C46.3014769,32.30006 45.9530034,32.6482816 45.5265382,32.6482816 C45.1004879,32.6482816 44.7520144,32.30006 44.7520144,31.8750067 L44.7520144,31.2665484 C44.7520144,30.8414951 45.1004879,30.4936866 45.5265382,30.4936866 Z M48.4325581,30.4936866 L48.4325581,30.4936866 C48.8590232,30.4936866 49.2074967,30.8414951 49.2074967,31.2665484 L49.2074967,31.8750067 C49.2074967,32.30006 48.8590232,32.6482816 48.4325581,32.6482816 C48.0065078,32.6482816 47.6580343,32.30006 47.6580343,31.8750067 L47.6580343,31.2665484 C47.6580343,30.8414951 48.0065078,30.4936866 48.4325581,30.4936866 Z M51.338578,30.4936866 L51.338578,30.4936866 C51.7650431,30.4936866 52.1135166,30.8414951 52.1135166,31.2665484 L52.1135166,31.8750067 C52.1135166,32.30006 51.7650431,32.6482816 51.338578,32.6482816 C50.9125276,32.6482816 50.5640542,32.30006 50.5640542,31.8750067 L50.5640542,31.2665484 C50.5640542,30.8414951 50.9125276,30.4936866 51.338578,30.4936866 Z M54.2445978,30.4936866 L54.2445978,30.4936866 C54.671063,30.4936866 55.0195364,30.8414951 55.0195364,31.2665484 L55.0195364,31.8750067 C55.0195364,32.30006 54.671063,32.6482816 54.2445978,32.6482816 C53.8185475,32.6482816 53.470074,32.30006 53.470074,31.8750067 L53.470074,31.2665484 C53.470074,30.8414951 53.8185475,30.4936866 54.2445978,30.4936866 Z M57.1510325,30.4936866 L57.1510325,30.4936866 C57.5770828,30.4936866 57.9255563,30.8414951 57.9255563,31.2665484 L57.9255563,31.8750067 C57.9255563,32.30006 57.5770828,32.6482816 57.1510325,32.6482816 C56.7245674,32.6482816 56.3760939,32.30006 56.3760939,31.8750067 L56.3760939,31.2665484 C56.3760939,30.8414951 56.7245674,30.4936866 57.1510325,30.4936866 Z M60.0570524,30.4936866 L60.0570524,30.4936866 C60.4831027,30.4936866 60.831991,30.8414951 60.831991,31.2665484 L60.831991,31.8750067 C60.831991,32.30006 60.4831027,32.6482816 60.0570524,32.6482816 C59.6310021,32.6482816 59.2821138,32.30006 59.2821138,31.8750067 L59.2821138,31.2665484 C59.2821138,30.8414951 59.6310021,30.4936866 60.0570524,30.4936866 Z M62.9634871,30.4936866 L62.9634871,30.4936866 C63.3895374,30.4936866 63.7384257,30.8414951 63.7384257,31.2665484 L63.7384257,31.8750067 C63.7384257,32.30006 63.3895374,32.6482816 62.9634871,32.6482816 C62.5370219,32.6482816 62.1885485,32.30006 62.1885485,31.8750067 L62.1885485,31.2665484 C62.1885485,30.8414951 62.5370219,30.4936866 62.9634871,30.4936866 Z M33.9024588,30.4936866 L33.9024588,30.4936866 C34.3285091,30.4936866 34.6769826,30.8414951 34.6769826,31.2665484 L34.6769826,31.8750067 C34.6769826,32.30006 34.3285091,32.6482816 33.9024588,32.6482816 C33.4759936,32.6482816 33.1275202,32.30006 33.1275202,31.8750067 L33.1275202,31.2665484 C33.1275202,30.8414951 33.4759936,30.4936866 33.9024588,30.4936866 Z M66.6402971,30.4936866 L66.6402971,30.4936866 C67.0667623,30.4936866 67.4152357,30.8414951 67.4152357,31.2665484 L67.4152357,31.8750067 C67.4152357,32.30006 67.0667623,32.6482816 66.6402971,32.6482816 C66.2142468,32.6482816 65.8657733,32.30006 65.8657733,31.8750067 L65.8657733,31.2665484 C65.8657733,30.8414951 66.2142468,30.4936866 66.6402971,30.4936866 L66.6402971,30.4936866 Z" id="Fill-20" fill="#243861"></path>
                                <polyline id="Fill-22" fill="#3566A1" points="154.348996 0.0435104802 148.768857 0.0435104802 135.617302 16.8068868 119.150271 24.8874439 139.098304 24.887857 154.348996 0.0435104802"></polyline>
                                <polyline id="Fill-23" fill="#3566A1" points="140.148702 36.1780004 137.377093 35.5592153 136.422525 34.5591627 160.012935 27.6257126 140.148702 36.1780004"></polyline>
                                <path d="M45.0108805,48.8242664 C37.8323269,44.6476734 44.538367,37.3990477 55.3974642,37.1904452 C64.7519027,37.011171 83.5412606,38.7440172 95.3292055,41.6322319 C97.6872094,42.2097096 103.51045,43.5922688 104.662072,45.6782934 C105.344084,46.9133852 104.975283,48.8242664 102.540117,48.8242664 L45.0108805,48.8242664" id="Fill-24" fill="#243861"></path>
                                <path d="M47.8393235,48.8242664 C41.0951172,46.6527354 44.8009667,39.5119221 54.6905609,39.3421486 C63.2094928,39.1955073 80.3207849,40.608221 91.0554273,42.9619176 C93.2035173,43.4332353 98.5065369,44.5596886 99.5552761,46.260315 C100.176306,47.2665637 99.8411073,48.8242664 97.6229077,48.8242664 L47.8393235,48.8242664" id="Fill-25" fill="#3566A1"></path>
                                <path d="M65.4368191,29.3346005 C65.3326919,29.3346005 65.246818,29.4205199 65.246818,29.5246146 L65.246818,34.8545107 C65.246818,34.9581924 65.3326919,35.0441118 65.4368191,35.0441118 L67.8437751,35.0441118 C67.9479023,35.0441118 68.034191,34.9581924 68.034191,34.8545107 L68.034191,29.5246146 C68.034191,29.4205199 67.9479023,29.3346005 67.8437751,29.3346005 L65.4368191,29.3346005 Z M65.4368191,29.0966698 L67.8437751,29.0966698 C68.0794096,29.0966698 68.2727294,29.2891623 68.2727294,29.5246146 L68.2727294,34.8545107 C68.2727294,35.0895499 68.0794096,35.2824556 67.8437751,35.2824556 L65.4368191,35.2824556 C65.2011846,35.2824556 65.0082797,35.089963 65.0082797,34.8545107 L65.0082797,29.5246146 C65.0082797,29.2887493 65.2011846,29.0966698 65.4368191,29.0966698 L65.4368191,29.0966698 Z" id="Fill-26" fill="#DCC1A2"></path>
                                <path d="M69.956603,29.3346005 C69.8524758,29.3346005 69.766602,29.4205199 69.766602,29.5246146 L69.766602,34.8545107 C69.766602,34.9581924 69.8524758,35.0441118 69.956603,35.0441118 L72.3635591,35.0441118 C72.4676862,35.0441118 72.5539749,34.9581924 72.5539749,34.8545107 L72.5539749,29.5246146 C72.5539749,29.4205199 72.4676862,29.3346005 72.3635591,29.3346005 L69.956603,29.3346005 Z M69.956603,29.0966698 L72.3635591,29.0966698 C72.5991935,29.0966698 72.7925133,29.2891623 72.7925133,29.5246146 L72.7925133,34.8545107 C72.7925133,35.0895499 72.5991935,35.2824556 72.3635591,35.2824556 L69.956603,35.2824556 C69.7209685,35.2824556 69.5280636,35.089963 69.5280636,34.8545107 L69.5280636,29.5246146 C69.5280636,29.2887493 69.7209685,29.0966698 69.956603,29.0966698 L69.956603,29.0966698 Z" id="Fill-27" fill="#DCC1A2"></path>
                                <polyline id="Fill-32" fill="#3566A1" points="50.0508855 41.9693004 91.2595332 29.8195496 101.451138 17.3694938 105.059498 17.3694938 98.696123 32.8201204 83.2147741 46.371845 50.0508855 46.371845 50.0508855 41.9693004"></polyline>
                                <polyline id="Fill-33" fill="#243861" points="52.0973375 45.8005634 93.6303973 30.7815993 102.969901 17.3694938 105.059498 17.3694938 98.696123 32.8201204 83.2147741 46.371845 52.0973375 46.371845 52.0973375 45.8005634"></polyline>
                                <polyline id="Fill-34" fill="#6690BE" points="50.0508855 41.9693004 66.0574337 43.8248296 66.0574337 51.962804 50.0508855 53.8191594 47.4597363 51.962804 47.4597363 43.8248296 50.0508855 41.9693004"></polyline>
                                <polyline id="Fill-35" fill="#23568E" points="50.0508855 41.9693004 66.0574337 43.8248296 66.0574337 51.962804 50.0508855 53.8191594 50.0508855 41.9693004"></polyline>
                                <polyline id="Fill-36" fill="#23568E" points="66.9252986 45.6518567 72.7800678 46.3540828 72.7800678 49.4335508 66.9252986 50.13619 66.9252986 45.6518567"></polyline>
                                <polygon id="Fill-37" fill="#6690BE" points="66.0387655 50.7500182 67.2783354 50.7500182 67.2783354 45.0380285 66.0387655 45.0380285"></polygon>
                            </g>
                            <path d="M167.232472,103.270109 L271.308797,0.417196905" id="Path-3" stroke="#979797" stroke-width="0.919354839" fill-rule="nonzero"></path>
                            <path d="M167.232472,209.91527 L271.308797,107.062358" id="Path-3" stroke="#979797" stroke-width="0.919354839" fill-rule="nonzero" transform="translate(219.270634, 158.488814) scale(1, -1) translate(-219.270634, -158.488814) "></path>
                        </g>
                    </g>
                </g>
            </g>
        </g>
    </g>
</svg>