<svg width="89" height="28" xmlns="http://www.w3.org/2000/svg"><g fill="#FFF" fill-rule="evenodd"><path d="M54.482 6.48h-4.807v3.304h5.62v1.778h-7.947V0h7.932v1.787h-5.605v2.905h4.807V6.48zm10.42-4.693h-3.285v9.775h-2.328V1.787H56.02V0h8.88v1.787zM69.235 0l2.958 8.521h.048L75.224 0h3.045v11.562h-2.328V8.116l.223-5.106-.047-.01-3.11 8.561h-1.561l-3.094-8.529-.047.009.223 5.074v3.446H66.2V0h3.038-.002zM50.901 22.167c0-.352-.126-.635-.376-.849-.25-.214-.69-.415-1.315-.603-1.094-.314-1.92-.687-2.48-1.12-.559-.43-.838-1.02-.838-1.77s.32-1.364.961-1.839c.642-.475 1.46-.713 2.458-.713 1.01 0 1.83.267 2.466.8.635.535.942 1.194.92 1.978l-.012.037h-1.784c0-.423-.142-.765-.425-1.027-.285-.263-.684-.393-1.197-.393-.492 0-.872.11-1.141.326-.26.199-.41.51-.404.836 0 .31.144.565.433.764.288.2.785.41 1.491.632 1.014.28 1.781.65 2.302 1.111.522.462.783 1.067.783 1.816 0 .784-.31 1.402-.93 1.855-.62.452-1.44.679-2.457.679-1.002 0-1.874-.257-2.618-.77-.745-.514-1.106-1.234-1.085-2.16l.012-.037h1.792c0 .545.167.944.501 1.197.334.254.8.38 1.398.38.5 0 .882-.102 1.148-.307a.988.988 0 0 0 .397-.823zm5.544-.465l.076.376h.037l1.306-4.323h1.98l-2.768 7.817a3.59 3.59 0 0 1-.79 1.23c-.331.332-.83.499-1.494.499-.156 0-.3-.013-.432-.038a9.602 9.602 0 0 1-.483-.107l.215-1.338.176.025c.064.009.12.012.17.012.304 0 .537-.075.7-.223.165-.149.291-.334.38-.556l.214-.528-2.423-6.793h1.982l1.154 3.947zm7.828.98c0-.201-.098-.375-.294-.522-.195-.147-.558-.277-1.088-.39-.807-.163-1.416-.405-1.826-.725-.41-.32-.615-.758-.615-1.31 0-.586.247-1.084.741-1.493.495-.409 1.156-.613 1.985-.613.87 0 1.563.204 2.078.61.515.406.762.92.741 1.54l-.013.037h-1.779a.895.895 0 0 0-.261-.666c-.175-.172-.43-.258-.766-.258-.299 0-.534.072-.705.218a.684.684 0 0 0-.254.543c0 .21.089.381.267.515.18.134.542.254 1.089.359.84.167 1.465.413 1.873.738.407.325.612.772.612 1.341 0 .612-.263 1.112-.79 1.499-.524.387-1.218.582-2.08.582-.908 0-1.626-.23-2.154-.688-.528-.46-.78-.982-.754-1.568l.012-.039h1.685c.012.365.132.628.36.792.226.164.523.246.889.246.34 0 .6-.068.779-.202a.647.647 0 0 0 .268-.546zm5.16-6.593v1.666h1.147v1.288h-1.148v3.462c0 .265.056.453.165.566.11.113.256.17.441.17.097 0 .18-.005.25-.015.07-.011.15-.03.242-.054l.158 1.325a3.288 3.288 0 0 1-1.116.189c-.635 0-1.125-.173-1.468-.521-.341-.348-.513-.9-.513-1.653v-3.469h-.997v-1.288h.997V16.09h1.841v-.001zm5.342 8.598c-.984 0-1.77-.314-2.359-.943-.588-.629-.883-1.427-.883-2.394v-.252c0-1.01.279-1.84.836-2.494.557-.653 1.305-.98 2.243-.975.92 0 1.635.277 2.144.83.51.553.764 1.3.764 2.243v1h-4.075l-.013.037c.034.448.184.817.45 1.106.268.289.63.433 1.09.433.407 0 .746-.04 1.015-.122.307-.098.602-.227.882-.386l.5 1.131c-.278.226-.642.413-1.092.563-.45.148-.95.223-1.502.223zm-.163-5.644a.96.96 0 0 0-.808.39c-.198.26-.32.6-.365 1.024l.018.031h2.258v-.163c0-.39-.091-.7-.274-.933-.183-.232-.46-.349-.83-.349zm5.69-1.288l.075.899c.219-.328.493-.58.823-.758.33-.178.712-.267 1.145-.267.437 0 .812.097 1.123.29.31.192.546.483.706.873.21-.365.484-.65.82-.855.336-.205.732-.308 1.186-.308.673 0 1.205.232 1.593.695.389.462.583 1.167.583 2.114v4.116h-1.841v-4.122c0-.516-.085-.874-.253-1.075-.168-.2-.418-.3-.75-.3a1.29 1.29 0 0 0-.679.171 1.26 1.26 0 0 0-.457.481c0 .08.002.148.007.204.004.057.006.115.006.173v4.468h-1.836v-4.122c0-.503-.085-.857-.253-1.065-.168-.207-.42-.31-.756-.31-.248 0-.466.046-.654.14a1.257 1.257 0 0 0-.463.399v4.958h-1.835v-6.8h1.71z"/><path d="M22.279 4.095c-.151-.275-.492-.376-.77-.275l-3.141 1.25a9.233 9.233 0 0 0-2.132-1.227l-.48-3.318A.613.613 0 0 0 15.14 0h-5.047a.613.613 0 0 0-.618.526l-.48 3.318A9.694 9.694 0 0 0 6.862 5.07l-3.14-1.25a.618.618 0 0 0-.77.275L.429 8.428a.614.614 0 0 0 .151.801l2.662 2.067c-.05.4-.088.814-.088 1.227 0 .413.038.826.088 1.227L.58 15.817a.628.628 0 0 0-.15.8l2.522 4.334a.637.637 0 0 0 .77.276l3.14-1.253a9.26 9.26 0 0 0 2.133 1.227l.48 3.319c.037.3.302.526.617.526h5.047a.613.613 0 0 0 .617-.526l.48-3.318a9.765 9.765 0 0 0 2.132-1.228c-.777-4.54-.777-8.389 0-11.546.092-.372 1.395-1.816 3.91-4.333zm-9.664 12.811c-2.435 0-4.415-1.966-4.415-4.383s1.98-4.383 4.415-4.383 4.416 1.966 4.416 4.383-1.98 4.383-4.416 4.383z" opacity=".85"/><path d="M25.862 26.298c-7.316 0-13.247-5.887-13.247-13.149S18.546 0 25.862 0c7.315 0 13.245 5.887 13.245 13.149S33.176 26.298 25.86 26.298zm4.36-5.796l1.19-1.181-1.785-7.674L32.898 8.4a1.244 1.244 0 0 0 0-1.77 1.267 1.267 0 0 0-1.784 0l-3.271 3.246-7.73-1.771-1.19 1.18 6.245 3.247-3.271 3.247-2.082-.295-.891.885 2.675 1.476 1.487 2.656.892-.885-.297-2.066 3.27-3.247 3.271 6.199z"/></g></svg>