<svg xmlns="http://www.w3.org/2000/svg" width="41" height="24"><g fill="none" fill-rule="evenodd" transform="translate(.984)"><rect width="39.922" height="24" fill="#0072CE" rx="1.6"/><path fill="#FFF" d="M33.698 13.866h-1.411c-.14 0-.234.006-.313.059-.082.052-.113.13-.113.232 0 .122.069.205.169.241a.87.87 0 0 0 .298.037l.42.011c.423.01.705.083.878.26.031.025.05.053.072.08v-.92zm0 2.133c-.188.275-.555.414-1.05.414h-1.495v-.694h1.488c.148 0 .251-.02.313-.08a.284.284 0 0 0 .092-.21.266.266 0 0 0-.095-.215c-.056-.05-.137-.072-.272-.072-.727-.024-1.633.023-1.633-1.001 0-.47.298-.963 1.11-.963h1.541v-.644h-1.432c-.432 0-.746.104-.968.264v-.264h-2.119c-.339 0-.736.084-.924.264v-.264H24.47v.264c-.3-.217-.809-.264-1.043-.264h-2.495v.264c-.239-.23-.768-.264-1.091-.264h-2.793l-.639.691-.599-.69h-4.17v4.513h4.093l.658-.702.62.702 2.524.002v-1.06h.248c.335.005.73-.009 1.078-.16v1.22h2.08v-1.177h.101c.128 0 .141.005.141.133v1.043h6.322c.401 0 .821-.103 1.053-.289v.289h2.006c.417 0 .824-.058 1.135-.208V16zm-3.088-1.292c.151.155.232.352.232.685 0 .696-.435 1.02-1.216 1.02H28.12v-.693h1.501c.147 0 .251-.02.316-.08a.287.287 0 0 0 .092-.21.277.277 0 0 0-.095-.215c-.059-.05-.14-.072-.275-.072-.724-.024-1.63.023-1.63-1.001 0-.47.295-.963 1.106-.963h1.551v.688h-1.42c-.14 0-.231.006-.31.059-.084.052-.115.13-.115.233 0 .122.071.205.169.24a.89.89 0 0 0 .301.037l.417.011c.42.01.708.083.883.26zm-6.983-.2c-.103.061-.231.066-.382.066h-.94v-.726h.953c.138 0 .275.003.37.058.1.053.16.153.16.291 0 .139-.06.25-.16.31zm.467.402a.841.841 0 0 1 .38.272c.109.158.125.305.128.59v.642h-.777v-.405c0-.195.019-.483-.125-.633-.113-.116-.286-.144-.568-.144h-.827v1.182h-.778v-3.235h1.787c.392 0 .677.017.931.152.244.148.398.35.398.719 0 .516-.345.78-.549.86zm.978-1.731h2.583v.669h-1.812v.588h1.768v.66h-1.768v.644l1.812.003v.67h-2.583v-3.234zm-5.221 1.493h-1v-.824h1.009c.279 0 .473.114.473.397 0 .28-.185.427-.482.427zm-1.771 1.448L16.892 14.8l1.188-1.276v2.594zm-3.069-.38h-1.903v-.644h1.7v-.66h-1.7v-.588h1.94l.847.943-.884.949zm6.153-1.495c0 .898-.671 1.084-1.348 1.084h-.965v1.085h-1.505l-.953-1.071-.99 1.07h-3.065v-3.234h3.112l.952 1.06.985-1.06h2.473c.614 0 1.304.17 1.304 1.066zM8.645 9.45l-.53-1.29-.526 1.29h1.056zm11.67-.514c-.107.065-.233.067-.383.067h-.94v-.718h.952c.135 0 .276.006.367.058.1.047.163.147.163.286 0 .141-.06.255-.16.307zm6.706.514l-.535-1.29-.533 1.29h1.068zM14.52 10.845h-.793l-.003-2.533-1.122 2.533h-.68L10.796 8.31v2.535H9.222l-.297-.721H7.313l-.3.721h-.84l1.385-3.234h1.15l1.316 3.062V7.611h1.263L12.3 9.805l.93-2.194h1.289v3.234zm3.162 0h-2.585V7.611h2.585v.674H15.87v.582h1.768v.663H15.87v.646h1.811v.67zm3.645-2.363a.91.91 0 0 1-.545.862c.17.065.314.178.383.273.11.16.128.304.128.593v.635h-.78l-.004-.408c0-.194.02-.474-.122-.63-.113-.113-.285-.138-.564-.138h-.83v1.176h-.774V7.611h1.78c.395 0 .687.01.937.155.245.144.391.355.391.716zm1.239 2.363h-.79V7.611h.79v3.234zm9.161 0H30.63l-1.467-2.427v2.427h-1.576l-.3-.721h-1.609l-.292.721h-.905c-.377 0-.853-.083-1.123-.357-.272-.275-.413-.647-.413-1.235 0-.48.085-.918.417-1.265.25-.258.642-.377 1.175-.377h.75v.693h-.734c-.282 0-.442.042-.595.192-.132.136-.223.393-.223.732 0 .347.07.597.213.76.12.128.336.167.54.167h.347l1.09-2.544h1.16l1.31 3.06V7.61h1.179l1.36 2.253V7.61h.793v3.234zm-25.563.636h1.323l.298-.719h.667l.298.719h2.601v-.55l.233.552h1.35l.232-.56v.558h6.466l-.003-1.18h.125c.088.003.113.011.113.156v1.024h3.344v-.275c.27.144.69.275 1.242.275h1.407l.3-.719h.668l.295.719h2.71v-.683l.411.683h2.173V6.97h-2.15v.532l-.301-.532H27.76v.532l-.277-.532h-2.98c-.499 0-.937.07-1.292.263V6.97h-2.056v.263c-.225-.2-.533-.263-.874-.263h-7.513l-.504 1.165-.518-1.165H9.379v.532l-.26-.532H7.1l-.937 2.144v2.367z"/></g></svg>