<svg width="63" height="39" xmlns="http://www.w3.org/2000/svg"><g fill="none" fill-rule="evenodd"><path d="M62.534 4v30a5 5 0 0 1-5 5H5a5 5 0 0 1-5-5V4a4 4 0 0 1 4-4h54.534a4 4 0 0 1 4 4z" fill="#312783"/><path d="M31.267 6.052c6.498 0 11.767 5.269 11.767 11.767 0 6.498-5.269 11.767-11.767 11.767-6.498 0-11.767-5.269-11.767-11.767 0-6.498 5.27-11.767 11.767-11.767z" fill="#FFED00"/><path d="M62.534 18.606V34a5 5 0 0 1-5 5H5a5 5 0 0 1-5-5V17.505c8.7-2.58 18.792-4.057 29.55-4.057 12.205 0 23.552 1.9 32.984 5.158z" fill="#E30613"/><path d="M63 24.108V35a4 4 0 0 1-4 4H4a4 4 0 0 1-4-4V22.981c8.765-2.641 18.931-4.153 29.77-4.153 12.296 0 23.727 1.945 33.23 5.28z" fill="#FFED00"/><path d="M13.907 32.24l4.518-6.52h1.678l4.816 6.52h-1.774l-1.373-1.974h-4.918l-1.292 1.975h-1.655zm3.395-2.678h3.99l-1.227-1.805a13.649 13.649 0 0 1-.836-1.352 5.77 5.77 0 0 1-.635 1.245l-1.292 1.912zm14.264 2.678v-.693c-.664.535-1.565.8-2.706.8a5.89 5.89 0 0 1-1.408-.159c-.437-.106-.76-.24-.971-.403a1.294 1.294 0 0 1-.445-.593c-.058-.157-.088-.406-.088-.746v-2.927h1.446v2.62c0 .417.029.7.087.845.091.21.284.375.579.496.293.121.658.18 1.092.18.433 0 .839-.06 1.22-.186.38-.123.648-.29.806-.502.157-.212.237-.52.237-.924v-2.531h1.445v4.724h-1.294zm3.54 0v-4.723h1.3v.716c.331-.335.636-.557.918-.664.282-.107.59-.16.926-.16.488 0 .981.087 1.485.259l-.498.742a3.41 3.41 0 0 0-1.058-.173c-.317 0-.6.052-.851.157-.25.105-.431.252-.538.438a1.85 1.85 0 0 0-.241.934v2.473h-1.443v.002zm11.053-.582a7.055 7.055 0 0 1-1.545.534 7.82 7.82 0 0 1-1.593.156c-.936 0-1.657-.127-2.16-.381-.503-.255-.753-.577-.753-.973 0-.232.095-.442.285-.633.19-.192.44-.345.746-.46a5.195 5.195 0 0 1 1.04-.262c.283-.043.71-.081 1.283-.121 1.168-.077 2.026-.17 2.576-.277.006-.109.008-.18.008-.21 0-.326-.136-.556-.41-.69-.37-.181-.917-.272-1.645-.272-.68 0-1.181.067-1.506.198a1.32 1.32 0 0 0-.719.7l-1.412-.107c.128-.335.34-.605.634-.81.293-.207.718-.366 1.276-.477.555-.11 1.2-.167 1.935-.167.728 0 1.318.048 1.773.143.455.095.789.214 1.004.359.214.143.364.325.449.545.049.137.072.383.072.738v1.067c0 .744.031 1.214.093 1.412.062.198.183.387.365.567h-1.509a1.159 1.159 0 0 1-.287-.58zm-.12-1.787c-.525.119-1.312.22-2.361.302-.595.049-1.014.101-1.26.16-.247.058-.438.145-.57.26-.134.115-.2.24-.2.381 0 .214.146.391.437.535.291.143.719.213 1.28.213.556 0 1.051-.066 1.484-.201.433-.135.752-.319.956-.555.155-.182.233-.448.233-.8v-.295z" fill="#312783" fill-rule="nonzero"/></g></svg>