<svg width="64" height="39" xmlns="http://www.w3.org/2000/svg"><g fill="none"><path fill="#000" d="M0 0h63.05v39H0z"/><path d="M21.31 23.77a5.783 5.783 0 0 1-4.104 1.625 5.754 5.754 0 0 1-2.966-.88l-2.135 3.358a9.76 9.76 0 0 0 5.044 1.48 9.79 9.79 0 0 0 6.964-2.741L21.31 23.77zm-3.865-13.683c-5.384-.082-9.82 4.166-9.9 9.485a9.502 9.502 0 0 0 1.578 5.408l17.672-7.457c-.996-4.206-4.782-7.365-9.35-7.436zm-5.858 10.23a5.197 5.197 0 0 1-.035-.682c.051-3.134 2.662-5.636 5.834-5.583a5.745 5.745 0 0 1 4.296 2.012l-10.095 4.253zm20.752-14.57v18.6l3.268 1.338-1.546 3.668-3.233-1.326c-.727-.312-1.219-.786-1.592-1.32-.36-.548-.624-1.297-.624-2.307V5.747h3.727z" fill="#FFF"/><path d="M44.14 14.629a5.554 5.554 0 0 1 1.776-.289c2.712 0 4.973 1.936 5.491 4.51l3.843-.787c-.88-4.372-4.726-7.663-9.332-7.663a9.47 9.47 0 0 0-3.018.49l1.24 3.739z" fill="#FFED00"/><path d="M39.636 26.65l2.614-2.943a5.595 5.595 0 0 1-1.903-4.209c0-1.673.735-3.177 1.901-4.205l-2.615-2.943A9.51 9.51 0 0 0 36.4 19.5a9.503 9.503 0 0 0 3.236 7.15z" fill="#00A0DE"/><path d="M51.412 20.8c-.52 2.572-2.78 4.507-5.489 4.507a5.56 5.56 0 0 1-1.778-.29l-1.245 3.74c.95.32 1.965.493 3.021.493 4.603 0 8.443-3.29 9.329-7.659l-3.838-.791z" fill="#E63312"/></g></svg>