<svg width="63" height="29" xmlns="http://www.w3.org/2000/svg"><g fill="none" fill-rule="evenodd"><path d="M0-5h62.593v39H0z"/><path d="M26.146 28.075L0 28.085v-.063c0-.035.041-.258.092-.5.05-.24.131-.621.176-.848.045-.228.125-.612.174-.857l.184-.904c.05-.253.133-.653.18-.888.047-.235.125-.621.174-.856l.186-.904.18-.888c.045-.228.117-.577.16-.776.043-.2.098-.473.121-.602.024-.132.102-.516.173-.857.074-.341.152-.727.176-.859.025-.129.103-.515.176-.854l.174-.857c.023-.131.101-.516.174-.857.072-.34.148-.717.172-.84.023-.122.086-.436.139-.698l.227-1.094c.07-.34.191-.931.268-1.316.076-.384.168-.84.205-1.015l.143-.698.174-.841.19-.92a118.515 118.515 0 0 1 .35-1.71l.19-.92c.054-.27.146-.684.203-.92.057-.235.139-.52.18-.635.041-.113.156-.358.256-.547l.18-.339.164-.215c.09-.118.25-.306.358-.416.106-.11.286-.274.397-.367a7.54 7.54 0 0 1 .364-.278 6.637 6.637 0 0 1 .761-.433 7.21 7.21 0 0 1 .395-.167c.131-.049.38-.133.554-.186.174-.053.5-.133.725-.178.225-.045.581-.104.79-.134l.384-.05 26.162-.01 26.162-.01V.84c0 .035-.041.258-.094.5-.051.24-.137.65-.19.91-.053.262-.131.64-.174.842l-.176.857-.188.919c-.049.235-.127.621-.174.857-.047.235-.127.621-.176.856a88 88 0 0 0-.168.826c-.043.22-.124.61-.176.872-.053.263-.14.676-.19.92-.05.244-.13.62-.174.84-.045.218-.123.61-.176.873l-.19.919-.17.825-.176.873a405.23 405.23 0 0 1-.348 1.697l-.192.935-.176.857c-.041.202-.12.578-.172.841l-.188.92-.176.856-.178.872c-.05.253-.137.667-.188.92-.05.253-.129.631-.172.84l-.174.857c-.053.261-.139.675-.192.916l-.096.44-.113.305c-.063.168-.156.39-.21.496a5.259 5.259 0 0 1-.477.754c-.054.07-.219.246-.365.393l-.266.268-.257.182c-.14.1-.293.204-.338.228-.045.023-.215.112-.377.194a6.456 6.456 0 0 1-.513.231 8.647 8.647 0 0 1-.923.28 10.882 10.882 0 0 1-1.162.204l-.452.055-26.15.004zm-9.303-6.779h.681l.02-.05a.54.54 0 0 0 .02-.146c0-.05.02-.239.048-.417.027-.179.092-.588.143-.91l.17-1.078c.043-.27.094-.615.115-.768.022-.153.047-.279.057-.279.01 0 .055.067.098.15l.078.148.176.177.176.176.215.086.216.087.258.033.258.033.327-.02.326-.019.354-.092.354-.092.19-.086c.104-.048.29-.151.41-.232l.222-.145.207-.208a4.53 4.53 0 0 0 .356-.405c.082-.11.149-.206.149-.216 0-.01.04-.077.09-.151a3.66 3.66 0 0 0 .225-.449c.074-.174.19-.488.258-.698l.123-.38.063-.33c.035-.18.08-.48.1-.666l.037-.337-.022-.286-.021-.287-.067-.286-.066-.286-.106-.204-.108-.213-.207-.22-.205-.22-.245-.127-.244-.127-.27-.065-.27-.065-.27-.02-.27-.019-.3.035-.295.036-.244.062-.245.063-.213.098a4.16 4.16 0 0 0-.377.204 2.136 2.136 0 0 0-.21.149c-.023.023-.08.067-.127.098l-.082.055.059-.279a4.54 4.54 0 0 0 .058-.317l.002-.04h-1.16l-.101.642-.196 1.213-.174 1.047a147.782 147.782 0 0 1-.364 2.11c-.055.287-.13.709-.174.934-.043.226-.12.655-.174.953-.055.296-.14.766-.194 1.045a112.754 112.754 0 0 1-.3 1.53l-.018.071h.68zm2.93-3.665l-.264.015-.174-.031-.172-.03-.176-.08-.176-.08-.123-.118-.123-.117-.069-.16a2.097 2.097 0 0 1-.11-.329l-.04-.17.015-.273.016-.272.082-.427c.045-.236.125-.679.178-.985.053-.305.135-.752.18-.993l.082-.44.184-.15c.1-.083.258-.195.352-.247l.17-.096.221-.07.221-.068.286-.017.285-.018.233.049.233.049.164.076.165.077.136.14.137.138.075.147c.04.08.098.238.127.351l.053.204-.022.598-.016.602-.082.357a7.1 7.1 0 0 1-.19.666l-.107.31-.133.25c-.07.138-.182.324-.246.414a1.99 1.99 0 0 1-.227.26 4.862 4.862 0 0 1-.227.181l-.116.087-.268.092-.268.092-.266.016zm6.57.872l.349.004.348-.031a11.747 11.747 0 0 0 1.432-.218l.387-.086.02-.143c.01-.079.054-.312.096-.52l.078-.376-.018-.018-.017-.018-.118.057a5.615 5.615 0 0 1-.45.167l-.332.11-.348.068-.349.069-.553.002-.554.002-.19-.061a2.934 2.934 0 0 1-.34-.135l-.15-.075-.13-.115-.125-.114-.097-.17-.098-.171-.06-.214-.062-.214v-.791l.055-.353.055-.353.475-.022.476-.021 1.76.011 1.76.012.053-.225c.03-.124.075-.38.1-.57l.047-.346v-.58l-.05-.216-.052-.215-.08-.153a1.952 1.952 0 0 0-.178-.255 1.36 1.36 0 0 0-.21-.19 3.42 3.42 0 0 0-.271-.165l-.159-.084-.275-.067-.276-.066-.34-.034-.34-.033-.318.022-.317.021-.38.073-.379.072-.236.096a4.21 4.21 0 0 0-.442.212 3.04 3.04 0 0 0-.348.233 2.897 2.897 0 0 0-.589.623 4.842 4.842 0 0 0-.419.793 7.095 7.095 0 0 0-.146.396 7.14 7.14 0 0 0-.157.554c-.041.175-.098.461-.125.637l-.051.322v.945l.049.206c.027.113.076.284.111.38.036.096.102.24.145.317.045.079.139.206.211.28.073.077.202.193.29.258.086.064.242.156.344.203l.186.085.26.063c.143.035.358.076.48.09.117.017.371.033.563.035zm.597-4.468c-.876 0-1.592-.005-1.592-.013s.037-.118.082-.245c.045-.128.125-.318.178-.422l.096-.19.21-.208.209-.208.205-.098c.113-.054.262-.113.333-.13.07-.019.27-.042.442-.054l.316-.02.243.032.243.031.176.08.176.081.097.104c.053.057.118.143.141.188l.045.084.03.187.029.186-.033.31-.034.31-1.592-.005zm9.467 4.468l.349.004.395-.047c.217-.026.506-.069.643-.096a7.31 7.31 0 0 0 .491-.118c.133-.037.254-.078.268-.09.014-.012.051-.157.084-.32.032-.164.073-.384.09-.488a.855.855 0 0 0 .02-.202c-.006-.005-.03.002-.053.02a2.886 2.886 0 0 1-.344.145l-.305.114-.435.084-.434.084-.37-.011-.37-.012-.209-.073-.209-.072-.162-.141-.163-.141-.107-.197-.108-.196-.05-.262-.051-.263v-.682l.062-.412.063-.411.066-.222.092-.318a4.808 4.808 0 0 1 .356-.782l.123-.211.151-.157.15-.157.16-.1.157-.1.206-.063c.113-.035.31-.08.442-.1l.237-.037.348.018.348.017.41.083.411.082.169.063c.092.035.172.062.176.062.004 0 .027-.117.049-.26.021-.143.06-.38.088-.526.025-.145.04-.27.033-.278a1.68 1.68 0 0 0-.274-.043 23.98 23.98 0 0 0-.866-.065l-.607-.035-.426.033-.427.034-.316.066-.317.067-.204.082a3.03 3.03 0 0 0-.616.343c-.049.036-.2.17-.332.302l-.243.24-.137.193c-.074.11-.203.338-.286.506l-.15.308-.116.333a9.242 9.242 0 0 0-.197.667l-.082.333-.03.302-.029.302v.792l.03.231.029.231.094.237.094.238.11.17.109.17.174.173.174.173.184.098.184.098.242.066c.133.038.325.08.426.095.106.013.347.027.538.029zm5.205-.012l.427-.012.27-.068.27-.069.174-.082c.096-.045.252-.135.348-.198.096-.065.244-.186.328-.27.087-.085.212-.23.282-.322a.924.924 0 0 1 .135-.159c.006.006-.012.151-.035.326a4.491 4.491 0 0 0-.045.515v.198h1.162l.017-.453.018-.453.082-.586a46.176 46.176 0 0 1 .337-2.046l.176-.967.084-.46.002-.398.002-.398-.09-.183-.09-.184-.122-.118-.12-.117-.2-.102-.2-.102-.297-.067-.298-.066-.408-.032-.41-.031-.527.033c-.29.018-.699.053-.908.079l-.38.047-.258.002-.258.002-.037.182c-.021.1-.078.34-.127.53s-.086.35-.08.356c.006.006.145-.025.307-.07.164-.046.51-.118.773-.161l.475-.08.426-.018.427-.018.275.05.276.048.184.09.184.09.104.153.103.153-.002.243-.006.245-.054.267-.055.267-1.138.003-1.139.002-.371.102a4.283 4.283 0 0 0-.505.167.798.798 0 0 1-.16.065c-.016 0-.14.068-.272.15l-.243.15-.19.19a2.874 2.874 0 0 0-.297.349 2.75 2.75 0 0 0-.211.406l-.106.247-.049.276-.049.276v.58l.047.244.047.24.086.158c.047.086.133.213.192.282l.106.125.19.116.189.116.217.06c.12.034.301.075.403.09l.186.03.426-.01zm.395-.888l-.252.014-.168-.043a1.73 1.73 0 0 1-.311-.118l-.143-.074-.078-.094a1.424 1.424 0 0 1-.147-.224l-.066-.127-.014-.306-.014-.306.053-.184c.03-.102.098-.279.155-.392l.1-.208.191-.19.192-.19.203-.098.204-.098.252-.061.252-.06h1.58l.052.02.05.022-.043.25a7.274 7.274 0 0 1-.123.55 4.713 4.713 0 0 1-.17.54 2.685 2.685 0 0 0-.094.258c0 .01-.053.106-.115.214l-.116.194-.19.19c-.103.104-.199.188-.215.188a.57.57 0 0 0-.142.078l-.118.079-.256.08-.256.08-.253.016zm10.3.9l.302.004.286-.047a5.05 5.05 0 0 0 .442-.092 2.3 2.3 0 0 0 .348-.143l.19-.098.164-.144.164-.143.172-.229c.094-.127.18-.25.19-.278l.018-.047-.016.158c-.008.087-.03.23-.043.318a5.888 5.888 0 0 0-.049.372l-.021.214h1.24v-.429l.094-.81c.052-.445.129-1.037.17-1.315.04-.279.107-.678.145-.888l.146-.841c.043-.253.121-.696.174-.984l.186-1.016c.051-.27.127-.692.172-.935a91.411 91.411 0 0 1 .354-1.823c.043-.2.077-.376.077-.388v-.022h-1.354l-.02.198c-.011.11-.062.469-.115.8-.053.332-.137.859-.19 1.174l-.111.677-.018.106-.053-.024a5.045 5.045 0 0 0-.354-.098l-.3-.076-.412-.032-.41-.031-.349.033-.348.034-.317.078-.316.08-.3.147-.301.147-.221.165-.221.163-.192.206c-.105.113-.256.3-.338.415l-.147.21-.172.359a11 11 0 0 0-.256.58 6.626 6.626 0 0 0-.18.602l-.098.38-.047.492-.047.492.035.396.036.396.043.143c.023.079.072.218.11.312l.066.168.12.165.122.165.14.113.138.114.19.094a2.41 2.41 0 0 0 .784.23c.11.017.335.029.499.033zm.54-.9l-.238.012-.16-.03a1.664 1.664 0 0 1-.315-.096l-.155-.066-.129-.106-.129-.106-.096-.184-.096-.184-.047-.208-.043-.206.004-.412.004-.411.051-.365.05-.365.081-.252c.043-.14.08-.271.08-.293 0-.021.043-.135.096-.252.053-.118.139-.3.194-.406a3.07 3.07 0 0 1 .227-.363 3.24 3.24 0 0 1 .277-.317 1.95 1.95 0 0 1 .292-.232l.14-.088.25-.086.248-.087h1.044l.301.085c.167.045.34.1.39.117l.09.036-.02.084c-.01.047-.047.259-.084.468a141.776 141.776 0 0 1-.333 1.823c-.045.236-.11.536-.144.667-.036.131-.085.312-.108.402a2.565 2.565 0 0 1-.319.676 1.716 1.716 0 0 1-.205.241 2.826 2.826 0 0 1-.28.216l-.174.116-.252.08-.253.078-.238.014zm-46.572.745h.769l.054-.341c.032-.188.09-.549.133-.802.043-.253.122-.723.174-1.047.053-.323.135-.8.178-1.062.044-.263.116-.669.159-.902a3.95 3.95 0 0 1 .094-.443l.017-.017h4.135l.022.023.023.024-.035.182c-.02.1-.078.412-.129.69-.053.278-.139.75-.194 1.047-.054.296-.133.717-.174.935a68.505 68.505 0 0 0-.299 1.674v.04h1.545l.034-.199a52.425 52.425 0 0 1 .164-1.055l.156-.919c.051-.296.137-.804.19-1.125.053-.324.133-.794.176-1.047.043-.253.121-.68.172-.95l.19-1.016c.053-.288.133-.724.176-.967l.176-.986c.055-.296.121-.643.15-.768l.054-.23H12.82l-.018.152a22.54 22.54 0 0 1-.084.515 684.018 684.018 0 0 0-.311 1.792c-.053.313-.117.729-.147.923l-.052.353-1.149.023-1.146.022-.962-.022a51.67 51.67 0 0 1-.968-.027 3.679 3.679 0 0 1 .04-.274c.026-.15.075-.404.108-.57a53.7 53.7 0 0 0 .141-.73c.045-.235.094-.527.111-.65.018-.122.053-.326.079-.454.027-.127.076-.392.111-.592.035-.2.073-.384.082-.411l.02-.051H7.126l-.05.278c-.027.153-.064.37-.08.484-.015.114-.076.478-.128.81l-.176 1.094-.173 1.093a75.563 75.563 0 0 1-.365 2.078l-.174.92a77.4 77.4 0 0 1-.178.904c-.043.21-.09.45-.106.539-.014.086-.063.339-.108.558a6.15 6.15 0 0 0-.082.453v.051h.769zm8.512 0h.681l.02-.05c.01-.028.02-.1.02-.162 0-.06.042-.376.095-.703.051-.326.137-.855.19-1.179.053-.323.133-.793.176-1.046.041-.253.117-.675.168-.935.051-.263.13-.669.172-.904.045-.235.131-.684.194-.996a11.7 11.7 0 0 1 .129-.596l.018-.027-.689.01-.688.007-.057.412c-.031.227-.102.676-.155 1-.052.323-.13.815-.176 1.094-.045.278-.123.729-.174 1-.05.27-.127.684-.172.919-.045.235-.123.649-.176.92l-.156.791c-.034.167-.07.333-.08.373l-.02.07h.68v.002zm15.919 0h.674l.02-.286c.012-.157.049-.474.084-.706.035-.231.108-.69.162-1.021.053-.331.153-.882.221-1.225.069-.343.145-.684.17-.757a.92.92 0 0 0 .048-.176c0-.024.05-.155.113-.29.063-.136.178-.344.256-.461l.145-.214.194-.178.193-.179.239-.113.239-.114.363.002.364.002.178.053c.098.03.188.053.198.053.01 0 .02-.034.02-.075 0-.041.035-.25.078-.464.043-.214.078-.398.078-.41 0-.012-.104-.051-.23-.09a2.934 2.934 0 0 0-.386-.09l-.159-.02-.205.037c-.114.02-.282.065-.374.098-.09.032-.244.108-.338.169-.094.06-.24.178-.325.26a3.62 3.62 0 0 0-.317.375c-.09.121-.184.25-.207.286l-.045.063.027-.128c.016-.07.057-.298.094-.507.037-.21.075-.406.082-.435l.018-.055h-1.205v.076c0 .041-.035.296-.078.563l-.16.994-.175 1.078a63.285 63.285 0 0 1-.348 1.919c-.05.27-.137.713-.192.984-.052.27-.117.59-.14.71-.026.12-.045.23-.045.245v.027h.67zm16.039 0h.69v-.423l.08-.526c.044-.288.116-.747.161-1.017.045-.27.1-.614.123-.76.024-.148.084-.47.137-.714.053-.245.118-.508.145-.586.027-.079.05-.161.05-.183 0-.021.06-.164.132-.317l.13-.277.173-.229.172-.23.188-.14c.104-.079.27-.183.37-.23l.181-.088.396.002.395.002.156.05.157.052.025-.016.026-.016.001-.102c0-.054.036-.262.075-.46l.074-.359-.084-.033a5.272 5.272 0 0 0-.24-.083l-.159-.049h-.571l-.231.08-.233.083-.174.106-.174.106-.227.235-.227.237-.121.185c-.066.101-.125.18-.131.174a5.126 5.126 0 0 1 .08-.47c.05-.253.09-.493.092-.532l.002-.07h-1.17v.02c0 .011-.029.213-.064.452-.035.237-.108.696-.159 1.02a98.322 98.322 0 0 1-.364 2.156c-.042.235-.12.649-.174.92l-.187.966c-.053.26-.122.607-.153.768l-.059.294.69.002zm-30.62-7.74h.192l.153-.05.152-.053.135-.137.135-.138.07-.182.071-.182.002-.27.006-.271-.065-.106-.062-.104-.11-.069-.111-.068h-.476l-.162.072-.16.073-.094.102-.096.1-.072.174-.075.175-.014.272-.013.27.068.136.069.135.133.061.133.06h.191z" fill="#B3131B" fill-rule="nonzero"/></g></svg>