<svg xmlns="http://www.w3.org/2000/svg" width="41" height="24"><g fill="none" fill-rule="evenodd" transform="translate(.093)"><rect width="39.922" height="24" fill="#006" rx="1.6"/><path fill="#C00" d="M22.408 12.194c0 4.311-3.488 7.806-7.79 7.806-4.304 0-7.792-3.495-7.792-7.806s3.488-7.806 7.791-7.806c4.303 0 7.79 3.495 7.79 7.806"/><path fill="#F90" d="M25.077 4.388a7.755 7.755 0 0 0-6.017 2.847h1.574c.215.262.413.538.594.827h-2.762a7.847 7.847 0 0 0-.449.826h3.66c.125.268.235.544.33.827h-4.32c-.09.269-.165.545-.226.826h4.772a7.878 7.878 0 0 1-.226 4.133h-4.32c.095.283.205.559.33.827h3.66c-.134.285-.283.56-.45.826h-2.76c.18.288.378.564.593.826h1.574a7.787 7.787 0 0 1-.787.827 7.754 7.754 0 0 0 5.23 2.02c4.303 0 7.79-3.495 7.79-7.806 0-4.31-3.487-7.806-7.79-7.806"/><path fill="#006" d="M12.798 13.049a1.452 1.452 0 0 0-.189-.014c-.48 0-.722.165-.722.49 0 .201.118.329.303.329.345 0 .593-.329.608-.805zm.615 1.435h-.7l.015-.334c-.214.263-.499.39-.886.39-.459 0-.773-.36-.773-.88 0-.784.547-1.242 1.485-1.242.096 0 .219.01.345.025a.797.797 0 0 0 .033-.209c0-.213-.147-.293-.543-.293-.413-.004-.755.1-.895.145l.117-.724c.422-.124.7-.17 1.013-.17.726 0 1.11.326 1.11.944.001.165-.026.37-.068.638a52.06 52.06 0 0 0-.253 1.71zm-2.698 0H9.87l.485-3.044-1.082 3.044h-.576l-.072-3.027-.509 3.027h-.792l.662-3.96H9.2l.074 2.216.742-2.216h1.352l-.654 3.96m15.408-1.435a1.445 1.445 0 0 0-.188-.014c-.48 0-.722.165-.722.49 0 .201.118.329.303.329.344 0 .593-.329.607-.805zm.616 1.435h-.701l.016-.334c-.214.263-.5.39-.886.39-.46 0-.773-.36-.773-.88 0-.784.547-1.242 1.485-1.242.096 0 .218.01.344.025a.791.791 0 0 0 .033-.209c0-.213-.147-.293-.542-.293-.414-.004-.755.1-.896.145.01-.053.118-.724.118-.724.421-.124.7-.17 1.012-.17.727 0 1.111.326 1.11.944a4 4 0 0 1-.068.638c-.073.466-.231 1.466-.252 1.71zm-9.566-.049a1.93 1.93 0 0 1-.608.104c-.432 0-.668-.249-.668-.707-.006-.143.062-.517.116-.858.049-.301.367-2.198.367-2.198h.84l-.098.488h.508l-.115.773h-.51c-.097.613-.236 1.376-.238 1.477 0 .166.089.238.29.238.096 0 .171-.01.228-.03l-.112.713m2.578-.026a2.854 2.854 0 0 1-.863.13c-.941-.001-1.432-.493-1.432-1.436 0-1.1.624-1.911 1.472-1.911.693 0 1.136.453 1.136 1.165 0 .236-.03.467-.104.792h-1.674c-.057.467.241.661.73.661.301 0 .573-.062.875-.202l-.14.8zm-.473-1.91c.005-.067.09-.574-.391-.574-.268 0-.46.204-.537.575h.928zm-5.357-.217c0 .407.197.687.644.899.343.161.396.209.396.355 0 .2-.151.291-.486.291-.252 0-.487-.04-.758-.127l-.116.744c.192.042.364.08.88.095.893 0 1.305-.34 1.305-1.076 0-.442-.172-.702-.596-.898-.355-.162-.396-.199-.396-.35 0-.173.141-.262.414-.262.166 0 .393.018.608.048l.12-.747a5.7 5.7 0 0 0-.744-.062c-.946 0-1.274.495-1.27 1.09m9.942-1.005c.235 0 .455.06.756.213l.139-.859c-.125-.049-.56-.335-.93-.335-.566 0-1.045.282-1.381.746-.491-.163-.693.166-.94.494l-.22.051c.016-.108.032-.215.027-.323h-.777c-.106.996-.294 2.006-.441 3.003l-.039.217h.846c.141-.92.219-1.508.266-1.907l.318-.177c.048-.178.197-.238.496-.23-.04.21-.06.43-.06.66 0 1.053.568 1.71 1.478 1.71.234 0 .436-.032.748-.117l.148-.902c-.28.138-.51.203-.718.203-.492 0-.79-.364-.79-.965 0-.872.442-1.482 1.074-1.482m7.161-.753l-.188 1.144c-.23-.305-.48-.526-.807-.526-.427 0-.815.325-1.07.802-.354-.074-.72-.199-.72-.199v.003c.028-.267.04-.429.037-.484H27.5c-.105.996-.294 2.006-.44 3.003l-.04.217h.847c.114-.744.201-1.361.266-1.85.29-.263.434-.49.726-.476-.13.314-.205.675-.205 1.045 0 .805.406 1.336 1.02 1.336.31 0 .549-.107.78-.355l-.04.3h.801l.644-3.96h-.834zm-1.058 3.216c-.287 0-.433-.214-.433-.635 0-.633.272-1.082.656-1.082.29 0 .448.222.448.63 0 .64-.277 1.087-.67 1.087z"/><path fill="#FFF" d="M10.958 14.249h-.845l.484-3.044-1.081 3.044h-.577l-.071-3.026-.51 3.026h-.791l.661-3.96h1.216l.034 2.451.821-2.45h1.314l-.655 3.959m2.083-1.435a1.403 1.403 0 0 0-.188-.013c-.48 0-.722.165-.722.49 0 .2.118.328.303.328.344 0 .593-.328.607-.805zm.615 1.435h-.7l.016-.334c-.214.264-.5.39-.887.39-.458 0-.772-.36-.772-.88 0-.785.546-1.241 1.485-1.241.096 0 .218.008.344.025a.8.8 0 0 0 .033-.21c0-.213-.147-.292-.542-.292a2.805 2.805 0 0 0-.895.144l.117-.724c.421-.124.7-.17 1.012-.17.726 0 1.111.327 1.11.944a4.13 4.13 0 0 1-.068.638 52.408 52.408 0 0 0-.253 1.71zM25 10.396l-.138.86c-.302-.153-.52-.214-.755-.214-.632 0-1.075.611-1.075 1.483 0 .601.298.964.79.964.208 0 .438-.064.718-.203l-.148.902a2.635 2.635 0 0 1-.748.116c-.91 0-1.478-.656-1.478-1.709 0-1.415.784-2.405 1.905-2.405.37 0 .806.157.93.206m1.364 2.418a1.393 1.393 0 0 0-.188-.013c-.48 0-.722.165-.722.49 0 .2.118.328.303.328.345 0 .593-.328.607-.805zm.616 1.435h-.7l.015-.334c-.214.264-.499.39-.886.39-.459 0-.773-.36-.773-.88 0-.785.546-1.241 1.485-1.241.096 0 .219.008.344.025a.797.797 0 0 0 .033-.21c0-.213-.146-.292-.542-.292a2.806 2.806 0 0 0-.895.144l.117-.724c.422-.124.7-.17 1.012-.17.727 0 1.112.327 1.11.944a4 4 0 0 1-.068.638c-.073.466-.23 1.467-.252 1.71zm-9.566-.049a1.929 1.929 0 0 1-.607.104c-.433 0-.669-.249-.669-.707-.006-.142.063-.516.116-.858l.367-2.197h.84l-.097.487h.431l-.115.773h-.433c-.097.613-.237 1.376-.238 1.477 0 .166.088.238.29.238.096 0 .17-.01.228-.03l-.113.713m2.578-.026c-.289.089-.568.13-.863.13-.94 0-1.431-.493-1.431-1.436 0-1.1.624-1.911 1.47-1.911.694 0 1.137.453 1.137 1.165 0 .236-.03.467-.103.792h-1.675c-.057.467.242.662.73.662.302 0 .573-.062.875-.203l-.14.801zm-.472-1.91c.004-.067.089-.574-.392-.574-.267 0-.459.205-.537.575h.929zm-5.357-.217c0 .407.197.688.644.899.342.161.395.209.395.355 0 .201-.15.292-.485.292a2.39 2.39 0 0 1-.758-.127l-.116.743c.192.042.363.08.88.095.892 0 1.304-.34 1.304-1.076 0-.442-.172-.702-.596-.897-.354-.163-.395-.2-.395-.35 0-.174.14-.264.414-.264.166 0 .393.019.607.05l.12-.747a5.747 5.747 0 0 0-.743-.063c-.947 0-1.274.495-1.271 1.09m17.294 2.202h-.8l.04-.3c-.233.248-.47.355-.78.355-.615 0-1.022-.53-1.022-1.336 0-1.07.63-1.974 1.376-1.974.328 0 .577.135.808.44l.188-1.145h.834l-.644 3.96zm-1.248-.744c.394 0 .67-.448.67-1.085 0-.41-.157-.632-.448-.632-.383 0-.656.449-.656 1.082 0 .422.146.635.434.635zm-2.467-2.476c-.106.996-.294 2.006-.441 3.003l-.039.217h.846c.303-1.97.376-2.354.85-2.306.076-.403.217-.756.321-.934-.354-.074-.552.127-.811.508.02-.165.058-.325.05-.488h-.776m-6.963 0c-.106.996-.294 2.006-.441 3.003l-.039.217h.847c.302-1.97.375-2.354.849-2.306.076-.403.217-.756.321-.934-.353-.074-.552.127-.81.508.02-.165.058-.325.05-.488h-.777"/></g></svg>