<svg xmlns="http://www.w3.org/2000/svg" width="40" height="24"><g fill="none" fill-rule="evenodd" transform="matrix(1 0 0 -1 .078 24)"><rect width="39.922" height="24" fill="#00457C" rx="1.6"/><path fill="#FFF" d="M31.31 15.203l-.805-5.133a.164.164 0 0 1 .16-.19h.81c.135 0 .25.098.27.231l.794 5.04c.016.1-.06.19-.162.19h-.906a.163.163 0 0 1-.161-.138m-10.097-1.68h-.944a.272.272 0 0 1-.226-.12L18.74 11.48l-.552 1.847a.273.273 0 0 1-.26.195h-.929a.164.164 0 0 1-.155-.217l1.04-3.058-.978-1.383a.164.164 0 0 1 .134-.258h.943c.09 0 .173.044.224.117l3.14 4.541a.164.164 0 0 1-.134.258m7.68-1.832a1.048 1.048 0 0 0-1.06-.898c-.273 0-.49.088-.631.254-.14.165-.191.4-.147.66.084.534.517.907 1.052.907.267 0 .484-.09.627-.257.144-.169.2-.405.16-.665m1.308 1.832h-.939a.164.164 0 0 1-.162-.139l-.04-.263-.067.096c-.203.295-.657.394-1.11.394-1.037 0-1.924-.788-2.096-1.893-.09-.551.037-1.078.35-1.446.286-.338.695-.479 1.183-.479.836 0 1.3.539 1.3.539l-.042-.262a.164.164 0 0 1 .162-.19h.846c.134 0 .248.098.27.231l.507 3.222c.016.1-.061.19-.162.19M14.9 11.69a1.048 1.048 0 0 0-1.06-.898c-.273 0-.491.088-.631.254-.14.165-.192.4-.147.66.084.534.517.907 1.052.907.267 0 .484-.09.627-.257.144-.169.2-.405.159-.665m1.31 1.832h-.94a.164.164 0 0 1-.162-.139l-.041-.263-.066.096c-.203.295-.657.394-1.11.394-1.037 0-1.924-.788-2.097-1.893-.09-.551.038-1.078.35-1.446.287-.338.696-.479 1.183-.479.837 0 1.301.539 1.301.539l-.042-.262a.164.164 0 0 1 .162-.19h.846c.134 0 .248.098.269.231l.508 3.222c.016.1-.061.19-.162.19m-5.637-.023c-.108-.705-.645-.705-1.166-.705H9.11l.208 1.317c.012.08.081.138.161.138h.136c.354 0 .689 0 .861-.202.103-.12.135-.3.096-.548m-.227 1.841H8.383a.273.273 0 0 1-.269-.23l-.793-5.04a.164.164 0 0 1 .161-.19h.937c.134 0 .248.098.27.23l.213 1.36c.021.133.135.23.27.23h.62c1.293 0 2.039.627 2.233 1.87.088.542.004.969-.25 1.268-.279.328-.773.502-1.43.502m14.22-1.841c-.107-.705-.645-.705-1.166-.705h-.295l.207 1.317c.013.08.081.138.162.138h.135c.355 0 .689 0 .861-.202.104-.12.135-.3.096-.548m-.227 1.841h-1.961a.273.273 0 0 1-.27-.23l-.793-5.04a.164.164 0 0 1 .161-.19h1.007a.19.19 0 0 1 .188.16l.226 1.43c.02.133.135.23.269.23h.62c1.293 0 2.039.627 2.234 1.87.087.542.003.969-.25 1.268-.28.328-.774.502-1.43.502"/></g></svg>