<svg width="82" height="52" xmlns="http://www.w3.org/2000/svg"><g fill="none" fill-rule="evenodd"><g transform="translate(21.23)"><rect fill="#006" width="60" height="38.687" rx="2.4"/><path d="M33.677 19.657c0 6.95-5.242 12.582-11.709 12.582S10.26 26.606 10.26 19.657c0-6.95 5.242-12.584 11.71-12.584 6.466 0 11.708 5.634 11.708 12.584" fill="#C00"/><path d="M37.688 7.073c-3.026 0-5.782 1.234-7.86 3.257-.423.413-.818.858-1.182 1.333h2.365c.324.422.621.867.893 1.332h-4.151c-.248.428-.474.872-.675 1.333h5.5c.188.431.354.876.496 1.332h-6.492c-.135.434-.249.879-.34 1.332h7.172a13.586 13.586 0 0 1-.34 6.662h-6.492c.143.456.308.901.496 1.333h5.5c-.2.46-.425.904-.675 1.332h-4.15c.27.465.569.91.893 1.332h2.365c-.364.474-.759.92-1.183 1.332 2.078 2.024 4.834 3.256 7.86 3.256 6.467 0 11.71-5.633 11.71-12.582 0-6.95-5.243-12.584-11.71-12.584" fill="#F90"/><path d="M19.234 21.034a2.037 2.037 0 0 0-.284-.021c-.72 0-1.085.266-1.085.79 0 .323.178.529.456.529.518 0 .89-.53.913-1.298zm.925 2.313h-1.054l.024-.538c-.32.425-.75.628-1.332.628-.689 0-1.161-.578-1.161-1.418 0-1.264.821-2.001 2.232-2.001.144 0 .329.014.518.04.039-.171.05-.244.05-.337 0-.343-.222-.472-.816-.472a3.975 3.975 0 0 0-1.345.234l.176-1.168c.633-.2 1.051-.274 1.521-.274 1.092 0 1.67.526 1.669 1.522.002.267-.04.595-.103 1.028-.11.752-.347 2.364-.38 2.756zm-4.055 0h-1.271l.728-4.906-1.626 4.906h-.866l-.107-4.878-.766 4.878h-1.19L12 16.965h1.828l.11 3.572 1.116-3.572h2.033l-.983 6.382m23.156-2.313a2.028 2.028 0 0 0-.284-.021c-.72 0-1.085.266-1.085.79 0 .323.177.529.455.529.518 0 .891-.53.913-1.298zm.924 2.313h-1.053l.024-.538c-.321.425-.75.628-1.332.628-.69 0-1.161-.578-1.161-1.418 0-1.264.821-2.001 2.231-2.001.145 0 .329.014.518.04.04-.171.05-.244.05-.337 0-.343-.222-.472-.815-.472a3.983 3.983 0 0 0-1.346.234l.177-1.168c.633-.2 1.051-.274 1.52-.274 1.093 0 1.67.526 1.67 1.522.002.267-.04.595-.104 1.028-.11.752-.347 2.364-.379 2.756zm-14.376-.079a2.72 2.72 0 0 1-.913.169c-.65 0-1.005-.401-1.005-1.14-.009-.23.094-.834.174-1.384.074-.485.552-3.542.552-3.542h1.263l-.147.786h.763l-.172 1.247h-.766c-.147.987-.356 2.217-.359 2.38 0 .267.133.384.436.384a.968.968 0 0 0 .342-.049l-.168 1.15m3.874-.043a4.023 4.023 0 0 1-1.296.21c-1.415-.001-2.152-.795-2.152-2.315 0-1.774.938-3.08 2.211-3.08 1.042 0 1.707.731 1.707 1.878 0 .38-.045.752-.156 1.276H27.48c-.085.753.363 1.067 1.099 1.067.452 0 .86-.1 1.313-.326l-.21 1.29zm-.71-3.077c.007-.108.134-.926-.589-.926-.402 0-.69.33-.806.926h1.395zm-8.051-.351c0 .656.296 1.108.968 1.449.514.26.595.337.595.573 0 .323-.228.47-.73.47-.38 0-.733-.065-1.14-.206l-.174 1.2c.289.067.546.13 1.323.153 1.34 0 1.96-.549 1.96-1.735 0-.713-.259-1.132-.896-1.447-.532-.262-.594-.321-.594-.564 0-.28.212-.423.622-.423.25 0 .59.028.914.077l.18-1.204a8 8 0 0 0-1.118-.1c-1.422 0-1.915.798-1.91 1.757m14.943-1.62c.353 0 .683.098 1.136.344l.208-1.385c-.186-.079-.842-.54-1.397-.54-.85 0-1.57.454-2.075 1.202-.738-.263-1.042.268-1.414.797l-.33.083c.025-.174.048-.347.04-.522h-1.167c-.16 1.606-.442 3.233-.663 4.841l-.058.35h1.272c.212-1.483.328-2.432.399-3.074l.479-.286c.072-.286.295-.382.744-.37a6.29 6.29 0 0 0-.09 1.063c0 1.699.854 2.756 2.221 2.756.353 0 .656-.05 1.124-.187l.223-1.454c-.421.222-.767.327-1.08.327-.739 0-1.186-.587-1.186-1.555 0-1.406.665-2.39 1.614-2.39m10.763-1.213l-.283 1.844c-.347-.492-.72-.848-1.213-.848-.642 0-1.225.523-1.608 1.292a9.79 9.79 0 0 1-1.082-.32v.005c.042-.43.06-.692.056-.781h-1.168c-.159 1.606-.442 3.233-.663 4.841l-.058.35h1.272c.172-1.199.303-2.195.4-2.983.435-.423.652-.79 1.09-.766a4.74 4.74 0 0 0-.307 1.684c0 1.297.61 2.154 1.534 2.154.466 0 .824-.173 1.172-.573l-.06.483h1.203l.968-6.382h-1.253zm-1.59 5.183c-.433 0-.652-.345-.652-1.023 0-1.02.41-1.744.986-1.744.437 0 .674.357.674 1.017 0 1.029-.416 1.75-1.008 1.75z" fill="#006"/><path fill="#FFF" d="M16.47 22.968h-1.271l.728-4.906-1.626 4.906h-.866l-.107-4.877-.766 4.877h-1.19l.994-6.382h1.828l.051 3.951 1.234-3.95h1.974l-.983 6.381m3.13-2.312a1.969 1.969 0 0 0-.284-.021c-.72 0-1.085.265-1.085.79 0 .322.178.529.456.529.518 0 .89-.53.913-1.298zm.924 2.312h-1.053l.024-.537c-.32.424-.75.627-1.332.627-.689 0-1.161-.578-1.161-1.418 0-1.264.822-2 2.232-2 .144 0 .329.014.518.04.04-.172.05-.245.05-.338 0-.343-.222-.47-.816-.47a3.96 3.96 0 0 0-1.345.232l.176-1.167c.633-.2 1.051-.275 1.521-.275 1.092 0 1.67.527 1.669 1.522.002.267-.039.597-.103 1.028-.11.752-.347 2.365-.38 2.756zm17.05-6.21l-.208 1.385c-.454-.245-.783-.344-1.135-.344-.95 0-1.615.986-1.615 2.391 0 .969.447 1.554 1.186 1.554.313 0 .66-.104 1.08-.327l-.224 1.454c-.468.137-.77.187-1.123.187-1.369 0-2.221-1.057-2.221-2.755 0-2.282 1.178-3.876 2.863-3.876.555 0 1.21.252 1.397.331m2.051 3.898a1.955 1.955 0 0 0-.283-.021c-.72 0-1.085.265-1.085.79 0 .322.178.529.455.529.518 0 .891-.53.913-1.298zm.925 2.312h-1.053l.024-.537c-.322.424-.75.627-1.332.627-.69 0-1.161-.578-1.161-1.418 0-1.264.82-2 2.231-2 .144 0 .329.014.518.04.04-.172.05-.245.05-.338 0-.343-.221-.47-.816-.47a3.962 3.962 0 0 0-1.345.232l.176-1.167c.634-.2 1.051-.275 1.521-.275 1.092 0 1.67.527 1.67 1.522.002.267-.04.597-.104 1.028-.11.752-.347 2.365-.38 2.756zm-14.376-.078c-.348.117-.62.168-.913.168-.65 0-1.005-.401-1.005-1.14-.009-.23.094-.832.175-1.383.073-.486.55-3.542.55-3.542h1.264l-.148.785h.65l-.174 1.247h-.65c-.147.988-.356 2.217-.36 2.38 0 .269.134.385.437.385a.952.952 0 0 0 .342-.05l-.168 1.15m3.874-.042a4.05 4.05 0 0 1-1.297.21c-1.414 0-2.151-.795-2.151-2.315 0-1.775.938-3.081 2.21-3.081 1.043 0 1.708.731 1.708 1.88 0 .38-.046.75-.155 1.275h-2.517c-.085.753.364 1.067 1.098 1.067.452 0 .86-.1 1.315-.327l-.21 1.291zm-.71-3.078c.007-.108.134-.926-.588-.926-.402 0-.69.33-.808.926h1.396zm-8.051-.351c0 .657.296 1.109.968 1.45.515.26.594.337.594.572 0 .324-.227.47-.73.47-.379 0-.732-.063-1.139-.204l-.174 1.197c.288.068.546.13 1.322.154 1.342 0 1.961-.548 1.961-1.734 0-.714-.26-1.132-.896-1.446-.533-.264-.594-.322-.594-.565 0-.28.211-.425.622-.425.25 0 .59.03.913.08l.181-1.205a8.066 8.066 0 0 0-1.118-.101c-1.423 0-1.915.798-1.91 1.757m25.991 3.549h-1.202l.06-.483c-.35.4-.707.573-1.173.573-.924 0-1.535-.855-1.535-2.154 0-1.726.948-3.181 2.069-3.181.493 0 .866.216 1.213.708l.282-1.845h1.254l-.968 6.382zm-1.875-1.199c.592 0 1.007-.72 1.007-1.749 0-.66-.236-1.018-.673-1.018-.577 0-.986.724-.986 1.744 0 .68.22 1.023.652 1.023zm-3.708-3.991c-.159 1.607-.442 3.234-.663 4.841l-.058.35h1.272c.454-3.175.564-3.794 1.277-3.717.114-.65.325-1.218.483-1.505-.533-.12-.83.204-1.22.818.031-.265.087-.523.077-.787h-1.168m-10.464 0c-.16 1.607-.443 3.234-.663 4.841l-.058.35h1.272c.455-3.175.564-3.794 1.276-3.717.114-.65.326-1.218.483-1.505-.532-.12-.83.204-1.219.818.031-.265.088-.523.077-.787H31.23"/></g><g transform="translate(0 12.444)"><rect fill="#26337A" width="60" height="38.687" rx="2.4"/><path fill="#FFFFFE" d="M24.894 25.5l1.845-12.3h2.949l-1.845 12.3h-2.949M38.54 13.502a6.848 6.848 0 0 0-2.643-.516c-2.915 0-4.968 1.67-4.985 4.06-.018 1.767 1.465 2.753 2.583 3.34 1.15.603 1.535.988 1.53 1.527-.007.824-.917 1.201-1.764 1.201-1.181 0-1.808-.186-2.778-.645l-.38-.196-.412 2.753c.688.343 1.963.64 3.286.656 3.098 0 5.111-1.65 5.135-4.201.01-1.402-.775-2.465-2.477-3.342-1.03-.57-1.663-.948-1.656-1.525 0-.511.535-1.059 1.69-1.059a4.868 4.868 0 0 1 2.207.473l.264.14.4-2.666m3.926 7.637c.245-.707 1.175-3.438 1.175-3.438-.017.033.243-.712.392-1.173l.2 1.06.682 3.55h-2.449zm3.638-7.926h-2.279c-.706 0-1.235.218-1.545 1.02l-4.38 11.27h3.098s.505-1.516.62-1.848l3.777.006c.088.43.359 1.843.359 1.843h2.737l-2.387-12.29zM22.42 13.21l-2.886 8.386-.31-1.705c-.537-1.963-2.212-4.092-4.084-5.159l2.64 10.757 3.121-.002 4.644-12.276H22.42"/><path d="M16.854 13.203H12.1l-.04.254c3.701 1.02 6.15 3.478 7.166 6.434l-1.034-5.65c-.178-.78-.696-1.011-1.337-1.038" fill="#EC982D"/></g></g></svg>