<svg xmlns="http://www.w3.org/2000/svg" width="40" height="24"><g fill="none" fill-rule="evenodd"><rect width="39.922" height="24" fill="#26337A" rx="1.6"/><path fill="#FFFFFE" d="M16.564 15.819l1.227-7.63h1.962l-1.227 7.63h-1.962m9.079-7.443a4.842 4.842 0 0 0-1.758-.32c-1.94 0-3.305 1.036-3.317 2.518-.012 1.097.975 1.708 1.719 2.073.764.374 1.021.613 1.018.947-.005.51-.61.745-1.174.745-.786 0-1.203-.115-1.848-.4l-.253-.122-.274 1.708c.457.213 1.305.397 2.186.407 2.061 0 3.401-1.023 3.417-2.606.007-.87-.516-1.529-1.648-2.073-.686-.354-1.107-.588-1.102-.947 0-.317.355-.656 1.124-.656a3.436 3.436 0 0 1 1.468.293l.177.087.265-1.654m2.613 4.738c.163-.439.782-2.133.782-2.133-.012.02.161-.442.26-.728l.133.658.454 2.203h-1.629zm2.42-4.917H29.16c-.47 0-.822.135-1.028.632l-2.914 6.992h2.06s.337-.94.413-1.147l2.514.004c.058.267.239 1.143.239 1.143h1.82l-1.587-7.624zm-15.758-.002l-1.92 5.202-.206-1.057c-.358-1.219-1.472-2.539-2.719-3.2l1.757 6.672 2.077-.001 3.09-7.616h-2.08"/><path fill="#EC982D" d="M11.214 8.19H8.05l-.026.158c2.462.632 4.091 2.158 4.768 3.992l-.688-3.506c-.119-.483-.463-.627-.89-.644"/></g></svg>