<?xml version="1.0" standalone="no"?>
<!DOCTYPE svg PUBLIC "-//W3C//DTD SVG 1.1//EN" "http://www.w3.org/Graphics/SVG/1.1/DTD/svg11.dtd" >
<svg xmlns="http://www.w3.org/2000/svg">
<metadata>Generated by IcoMoon</metadata>
<defs>
<font id="icomoon" horiz-adv-x="1024">
<font-face units-per-em="1024" ascent="960" descent="-64" />
<missing-glyph horiz-adv-x="1024" />
<glyph unicode="&#x20;" horiz-adv-x="512" d="" />
<glyph unicode="&#xe900;" glyph-name="icn_boat" d="M882.609 29.082c-64.357 0-128.768 21.862-185.294 61.44-112.997-79.565-257.536-79.565-370.586 0-56.474-39.578-120.883-61.44-185.294-61.44h-92.672v-93.083h92.672c63.949 0 126.976 16.283 185.344 46.080 53.808-28.37 117.594-45.021 185.267-45.021s131.459 16.651 187.482 46.080l-2.212-1.059c58.368-30.208 121.344-46.080 185.344-46.080h92.622v93.083h-92.672zM139.185 122.163h2.304c74.138 0 139.931 40.96 185.344 93.134 45.364-52.172 111.104-93.134 185.243-93.134s139.931 40.96 185.344 93.134c45.364-52.172 111.104-93.134 185.243-93.134h2.356l87.552 310.939c1.415 4.38 2.231 9.418 2.231 14.646 0 7.905-1.864 15.372-5.176 21.989l0.128-0.285c-5.752 11.117-15.562 19.462-27.425 23.156l-0.328 0.089-59.341 19.558v215.040c0 51.2-41.677 93.083-92.622 93.083h-138.957v139.621h-277.966v-139.621h-139.008c-51.208-0.289-92.615-41.84-92.672-93.077v-215.046l-59.749-19.558c-12.217-3.784-22.049-12.149-27.681-23.038l-0.121-0.258c-3.257-6.237-5.166-13.62-5.166-21.45 0-5.312 0.879-10.42 2.501-15.182l-0.097 0.331 88.014-310.939zM234.11 727.298h555.827v-184.832l-277.966 91.699-277.915-91.648v184.73z" />
<glyph unicode="&#xe901;" glyph-name="icn_avia" d="M307.198-33.886h102.401l256.002 405.77h281.63c42.494 0 76.769 34.006 76.769 76.116s-34.279 76.116-76.769 76.116h-281.63l-256.002 405.77h-102.401l128.030-405.77h-281.63l-76.769 101.359h-76.829l51.199-177.478-51.199-177.53h76.829l76.769 101.47h281.63l-128.030-405.825z" />
<glyph unicode="&#xe902;" glyph-name="icn_train" d="M512 959.999c-237.128 0-431.162-26.933-431.162-215.581v-512c0-102.384 86.224-188.609 188.648-188.609l-80.838-80.838v-26.973h646.704v26.973l-80.838 80.838c102.384 0 188.648 86.224 188.648 188.609v512c0 188.648-194.035 215.581-431.162 215.581zM269.446 151.62c-43.092 0-80.838 37.705-80.838 80.798 0 43.132 37.705 80.838 80.838 80.838 43.092 0 80.838-37.705 80.838-80.838 0-43.092-37.746-80.838-80.838-80.838zM458.055 474.972h-269.407v269.446h269.446v-269.446zM754.514 151.579c-43.132 0-80.878 37.746-80.878 80.838 0 43.132 37.746 80.838 80.838 80.838s80.838-37.705 80.838-80.838c0-43.092-37.705-80.838-80.838-80.838zM835.312 474.972h-269.407v269.446h269.446v-269.446z" />
<glyph unicode="&#xe903;" glyph-name="icn_bus" d="M744.737 773.786h-651.631c-51.216 0-93.106-41.386-93.106-93.050v-418.894h93.106c0-76.797 62.387-139.631 139.631-139.631s139.631 62.834 139.631 139.631h255.972c0-76.797 62.387-139.631 139.631-139.631 77.3 0 139.631 62.834 139.631 139.631h116.397v232.681l-279.263 279.263zM93.106 494.524v186.212h186.157v-186.212h-186.157zM232.737 192.026c-38.649 0-69.816 31.166-69.816 69.816 0 38.594 31.166 69.816 69.816 69.816s69.816-31.222 69.816-69.816c0-38.649-31.166-69.816-69.816-69.816zM558.526 494.524h-186.157v186.212h186.157v-186.212zM767.972 192.026c-38.594 0-69.816 31.166-69.816 69.816 0 38.594 31.222 69.816 69.816 69.816 38.649 0 69.816-31.222 69.816-69.816 0-38.649-31.166-69.816-69.816-69.816zM651.631 494.524v186.212h46.526l186.212-186.212h-232.737z" />
<glyph unicode="&#xe904;" glyph-name="icn_car" d="M1018.106 586.094c-4.848 5.918-12.143 9.675-20.318 9.711h-99.648c-24.625 64.855-56.636 128.394-93.052 152.394-126 82.891-460.128 82.891-586.128 0-36.416-24.034-68.324-87.642-93.052-152.428h-99.676c-0.023 0-0.052 0-0.080 0-14.443 0-26.151-11.708-26.151-26.151 0-1.916 0.206-3.784 0.597-5.583l-0.031 0.173 14.775-71.48c2.548-12.018 13.068-20.907 25.664-20.913h29.481c-28.439-32.878-42.313-74.29-42.451-115.7-0.208-51.191 19.214-97.457 54.764-130.162 0.381-0.346 0.763-0.555 1.144-0.901v-100.093c0-21.676 17.619-39.329 39.329-39.329h91.907c21.711 0 39.329 17.688 39.329 39.329v40.232h514.961v-40.232c0-21.676 17.619-39.329 39.329-39.329h91.907c21.676 0 39.364 17.688 39.364 39.329v98.15c37.7 34.509 55.699 82.023 55.942 129.434 0.139 42.833-14.289 85.769-44.463 119.307h31.491c12.451 0 23.202 8.74 25.665 20.948l14.775 71.48c0.33 1.567 0.519 3.367 0.519 5.211 0 6.328-2.224 12.136-5.933 16.686l0.038-0.048zM262.139 682.511c100.439 66.104 399.296 66.104 499.666 0 19.491-12.798 44.601-64.509 67.596-127.873h-634.823c22.925 63.329 48.035 115.040 67.527 127.873zM144.532 346.302c0.010 42.716 34.641 77.341 77.358 77.341 42.724 0 77.358-34.635 77.358-77.358 0-0.006 0-0.012 0-0.018v0.001c0-42.724-34.635-77.358-77.358-77.358s-77.358 34.635-77.358 77.358v0zM803.146 268.926c-42.733 0-77.375 34.642-77.375 77.375s34.642 77.375 77.375 77.375v0c42.733 0 77.375-34.642 77.375-77.375s-34.642-77.375-77.375-77.375v0z" />
<glyph unicode="&#xe905;" glyph-name="icn_hotels" d="M273.886 439.807c75.608 0.058 136.885 61.335 136.943 136.937v0.006c-0.058 75.608-61.335 136.885-136.937 136.943h-0.006c-75.608-0.058-136.885-61.335-136.943-136.937v-0.006c0.058-75.608 61.335-136.885 136.937-136.943h0.006zM821.623 713.693h-365.158v-319.522h-365.158v410.795h-91.307v-684.715h91.307v136.977h821.589v-136.943h91.307v410.795c0 0.020 0 0.044 0 0.068 0 100.817-81.728 182.545-182.545 182.545-0.012 0-0.024 0-0.036 0h0.002z" />
<glyph unicode="&#xe906;" glyph-name="icn_lie_seat" d="M1023.999 524.772v-102.363h-665.604v307.211h460.818c0.018 0 0.040 0 0.062 0 113.067 0 204.726-91.659 204.726-204.726 0-0.043 0-0.086 0-0.13v0.006zM0.001 371.166v-102.363h307.211v-102.425h409.574v102.425h307.211v102.363h-1023.998zM263.159 468.491c25.119 27.259 40.52 63.808 40.52 103.954 0 84.834-68.772 153.606-153.606 153.606-41.17 0-78.557-16.197-106.137-42.567l0.057 0.055c-25.119-27.259-40.52-63.808-40.52-103.954 0-84.834 68.772-153.606 153.606-153.606 41.17 0 78.557 16.197 106.137 42.567l-0.057-0.055z" />
<glyph unicode="&#xe907;" glyph-name="icn_avia2" d="M33.315 107.296h959.386v-101.478h-959.386v101.478zM1021.475 582.193c-8.76 32.733-38.153 56.443-73.084 56.443-7.054 0-13.882-0.967-20.359-2.775l0.531 0.127-268.083-72.055-349.457 326.246-96.427-25.873 209.033-363.793-250.948-67.482-99.465 78.165-73.216-19.797 91.887-160.358 38.912-67.482 80.759 21.299 268.117 72.567 487.765 130.389c40.892 12.186 64.649 53.794 54.033 94.379z" />
<glyph unicode="&#xe908;" glyph-name="translate" d="M328.97 636.097h-10.138l-18.942-96.050h48.026zM708.104 443.999c10.316-28.834 24.037-52.175 39.223-72.036 15.186 19.861 30.502 43.204 40.818 72.036h-80.042zM845.331 708.133h-293.406l61.177-491.836c1.082-20.118-4.409-39.056-17.511-53.883l-103.603-118.628h353.344c39.085 0 70.879 31.854 70.879 71.010v520.747c0 39.155-31.794 72.588-70.879 72.588zM845.331 446.182h-6.311c-13.443-43.212-34.763-77.022-56.915-103.679 17.357-15.897 35.912-28.939 54.367-43.542 10.174-8.16 11.837-23.046 3.669-33.265-8.13-10.202-23.047-11.854-33.202-3.676-20.049 15.856-38.867 29.127-57.689 46.426-18.818-17.303-36.062-30.571-56.113-46.426-10.156-8.182-25.069-6.526-33.202 3.676-8.169 10.219-6.508 25.105 3.669 33.265 18.45 14.608 35.434 27.647 52.791 43.542-22.156 26.656-41.901 60.466-55.343 103.679h-6.311c-13.057 0-23.625 10.589-23.625 23.67s10.568 23.67 23.625 23.67h70.879v23.67c0 13.084 10.568 23.67 23.625 23.67s23.625-10.589 23.625-23.67v-23.67h72.451c13.057 0 23.625-10.589 23.625-23.67s-10.568-23.67-23.625-23.67zM492.247 790.151c-4.407 35.374-34.646 62.058-70.301 62.058h-243.299c-39.073 0-70.856-31.777-70.856-70.841v-522.661c0-39.064 31.783-70.841 70.856-70.841 141.194 0 242.767 0 372.47 0 6.889 7.876 12.667 12.807 12.911 23.082 0.060 2.576-71.459 576.649-71.78 579.208zM397.427 400.854c-12.523-2.576-25.212 5.551-27.794 18.517l-15.094 75.477h-66.78l-15.094-75.477c-2.537-12.775-14.853-21.169-27.794-18.517-12.777 2.559-21.083 14.988-18.521 27.788l47.237 236.141c2.213 11.022 11.904 18.981 23.157 18.981h48.81c11.253 0 20.944-7.954 23.157-18.981l47.239-236.141c2.559-12.801-5.741-25.229-18.521-27.788zM387.936 139.839l4.178-32.686c2.789-21.889 17.658-44.212 42.116-55.357 46.161 49.703 18.232 19.634 81.77 88.048h-128.068z" />
<glyph unicode="&#xe909;" glyph-name="icn_avatar" horiz-adv-x="847" d="M423.5 949.145c117.169 0 211.752-94.583 211.752-211.752s-94.583-211.752-211.752-211.752c-117.169 0-211.752 94.583-211.752 211.752s94.583 211.752 211.752 211.752zM423.5-53.147c-176.46 0-332.45 90.347-423.503 227.281 2.118 140.462 282.336 217.399 423.503 217.399 140.462 0 421.386-76.937 423.503-217.399-91.054-136.933-247.043-227.281-423.503-227.281z" />
<glyph unicode="&#xe90a;" glyph-name="icn_bug" horiz-adv-x="1280" d="M608 895.999c-70.692 0-128-57.308-128-128s320-70.692 320 0c0 70.692-57.308 128-128 128h-64zM672 959.999c106.039 0 192-85.961 192-192 0-52.044-107.476-61.435-217.378-62.393-114.022-0.993-230.622 8.398-230.622 62.393 0 106.039 85.961 192 192 192h64zM96 703.999v-704h1088v704h-1088zM32 767.999h1216v-832h-1216v832z" />
<glyph unicode="&#xe90b;" glyph-name="icn_luggage" d="M777.587 713.914h-531.746v-654.457h531.746v654.457zM491.262 754.817v122.711h-40.904c-22.579 0-40.904 18.325-40.904 40.904s18.325 40.904 40.904 40.904v0h122.711c22.579 0 40.904-18.325 40.904-40.904s-18.325-40.904-40.904-40.904v0h-40.904v-122.711h286.325v-736.264h-122.711v-40.904c0-22.579-18.325-40.904-40.904-40.904s-40.904 18.325-40.904 40.904v0 40.904h-204.518v-40.904c0-22.579-18.325-40.904-40.904-40.904s-40.904 18.325-40.904 40.904v0 40.904h-122.711v736.264h286.325z" />
<glyph unicode="&#xe90c;" glyph-name="icn_order_error" d="M460.8 294.4h102.4v-102.4h-102.4v102.4zM460.8 704h102.4v-307.2h-102.4v307.2zM511.488 960c-282.523-0.166-511.488-229.235-511.488-511.78 0-0.077 0-0.154 0-0.231v0.011c0-282.624 228.864-512 511.488-512 0.065 0 0.142 0 0.22 0 282.828 0 512.125 229.194 512.292 511.983v0.017c0 282.624-229.376 512-512.512 512zM512 38.4c-0.043 0-0.095 0-0.146 0-226.135 0-409.454 183.319-409.454 409.454 0 0.051 0 0.103 0 0.154v-0.007c0 226.304 183.296 409.6 409.6 409.6s409.6-183.296 409.6-409.6-183.296-409.6-409.6-409.6z" />
<glyph unicode="&#xe90d;" glyph-name="icn_info" d="M464 208h96v288h-96v-288zM512 928c-264.96 0-480-215.040-480-480s215.040-480 480-480c264.96 0 480 215.040 480 480s-215.040 480-480 480zM512 64c-211.712 0-384 172.352-384 384 0 211.712 172.288 384 384 384 211.648 0 384-172.288 384-384 0-211.648-172.352-384-384-384zM464 592h96v96h-96v-96z" />
<glyph unicode="&#xe90e;" glyph-name="icn_question_mark" d="M512 960c282.624 0 512-229.376 512-512s-229.376-512-512-512-512 229.376-512 512 229.376 512 512 512zM512 38.4c225.792 0 409.6 183.808 409.6 409.6s-183.808 409.6-409.6 409.6c-226.099-0.291-409.309-183.501-409.6-409.572v-0.028c0-225.792 183.808-409.6 409.6-409.6zM549.12 290.368h-95.744c-0.192 8.32-0.32 16.768-0.384 25.152 0 30.976 5.12 56.512 15.36 76.48s30.784 42.496 61.568 67.52c30.72 24.96 49.152 41.344 55.040 49.152 9.28 12.16 13.888 25.728 13.888 40.448 0 20.48-8.192 38.080-24.576 52.736-16.384 14.592-38.4 21.888-66.112 21.888-26.816 0-49.152-7.68-67.136-22.848-18.048-15.296-30.4-38.528-37.12-69.76l-96.704 11.968c2.752 44.8 21.76 82.752 57.216 113.984 35.328 31.232 81.792 46.912 139.264 46.912 60.544 0 108.608-15.808 144.384-47.488 35.776-31.552 53.632-68.352 53.632-110.336 0-23.296-6.528-45.312-19.648-66.048-13.184-20.736-41.216-49.024-84.224-84.736-22.208-18.56-36.032-33.408-41.472-44.608-5.312-11.264-7.808-31.36-7.296-60.416zM453.44 148.608v105.344h105.408v-105.344h-105.408z" />
<glyph unicode="&#xe90f;" glyph-name="icn_order_waiting" d="M512 959.999c-283.136 0-512-230.4-512-512 0-282.77 229.23-512 512-512v0c115.818 0.226 222.616 38.654 308.514 103.347l-1.314-0.947v139.264c-75.331-85.442-184.983-139.104-307.171-139.264h-0.029c-226.216 0-409.6 183.384-409.6 409.6s183.384 409.6 409.6 409.6v0c0.067 0 0.146 0 0.225 0 170.713 0 316.985-104.641 378.175-253.28l0.991-2.72h109.056c-66.875 209.41-259.736 358.401-487.396 358.401-0.37 0-0.739 0-1.109-0.001h0.057zM460.8 703.999v-307.2l268.8-161.28 38.4 62.976-230.4 136.704v268.8h-76.8zM921.6 499.2v-358.4h102.4v358.4h-102.4zM921.6 38.4v-102.4h102.4v102.4h-102.4z" />
<glyph unicode="&#xe910;" glyph-name="icn_timer_gray" d="M511.488 960c-282.624 0-511.488-229.376-511.488-512s228.864-512 511.488-512c283.136 0 512.512 229.376 512.512 512s-229.376 512-512.512 512zM512 38.4c-226.304 0-409.6 183.296-409.6 409.6s183.296 409.6 409.6 409.6c226.304 0 409.6-183.296 409.6-409.6s-183.296-409.6-409.6-409.6zM537.6 704h-76.8v-307.2l268.8-161.28 38.4 62.976-230.4 136.704z" />
<glyph unicode="&#xe911;" glyph-name="icn_upsell_block" d="M512 960c-282.624 0-512-229.376-512-512s229.376-512 512-512 512 229.376 512 512-229.376 512-512 512zM102.4 448c0 226.304 183.296 409.6 409.6 409.6 94.72 0 181.76-32.256 250.88-86.528l-573.952-573.952c-53.939 68.114-86.529 155.28-86.529 250.058 0 0.289 0 0.578 0.001 0.867v-0.044zM512 38.4c-0.244-0.001-0.533-0.001-0.822-0.001-94.777 0-181.943 32.589-250.902 87.174l0.844-0.645 573.952 573.952c54.272-69.12 86.528-156.16 86.528-250.88 0-226.304-183.296-409.6-409.6-409.6z" />
<glyph unicode="&#xe912;" glyph-name="icn_warning" d="M563.2 396.8h-102.4v307.2h102.4v-307.2zM563.2 192h-102.4v102.4h102.4v-102.4zM512 960c-282.77 0-512-229.23-512-512 0-135.791 53.943-266.020 149.961-362.039s226.248-149.961 362.039-149.961c135.791 0 266.020 53.943 362.039 149.961s149.961 226.248 149.961 362.039c0 135.791-53.943 266.020-149.961 362.039s-226.248 149.961-362.039 149.961z" />
<glyph unicode="&#xe913;" glyph-name="icn-order-paid" d="M511.745 958.663c281.886 0 510.663-228.777 510.663-510.663s-228.777-510.663-510.663-510.663-510.663 228.777-510.663 510.663 228.777 510.663 510.663 510.663zM409.612 141.909l459.596 459.596-101.928 101.826-357.668-357.872-152.943 153.607-102.388-101.826 255.331-255.331z" />
<glyph unicode="&#xe914;" glyph-name="icn_plus" d="M910.243 960h-796.486c-62.826 0-113.757-50.931-113.757-113.757v0-796.486c0-62.826 50.931-113.757 113.757-113.757v0h796.486c62.557 0 113.757 51.2 113.757 113.757v796.486c0 62.557-51.2 113.757-113.757 113.757zM791.273 392.145h-223.418v-223.418h-111.709v223.418h-223.418v111.709h223.418v223.418h111.709v-223.418h223.418v-111.709z" />
<glyph unicode="&#xe915;" glyph-name="icn_medicine" d="M804.569 618.628h-48.742v97.544c0 134.583-109.246 243.828-243.828 243.828-134.649-0.034-243.796-109.179-243.828-243.825v-97.547h-48.742c-53.657 0-97.544-43.886-97.544-97.485v-487.658c0-53.599 43.886-97.485 97.544-97.485h585.142c53.657 0 97.544 43.886 97.544 97.485v487.658c0 53.599-43.886 97.485-97.544 97.485zM360.856 716.171c0.1 83.434 67.708 151.042 151.132 151.142h0.010c83.434-0.1 151.042-67.708 151.142-151.132v-97.553h-302.284v97.544zM707.026 228.572h-146.286v-146.286h-97.485v146.286h-146.286v97.485h146.286v146.286h97.485v-146.286h146.286v-97.485z" />
<glyph unicode="&#xe916;" glyph-name="icn_send_email" d="M614.4 960h-409.6c-56.832 0-102.4-45.568-102.4-102.4v-819.201c0-56.554 45.846-102.4 102.4-102.4v0h614.4c56.554 0 102.4 45.846 102.4 102.4v0 614.4l-307.2 307.2zM539.648 70.656v102.4h-204.8v101.888h204.8v102.4l153.6-153.6-153.6-153.088zM563.2 601.6v281.6l281.6-281.6h-281.6z" />
<glyph unicode="&#xe917;" glyph-name="icn_attention" d="M558.546 336.578h-93.133v178.224h93.133v-178.224zM558.546 158.356h-93.133v89.112h93.133v-89.112zM-0.001 24.667h1024l-512.021 846.666-511.979-846.666z" />
<glyph unicode="&#xe918;" glyph-name="icn_monetization" d="M512.004 857.27c-225.894 0-409.275-183.381-409.275-409.275s183.381-409.275 409.275-409.275c225.894 0 409.275 183.381 409.275 409.275s-183.381 409.275-409.275 409.275zM512.004 959.572c282.395 0 511.577-229.183 511.577-511.577s-229.183-511.577-511.577-511.577c-282.395 0-511.577 229.183-511.577 511.577s229.183 511.577 511.577 511.577zM573.263 175.379v-85.508h-119.513v86.385c-76.54 16.115-141.46 65.359-146.372 152.204h87.744c4.473-47.007 36.703-83.71 118.615-83.71 87.744 0 107.433 43.872 107.433 71.169 0 37.163-19.689 72.068-119.513 95.791-111.007 26.858-187.108 72.506-187.108 164.284 0 77.001 62.223 127.121 139.224 143.697v86.385h119.513v-87.284c83.249-20.149 124.885-83.271 127.582-151.743h-87.744c-2.236 49.682-28.656 83.71-99.364 83.71-67.156 0-107.433-30.432-107.433-73.405 0-37.601 29.095-62.223 119.513-85.508s187.108-62.223 187.108-175.028c-0.439-81.912-61.763-126.683-139.663-141.46z" />
<glyph unicode="&#xe919;" glyph-name="icn_timer" d="M658.681 959.437h-293.215v-97.423h293.215v97.423zM463.184 326.253h97.738v292.247h-97.738v-292.247zM855.609 648.211l69.395 69.164c-21.021 24.85-43.977 48.227-68.911 68.68l-69.395-69.164c-75.75 60.389-171.047 96.434-274.656 96.434-242.883 0-439.832-196.297-439.832-438.36s196.465-438.36 439.832-438.36c243.367 0 439.832 196.297 439.832 438.36 0 103.251-36.171 198.233-96.265 273.246zM512.063 34.007c-189.122 0-342.094 152.446-342.094 340.958s152.972 340.958 342.094 340.958c189.122 0 342.094-152.446 342.094-340.958s-152.972-340.958-342.094-340.958z" />
<glyph unicode="&#xe91a;" glyph-name="icn_sentiment" d="M511.364 959.599c-282.395 0-511.073-228.678-511.073-511.577s228.678-511.577 511.073-511.577c282.395 0 512.103 228.678 512.103 511.577s-229.183 511.577-512.103 511.577zM511.868 38.747c-226.113 0-409.275 183.14-409.275 409.275s183.14 409.275 409.275 409.275c226.113 0 409.275-183.14 409.275-409.275s-183.14-409.275-409.275-409.275zM563.020 553.416l54.221-54.221 54.221 54.221 54.221-54.221 54.221 54.221-108.463 108.463-108.463-108.463zM352.254 553.416l54.221-54.221 54.221 54.221-108.463 108.463-108.463-108.463 54.221-54.221 54.221 54.221zM511.868 166.658c119.207 0 220.5 74.699 261.412 179.062h-522.847c40.934-104.363 142.228-179.062 261.412-179.062z" />
<glyph unicode="&#xe91b;" glyph-name="icn_eye" d="M512 587.636c-77.119 0-139.636-62.518-139.636-139.636s62.518-139.636 139.636-139.636v0c77.119 0 139.636 62.518 139.636 139.636s-62.518 139.636-139.636 139.636v0zM512 215.272c-128.532 0-232.727 104.196-232.727 232.727s104.196 232.727 232.727 232.727v0c128.532 0 232.727-104.196 232.727-232.727s-104.196-232.727-232.727-232.727v0zM512 797.091c-232.727 0-431.477-144.756-512-349.091 80.523-204.335 279.273-349.091 512-349.091s431.477 144.756 512 349.091c-80.523 204.335-279.273 349.091-512 349.091z" />
<glyph unicode="&#xe91c;" glyph-name="icn_eye_off" d="M504.089 610.909l147.549-147.084v7.448c0 77.119-62.518 139.636-139.636 139.636v0h-7.912zM303.943 573.673l72.145-72.145c-2.327-9.775-3.723-19.549-3.723-30.254 0-77.119 62.518-139.636 139.636-139.636v0c10.24 0 20.48 1.396 30.254 3.723l72.145-72.145c-31.186-15.36-65.629-24.669-102.4-24.669-128.532 0-232.727 104.196-232.727 232.727v0c0 36.771 9.309 71.215 24.669 102.4zM46.546 831.069l127.069-127.069c-76.8-60.509-137.309-139.636-173.615-232.727 80.523-204.335 279.273-349.091 511.999-349.091 72.145 0 141.033 13.964 203.869 39.098l20.015-19.549 135.913-135.913 59.113 59.113-825.251 825.251-59.113-59.113zM512.001 704c128.532 0 232.727-104.196 232.727-232.727v0c0-29.789-6.051-58.647-16.756-84.712l136.378-136.378c69.818 58.181 125.673 134.517 159.651 221.091-80.523 204.335-279.273 349.091-511.999 349.091-65.163 0-127.535-11.637-186.182-32.582l101.004-100.072c26.531 10.24 54.924 16.291 85.178 16.291z" />
<glyph unicode="&#xe91d;" glyph-name="icn_close" d="M1024 856.896l-103.104 103.104-408.896-408.896-408.896 408.896-103.104-103.104 408.896-408.896-408.896-408.896 103.104-103.104 408.896 408.896 408.896-408.896 103.104 103.104-408.896 408.896z" />
<glyph unicode="&#xe91e;" glyph-name="icn_arrow_right" d="M0 512.647v-129.293h775.758l-355.556-355.556 91.798-91.798 512 512-512 512-91.798-91.798 355.556-355.556z" />
<glyph unicode="&#xe91f;" glyph-name="icn_filter_black" d="M71.255 960h881.492v-97.944h-3.918l-289.913-289.913v-636.144l-293.83 293.83v342.802l-289.424 289.424h-4.408v97.944zM463.029 270.477l97.944-97.944v444.664h4.408l244.86 244.86h-595.987l244.86-244.86h3.918v-346.72z" />
<glyph unicode="&#xe920;" glyph-name="icn_filter" d="M80.841 960h862.317v-97.926h-3.826l-331.507-338.89v-587.183l-191.65 195.907v391.761l-331.022 338.405h-4.311z" />
<glyph unicode="&#xe921;" glyph-name="icn_pencil" d="M44.323 220.215l280.776-284.214h-280.776v284.214zM924.554 850.486l-54.33 54.33c-59.945 59.945-144.319 73.143-188.189 29.271l-86.76-86.689 271.79-271.79 86.62 86.76c43.941 43.801 30.816 128.034-29.131 188.12zM114.517 286.969l279.302-283.864 422.637 494.446-280.776 280.776-421.163-491.358z" />
<glyph unicode="&#xe922;" glyph-name="icn_power" d="M740.15 732.467l-0.615 227.533h-113.732v-227.533h-227.601v227.533h-113.732v-227.533h-0.615c-56.32 0.547-113.187-56.32-113.187-113.255v-312.32l199.133-200.226v-170.666h284.398v170.666l199.133 199.68v312.866c0 56.935-56.867 113.8-113.187 113.255z" />
<glyph unicode="&#xe923;" glyph-name="icn_raikl_stepper_done" horiz-adv-x="1040" d="M373.705 66.899l-365.705 365.705 103.145 103.145 262.559-261.895 555.198 555.246 103.098-103.857z" />
<glyph unicode="&#xe924;" glyph-name="icn_tv" d="M930.894 866.894h-837.788c-51.216 0-93.106-41.889-93.106-93.106v-558.526c0-51.161 41.889-93.050 93.106-93.050h232.737v-93.106h372.313v93.106h232.737c51.216 0 92.604 41.889 92.604 93.050l0.503 558.526c0 51.216-41.889 93.106-93.106 93.106zM930.894 215.263h-837.788v558.526h837.788v-558.526z" />
<glyph unicode="&#xe925;" glyph-name="icn_tv2" horiz-adv-x="1008" d="M922.911 866.91h-837.819c-51.665 0-93.091-41.425-93.091-93.091v-558.546c0-51.413 41.678-93.091 93.091-93.091v0h232.727v-93.091h372.364v93.091h232.727c51.2 0 92.625 41.891 92.625 93.091l0.465 558.546c0 51.413-41.678 93.091-93.091 93.091v0zM922.911 215.274h-837.819v558.546h837.819v-558.546zM690.184 494.546l-325.818-186.182v372.364l325.818-186.182z" />
<glyph unicode="&#xe926;" glyph-name="icn_book" d="M930.893 820.34c-51.664 16.308-108.465 23.29-162.921 23.29-90.76 0-188.502-18.599-255.972-69.816-67.47 51.216-165.212 69.816-255.972 69.816s-188.502-18.599-256.028-69.816v-681.847c0-11.673 11.673-23.29 23.29-23.29 4.636 0 6.982 2.345 11.618 2.345 62.834 30.216 153.594 51.161 221.12 51.161 90.76 0 188.502-18.599 255.972-69.816 62.834 39.6 176.884 69.816 255.972 69.816 76.797 0 155.94-13.963 221.12-48.871 4.636-2.29 6.982-2.29 11.618-2.29 12.483 0.861 22.399 10.758 23.286 23.155l0.004 0.081v679.556c-27.926 20.945-58.198 34.908-93.106 46.526zM930.893 192.001c-51.216 16.308-107.069 23.29-162.921 23.29-79.087 0-193.138-30.272-255.972-69.816v535.234c62.834 39.6 176.884 69.816 255.972 69.816 55.852 0 111.705-6.982 162.921-23.234v-535.29z" />
<glyph unicode="&#xe927;" glyph-name="icn_upsell_card" d="M921.6 857.601h-819.2c-0.092 0-0.201 0-0.311 0-56.102 0-101.581-45.479-101.581-101.581 0-0.288 0.001-0.576 0.004-0.864v0.044l-0.512-614.4c0-56.832 45.568-102.4 102.4-102.4h819.2c56.832 0 102.4 45.568 102.4 102.4v614.4c0 56.832-45.568 102.4-102.4 102.4zM921.6 140.801h-819.2v307.2h819.2v-307.2zM921.6 652.801h-819.2v102.4h819.2v-102.4z" />
<glyph unicode="&#xe928;" glyph-name="icn_cafe" d="M910.223 846.223h-910.223v-568.89c0-125.725 101.832-227.556 227.556-227.556h341.333c125.725 0 227.556 101.832 227.556 227.556v170.667h113.778c63.146 0 113.778 50.631 113.778 113.778v170.667c0 63.146-50.631 113.778-113.778 113.778zM910.223 561.779h-113.778v170.667h113.778v-170.667z" />
<glyph unicode="&#xe929;" glyph-name="icn" d="M853.334 959.999h-682.666c-54.126 0-97.524-43.886-97.524-97.524v-682.666c0-53.638 43.398-97.524 97.524-97.524h195.047l146.285-146.285 146.285 146.285h195.047c53.638 0 97.524 43.886 97.524 97.524v682.666c0 53.638-43.886 97.524-97.524 97.524zM512.001 799.085c72.656 0 131.657-59.002 131.657-131.657s-59.002-131.657-131.657-131.657c-72.656 0-131.657 59.002-131.657 131.657s59.002 131.657 131.657 131.657zM804.573 277.333h-585.142v43.886c0 97.524 195.047 151.162 292.572 151.162s292.572-53.638 292.572-151.162v-43.886z" />
<glyph unicode="&#xe92a;" glyph-name="icn_calendar" d="M870.401 38.399h-716.801v563.2h716.801v-563.2zM716.801 960v-102.4h-409.6v102.4h-102.4v-102.4h-51.2c-56.832 0-102.4-45.568-102.4-102.4v-716.801c0-56.554 45.846-102.4 102.4-102.4v0h716.801c56.554 0 102.4 45.846 102.4 102.4v0 716.801c0 56.554-45.846 102.4-102.4 102.4v0h-51.2v102.4h-102.4zM768 396.798h-256v-256h256v256z" />
<glyph unicode="&#xe92b;" glyph-name="icn_order_return" d="M938.642 831.999h-640c-29.403 0-52.443-14.921-67.803-37.522l-230.839-346.478 230.839-345.966c15.36-22.674 38.4-38.034 67.803-38.034h640c47.092 0.124 85.233 38.266 85.358 85.346v597.297c-0.124 47.092-38.266 85.233-85.346 85.358h-0.012zM810.642 294.838l-60.123-60.197-153.161 153.234-153.234-153.234-60.123 60.197 153.161 153.161-153.161 153.161 60.123 60.197 153.234-153.234 153.161 153.234 60.123-60.197-153.088-153.161 153.161-153.161z" />
<glyph unicode="&#xe92c;" glyph-name="icn_food" d="M287.040 387.566l151.537 151.601-375.949 375.37c-38.7-38.819-62.628-92.384-62.628-151.537s23.928-112.718 62.633-151.542l-0.005 0.005 224.413-223.899zM650.136 484.542c81.938-38.044 197.101-11.246 282.251 73.905 102.245 102.245 122.103 249.026 43.379 327.751-78.21 78.146-224.927 58.867-327.751-43.379-85.151-85.151-111.949-200.313-73.905-282.251l-522.73-522.666 75.511-75.511 369.008 367.916 368.43-368.494 75.511 75.511-368.43 368.494 78.724 78.724z" />
<glyph unicode="&#xe92d;" glyph-name="icn_pets" d="M255.97 601.709c0-70.683-57.301-127.985-127.985-127.985s-127.985 57.301-127.985 127.985c0 70.683 57.301 127.985 127.985 127.985s127.985-57.301 127.985-127.985zM486.379 806.558c0-70.683-57.301-127.985-127.985-127.985s-127.985 57.301-127.985 127.985c0 70.683 57.301 127.985 127.985 127.985s127.985-57.301 127.985-127.985zM793.592 806.558c0-70.683-57.301-127.985-127.985-127.985s-127.985 57.301-127.985 127.985c0 70.683 57.301 127.985 127.985 127.985s127.985-57.301 127.985-127.985zM1024 601.709c0-70.683-57.301-127.985-127.985-127.985s-127.985 57.301-127.985 127.985c0 70.683 57.301 127.985 127.985 127.985s127.985-57.301 127.985-127.985zM785.42 327.307c-44.545 52.227-81.903 96.772-127.001 148.998-23.532 27.649-53.762 55.298-89.583 67.587-4.737 1.807-10.407 3.402-16.251 4.507l-0.645 0.102c-12.78 2.027-26.605 2.027-39.938 2.027s-27.158 0-40.429-2.58c-6.489-1.206-12.159-2.802-17.612-4.843l0.715 0.234c-35.882-12.289-65.559-39.938-89.645-67.587-44.545-52.227-81.903-96.772-126.94-148.998-67.095-67.034-149.551-141.317-134.19-245.217 14.869-52.227 52.227-103.961 119.321-118.83 37.357-7.68 156.679 22.549 283.68 22.549h9.216c126.94 0 246.262-29.676 283.618-22.549 67.095 14.869 104.452 67.095 119.321 118.83 15.852 104.452-66.542 178.675-133.637 245.77z" />
<glyph unicode="&#xe92e;" glyph-name="icn_conditioner" d="M512 448c0 139.631 116.341 255.972 255.972 255.972s256.028-116.341 256.028-255.972h-511.999zM512 448c0-139.631-116.341-255.972-255.972-255.972s-256.028 116.341-256.028 255.972h511.999zM512 448c-139.631 0-255.972 116.341-255.972 255.972s116.341 256.028 255.972 256.028v-511.999zM512 448c139.631 0 255.972-116.341 255.972-255.972s-116.341-256.028-255.972-256.028v511.999z" />
<glyph unicode="&#xe92f;" glyph-name="icn_power2" d="M768.64 732.445l-0.64 227.556h-128v-227.556h-256.001v227.556h-128v-227.556h-0.64c-63.36 0.568-127.36-56.32-127.36-113.209v-312.321l224.001-200.249v-170.666h320v170.666l224.001 199.68v312.889c0 56.888-64 113.778-127.36 113.209z" />
<glyph unicode="&#xe930;" glyph-name="icn_print" d="M819.199 908.8h-614.4v-204.8h614.4v204.8zM870.399 448c-28.277 0-51.2 22.924-51.2 51.2s22.924 51.2 51.2 51.2v0c28.277 0 51.2-22.924 51.2-51.2s-22.924-51.2-51.2-51.2v0zM716.799 89.6h-409.599v255.999h409.599v-255.999zM870.399 652.8h-716.799c-84.83 0-153.6-68.77-153.6-153.6v0-307.2h204.8v-204.8h614.4v204.8h204.8v307.2c0 84.83-68.77 153.6-153.6 153.6v0z" />
<glyph unicode="&#xe931;" glyph-name="icn_camera" d="M658.286 376.32c0-79.176-65.494-143.36-146.286-143.36s-146.286 64.184-146.286 143.36c0 79.176 65.494 143.36 146.286 143.36s146.286-64.184 146.286-143.36zM950.345 663.040h-145.774v72.325c0 39.281-33.134 71.035-72.923 71.035h-439.296c-40.302 0-72.923-32.328-72.923-71.035v-72.325h-145.774c-40.667 0-73.655-32.471-73.655-71.465v-430.51c0-39.496 32.914-71.465 73.655-71.465h876.69c40.667 0 73.655 32.471 73.655 71.465v430.51c0 39.496-32.914 71.465-73.655 71.465zM512 161.28c-121.198 0-219.429 96.266-219.429 215.040s98.231 215.040 219.429 215.040c121.198 0 219.429-96.266 219.429-215.040s-98.231-215.040-219.429-215.040z" />
<glyph unicode="&#xe932;" glyph-name="icn_sort" d="M0 391.111h682.667v113.777h-682.667v-113.777zM0 789.333v-113.777h1024v113.777h-1024zM0 106.667h341.333v113.777h-341.333v-113.777z" />
<glyph unicode="&#xe933;" glyph-name="icn_wifi" d="M0.002 598.061l93.106-93.106c231.341 231.341 606.447 231.341 837.788 0l93.106 93.106c-282.558 282.502-740.995 282.502-1024 0zM372.37 225.693l139.631-139.631 139.631 139.631c-35.701 35.81-85.078 57.966-139.631 57.966s-103.93-22.156-139.627-57.961l-0.004-0.004zM186.213 411.904l93.050-93.106c128.461 128.461 337.014 128.461 465.475 0l93.050 93.106c-179.621 179.621-471.451 179.621-651.575 0z" />
<glyph unicode="&#xe934;" glyph-name="shape" d="M358.946 345.6h-358.946v-102.4h358.946v-153.6l204.254 204.8-204.254 204.8v-153.6zM665.054 396.8v153.6h358.946v102.4h-358.946v153.6l-204.254-204.8 204.254-204.8z" />
<glyph unicode="&#xe935;" glyph-name="icn_back" d="M384 575.999v192l-384-319.999 384-319.999v192c256 64 448 31.999 640-127.999-127.999 319.999-352 384-640 384z" />
<glyph unicode="&#xe936;" glyph-name="icn_check_sign" d="M512.008-64.001c-281.836 0-512.009 230.191-512.009 512.009 0 281.801 230.191 511.992 512.009 511.992 281.801 0 511.992-230.191 511.992-512.009 0-281.801-228.039-511.992-512.009-511.992zM512.008 897.617c-247.4 0-447.474-200.074-447.474-447.474 0-247.383 200.074-447.457 447.474-447.457 247.383 0 447.457 200.074 447.457 447.474 2.151 247.383-200.074 447.457-447.474 447.457zM464.665 297.411c-8.605 0-17.209 4.303-23.662 8.605l-105.407 105.424c-12.907 12.907-12.907 32.267 0 45.174s32.267 12.907 45.174 0l81.744-81.761 191.47 187.185c12.907 12.907 32.267 12.907 45.174 0s12.907-32.267 0-45.174l-210.83-210.847c-6.453-6.453-15.058-8.605-23.662-8.605z" />
<glyph unicode="&#xe937;" glyph-name="icn_change_port" d="M819.158 831.953l-204.773-204.773h153.579v-358.352c0-56.312-46.074-102.386-102.386-102.386s-102.386 46.074-102.386 102.386v358.352c0 113.137-91.636 204.773-204.773 204.773-0.017 0-0.037 0-0.057 0-113.061 0-204.716-91.654-204.716-204.716 0-0.020 0-0.040 0-0.060v0.003-358.352h-153.579l204.773-204.773 204.773 204.773h-153.579v358.352c0 56.312 46.074 102.386 102.386 102.386s102.386-46.074 102.386-102.386v-358.352c0-113.137 91.636-204.773 204.773-204.773s204.773 91.636 204.773 204.773v358.352h153.579z" />
<glyph unicode="&#xe938;" glyph-name="icn_to_right" d="M768.597 383.991h-768.597v128h768.597v192l255.403-256-255.403-256z" />
<glyph unicode="&#xe939;" glyph-name="icn_facebook_circle" d="M512 959.993c-282.773 0-512-229.227-512-512s229.227-512 512-512c282.773 0 512 229.227 512 512s-229.227 512-512 512zM633.28 606.215h-76.978c-9.102 0-19.236-12.018-19.236-27.982v-55.573h96.249l-14.542-79.253h-81.707v-237.902h-90.844v237.902h-82.382v79.289h82.382v46.578c0 66.88 46.4 121.244 110.080 121.244h76.978v-84.338z" />
<glyph unicode="&#xe93a;" glyph-name="icn_instagram_circle" d="M672 447.993c0-88.366-71.634-160-160-160s-160 71.634-160 160v0c0 9.138 0.96 18.027 2.596 26.667h-55.929v-213.156c0-14.827 12.018-26.844 26.844-26.844h373.049c14.791 0.020 26.773 12.015 26.773 26.809 0 0.013 0 0.025 0 0.038v-0.002 213.156h-55.929c1.636-8.64 2.596-17.529 2.596-26.667zM512 341.326c57.733 1.538 103.948 48.705 103.948 106.667s-46.215 105.129-103.806 106.664l-0.142 0.003c-57.733-1.538-103.948-48.705-103.948-106.667s46.215-105.129 103.806-106.664l0.142-0.003zM640 559.993h63.964c8.836 0.020 15.995 7.167 16.036 15.996v63.968c-0.020 8.848-7.187 16.015-16.034 16.036h-63.966c-8.848-0.020-16.015-7.187-16.036-16.034v-63.966c0.036-8.782 7.253-16 16.036-16zM512 959.993c-282.773 0-512-229.227-512-512s229.227-512 512-512c282.773 0 512 229.227 512 512s-229.227 512-512 512zM778.667 240.597c0-32.604-26.667-59.271-59.236-59.271h-414.862c-32.569 0-59.236 26.667-59.236 59.271v414.827c0 32.569 26.667 59.236 59.236 59.236h414.827c32.604 0 59.271-26.667 59.271-59.236z" />
<glyph unicode="&#xe93b;" glyph-name="icn_twitter_circle" d="M512 959.993c-282.773 0-512-229.227-512-512s229.227-512 512-512c282.773 0 512 229.227 512 512s-229.227 512-512 512zM720.249 540.58c0.213-4.373 0.284-8.747 0.284-13.013 0-133.333-101.404-286.969-286.898-286.969-0.128 0-0.28 0-0.432 0-57.252 0-110.555 16.908-155.188 46.003l1.095-0.67c7.822-0.96 15.893-1.351 24.036-1.351 0.131 0 0.286 0 0.441 0 47.294 0 90.792 16.257 125.209 43.487l-0.422-0.322c-43.908 0.884-80.871 29.64-93.982 69.259l-0.205 0.714c5.683-1.131 12.217-1.778 18.901-1.778 9.467 0 18.63 1.298 27.323 3.726l-0.713-0.17c-46.458 9.647-80.878 50.219-80.924 98.839v1.249c13.618-7.538 29.156-12.089 45.689-12.658-27.191 18.339-44.836 49.027-44.836 83.837 0 0.064 0 0.127 0 0.191v-0.010c0 18.453 4.978 35.84 13.653 50.702 49.967-61.088 123.831-101.009 207.113-105.392l0.709-0.030c-1.702 6.936-2.678 14.899-2.678 23.090 0 55.71 45.162 100.871 100.871 100.871 29.028 0 55.192-12.262 73.596-31.888l0.051-0.055c24.137 4.864 45.577 13.349 64.915 24.972l-0.915-0.51c-7.812-23.772-23.471-43.166-43.854-55.569l-0.448-0.253c21.497 2.64 41.058 8.246 59.195 16.445l-1.275-0.516c-13.794-20.489-30.49-37.796-49.729-51.826l-0.582-0.405z" />
<glyph unicode="&#xe93c;" glyph-name="icn_vk_circle" d="M512 959.993c-282.773 0-512-229.227-512-512s229.227-512 512-512c282.773 0 512 229.227 512 512s-229.227 512-512 512zM708.907 382.357c0 0 45.298-44.693 56.427-65.422 0.32-0.462 0.498-0.889 0.604-1.067 4.516-7.644 5.582-13.582 3.342-17.991-3.733-7.36-16.533-11.022-20.907-11.307h-80c-5.547 0-17.173 1.422-31.253 11.129-10.844 7.573-21.511 20.018-31.893 32.107-15.502 18.027-28.942 33.6-42.489 33.6-0.030 0-0.067 0-0.103 0-1.78 0-3.494-0.286-5.097-0.815l0.115 0.033c-10.24-3.307-23.36-17.92-23.36-56.889 0-12.124-9.6-19.129-16.356-19.129h-36.658c-12.48 0-77.511 4.373-135.111 65.138-70.507 74.382-133.973 223.644-134.507 224.996-3.982 9.671 4.267 14.827 13.298 14.827h80.818c10.773 0 14.293-6.542 16.711-12.373 2.916-6.756 13.44-33.707 30.791-64 28.089-49.387 45.333-69.44 59.164-69.44 2.715 0.036 5.257 0.743 7.479 1.962l-0.083-0.042c18.027 10.027 14.649 74.311 13.867 87.644 0 2.489-0.071 28.729-9.28 41.316-6.613 9.138-17.849 12.587-24.676 13.867 2.762 3.793 6.315 6.845 10.43 8.954l0.166 0.077c12.373 6.187 34.667 7.111 56.818 7.111h12.302c24-0.356 30.187-1.884 38.898-4.089 17.564-4.196 17.956-15.573 16.391-54.436-0.462-11.022-0.924-23.538-0.924-38.258 0-3.2-0.178-6.613-0.178-10.24-0.533-19.769-1.173-42.24 12.8-51.449 1.813-1.138 3.911-1.778 6.080-1.778 4.871 0 19.449 0 59.022 67.911 17.351 29.973 30.791 65.316 31.751 67.911 0.818 1.422 3.129 5.689 5.902 7.324 1.882 0.986 4.112 1.565 6.477 1.565 0.048 0 0.095 0 0.143-0.001h94.997c10.347 0 17.422-1.564 18.773-5.547 2.347-6.364-0.427-25.707-43.804-84.444-7.289-9.707-13.76-18.169-19.342-25.529-39.289-51.556-39.289-54.151 2.453-93.227z" />
<glyph unicode="&#xe93d;" glyph-name="icn_calendar_arrow" d="M817.491 59.388l-384.984 379.605 357.577 405.475-117.143 115.521-466.437-528.937 502.212-495.040z" />
<glyph unicode="&#xe93e;" glyph-name="icn_count_plus" d="M910.243-63.999h-796.486c-62.826 0-113.757 50.931-113.757 113.757v0 796.486c0 62.826 50.931 113.757 113.757 113.757v0h796.486c62.557 0 113.757-51.2 113.757-113.757v-796.486c0-62.557-51.2-113.757-113.757-113.757zM791.273 503.856h-223.418v223.418h-111.709v-223.418h-223.418v-111.709h223.418v-223.418h111.709v223.418h223.418z" />
<glyph unicode="&#xe93f;" glyph-name="icn_count_minus" d="M909.234-62.788h-794.746c-62.606 0.186-113.323 50.902-113.509 113.509v794.746c0 62.42 51.088 113.509 113.509 113.509h794.746c62.42 0 113.509-51.088 113.509-113.509v-794.746c0-62.42-51.088-113.509-113.509-113.509zM828.143 472.43h-609.854l4.319-97.3h605.534z" />
<glyph unicode="&#xe940;" glyph-name="icn_no_results" d="M512 959.995c-282.335 0-512-229.685-512-512s229.665-512 512-512c282.335 0 512 229.685 512 512s-229.665 512-512 512zM512 915.475c257.759 0 467.48-209.7 467.48-467.48 0-257.787-209.721-467.48-467.48-467.48s-467.48 209.7-467.48 467.48c0 257.787 209.721 467.48 467.48 467.48zM246.881 602.296c-12.412 0-22.439-9.95-22.439-22.211 0-61.234 50.342-111.047 112.215-111.047 61.88 0 112.227 49.813 112.227 111.047h-0.006c0 12.261-10.034 22.211-22.445 22.211s-22.439-9.95-22.439-22.211c0-36.733-30.211-66.629-67.336-66.629-37.118 0-67.33 29.895-67.33 66.629 0 12.261-10.034 22.211-22.445 22.211zM604.58 602.296c-12.412 0-22.447-9.95-22.447-22.211 0-61.234 50.349-111.047 112.229-111.047 61.873 0 112.215 49.813 112.215 111.047 0 12.261-10.036 22.211-22.447 22.211s-22.438-9.95-22.438-22.211c0-36.733-30.213-66.629-67.338-66.629-37.118 0-67.328 29.895-67.328 66.629 0 12.261-10.034 22.211-22.445 22.211zM508.494 335.774c-82.367 0-160.822-35.071-215.307-96.236-3.493-3.92-5.628-9.117-5.628-14.812 0-6.553 2.826-12.447 7.326-16.528l0.019-0.017c4.206-3.8 9.485-5.664 14.742-5.664 6.055 0 12.109 2.488 16.459 7.395 46.114 51.77 112.592 81.439 182.389 81.439 69.818 0 136.296-29.669 182.383-81.439 4.050-4.548 9.921-7.399 16.459-7.399 5.68 0 10.857 2.152 14.761 5.685l-0.019-0.017c4.519 4.098 7.345 9.992 7.345 16.546 0 5.695-2.134 10.892-5.646 14.834l0.019-0.022c-54.458 61.144-132.915 96.236-215.303 96.236z" />
<glyph unicode="&#xe941;" glyph-name="icn_loader" d="M1001.121 861.376l-230.701-873.326c-80.177 13.215-172.602 20.709-266.8 20.709s-186.543-7.575-276.631-22.079l9.911 1.289-234.327 873.326c150.685 30.943 323.77 48.67 501.127 48.67s350.442-17.728 517.726-51.491l-16.68 2.82h-3.626z" />
<glyph unicode="&#xe942;" glyph-name="icn_add_traveler" d="M603.886 346.002h402.448v168.601h-402.571v443.272h-184.265v-443.149h-402.448v-168.725h402.448v-409.478h184.265z" />
<glyph unicode="&#xe943;" glyph-name="icn_card" d="M53.905 811.553c-29.827 0-53.84-24.012-53.84-53.84v-619.156c0-29.827 24.012-53.84 53.84-53.84h915.274c29.827 0 53.84 24.012 53.84 53.84v619.156c0 29.827-24.012 53.84-53.84 53.84h-915.274zM76.868 783.476h868.595c50.878 0 51.094-1.346 51.094-51.094v-68.888h-970.756v68.888c0 51.471 0.377 51.094 51.040 51.094zM25.828 501.975h970.756v-342.070c0-50.313-0.215-51.094-51.094-51.094h-868.595c-50.663 0-51.040 1.238-51.040 51.094v342.070z" />
<glyph unicode="&#xe944;" glyph-name="icn_itinerary" d="M870.629 959.83c-84.649-0.216-153.147-68.972-153.125-153.718 0-40.633 33.554-121.36 66.773-187.39-30.709-11.476-54.479-36.409-64.478-67.657h-2.295c-9.396 0-17.003-7.618-17.003-17.025s7.607-17.046 17.003-17.046h2.209c11.842-48.898 73.788-85.145 150.916-85.145 85.867 0 153.125 44.9 153.125 102.191 0 34.588-25.128 65.89-66.752 84.682 33.23 66.041 66.752 146.757 66.752 187.39 0.022 84.736-68.476 153.502-153.125 153.718zM870.629 925.759c65.858-0.194 119.141-53.714 119.097-119.647 0-47.109-63.562-182.412-104.81-247.16-3.233-4.72-8.577-7.532-14.288-7.532s-11.077 2.834-14.309 7.553c-41.215 64.737-104.788 200.019-104.788 247.138-0.043 65.933 53.24 119.442 119.097 119.647zM872.902 895.18c-47.605 0-86.201-38.597-86.201-86.201s38.597-86.201 86.201-86.201c47.583 0.054 86.147 38.618 86.201 86.201 0 47.605-38.597 86.201-86.201 86.201zM872.902 860.71c28.565 0 51.731-23.167 51.731-51.731s-23.167-51.731-51.731-51.731c-28.554 0.032-51.699 23.177-51.731 51.731 0 28.565 23.167 51.731 51.731 51.731zM223.194 690.452c-38.586 0-77.171-9.989-111.727-29.966-69.122-39.954-111.598-113.775-111.35-193.554 0-70.846 69.5-224.791 126.101-328.814-78.26-16.982-126.101-52.917-126.101-95.92 0-60.427 95.899-106.006 223.077-106.006 112.471 0 200.364 35.676 219.209 85.716h3.89c9.482 0 17.154 7.661 17.154 17.132s-7.672 17.154-17.154 17.154h-1.896c-9.234 36.722-54.619 66.838-124.205 81.934 56.602 104.012 126.101 257.957 126.101 328.814 0.248 79.779-42.228 153.599-111.35 193.554-34.556 19.977-73.163 29.966-111.749 29.966zM223.194 656.144c104.379-0.302 188.834-84.951 188.78-189.222 0-72.57-97.008-279.162-159.903-377.701-6.25-9.902-17.154-15.915-28.877-15.915s-22.617 6.013-28.877 15.915c-62.894 98.539-159.881 305.119-159.881 377.701-0.065 104.271 84.369 188.92 188.759 189.222zM221.007 604.251c-74.391 0-134.689-60.298-134.689-134.689s60.298-134.689 134.689-134.689c74.348 0.086 134.603 60.341 134.689 134.689 0 74.391-60.298 134.689-134.689 134.689zM800.041 588.466c10.096-18.749 19.654-35.332 27.595-47.798 9.342-14.74 25.559-23.673 42.993-23.673s33.651 8.943 42.993 23.673c7.941 12.467 17.51 29.039 27.617 47.798 29.858-13.016 48.488-33.521 48.488-54.425 0-36.937-54.544-68.12-119.097-68.12s-119.097 31.194-119.097 68.12c0 20.893 18.663 41.409 48.51 54.425zM221.007 570.579c55.794 0 101.017-45.223 101.017-101.017s-45.223-101.017-101.017-101.017c-55.761 0.065-100.952 45.256-101.017 101.017 0 55.794 45.223 101.017 101.017 101.017zM609.041 550.375c-8.997 0-16.292-7.241-16.292-16.163s7.295-16.163 16.292-16.163h32.078c8.997 0 16.292 7.241 16.292 16.163s-7.295 16.163-16.292 16.163h-32.078zM552.892 550.354c-1.519-0.075-3.049-0.356-4.547-0.84-13.437-4.429-25.785-11.82-36.151-21.68-5.301-5.043-7.068-12.919-4.439-19.848s9.116-11.486 16.335-11.486c4.418-0.011 8.674 1.702 11.907 4.795 6.605 6.271 14.449 10.98 23.005 13.803 5.969 1.961 10.473 7.058 11.81 13.361s-0.69 12.855-5.323 17.197c-3.47 3.254-8.017 4.903-12.585 4.698zM490.514 474.928c-9.45-0.453-16.723-8.265-16.27-17.445 0.647-13.393 4.332-26.474 10.797-38.327 2.974-5.452 8.825-8.868 15.171-8.857 6.002 0.011 11.572 3.060 14.665 8.060s3.254 11.217 0.442 16.378c-4.105 7.532-6.454 15.872-6.864 24.395-0.56 9.137-8.534 16.152-17.951 15.807zM555.391 399.524c-3.2 0.043-6.368-0.819-9.094-2.478-3.631-2.23-6.174-5.722-7.068-9.719-1.864-8.318 3.771-16.497 12.585-18.264 6.153-1.228 12.413-1.853 18.706-1.853h16.691c9.019 0 16.314 6.896 16.314 15.408s-7.295 15.408-16.314 15.408h-16.691c-4.008 0-8.006 0.399-11.928 1.174-1.056 0.216-2.133 0.323-3.2 0.334zM652.141 399.524c-8.997 0-16.292-7.241-16.292-16.163s7.295-16.163 16.292-16.163h32.078c8.997 0 16.292 7.241 16.292 16.163s-7.295 16.163-16.292 16.163h-32.078zM759.893 399.524c-8.997 0-16.292-7.241-16.292-16.163s7.295-16.163 16.292-16.163h32.078c8.997 0 16.292 7.241 16.292 16.163s-7.295 16.163-16.292 16.163h-32.078zM859.239 399.373c-5.872 0.808-11.691-1.789-15.279-6.821s-4.396-11.745-2.101-17.574c2.295-5.829 7.349-9.902 13.221-10.689 9.676-1.315 19.212-3.653 28.457-6.982 8.631-3.028 17.908 1.95 20.818 11.131s-1.659 19.158-10.226 22.348c-11.335 4.095-23.005 6.972-34.868 8.588zM941.788 356.38c-4.105-0.269-8.103-2.069-11.023-5.323-5.84-6.519-5.183-16.432 1.498-22.143 7.176-6.109 13.728-12.876 19.546-20.225 3.502-4.461 9.191-6.745 14.902-6.002s10.57 4.418 12.758 9.622c2.177 5.204 1.358 11.141-2.187 15.57-7.101 8.954-15.085 17.219-23.824 24.664-3.351 2.845-7.553 4.105-11.659 3.825zM999.111 270.222c-4.849-0.022-9.558-1.713-13.070-4.838-4.676-4.159-6.476-10.226-4.73-15.893 2.845-9.353 4.644-18.91 5.366-28.576 0.647-8.62 8.728-15.333 18.501-15.344 0.42 0 0.84 0.022 1.261 0.043 10.226 0.603 17.951 8.405 17.283 17.445-0.884 11.831-3.082 23.565-6.584 35.019-1.724 5.668-6.745 10.086-13.156 11.594-1.605 0.377-3.243 0.55-4.86 0.55zM996.622 173.203c-5.948-0.463-11.346-4.806-13.404-11.486-2.942-9.547-6.724-18.738-11.282-27.466-4.235-8.146-1.756-18.598 5.538-23.339s16.658-1.983 20.915 6.142c5.56 10.657 10.161 21.895 13.738 33.565 2.737 8.911-1.498 18.641-9.493 21.701-1.993 0.765-4.041 1.034-6.023 0.884zM143.857 106.559c7.715-13.372 15.021-25.526 21.55-35.752 12.553-19.772 34.351-31.754 57.787-31.754s45.256 11.982 57.809 31.754c6.53 10.226 13.814 22.38 21.529 35.752 71.676-13.469 109.432-42.152 109.432-64.36 0-33.855-80.738-71.719-188.78-71.719s-188.759 37.864-188.759 71.719c0 22.208 37.734 50.891 109.411 64.36zM940.419 87.002c-3.383-0.205-6.767-1.39-9.655-3.62-8.265-6.379-17.132-11.917-26.474-16.561-8.728-4.332-12.305-14.977-7.995-23.759s14.859-12.391 23.587-8.060c11.411 5.668 22.229 12.456 32.325 20.246 7.715 5.959 9.18 17.079 3.265 24.858-3.696 4.86-9.407 7.241-15.042 6.907zM512.065 54.72c-8.997 0-16.292-7.241-16.292-16.163s7.295-16.163 16.292-16.163h32.078c8.997 0 16.292 7.241 16.292 16.163s-7.295 16.163-16.292 16.163h-32.078zM609.041 54.72c-8.997 0-16.292-7.241-16.292-16.163s7.295-16.163 16.292-16.163h32.078c8.997 0 16.292 7.241 16.292 16.163s-7.295 16.163-16.292 16.163h-32.078zM716.792 54.72c-4.321 0-8.458-1.702-11.508-4.73s-4.773-7.144-4.773-11.432c0-4.289 1.724-8.394 4.773-11.432s7.187-4.73 11.508-4.73h32.078c8.997 0 16.292 7.241 16.292 16.163s-7.295 16.163-16.292 16.163h-32.078zM844.811 54.677c-3.006-0.183-6.034-0.269-9.073-0.269h-21.97c-8.997 0-16.292-7.155-16.292-15.99s7.295-16.012 16.292-16.012h21.97c3.707 0 7.392 0.119 11.066 0.334 5.819 0.345 11.012 3.717 13.62 8.836s2.209 11.228-1.013 15.99c-3.222 4.773-8.793 7.478-14.6 7.112z" />
<glyph unicode="&#xe945;" glyph-name="icn_loupe" d="M399.951 959.815c-220.462 0-399.825-179.363-399.825-399.825s179.363-399.825 399.825-399.825c79.079 0 154.894 22.904 220.378 66.375l266.847-266.847c15.113-15.113 35.186-23.421 56.536-23.421s41.436 8.321 56.536 23.421c15.113 15.1 23.421 35.174 23.421 56.536s-8.321 41.448-23.421 56.536l-266.847 266.847c43.471 65.484 66.375 141.299 66.375 220.378 0 220.462-179.363 399.825-399.825 399.825zM399.951 919.836c198.413 0 359.846-161.421 359.846-359.846 0-76.321-23.686-149.259-68.506-210.973-22.422-30.887-49.444-57.945-80.343-80.367 0 0-0.024 0-0.024 0-61.702-44.82-134.652-68.506-210.973-68.506-198.413 0-359.846 161.421-359.846 359.846s161.421 359.846 359.846 359.846zM400.071 878.461c-175.678 0-318.591-142.925-318.591-318.591s142.925-318.567 318.591-318.567c175.678 0 318.567 142.901 318.567 318.567s-142.901 318.591-318.567 318.591zM400.071 838.65c153.714 0 278.745-125.067 278.745-278.769s-125.042-278.745-278.745-278.745c-153.714 0-278.769 125.042-278.769 278.745s125.067 278.769 278.769 278.769zM399.601 797.13c-10.982 0-19.869-9.031-19.869-20.182s8.899-20.206 19.869-20.206c81.716 0 156.351-52.105 185.709-129.691 3.035-8.032 10.561-12.957 18.556-12.957 2.372 0 4.781 0.446 7.129 1.361 10.248 3.998 15.365 15.678 11.428 26.083-17.123 45.241-46.939 83.92-86.22 111.857-40.22 28.599-87.448 43.724-136.603 43.724zM616.969 580.22c-11.223 0-20.327-9.116-20.327-20.339s9.092-20.327 20.327-20.327c11.223 0 20.339 9.092 20.339 20.327s-9.116 20.339-20.339 20.339zM709.39 307.063l56.729-56.705c-17.244-20.363-36.186-39.293-56.536-56.536l-56.705 56.729c20.688 16.931 39.594 35.824 56.512 56.512zM794.465 222l177.521-177.521c7.55-7.55 11.717-17.569 11.717-28.25s-4.154-20.712-11.717-28.274c-7.562-7.562-17.593-11.717-28.274-11.717s-20.712 4.154-28.274 11.717l-177.497 177.521c20.242 17.376 39.148 36.27 56.512 56.512z" />
<glyph unicode="&#xe946;" glyph-name="icn_people" d="M885.443 486.983c29.978 21.066 49.827 56.104 49.827 95.602 0 64.615-52.261 116.876-116.876 116.876s-116.876-52.261-116.876-116.876c0-39.498 19.649-74.536 49.827-95.602-25.726-8.912-49.218-22.684-69.067-40.515-27.344 23.292-59.547 41.115-94.794 51.652 42.741 25.926 71.501 73.119 71.501 126.797 0 81.83-66.233 148.063-148.063 148.063s-148.063-66.441-148.063-148.063c0-53.678 28.561-100.871 71.501-126.797-34.838-10.529-66.641-28.152-93.784-51.044-19.849 17.423-42.941 30.994-68.259 39.698 29.978 21.066 49.827 56.104 49.827 95.602 0 64.615-52.261 116.876-116.876 116.876s-116.876-52.261-116.876-116.876c0-39.498 19.649-74.536 49.827-95.602-80.413-27.752-138.143-104.113-138.143-193.846v-13.371c0-0.408 0.408-0.809 0.809-0.809h247.725c-1.417-11.138-2.226-22.684-2.226-34.229v-13.772c0-59.547 48.209-107.757 107.757-107.757h313.958c59.547 0 107.757 48.209 107.757 107.757v13.772c0 11.546-0.809 23.092-2.226 34.229h249.342c0.408 0 0.809 0.408 0.809 0.809v13.371c-0.408 89.933-57.93 166.295-138.343 194.047zM733.937 582.793c0 46.584 37.88 84.465 84.465 84.465s84.465-37.88 84.465-84.465c0-45.983-37.064-83.456-82.847-84.465-0.608 0-1.009 0-1.618 0s-1.009 0-1.618 0c-45.983 0.809-82.847 38.281-82.847 84.465zM394.862 624.925c0 63.807 51.853 115.659 115.659 115.659s115.659-51.853 115.659-115.659c0-61.573-48.41-112.016-108.974-115.459-2.226 0-4.46 0-6.686 0s-4.46 0-6.686 0c-60.564 3.443-108.974 53.878-108.974 115.459zM120.194 582.793c0 46.584 37.88 84.465 84.465 84.465s84.465-37.88 84.465-84.465c0-45.983-37.064-83.456-82.847-84.465-0.608 0-1.009 0-1.618 0s-1.009 0-1.618 0c-45.775 0.809-82.847 38.281-82.847 84.465zM254.285 311.368h-221.39c9.112 86.29 82.031 153.94 170.554 154.549 0.408 0 0.809 0 1.217 0s0.809 0 1.217 0c42.132-0.2 80.613-15.798 110.391-41.115-29.169-31.595-50.844-70.492-61.981-113.433zM743.049 230.755c0-41.524-33.829-75.353-75.353-75.353h-313.958c-41.524 0-75.353 33.829-75.353 75.353v13.772c0 125.788 100.47 228.684 225.442 232.328 2.226-0.2 4.66-0.2 6.886-0.2s4.66 0 6.886 0.2c124.979-3.643 225.442-106.54 225.442-232.328v-13.772zM767.158 311.368c-11.138 42.741-32.412 81.022-61.373 112.617 29.978 25.926 68.867 41.524 111.408 41.932 0.408 0 0.809 0 1.217 0s0.809 0 1.217 0c88.516-0.608 161.435-68.259 170.554-154.549h-223.015z" />
<glyph unicode="&#xe947;" glyph-name="icn_credit_cards" d="M794.326 865.314c-1.729-0.050-3.448-0.189-5.198-0.407l-744.549-98.892c-13.496-1.819-25.709-8.934-33.948-19.796-8.278-10.793-11.896-24.447-10.037-37.923l62.808-474.904c3.339-25.57 25.103-44.701 50.832-44.681 2.206 0 4.393 0.159 6.579 0.447l49.322 6.519v-113.779c0-28.353 22.937-51.339 51.22-51.339h751.128c28.283 0 51.22 22.986 51.22 51.339v479.117c0 28.353-22.937 51.339-51.22 51.339h-98.216l-27.578 208.498c-3.697 26.246-26.475 45.148-52.373 44.472zM797.010 831.078c7.93-0.586 14.648-6.619 15.841-14.808l6.758-50.952-778.477-103.474-6.738 51.071c-0.596 4.462 0.616 8.984 3.379 12.542 2.743 3.657 6.847 6.072 11.379 6.678l744.39 98.853c1.173 0.149 2.345 0.179 3.478 0.099zM824.1 731.381l5.128-39.225 3.786-28.492-386.317-51.319h-225.332c-22.579-0.040-42.475-14.897-48.974-36.572l-117.804-15.583-8.944 67.707 778.457 103.494zM837.537 629.736l2.306-17.391h-133.327l131.022 17.391zM221.435 578.108h751.049c9.431 0 17.083-7.652 17.083-17.103v-479.117c0-9.451-7.652-17.123-17.083-17.123h-751.128c-9.431 0-17.083 7.672-17.083 17.123v478.591c0 0.169 0.080 0.358 0.080 0.527 0 9.451 7.652 17.103 17.083 17.103zM170.135 540.97v-310.789l-53.705-7.106c-9.352-1.242-17.938 5.347-19.18 14.708v0.020l-38.082 288.448 110.967 14.708zM838.868 507.569c-27.011-0.070-52.383-12.81-68.383-34.316-28.025 37.536-81.521 45.496-119.504 17.799s-46.042-80.577-18.017-118.112c28.025-37.536 81.531-45.496 119.504-17.799 6.867 5.009 12.939 11.011 18.017 17.799 28.104-37.386 81.561-45.188 119.394-17.411s45.714 80.606 17.6 117.993c-16.129 21.446-41.58 34.087-68.611 34.047zM268.431 497.631v-29.814h29.814v29.814h-29.814zM337.997 497.631v-29.814h208.696v29.814h-208.696zM702.132 473.78c28.323 0 51.28-22.688 51.28-50.683s-22.957-50.683-51.28-50.683c-28.323 0-51.28 22.688-51.28 50.683s22.957 50.683 51.28 50.683zM838.868 473.78c28.323 0 51.28-22.688 51.28-50.683s-22.957-50.683-51.28-50.683c-28.323 0-51.28 22.688-51.28 50.683s22.957 50.683 51.28 50.683zM268.431 428.066v-29.814h268.324v29.814h-268.324zM285.435 269.059c-9.391 0-17.004-7.791-17.004-17.391v-104.348c0-9.6 7.612-17.391 17.004-17.391h611.957c9.391 0 17.004 7.791 17.004 17.391v104.348c0 9.6-7.612 17.391-17.004 17.391h-611.957zM302.439 234.276h577.95v-69.565h-577.95v69.565z" />
<glyph unicode="&#xe948;" glyph-name="icn_iata_logo" d="M145.753 123.437l41.749 206.045h67.927l-41.51-206.045h-68.166zM350.688 190.884h43.165l-11.085 75.593-32.080-75.593zM255.407 123.437l102.838 206.045h66.99l42.206-206.045h-62.961l-3.768 24.501h-66.99l-10.606-24.501h-67.687zM529.945 123.437l23.346 154.931h-59.433l10.149 52.029h182.546l-10.149-52.029h-56.602l-22.867-154.931h-66.99zM758.248 190.884h43.165l-11.085 75.593-32.080-75.593zM663.207 123.437l102.598 206.045h66.99l42.206-206.045h-63.44l-3.071 24.501h-66.99l-10.606-24.501h-67.687zM1023.335 562.358h-319.576c-11.782-57.865-52.355-106.17-133.262-139.534 9.19-27.528 40.573-52.965 73.11-52.965h173.356c26.417 0 47.412 21.931 55.905 39.658h-176.187c-10.846 1.873-11.325 10.497-0.479 11.434h173.116c22.41 0 42.686 18.904 54.49 39.441h-201.646c-10.149 1.633-10.149 10.040 0 11.673h203.301c20.515 0 39.158 23.564 46.932 39.441h-223.119c-11.085 1.394-11.085 11.673 0 11.891h227.127c17.684 0 34.911 19.143 46.932 38.962zM-0.010 562.358h319.576c11.564-57.865 52.355-106.17 133.022-139.534-9.19-27.528-40.573-52.965-73.11-52.965h-173.116c-26.417 0-47.412 21.931-55.905 39.658h176.187c10.606 1.873 11.325 10.497 0.479 11.434h-173.356c-22.41 0-42.686 18.904-54.25 39.441h201.886c10.149 1.633 10.149 10.040 0 11.673h-203.301c-20.515 0-39.158 23.564-46.932 39.441h223.119c11.085 1.394 11.085 11.673 0 11.891h-227.127c-17.924 0-35.15 19.143-47.172 38.962zM408.008 735.954c11.782-10.040 25.002-18.904 39.158-24.501 12.022 23.325 28.769 43.404 48.108 61.132-31.84-4.203-61.785-16.094-87.266-36.631zM351.406 620.92h71.237c1.655 28.943 7.775 54.359 19.339 80.493-15.811 6.991-29.488 15.397-42.686 26.591-29.488-29.161-45.756-66.729-47.869-107.106zM506.12 686.952v-66.032h-71.237c0.479 25.894 6.599 52.508 17.684 76.529 16.987-6.076 35.368-10.040 53.531-10.497zM615.317 735.954c-11.564-10.040-25.241-18.904-39.158-24.501-12.74 23.804-28.53 42.925-48.348 60.892 32.080-3.964 62.025-15.876 87.506-36.392zM671.679 620.92h-70.998c-0.936 28.464-7.557 55.078-18.86 80.493 15.092 6.991 29.488 15.876 41.989 26.591 30.664-30.337 46.453-67.665 47.869-107.106zM517.684 686.952v-66.032h70.758c0 26.591-6.599 52.029-17.684 76.529-16.987-6.076-35.15-10.040-53.074-10.497zM408.008 494.214c11.782 9.103 25.481 19.143 39.158 24.043 12.74-23.564 28.53-42.925 48.108-60.435-31.84 4.203-62.264 16.094-87.266 36.392zM351.406 609.487h71.237c1.655-29.161 7.775-54.838 19.339-81.212-15.811-6.991-29.488-15.397-42.686-26.374-29.009 28.943-45.756 66.511-47.869 107.563zM506.12 543.215v66.272h-71.237c0.479-26.591 6.599-52.965 17.684-76.529 16.987 6.076 35.368 9.8 53.531 10.258zM615.317 494.214c-11.085 9.561-25.241 18.425-39.158 24.043-12.74-23.564-28.53-42.925-48.348-60.435 32.080 4.203 62.025 16.094 87.506 36.392zM671.679 609.487h-70.998c-0.936-29.161-7.318-55.078-18.86-81.212 15.092-6.991 28.769-15.397 41.989-26.374 29.248 28.943 46.453 67.426 47.869 107.563zM517.684 543.215v66.272h70.758c0-26.591-6.599-52.508-17.684-76.529-16.508 6.076-35.608 9.8-53.074 10.258zM506.12 765.834c-19.339-15.397-36.566-36.392-47.869-58.344 15.332-5.14 31.6-9.343 47.869-9.343v67.665zM517.684 765.834c18.86-15.397 36.087-35.695 47.412-58.344-15.332-5.597-31.6-9.343-47.412-9.343v67.665zM506.12 464.356c-19.339 15.158-36.566 36.174-47.869 58.562 15.332 5.357 31.6 8.406 47.869 8.406v-66.969zM517.684 463.898c18.86 15.637 36.087 36.631 47.412 59.041-15.332 4.9-31.6 8.406-47.412 8.406v-67.426z" />
<glyph unicode="&#xe949;" glyph-name="icn_tcp_logo" d="M197.81 579.022v-67.836h68.819v67.836h-68.819zM284.522 579.022v-67.814h0.131v-193.851h68.732v200.645h-0.175v61.019h-68.71zM371.343 579.022v-67.814h68.732v67.814h-68.732zM753.036 579.022v-0.087h-0.393v-261.708h63.75v0.131h5.418v193.763h132.831v-193.763h5.2v-0.131h63.838v261.708h-0.262v0.087h-68.775v-0.087l-201.628 0.087zM458.229 578.76v-261.097h69.562v96.303h39.609l78.213-96.303h88.765l-11.557 14.244h0.044l-94.424 116.271 105.959 130.581h-88.765l-78.17-96.303h-39.631v96.303h-69.562zM98.995 482.283v-67.836h68.819v67.836h-68.819zM197.81 482.283v-67.836h68.819v67.836h-68.819zM0.332 384.822v-67.836h68.819v67.836h-68.819zM98.951 384.822v-67.836h68.863v67.836h-68.863zM197.81 384.822v-67.836h68.819v67.836h-68.819z" />
<glyph unicode="&#xe94a;" glyph-name="icn_language" d="M128.334 959.181c-70.324 0-127.77-57.445-127.77-127.77v-766.617c0-70.324 57.445-127.77 127.77-127.77h766.617c70.324 0 127.77 57.445 127.77 127.77v766.617c0 70.324-57.445 127.77-127.77 127.77h-766.617zM128.334 908.074h766.617c42.931 0 76.662-33.731 76.662-76.662v-766.617c0-42.931-33.731-76.662-76.662-76.662h-766.617c-42.931 0-76.662 33.731-76.662 76.662v766.617c0 42.931 33.731 76.662 76.662 76.662zM174.433 856.966c-39.506 0-71.653-32.147-71.653-71.653v-528.659c0-39.506 32.147-71.653 71.653-71.653h376.716c6.951 7.973 12.828 12.981 13.084 23.356 0.051 2.606-72.266 583.242-72.573 585.849-4.446 35.775-35.111 62.811-71.193 62.811h-246.033zM552.069 711.206l61.892-497.483c1.073-20.341-4.497-39.506-17.786-54.481l-104.822-120.001h357.448c39.557 0 71.653 32.249 71.653 71.858v526.666c0 39.609-32.147 73.493-71.653 73.493h-296.783zM293.923 686.572h49.319c11.397 0 21.21-8.024 23.458-19.165l47.837-238.878c2.606-12.93-5.826-25.554-18.757-28.16-12.675-2.606-25.554 5.673-28.16 18.757l-15.281 76.355h-67.462l-15.281-76.355c-2.555-12.93-15.077-21.465-28.16-18.757-12.93 2.606-21.363 15.179-18.757 28.16l47.837 238.878c2.249 11.142 12.061 19.165 23.458 19.165zM316.308 638.378l-19.165-97.105h48.501l-19.165 97.105h-10.17zM751.593 542.039c13.186 0 23.97-10.733 23.97-23.97v-23.97h73.289c13.186 0 23.867-10.733 23.867-23.97s-10.63-23.867-23.867-23.867h-6.388c-13.595-43.697-35.162-77.939-57.599-104.924 17.53-16.099 36.338-29.234 54.992-44.004 10.273-8.228 11.959-23.305 3.68-33.629s-23.254-12.061-33.527-3.782c-20.29 16.048-39.353 29.489-58.416 47.019-19.012-17.479-36.44-30.971-56.679-47.019-10.273-8.279-25.401-6.542-33.629 3.782s-6.593 25.401 3.68 33.629c18.654 14.77 35.827 27.956 53.408 44.004-22.385 26.985-42.419 61.176-56.014 104.924h-6.286c-13.186 0-23.97 10.63-23.97 23.867s10.733 23.97 23.97 23.97h71.653v23.97c0 13.237 10.63 23.97 23.867 23.97zM709.992 444.015c10.426-29.183 24.378-52.794 39.711-72.88 15.383 20.085 30.767 43.697 41.244 72.88h-80.955zM386.173 136.346l4.191-33.016c2.811-22.13 17.888-44.719 42.624-56.014 46.713 50.29 18.501 19.83 82.744 89.030h-129.558z" />
<glyph unicode="&#xe94b;" glyph-name="icn_arrow-down" d="M121.252 763.134l-119.999-119.999 510.507-510.507 510.507 510.507-119.999 119.999-390.508-389.667-390.508 389.667z" />
<glyph unicode="&#xe94c;" glyph-name="icn_no-page" d="M506.553 462.353c-117.173 0-212.504-95.331-212.504-212.504s95.331-212.504 212.504-212.504c43.988 0 85.905 13.268 121.744 38.454l126.22-131.272c5.017-5.241 12.069-8.5 19.883-8.5 0.032 0 0.067 0 0.099 0h-0.005c7.197 0 14.025 2.744 19.208 7.733 11.013 10.597 11.364 28.168 0.767 39.191l-125.266 130.283c32.208 38.288 49.855 86.464 49.855 136.614 0 117.173-95.331 212.504-212.504 212.504zM175.036 438.826l-174.96-276.34 1.686-41.842h175.519v-90.707h67.96v90.707h51.678v55.043h-51.673v263.14h-70.209zM902.101 438.826l-174.96-276.34 1.686-41.842h175.523v-90.707h67.96v90.707h51.673v55.043h-51.673v263.14h-70.209zM506.553 406.918c86.609 0 157.068-70.459 157.068-157.068s-70.459-157.068-157.068-157.068c-86.609 0-157.068 70.459-157.068 157.068s70.459 157.068 157.068 157.068zM175.6 342.22l1.684-0.559v-165.972h-109.807l102.508 154.46 5.617 12.073zM902.665 342.22l1.686-0.559v-165.972h-109.807l102.503 154.46 5.617 12.073z" />
<glyph unicode="&#xe94d;" glyph-name="icn_cancel" d="M647.375 238.781l-135.422 135.422-135.422-135.422-73.706 73.706 135.422 135.422-135.422 135.422 73.706 73.706 135.422-135.422 135.422 135.422 73.706-73.706-135.422-135.422 135.422-135.422zM511.954-63.292c-282.694 0-511.2 228.506-511.2 511.2s228.506 511.2 511.2 511.2c282.694 0 511.2-228.506 511.2-511.2s-228.506-511.2-511.2-511.2zM511.954 866.163c-230.551 0-418.255-187.703-418.255-418.255s187.703-418.255 418.255-418.255c230.551 0 418.255 187.703 418.255 418.255s-187.703 418.255-418.255 418.255z" />
<glyph unicode="&#xe94e;" glyph-name="icn_dollar" d="M512.102 958.817c-281.886 0-510.663-228.777-510.663-510.663s228.777-510.663 510.663-510.663c281.886 0 510.663 228.777 510.663 510.663s-228.777 510.663-510.663 510.663zM584.106 137.161v-97.537h-136.347v98.558c-87.323 18.384-161.369 74.557-166.987 173.625h100.090c5.107-53.62 41.874-95.494 135.326-95.494 100.090 0 122.559 50.045 122.559 81.195 0 42.385-22.469 82.217-136.347 109.282-126.644 30.64-213.457 82.727-213.457 187.413 0 87.834 70.982 145.028 158.816 163.923v98.558h136.347v-99.579c94.983-22.98 142.475-94.983 145.539-173.115h-100.090c-2.553 56.684-32.682 95.494-113.367 95.494-76.599 0-122.559-34.725-122.559-83.749 0-42.896 33.193-70.982 136.347-97.537s213.457-70.982 213.457-199.669c-0.511-93.451-70.471-144.517-159.327-161.369z" />
<glyph unicode="&#xe94f;" glyph-name="icn_chair" d="M103.572 141.757v-153.199h153.199v153.199h510.663v-153.199h153.199v306.398h-817.060v-153.199zM869.566 550.287h153.199v-153.199h-153.199v153.199zM1.44 550.287h153.199v-153.199h-153.199v153.199zM767.433 397.088h-510.663v408.53c0 56.173 45.96 102.133 102.133 102.133h306.398c56.173 0 102.133-45.96 102.133-102.133v-408.53z" />
<glyph unicode="&#xe950;" glyph-name="icn_download" d="M403.682 243.919l80.088-80.088 284 284-284 284-80.088-80.088 146.544-147.112h-549.256v-113.6h549.256l-146.544-147.112zM909.77 959.031h-795.2c-63.048 0-113.6-51.12-113.6-113.6v-227.2h113.6v227.2h795.2v-795.2h-795.2v227.2h-113.6v-227.2c0-62.48 50.552-113.6 113.6-113.6h795.2c62.48 0 113.6 51.12 113.6 113.6v795.2c0 62.48-51.12 113.6-113.6 113.6z" />
<glyph unicode="&#xe951;" glyph-name="icn_datarange" d="M358.903 499.22h-102.133v-102.133h102.133v102.133zM563.168 499.22h-102.133v-102.133h102.133v102.133zM767.433 499.22h-102.133v-102.133h102.133v102.133zM869.566 856.684h-51.066v102.133h-102.133v-102.133h-408.53v102.133h-102.133v-102.133h-51.066c-56.684 0-101.622-45.96-101.622-102.133l-0.511-714.928c0-56.173 45.449-102.133 102.133-102.133h714.928c56.173 0 102.133 45.96 102.133 102.133v714.928c0 56.173-45.96 102.133-102.133 102.133zM869.566 39.624h-714.928v561.729h714.928v-561.729z" />
<glyph unicode="&#xe952;" glyph-name="icn_queue" d="M188.466 661.52v-121.727h121.727v-66.289h-121.727v-121.727h-66.289v121.727h-121.727v66.289h121.727v121.727zM778.695 483.181c58.015 0 104.453 47.614 104.453 106.579s-46.484 106.579-104.453 106.579c-58.015 0-104.815-47.614-104.815-106.579s46.801-106.579 104.815-106.579zM499.158 483.181c58.015 0 104.453 47.614 104.453 106.579s-46.484 106.579-104.453 106.579c-58.015 0-104.815-47.614-104.815-106.579s46.801-106.579 104.815-106.579zM499.158 412.098c-81.392 0-244.584-41.555-244.584-124.349v-88.808h489.167v88.808c0 82.794-163.191 124.349-244.584 124.349zM778.695 412.098c-10.129 0-21.659-0.723-33.913-1.763 40.515-29.844 68.822-69.997 68.822-122.586v-88.808h209.63v88.808c0 82.794-163.191 124.349-244.584 124.349z" />
<glyph unicode="&#xe953;" glyph-name="icn_ft" d="M512.102 958.816c-282.039 0-510.663-228.624-510.663-510.663v0c0-282.039 228.624-510.663 510.663-510.663v0c282.039 0 510.663 228.624 510.663 510.663v0c0 282.039-228.624 510.663-510.663 510.663v0zM205.705 652.418h276.779v-61.024h-201.099v-129.555h175.362v-60.462h-175.362v-184.605h-75.68v435.646zM517.464 652.418h345.616v-61.024h-135.836v-374.622h-75.118v374.622h-134.662v61.024z" />
<glyph unicode="&#xe954;" glyph-name="icn_return" d="M584.616 882.013c-241.697 0-437.689-194.358-437.689-434.063h-145.896l189.2-187.617 3.421-6.741 196.503 194.358h-145.896c0 186.647 152.228 337.599 340.459 337.599s340.459-150.952 340.459-337.599c0-186.647-152.228-337.599-340.459-337.599-93.86 0-178.987 38.095-240.267 99.375l-69.042-68.48c79.255-78.591 188.23-127.308 309.308-127.308 241.697 0 437.689 194.358 437.689 434.063s-195.992 434.063-437.689 434.063z" />
<glyph unicode="&#xe955;" glyph-name="icn_settings" d="M511.987 561.734c-62.543 0-113.72-51.177-113.72-113.72s51.177-113.72 113.72-113.72c62.543 0 113.72 51.177 113.72 113.72s-51.177 113.72-113.72 113.72zM910.034 959.781h-796.081c-63.122 0-113.72-51.177-113.72-113.72v-796.081c0-62.543 50.611-113.72 113.72-113.72h796.081c63.122 0 113.72 51.177 113.72 113.72v796.081c0 62.543-50.611 113.72-113.72 113.72zM818.912 448.014c0-13.077-1.172-26.154-2.922-38.665l86.529-65.964c7.596-6.249 9.939-17.063 4.673-25.588l-81.842-137.611c-5.266-8.525-15.784-11.946-25.144-8.525l-101.72 39.81c-21.050-15.919-44.429-28.996-68.981-39.231l-15.205-105.195c-1.751-9.67-10.518-17.063-20.457-17.063h-163.698c-9.939 0-18.706 7.394-20.457 16.484l-15.205 105.195c-25.144 10.235-47.944 23.312-68.981 39.231l-101.72-39.81c-9.36-3.407-19.878 0-25.144 8.525l-81.842 137.611c-5.266 8.525-2.922 19.339 4.673 25.588l86.529 65.964c-1.751 13.077-2.922 26.154-2.922 39.231s1.172 26.154 2.922 38.665l-86.529 65.964c-7.596 6.249-9.939 17.063-4.673 25.588l81.842 137.611c5.266 8.525 15.784 11.946 25.144 8.525l101.72-39.81c21.050 15.919 44.429 28.996 68.981 39.231l15.205 105.195c1.751 9.67 10.518 17.063 20.457 17.063h163.698c9.939 0 18.706-7.394 20.457-16.484l15.205-105.195c25.144-10.235 47.944-23.312 68.981-39.231l101.72 39.81c9.36 3.407 19.878 0 25.144-8.525l81.842-137.611c5.266-8.525 2.922-19.339-4.673-25.588l-86.529-65.964c1.751-13.077 2.922-26.154 2.922-39.231z" />
<glyph unicode="&#xe956;" glyph-name="icn_railway" d="M818.5 499.22h-612.795v255.331h612.795v-255.331zM512.102 141.757c-56.684 0-102.132 45.96-102.132 102.132 0 56.684 45.449 102.132 102.132 102.132 56.428 0 102.132-45.704 102.132-102.132s-45.704-102.132-102.132-102.132zM103.572 218.356c0-98.711 80.021-178.732 178.732-178.732l-76.599-76.599v-25.533h612.795v25.533l-76.599 76.599c98.711 0 178.732 80.021 178.732 178.732v536.195c0 178.732-182.817 204.265-408.53 204.265s-408.53-25.533-408.53-204.265v-536.195z" />
<glyph unicode="&#xe957;" glyph-name="icn_transfer" d="M0.537 713.668h106.267v-531.335h-106.267v531.335zM213.071 713.668h106.267v-531.335h-106.267v531.335zM425.605 713.668h106.267v-531.335h-106.267v531.335zM638.139-33.494v963.044l385.218-481.549-385.218-481.549z" />
<glyph unicode="&#xe958;" glyph-name="icn_aerexpress" d="M547.552 639.812c1.49 0.308 2.929 0.668 4.42 0.976 17.319-24.205 34.586-48.513 52.059-72.615 3.392-4.677 6.115-11.409 14.184-8.479 15.212 5.447 26.672 39.108 17.884 52.778-15.057 23.434-28.727 47.999-45.84 69.84-32.222 41.164-51.596 85.36-42.757 138.857 0.206 1.336 0.051 2.724 0 4.060-1.028 18.912-11.974 31.091-27.905 31.194-16.137 0.103-27.237-11.974-27.699-30.988-0.411-17.010-0.874-34.072 0.103-50.979 0.976-17.113-3.597-31.4-13.31-45.635-26.363-38.748-51.339-78.473-77.086-117.633-5.139-7.811-8.942-14.955-2.518-24.102 27.802-39.828 23.794-36.076 47.331-2.518 2.364 3.34 4.728 6.629 7.143 9.918 11.511 15.88 23.074 31.811 34.586 47.69 3.649-33.507 3.597-64.701 3.649-95.946 0-7.4-0.719-13.516-10.175-14.338-15.366-1.336-10.329-13.362-10.381-21.892-0.051-10.843 8.736-10.432 16.239-10.484 21.687-0.154 43.425-0.051 65.112-0.051 7.863 0 15.725 0.668 15.623 11.255-0.103 8.839 3.957 20.505-11.306 21.276-8.479 0.411-9.404 5.961-9.404 12.693 0.051 31.708 0.051 63.467 0.051 95.175M364.859 243.694c-1.388 0.565-2.775 1.131-4.111 1.747 0 29.806 0.103 59.562-0.103 89.368-0.051 5.704 2.158 13.053-6.115 15.314-16.034 4.42-44.864-16.907-45.84-34.123-1.49-25.798-4.265-51.75-3.34-77.497 2.004-54.988-7.606-105.248-48.358-145.332-0.925-0.925-1.644-2.158-2.313-3.34-8.685-15.16-6.167-31.194 7.040-39.571 14.235-9.045 27.391-6.115 37.618 6.784 10.535 13.259 20.813 26.877 29.704 41.267 10.535 17.113 24.924 27.083 43.631 33.661 37.515 13.156 74.362 28.265 111.517 42.551 30.886 11.923 30.166 11.923 30.475 44.761 0.154 16.342-4.111 20.453-19.888 14.595-27.545-10.227-55.707-18.758-89.214-29.858 22.355 31.245 41.215 57.609 60.024 83.921 3.546 4.985 7.503 7.349 13.618 3.546 12.385-7.709 16.907 2.878 21.738 10.638 6.218 10.021-2.107 14.698-8.531 19.528-16.291 12.128-32.684 24.051-49.027 36.076-6.629 4.882-13.413 10.843-20.813 1.49-5.756-7.246-14.132-14.646-2.826-24.051 5.55-4.574 4.265-9.148 0.668-14.132-18.552-25.747-37.053-51.545-55.553-77.343M629.982 206.693c-34.432 11.255-62.902 20.659-91.475 29.858-4.779 1.542-10.021 5.396-14.852 0.257-8.582-9.096-0.206-48.153 11.614-52.829 27.494-10.741 54.577-23.126 82.893-31.040 49.335-13.773 89.008-38.543 112.905-85.103 0.617-1.182 1.49-2.21 2.313-3.289 12.231-15.057 26.929-18.192 40.342-8.685 13.156 9.353 15.314 25.181 4.728 40.753-9.816 14.389-19.683 28.881-30.732 42.294-10.843 13.156-14.8 27.34-15.263 44.247-1.233 45.532-3.957 91.013-6.27 136.493-0.36 7.143 0.874 15.88-8.017 18.912-13.105 4.42-27.186 15.725-39.519 9.713-9.713-4.779-3.083-20.916-3.392-31.913-0.719-23.28-0.206-46.611-0.206-69.891-22.92 24.462-40.958 49.335-59.15 74.105-3.957 5.447-5.807 10.124 0.36 15.571 10.946 9.559 1.747 16.753-3.854 23.691-6.578 8.171-13.053 3.135-19.169-1.336-16.805-12.231-33.661-24.41-50.465-36.641-6.629-4.831-14.287-9.559-7.76-19.271 5.088-7.606 9.918-17.421 21.995-9.713 5.036 3.238 8.942 1.799 12.128-2.518 19.117-26.209 38.235-52.521 60.846-83.612M313.519 510.154v4.163c28.059 8.891 56.17 17.627 84.075 26.774 5.396 1.747 13.207 1.542 14.338 9.199 1.901 12.591-30.063 38.748-43.014 35.357-28.213-7.4-57.146-12.848-84.332-22.92-48.513-18.038-95.689-21.224-143.020 2.415-1.799 0.874-3.803 1.388-5.807 1.901-16.907 4.060-31.862-2.672-36.076-17.319-4.882-16.959 2.107-28.984 18.552-34.997 16.548-6.013 33.25-11.82 50.26-16.188 17.319-4.471 29.806-13.773 40.598-27.802 24.719-31.965 50.465-63.108 76.315-94.147 23.588-28.316 13.31-27.083 53.446-15.417 15.212 4.42 16.548 9.764 7.040 21.892-18.346 23.383-35.562 47.639-56.786 76.263 36.898-11.82 67.681-21.79 98.567-31.605 5.91-1.901 9.61-4.574 7.246-11.614-4.933-14.698 7.657-14.441 15.931-17.319 11.563-4.008 13.618 4.471 16.239 12.436 6.218 19.117 12.95 38.132 18.86 57.352 2.364 7.606 9.045 17.010-4.265 21.738-9.199 3.289-19.477 9.918-24.616-5.55-1.953-5.961-6.835-5.704-11.717-4.163-30.629 9.816-61.257 19.734-91.938 29.601M726.493 512.775c0-1.439 0.051-2.878 0.051-4.317-30.629-9.97-61.309-19.837-91.938-29.961-7.76-2.57-10.689 1.233-13.721 7.606-6.013 12.591-15.109 4.214-22.715 2.107-8.582-2.364-8.839-8.428-6.218-16.085 7.040-20.556 13.31-41.369 20.299-61.926 2.415-7.092 2.364-18.346 14.595-15.006 9.404 2.518 24.051 2.107 17.678 19.734-1.747 4.831 1.233 7.709 5.55 9.148 31.708 10.432 63.364 20.762 95.072 31.091-16.239-28.162-34.329-52.675-52.161-77.343-2.929-4.060-8.479-7.863-4.574-14.184 7.246-11.768 46.971-14.184 55.913-3.238 20.145 24.77 42.089 48.358 59.51 74.927 25.952 39.571 59.87 65.163 106.532 73.745 4.625 0.822 9.199 2.621 13.464 4.574 15.057 6.989 21.79 19.014 16.445 34.791-5.293 15.674-17.832 22.252-33.969 17.884-17.010-4.574-34.020-9.661-50.363-16.239-17.267-6.938-33.558-6.989-51.39-1.696-39.005 11.666-78.525 21.738-117.838 32.427-32.427 8.839-31.862 8.377-52.316-19.169-9.713-13.053-6.27-17.935 7.76-22.098 28.265-8.377 56.221-17.832 84.332-26.826M1.22-63.21c0 335.271 0.103 670.543-0.411 1005.814 0 13.875 2.724 16.651 16.599 16.599 335.271-0.514 670.543-0.36 1005.763-0.36-0.257-6.732-0.771-13.464-0.771-20.196-0.051-325.713-0.206-651.426 0.463-977.19 0.051-19.58-4.728-24.308-24.308-24.308-325.045 0.668-650.090 0.463-975.134 0.463-7.4 0-14.8-0.514-22.201-0.771" />
<glyph unicode="&#xe959;" glyph-name="icn_complex" d="M920.275 448.358c0 56.173 45.96 102.133 102.133 102.133v204.265c0 56.173-45.96 102.133-102.133 102.133h-817.060c-56.173 0-101.622-45.96-101.622-102.133v-204.265c56.173 0 101.622-45.96 101.622-102.133s-45.449-102.133-102.133-102.133v-204.265c0-56.173 45.96-102.133 102.133-102.133h817.060c56.173 0 102.133 45.96 102.133 102.133v204.265c-56.173 0-102.133 45.96-102.133 102.133zM694.562 203.24l-182.817 117.452-182.817-117.452 55.152 210.393-168.008 137.368 216.521 12.767 79.153 201.201 78.642-201.712 216.521-12.767-168.008-137.368 55.662-209.882z" />
<glyph unicode="&#xe95a;" glyph-name="icn_star_fill" d="M511.825 146.822l316.207-194.812-83.913 367.168 279.367 247.030-367.899 31.869-143.762 346.263-143.792-346.263-367.87-31.869 279.367-247.030-83.913-367.168z" />
<glyph unicode="&#xe95b;" glyph-name="icn_star" d="M512.056 944.213l-143.942-346.565-367.539-31.829 279.106-246.785-83.948-367.238 316.322 194.885 316.268-194.885-83.428 367.238 278.532 246.73-367.457 32.376zM512.056 873.008l125.019-300.681 320.615-28.247-243.011-215.284 72.573-319.549-275.196 169.509-275.169-169.509 73.065 319.549-243.476 215.284 320.561 27.782z" />
<glyph unicode="&#xe95c;" glyph-name="icn_search" d="M731.66 316.495h-46.189l-16.364 15.77c57.274 66.644 91.717 153.082 91.717 247.175 0 209.762-170.040 379.868-379.868 379.868s-379.868-170.040-379.868-379.868c0-209.762 170.040-379.868 379.868-379.868 94.093 0 180.597 34.509 247.175 91.717l15.77-16.364v-46.189l292.176-291.582 87.099 87.099-291.582 292.176zM381.022 316.495c-145.494 0-262.945 117.451-262.945 262.945s117.451 262.945 262.945 262.945c145.494 0 262.945-117.451 262.945-262.945s-117.451-262.945-262.945-262.945z" />
<glyph unicode="&#xe95d;" glyph-name="icn_swimming" d="M868.973 779.559c0-70.488-57.138-127.565-127.565-127.565v0c-70.488 0-127.565 57.138-127.565 127.565v0c0 70.488 57.138 127.565 127.565 127.565v0c70.488 0 127.565-57.138 127.565-127.565v0zM1022.075-11.489c-56.648 0-88.309 18.862-111.275 32.641-18.862 11.207-30.62 18.372-58.669 18.372-28.599 0-39.807-6.614-58.669-18.372-23.455-13.779-54.627-32.641-111.275-32.641s-88.309 18.862-111.275 32.641c-18.862 11.207-30.62 18.372-58.669 18.372-28.599 0-39.807-6.614-58.669-18.372-23.455-13.779-55.117-32.641-111.765-32.641s-88.309 18.862-111.275 32.641c-18.862 11.758-30.62 18.372-58.669 18.372s-39.807-6.614-58.669-18.372c-23.455-13.779-55.117-32.641-111.765-32.641v102.089c28.599 0 39.807 6.614 58.669 18.372 23.455 13.779 55.117 32.641 111.765 32.641s88.309-18.862 111.275-32.641c18.862-11.758 30.131-18.372 58.669-18.372s39.807 6.614 58.669 18.372c23.455 13.779 55.117 32.641 111.765 32.641s88.309-18.862 111.275-32.641c18.862-11.207 30.62-18.372 58.669-18.372s39.807 6.614 58.669 18.372c22.965 13.779 54.627 32.641 111.275 32.641s88.309-18.862 111.275-32.641c18.862-11.758 30.131-18.372 58.669-18.372zM1022.075 218.164c-56.648 0-88.309 18.862-111.275 32.641-18.862 11.207-30.62 18.372-58.669 18.372-28.599 0-39.807-6.614-58.669-18.372-22.965-13.779-54.627-32.641-111.275-32.641s-88.309 18.862-111.275 32.641c-18.862 11.207-30.62 18.372-58.669 18.372-28.599 0-39.807-6.614-58.669-18.372-22.965-13.779-54.627-32.641-111.275-32.641s-88.309 18.862-111.275 32.641c-18.862 11.207-30.62 18.372-58.669 18.372s-39.807-6.614-58.669-18.372c-24.006-13.779-55.607-32.641-112.254-32.641v102.089c28.599 0 39.807 6.614 58.669 18.372 22.965 13.779 54.627 32.641 111.275 32.641s88.309-18.862 111.275-32.641c18.862-11.207 30.62-18.372 58.669-18.372 28.599 0 39.807 6.614 58.669 18.372 22.965 13.779 54.627 32.641 111.275 32.641s88.309-18.862 111.275-32.641c18.862-11.207 30.62-18.372 58.669-18.372s39.807 6.614 58.669 18.372c22.965 13.779 54.627 32.641 111.275 32.641s88.309-18.862 111.275-32.641c18.862-11.207 30.62-18.372 58.669-18.372v-102.089zM341.812 447.817c28.599 0 39.807 6.614 58.669 18.372 23.455 13.779 55.117 32.641 111.765 32.641s88.309-18.862 111.275-32.641c18.862-11.207 30.62-18.372 58.669-18.372s39.807 6.614 58.669 18.372c6.124 3.552 13.289 7.655 20.944 11.758l-327.639 327.149c-79.123 79.123-152.061 102.578-279.687 102.089v-127.565c92.902 0.49 147.468-19.903 204.116-76.551l51.014-51.014-165.84-165.84c15.8-6.124 28.599-13.779 39.317-19.903 18.862-11.758 30.131-18.372 58.669-18.372z" />
<glyph unicode="&#xe95e;" glyph-name="icn_cup" d="M909.856 959.492h-909.415v-568.376c0-125.639 101.766-227.337 227.337-227.337h341.039c125.639 0 227.337 101.766 227.337 227.337v170.52h113.702c63.092 0 113.702 51.156 113.702 113.702v170.52c0 63.092-50.61 113.702-113.702 113.702zM909.856 675.27h-113.702v170.52h113.702v-170.52zM0.373 50.076h909.415v-113.702h-909.415v113.702z" />
<glyph unicode="&#xe95f;" glyph-name="icn_umbrella" d="M575.889 302.309l81.19 81.19 365.558-365.694-80.985-80.985-365.694 365.558zM819.595 627.545l162.311 162.311c-224.225 224.225-587.468 224.77-811.693 1.158 223.068 73.766 471.677 14.167 649.314-163.469zM168.51 789.311c-223.612-224.225-223.068-587.468 1.158-811.693l162.311 162.311c-177.637 177.637-237.235 426.246-163.469 649.314zM169.668 790.401l-0.545-0.545c-21.592-170.825 66.409-390.487 244.046-568.737l325.236 325.236c-177.637 177.637-397.912 265.638-568.737 244.046z" />
<glyph unicode="&#xe960;" glyph-name="icn_photos" d="M909.608 959.208h-795.222c-62.469 0-113.589-51.12-113.589-113.589v-795.222c0-62.469 51.12-113.589 113.589-113.589h795.222c62.469 0 113.589 51.12 113.589 113.589v795.222c0 62.469-51.12 113.589-113.589 113.589zM909.608 50.397h-795.222v795.222h795.222v-795.222zM623.336 431.548l-156.223-201.106-111.339 134.037-156.223-200.493h624.788l-201.106 267.562z" />
<glyph unicode="&#xe961;" glyph-name="icn_map_pin" d="M511.994 959.554c-207.42 0-375.143-160.084-375.143-358.091 0-268.603 375.143-665.027 375.143-665.027s375.143 396.492 375.143 665.027c0 198.007-167.723 358.091-375.143 358.091zM511.994 473.573c-73.937 0-133.96 57.295-133.96 127.89s60.023 127.89 133.96 127.89c73.937 0 133.96-57.295 133.96-127.89s-60.023-127.89-133.96-127.89z" />
<glyph unicode="&#xe962;" glyph-name="icn_apps" d="M1.344 703.712h255.264v255.264h-255.264v-255.264zM384.24-62.081h255.264v255.264h-255.264v-255.264zM1.344-62.081h255.264v255.264h-255.264v-255.264zM1.344 320.816h255.264v255.264h-255.264v-255.264zM384.24 320.816h255.264v255.264h-255.264v-255.264zM767.136 958.976v-255.264h255.264v255.264h-255.264zM384.24 703.712h255.264v255.264h-255.264v-255.264zM767.136 320.816h255.264v255.264h-255.264v-255.264zM767.136-62.081h255.264v255.264h-255.264v-255.264z" />
<glyph unicode="&#xe963;" glyph-name="icn_user" d="M511.992 447.996c140.791 0 255.983 115.192 255.983 255.983s-115.192 255.983-255.983 255.983c-140.791 0-255.983-115.192-255.983-255.983s115.192-255.983 255.983-255.983zM511.992 320.004c-172.789 0-511.966-83.194-511.966-255.983v-127.992h1023.932v127.992c0 172.789-339.178 255.983-511.966 255.983z" />
<glyph unicode="&#xe964;" glyph-name="icn_flag" d="M503.587 839.177l4.814-23.47 19.257-96.887h315.335v-361.071h-202.199l-4.814 23.47-19.257 96.887h-435.692v361.071h322.556zM602.28 959.534h-541.606v-1023.033h120.357v421.249h336.999l24.071-120.357h421.249v601.784h-336.999l-24.071 120.357z" />
<glyph unicode="&#xe965;" glyph-name="icn_flag_fill" d="M625.957 838.617l-24.042 120.208h-540.936v-1021.767h120.208v420.728h336.582l24.042-120.208h420.728v601.040z" />
<glyph unicode="&#xe966;" glyph-name="icn_pin" d="M716.367 448.154v408.53h51.066v102.132h-510.662v-102.132h51.066v-408.53l-102.132-102.132v-102.132h265.544v-306.397h81.706v306.397h265.544v102.132z" />
<glyph unicode="&#xe967;" glyph-name="icn_order_confirm" d="M747.371 674.097l-336.881-336.881-183.521 183.010-72.079-72.079 255.6-255.6 408.96 408.96-72.079 72.59zM512.73 959.347c-282.182 0-511.2-229.018-511.2-511.2s229.018-511.2 511.2-511.2c282.182 0 511.2 229.018 511.2 511.2s-229.018 511.2-511.2 511.2zM512.73 39.187c-225.95 0-408.96 183.010-408.96 408.96s183.010 408.96 408.96 408.96c225.95 0 408.96-183.010 408.96-408.96s-183.010-408.96-408.96-408.96z" />
<glyph unicode="&#xe968;" glyph-name="icn_orders" d="M869.566 856.684h-213.457c-21.448 59.237-77.621 102.133-144.007 102.133s-122.559-42.896-144.007-102.133h-213.457c-56.173 0-102.133-45.96-102.133-102.133v-714.928c0-56.173 45.96-102.133 102.133-102.133h714.928c56.173 0 102.133 45.96 102.133 102.133v714.928c0 56.173-45.96 102.133-102.133 102.133zM512.102 856.684c28.086 0 51.066-22.98 51.066-51.066s-22.98-51.066-51.066-51.066c-28.086 0-51.066 22.98-51.066 51.066s22.98 51.066 51.066 51.066zM614.235 141.757h-357.464v102.133h357.464v-102.133zM767.433 346.022h-510.663v102.133h510.663v-102.133zM767.433 550.287h-510.663v102.133h510.663v-102.133z" />
<glyph unicode="&#xe969;" glyph-name="icn_waiting_answer" d="M584.69 885.827c-241.633 0-437.514-195.881-437.514-437.514h-145.817l189.131-189.131 3.375-6.813 196.381 195.881h-145.817c0 188.131 152.13 340.261 340.261 340.261s340.261-152.13 340.261-340.261c0-188.131-152.13-340.261-340.261-340.261-93.815 0-178.881 38.376-240.132 100.128l-69.002-69.002c79.252-79.252 188.131-128.316 309.197-128.316 241.633 0 437.514 195.881 437.514 437.514s-195.881 437.514-437.514 437.514zM536.126 642.757v-243.070l208.069-123.504 35.001 58.814-170.13 101.128v206.631h-72.94z" />
<glyph unicode="&#xe96a;" glyph-name="icn_done" d="M774.451 680.935l-62.013 62.013-278.886-278.886 62.013-62.013 278.886 278.886zM961.032 742.948l-465.467-465.399-183.864 183.389-62.013-62.013 245.877-245.877 527.887 527.887-62.488 62.013zM0.551 398.924l245.944-245.877 62.013 62.013-245.469 245.877-62.488-62.013z" />
<glyph unicode="&#xe96b;" glyph-name="icn_key" d="M541.943 540.304c-39.222 109.006-141.733 185.595-262.184 185.595 0 0 0 0 0 0v0c-153.673-0.124-278.269-124.72-278.392-278.392v0c0-153.549 124.843-278.392 278.392-278.392 0 0 0 0 0 0 120.389 0 222.961 76.589 261.565 183.677l0.619 1.918h201.803v-185.595h185.595v185.595h92.797v185.595h-480.196zM279.759 354.709c-51.039 0-92.797 41.759-92.797 92.797s41.759 92.797 92.797 92.797 92.797-41.759 92.797-92.797-41.759-92.797-92.797-92.797z" />
<glyph unicode="&#xe96c;" glyph-name="icn_refresh" d="M837.309 633.89l-185.858-185.858h139.412c0-153.798-125.025-278.823-278.823-278.823-46.957 0-91.578 11.612-130.137 32.498l-67.844-67.844c57.181-36.222 125.025-57.62 197.98-57.62 205.429 0 371.788 166.359 371.788 371.788h139.412l-185.858 185.858zM233.143 447.959c0 153.798 125.025 278.823 278.823 278.823 46.957 0 91.578-11.612 130.137-32.498l67.844 67.844c-57.181 36.222-125.025 57.62-197.98 57.62-205.429 0-371.788-166.359-371.788-371.788h-139.412l185.858-185.858 185.858 185.858h-139.412z" />
<glyph unicode="&#xe96d;" glyph-name="icn_mail" d="M920.634 856.506h-817.086c-56.147 0-101.647-45.96-101.647-102.107l-0.536-612.795c0-56.147 45.96-102.107 102.107-102.107h817.086c56.147 0 102.107 45.96 102.107 102.107v612.795c0 56.147-45.96 102.107-102.107 102.107zM920.634 652.292l-408.504-255.306-408.504 255.306v102.107l408.504-255.306 408.504 255.306v-102.107z" />
<glyph unicode="&#xe96e;" glyph-name="icn_globe" d="M512.153 958.458c-281.886 0-510.152-228.802-510.152-510.688s228.266-510.688 510.152-510.688c282.422 0 511.148 228.802 511.148 510.688s-228.802 510.688-511.148 510.688zM866.042 652.061h-150.671c-16.316 63.807-39.832 125.087-70.471 181.77 93.987-32.172 172.119-97.511 221.142-181.77zM512.689 854.283c42.359-61.28 75.604-129.223 97.511-202.222h-195.099c21.984 72.999 55.152 140.943 97.511 202.222zM117.437 345.663c-8.196 32.708-13.252 66.871-13.252 102.107s5.132 69.476 13.252 102.107h172.578c-4.060-33.704-7.124-67.407-7.124-102.107s3.064-68.403 7.124-102.107h-172.578zM159.336 243.48h150.671c16.316-63.807 39.832-125.087 70.471-181.77-93.987 32.172-172.119 97.051-221.142 181.77zM309.931 652.061h-150.671c49.024 84.796 127.155 149.599 221.142 181.77-30.64-56.684-54.156-117.963-70.471-181.77zM512.689 41.257c-42.359 61.28-75.604 129.223-97.511 202.222h195.099c-21.984-72.999-55.152-140.943-97.511-202.222zM632.184 345.663h-238.99c-4.596 33.704-8.196 67.407-8.196 102.107s3.6 68.939 8.196 102.107h238.99c4.596-33.168 8.196-67.407 8.196-102.107s-3.6-68.403-8.196-102.107zM644.977 61.709c30.64 56.684 54.156 117.963 70.471 181.77h150.671c-49.024-84.259-127.155-149.599-221.142-181.77zM735.364 345.663c4.060 33.704 7.124 67.407 7.124 102.107s-3.064 68.403-7.124 102.107h172.578c8.196-32.708 13.252-66.871 13.252-102.107s-5.132-69.476-13.252-102.107h-172.578z" />
<glyph unicode="&#xe96f;" glyph-name="purse" d="M813.175 658.824c0 166.249-134.927 301.176-301.176 301.176s-301.176-134.927-301.176-301.176c-66.259 0-119.868-54.212-119.868-120.471l-60.838-481.882c0-66.259 54.212-120.471 120.471-120.471h722.824c66.259 0 120.471 54.212 120.471 120.471l-60.235 481.882c0 66.259-54.212 120.471-120.471 120.471zM511.998 839.529c99.991 0 180.706-80.715 180.706-180.706h-361.412c0 99.991 80.715 180.706 180.706 180.706z" />
<glyph unicode="&#xe970;" glyph-name="luggage" horiz-adv-x="1078" d="M646.737 744.422v107.789h-215.579v-107.789h215.579zM107.788 636.632v-592.843h862.318v592.843h-862.318zM970.106 744.422c59.823 0 107.789-47.966 107.789-107.789v-592.843c0-59.823-47.966-107.789-107.789-107.789h-862.318c-59.823 0-107.789 47.966-107.789 107.789l0.539 592.843c0 59.823 47.427 107.789 107.251 107.789h215.579v107.789c0 59.823 47.966 107.789 107.789 107.789h215.579c59.823 0 107.789-47.966 107.789-107.789v-107.789h215.579z" />
<glyph unicode="&#xe971;" glyph-name="icn_equally" d="M1.866 703.067h1020.609v-170.102h-1020.609v170.102zM1.866 362.864h1020.609v-170.102h-1020.609v170.102z" />
<glyph unicode="&#xe972;" glyph-name="icn_equipment" d="M901.031 471.957h-73.041v194.775c0 53.563-43.824 97.388-97.388 97.388h-194.775v73.041c0 67.198-54.537 121.735-121.735 121.735s-121.735-54.537-121.735-121.735v-73.041h-194.775c-53.563 0-96.868-43.824-96.868-97.388v-185.037h72.521c72.586 0 131.473-58.952 131.473-131.473s-58.952-131.473-131.473-131.473h-73.041v-185.037c0-53.563 43.824-97.388 97.388-97.388h185.037v73.041c0 72.521 58.952 131.473 131.473 131.473s131.473-58.952 131.473-131.473v-73.041h185.037c53.563 0 97.388 43.824 97.388 97.388v194.775h73.041c67.198 0 121.735 54.537 121.735 121.735s-54.537 121.735-121.735 121.735z" />
<glyph unicode="&#xe973;" glyph-name="icn_restaurant" d="M460.847 601.466h-102.312v358.091h-102.312v-358.091h-102.312v358.091h-102.312v-358.091c0-108.45 84.919-196.439 191.869-203.055v-461.972h127.89v461.972c106.95 6.616 191.869 94.604 191.869 203.055v358.091h-102.312v-358.091zM716.626 754.934v-409.247h127.89v-409.247h127.89v1023.118c-141.19 0-255.779-114.589-255.779-204.624z" />
<glyph unicode="&#xe974;" glyph-name="icn_child" d="M1019.355 417.253c1.856 9.775 2.784 19.921 2.784 30.623s-0.928 20.848-2.784 30.623c-11.631 70.093-63.102 127.132-130.349 147.053-24.622 51.967-59.39 97.437-101.644 135.051-73.31 65.453-169.819 104.861-275.608 104.861s-202.298-39.47-275.608-104.861c-42.687-37.552-77.455-83.518-101.644-135.051-67.247-19.921-118.781-76.527-130.349-147.053-1.856-9.775-2.784-19.921-2.784-30.623s0.928-20.848 2.784-30.623c11.631-70.093 63.102-127.132 130.349-147.053 24.127-51.534 58.957-97.004 100.654-134.123 73.31-65.886 170.252-105.789 276.536-105.789s203.226 39.903 276.969 105.789c41.759 37.119 76.589 83.023 100.654 134.123 66.814 19.921 118.286 76.527 129.916 147.053zM836.544 355.079c-4.64 0-8.847 0.928-13.425 1.423-9.28-31.118-22.704-59.885-39.903-86.302-58.029-88.652-157.756-147.115-271.463-147.115s-213.434 58.462-271.463 147.115c-17.137 26.416-30.623 55.184-39.903 86.302-4.64-0.495-8.785-1.423-13.425-1.423-51.039 0-92.797 41.759-92.797 92.797s41.759 92.797 92.797 92.797c4.64 0 8.847-0.928 13.425-1.423 9.28 31.118 22.766 59.885 39.903 86.302 58.029 88.652 157.756 147.115 271.463 147.115s213.434-58.462 271.402-147.115c17.137-26.416 30.623-55.184 39.903-86.302 4.64 0.495 8.847 1.423 13.487 1.423 51.039 0 92.797-41.759 92.797-92.797s-41.759-92.797-92.797-92.797zM302.958 355.079c35.263-82.095 115.502-139.196 208.794-139.196s173.531 57.101 208.794 139.196zM457.621 517.474c0-34.149-27.716-61.865-61.865-61.865v0c-34.149 0-61.865 27.716-61.865 61.865v0c0 34.149 27.716 61.865 61.865 61.865v0c34.149 0 61.865-27.716 61.865-61.865v0zM689.614 517.474c0-34.149-27.716-61.865-61.865-61.865v0c-34.149 0-61.865 27.716-61.865 61.865v0c0 34.149 27.716 61.865 61.865 61.865v0c34.149 0 61.865-27.716 61.865-61.865v0z" />
<glyph unicode="&#xe975;" glyph-name="icn_spa" d="M690.181 568.763c-9.195 142.491-66.886 281.439-175.185 389.738-109.32-109.32-169.599-248.269-181.315-389.738 65.388-34.737 125.667-79.691 178.25-134.385 52.651 54.149 112.93 99.103 178.25 134.385zM358.135 433.356c-7.152 5.108-15.325 9.672-22.954 14.78 7.697-5.585 15.87-9.74 22.954-14.78zM686.095 446.161c-6.675-4.632-13.827-8.173-20.434-13.282 6.675 5.108 13.827 8.65 20.434 13.282zM511.864 271.453c-109.865 167.556-297.31 278.374-510.841 278.374 0-271.768 171.643-501.646 410.24-586.923 32.217-11.783 65.864-20.434 100.602-26.087 34.737 6.13 67.976 14.78 100.602 26.087 238.529 85.276 410.171 315.155 410.171 586.923-213.532 0-400.976-110.887-510.841-278.374z" />
<glyph unicode="&#xe976;" glyph-name="icn_golf" d="M844.522 759.026l-409.247 200.531v-920.806h-102.312v88.534c-91.535-17.939-153.468-50.678-153.468-88.534 0-56.271 137.643-102.312 306.935-102.312s306.935 46.040 306.935 102.312c0 50.61-110.497 92.558-255.779 100.743v462.995l306.935 156.537z" />
<glyph unicode="&#xe977;" glyph-name="icn_beenhere" d="M837.224 958.262h-649.582c-51.039 0-92.364-41.759-92.364-92.797l-0.433-599.904c0-32.046 16.27-60.318 40.831-77.022l376.758-251.048 376.263 251.048c24.622 16.704 40.831 44.976 40.831 77.022l0.495 599.904c0 51.039-41.759 92.797-92.797 92.797zM419.636 262.281l-231.994 231.994 65.453 65.453 166.54-166.107 352.197 352.197 65.391-65.886-417.588-417.588z" />
<glyph unicode="&#xe978;" glyph-name="icn_accessible" d="M870.084 396.909v102.312c-78.78-1.023-158.106 38.401-208.239 93.581l-65.957 73.187c-8.731 9.686-19.439 17.393-31.171 22.986-0.546 0-0.546 0.477-1.023 0.477h-0.546c-17.87 10.231-38.401 15.347-60.91 13.301-53.68-4.57-92.558-52.179-92.558-105.927v-302.365c0-56.271 46.040-102.312 102.312-102.312h255.779v-255.779h102.312v281.357c0 56.271-46.040 102.312-102.312 102.312h-153.468v176.454c65.957-54.771 166.291-99.242 255.779-99.72zM554.486 141.129c-21.008-59.341-77.757-102.312-144.805-102.312-84.919 0-153.468 68.549-153.468 153.468 0 66.98 42.971 123.32 102.312 144.737v105.927c-116.635-23.532-204.624-126.867-204.624-250.664 0-141.19 114.589-255.779 255.779-255.779 123.797 0 227.132 87.988 250.664 204.624zM614.304 857.312c0-56.476-45.836-102.312-102.312-102.312v0c-56.476 0-102.312 45.836-102.312 102.312v0c0 56.476 45.836 102.312 102.312 102.312v0c56.476 0 102.312-45.836 102.312-102.312v0z" />
<glyph unicode="&#xe979;" glyph-name="icn_file" d="M205.066 959.557c-56.271 0-101.834-46.040-101.834-102.312l-0.477-818.494c0-56.271 45.495-102.312 101.766-102.312h614.416c56.271 0 102.312 46.040 102.312 102.312v613.871l-306.935 306.935h-409.247zM563.158 601.466v281.357l281.357-281.357h-281.357z" />
<glyph unicode="&#xe97a;" glyph-name="icn_business" d="M409.893 243.376v51.156h-357.546l-0.546-204.624c0-56.749 45.495-102.312 102.312-102.312h716.182c56.749 0 102.312 45.563 102.312 102.312v204.624h-358.091v-51.156zM921.452 703.779h-205.169v102.312l-102.312 102.312h-204.624l-102.312-102.312v-102.312h-204.146c-56.271 0-102.312-46.040-102.312-102.312v-153.468c0-56.749 45.495-102.312 102.312-102.312h306.935v102.312h204.624v-102.312h306.935c56.271 0 102.312 46.040 102.312 102.312v153.468c0 56.271-46.040 102.312-102.312 102.312zM614.516 703.779h-204.624v102.312h204.624z" />
<glyph unicode="&#xe97b;" glyph-name="icn_discount" d="M162.298 608.832c0 31.635 10.186 57.531 30.559 77.832s47.058 30.344 80.127 30.344c33.572 0 60.472-10.115 80.701-30.344s30.344-46.771 30.344-79.625v-25.896c0-31.42-10.115-57.172-30.344-77.258s-46.914-30.2-79.984-30.2c-32.352 0-58.965 9.899-79.984 29.626s-31.42 46.412-31.42 79.984zM223.415 581.143c0-16.499 4.591-29.913 13.845-40.099s21.377-15.279 36.513-15.279c14.849 0 26.829 5.093 35.939 15.279s13.629 24.031 13.629 41.534v26.255c0 16.499-4.591 29.985-13.845 40.243s-21.377 15.423-36.513 15.423c-15.064 0-27.115-5.237-36.154-15.638s-13.486-24.174-13.486-41.175zM413.869 314.507c0 32.137 10.401 58.105 31.276 77.975s47.416 29.841 79.768 29.841c32.567 0 59.252-9.971 79.984-29.841s31.061-46.699 31.061-80.486v-25.537c0-31.133-9.971-56.813-29.985-77.114s-46.771-30.344-80.342-30.344c-33.572 0-60.544 9.971-81.060 29.985s-30.702 46.412-30.702 79.266zM474.987 286.459c0-16.284 4.734-29.626 14.203-40.099s21.592-15.638 36.513-15.638c15.351 0 27.402 4.95 36.154 14.921s13.127 23.887 13.127 41.893v26.972c0 16.786-4.663 30.2-13.988 40.243s-21.305 15.064-35.939 15.064c-14.849 0-26.9-5.021-36.154-15.064s-13.845-23.959-13.845-41.678zM291.706 225.342l-44.906 25.896 255.517 408.956 44.906-25.896zM788.035 779.416c-19.368 27.474-51.649 45.192-87.731 45.192l-591.807-0.574c-59.181 0-107.601-47.847-107.601-107.027v-538.006c0-59.181 48.421-107.027 107.601-107.027l591.807-0.574c36.011 0 68.363 17.718 87.731 45.192l235.073 331.412z" />
<glyph unicode="&#xe97c;" glyph-name="icn_dialog" d="M971.485 754.369h-102.168v-459.757h-664.094v-102.168c0-28.13 23.022-51.084 51.084-51.084h561.926l204.337-204.337v766.262c0 28.13-22.954 51.084-51.084 51.084zM767.148 447.864v459.757c0 28.13-23.022 51.084-51.084 51.084h-664.094c-28.13 0-51.084-22.954-51.084-51.084v-715.178l204.337 204.337h510.842c28.062 0 51.084 22.954 51.084 51.084z" />
<glyph unicode="&#xe97d;" glyph-name="icn_doc" d="M613.515 958.83h-408.482c-56.204 0-102.121-45.916-102.121-102.121v-816.965c0-56.204 45.463-102.121 101.591-102.121h613.253c56.129 0 102.121 45.916 102.121 102.121v612.724zM817.757 39.745h-612.724v816.965h357.422v-255.301h255.301zM294.37 448.227h408.482v-102.121h-408.482zM294.37 256.77h408.482v-102.121h-408.482z" />
<glyph unicode="&#xe97e;" glyph-name="icn_residence" d="M279.759 401.478c76.527 0 139.196 62.669 139.196 139.196s-62.669 139.196-139.196 139.196c-76.527 0-139.196-62.669-139.196-139.196s62.669-139.196 139.196-139.196zM836.544 679.87h-371.19v-324.791h-371.19v324.791h-92.797v-463.987h1020.772v278.392c0 102.572-83.023 185.595-185.595 185.595z" />
<glyph unicode="&#xe97f;" glyph-name="icn_pin_drop" d="M818.928 652.622c0 169.292-137.643 306.935-306.935 306.935s-306.935-137.643-306.935-306.935c0-230.202 306.935-562.715 306.935-562.715s306.935 332.513 306.935 562.715zM409.681 652.622c0 56.271 46.040 102.312 102.312 102.312s102.312-46.040 102.312-102.312c0-56.271-45.563-102.312-102.312-102.312-56.271 0-102.312 46.040-102.312 102.312zM153.901 38.751v-102.312h716.182v102.312h-716.182z" />
<glyph unicode="&#xe980;" glyph-name="icn_map" d="M994.766 958.452l-9.077-1.74-302.958-117.477-340.402 119.141-319.978-107.794c-11.952-4.009-20.424-14.221-20.424-27.232v-857.813c0-15.885 12.481-28.367 28.367-28.367l9.077 1.74 302.958 117.477 340.402-119.141 319.978 107.794c11.876 4.009 20.424 14.221 20.424 27.232v857.813c0 15.885-12.481 28.367-28.367 28.367zM682.731 50.713l-340.402 119.67v674.601l340.402-119.67v-674.601z" />
<glyph unicode="&#xe981;" glyph-name="icn_offer" d="M614.349 959.737h-409.391c-56.291 0-101.836-46.056-101.836-102.348l-0.512-818.782c0-56.291 45.545-102.348 101.836-102.348h614.598c56.291 0 102.348 46.056 102.348 102.348v614.086l-307.043 307.043zM716.696 243.303h-153.522v-153.522h-102.348v153.522h-153.522v102.348h153.522v153.522h102.348v-153.522h153.522v-102.348zM563.175 601.52v281.456l281.456-281.456h-281.456z" />
<glyph unicode="&#xe982;" glyph-name="icn_home" d="M1015.85 458.495l-138.769 115.897v259.692c0 0.205 0 0.462 0 0.718 0 10.872-8.769 19.641-19.641 19.641-0.256 0-0.462 0-0.718 0h-121.641c-0.205 0-0.462 0-0.667 0-5.436 0-10.308-2.154-13.897-5.692v0c-3.538-3.59-5.692-8.513-5.692-13.949 0-0.256 0-0.513 0-0.769v0.051-124.102l-154.666 129.846c-12.615 10.308-28.872 16.564-46.615 16.564-0.564 0-1.128 0-1.692 0h0.103c-0.462 0-0.974 0-1.538 0-17.744 0-34-6.256-46.769-16.667l0.154 0.103-455.691-381.333c-4.051-3.231-6.718-8.103-6.974-13.59v-0.051c-0.462-5.744 1.026-10.769 4.41-14.974l39.282-47.128c3.385-3.795 7.846-6.154 13.333-7.026 0.41-0.051 0.923-0.051 1.385-0.051 5.179 0 10 1.692 13.897 4.564l-0.051-0.051 438.563 367.333 438.614-367.333c3.333-2.769 7.641-4.41 12.359-4.41 0.359 0 0.667 0 1.026 0h1.846c5.333 0.718 9.949 3.231 13.333 6.974v0l39.282 47.128c2.821 3.487 4.513 8 4.513 12.872 0 0.718-0.051 1.436-0.103 2.154v-0.103c-0.256 5.538-2.923 10.41-6.923 13.59l-0.051 0.051zM511.954 691.521l-364.41-301.743c-0.051-0.718-0.154-1.385-0.308-2v0.051c-0.154-0.564-0.308-1.179-0.359-1.846v-305.589c0-11.026 4.051-20.564 12.051-28.615 7.128-7.487 17.128-12.154 28.256-12.154 0.103 0 0.154 0 0.256 0v0h243.384v244.461h162.307v-244.461h243.384c10.974 0 20.513 4.103 28.513 12.154 7.436 7.128 12.051 17.179 12.051 28.308 0 0.103 0 0.205 0 0.359v0 305.538c0 0.103 0 0.256 0 0.41 0 1.231-0.256 2.41-0.718 3.487v-0.051z" />
<glyph unicode="&#xe983;" glyph-name="icn_radius_star" d="M1000.982 494.893c20.157 19.791 27.259 48.825 18.59 75.875-8.564 26.527-31.123 46.214-58.799 50.339l-0.418 0.052-247.624 36.292c-10.809 1.619-19.739 8.407-24.282 17.702l-0.104 0.209-110.705 226.423c-12.063 24.595-36.919 41.253-65.64 41.253-0.052 0-0.104 0-0.157 0v0c-28.094 0-53.264-15.77-65.744-41.253l-110.705-226.475c-4.7-9.452-13.577-16.24-24.23-17.859h-0.157l-247.624-36.345c-28.094-4.178-50.653-23.864-59.060-49.869l-0.157-0.522c-2.298-6.893-3.655-14.778-3.655-23.029 0-20.679 8.512-39.426 22.193-52.846v0l179.112-176.293c6.11-5.953 9.869-14.308 9.869-23.499 0-1.932-0.157-3.812-0.47-5.64l0.052 0.209-42.298-248.877c-0.679-3.812-1.097-8.198-1.097-12.637 0-40.679 32.95-73.629 73.629-73.629 12.376 0 24.073 3.081 34.308 8.46l-0.418-0.209 221.41 117.494c4.386 2.298 9.556 3.655 15.091 3.655s10.705-1.358 15.248-3.76l-0.157 0.104 221.462-117.494c10.757-5.744 22.245-8.668 34.099-8.668 21.671 0 42.193 9.713 56.292 26.632 14.099 16.815 19.739 38.12 15.979 60.052l-42.298 248.877c-0.313 1.619-0.47 3.551-0.47 5.431 0 9.191 3.76 17.493 9.869 23.499v0l179.112 176.345z" />
<glyph unicode="&#xe984;" glyph-name="icn_ticket" d="M963.492 535.109h9.968c27.554 0 49.842-22.288 49.842-49.791v-345.725c0-27.503-22.339-49.842-49.842-49.842v0h-797.114c-27.503 0-49.842 22.339-49.842 49.842v0 37.522l824.668 160.312c23.106 4.601 40.334 24.742 40.334 48.922 0 3.323-0.307 6.594-0.971 9.764l0.051-0.307-27.094 139.302zM41.491 652.94l782.545 152.082c2.863 0.562 6.134 0.92 9.457 0.92 24.129 0 44.27-17.176 48.871-39.976l0.051-0.307 65.945-339.437c0.562-2.863 0.92-6.134 0.92-9.457 0-24.129-17.176-44.27-39.976-48.871l-0.307-0.051-782.494-152.133c-2.863-0.562-6.134-0.92-9.508-0.92-24.18 0-44.321 17.176-48.871 40.027l-0.051 0.307-65.945 339.386c-0.562 2.863-0.92 6.134-0.92 9.508 0 24.129 17.176 44.27 39.976 48.871l0.307 0.051z" />
<glyph unicode="&#xe985;" glyph-name="icn_time" d="M575.892 703.618h-42.577c-0.205 0-0.461 0-0.768 0-5.68 0-10.849-2.303-14.585-5.987v0c-3.685-3.736-5.936-8.904-5.936-14.533 0-0.256 0-0.512 0-0.768v0.051-234.274h-149.121c-0.205 0-0.461 0-0.768 0-5.68 0-10.849-2.303-14.585-5.987v0c-3.685-3.736-5.936-8.853-5.936-14.533 0-0.307 0-0.563 0-0.87v0.051-42.577c0-6.192 1.996-11.309 5.987-15.352 3.736-3.685 8.904-5.936 14.533-5.936 0.256 0 0.512 0 0.768 0h212.934c0.205 0 0.512 0 0.768 0 5.68 0 10.849 2.303 14.585 5.987v0c3.685 3.736 5.987 8.904 5.987 14.585 0 0.256 0 0.563 0 0.819v-0.051 298.088c0 6.243-2.047 11.309-6.039 15.352-3.736 3.685-8.853 5.936-14.533 5.936-0.256 0-0.563 0-0.819 0h0.051zM954.681 704.642c-45.442 77.682-108.386 140.575-183.663 184.738l-2.405 1.279c-78.296 45.698-163.859 68.573-256.586 68.573-92.778 0-178.29-22.875-256.637-68.573-77.682-45.442-140.575-108.335-184.738-183.612l-1.279-2.405c-45.698-78.296-68.573-163.859-68.573-256.637s22.875-178.29 68.573-256.637c45.442-77.682 108.335-140.575 183.612-184.738l2.405-1.279c78.296-45.698 163.859-68.573 256.586-68.573s178.29 22.875 256.637 68.573c77.682 45.442 140.575 108.335 184.738 183.612l1.279 2.405c45.698 78.347 68.573 163.859 68.573 256.637s-22.875 178.29-68.573 256.586zM825.518 266.338c-32.188-55.012-76.761-99.636-130.084-130.903l-1.689-0.921c-51.225-30.551-112.992-48.564-178.955-48.564-0.972 0-1.945 0-2.917 0h0.154c-0.768 0-1.74 0-2.661 0-66.014 0-127.781 18.064-180.695 49.536l1.638-0.921c-55.012 32.188-99.584 76.761-130.903 130.084l-0.921 1.689c-30.551 51.276-48.615 113.043-48.615 179.006 0 0.921 0 1.842 0 2.763v-0.154c0 65.707 16.222 126.297 48.615 181.77 32.24 55.012 76.812 99.584 130.186 130.852l1.689 0.921c51.276 30.551 113.043 48.615 179.057 48.615 0.921 0 1.842 0 2.763 0h-0.154c65.707 0 126.297-16.222 181.77-48.615 55.012-32.188 99.584-76.761 130.852-130.084l0.921-1.689c30.551-51.276 48.615-113.043 48.615-179.057 0-0.921 0-1.893 0-2.815v0.154c0-0.819 0-1.74 0-2.661 0-66.014-18.064-127.781-49.536-180.644l0.921 1.638z" />
</font>
</defs>
</svg>
