<svg width="3000" height="338" xmlns="http://www.w3.org/2000/svg"><defs><linearGradient x1="592.531%" y1="4737.361%" x2="42.32%" y2="23.175%" id="a"><stop stop-color="#FFF" offset="0%"/><stop stop-color="#FFF" offset="100%"/></linearGradient><linearGradient x1="136.031%" y1="1513.659%" x2="46.26%" y2="37.677%" id="b"><stop stop-color="#FFF" offset="0%"/><stop stop-color="#FFF" offset="100%"/></linearGradient><linearGradient x1="837.629%" y1="5382.947%" x2="48.173%" y2="55.249%" id="c"><stop stop-color="#FFF" offset="0%"/><stop stop-color="#FFF" offset="100%"/></linearGradient><linearGradient x1="169.133%" y1="2105.436%" x2="46.634%" y2="42.19%" id="d"><stop stop-color="#FFF" offset="0%"/><stop stop-color="#FFF" offset="100%"/></linearGradient></defs><g fill="none" fill-rule="evenodd"><path d="M17.722 40.82c-8.678 0-16.341 7.443-17.017 16.69v1.916h31.33c.113-.676.225-1.24.225-1.917.564-9.246-5.86-16.689-14.538-16.689z" fill="url(#a)" opacity=".522" transform="translate(328 136)"/><path d="M213.367 46.007c-4.621 0-8.904 1.466-12.284 3.834.112-.564.225-1.24.338-1.804 1.803-10.6-4.96-19.17-15.102-19.17-5.184 0-10.256 2.256-14.2 5.977 1.69-19.17-10.932-34.618-28.625-34.618-15.553 0-29.753 11.952-34.711 27.852-4.621-6.315-11.608-10.261-19.61-10.261-14.2 0-26.146 12.742-26.71 28.416 0 1.691 0 3.383.226 4.961-2.592-2.48-5.973-3.834-9.692-3.834-7.1 0-13.299 5.3-14.99 12.292h193.617c-1.465-7.894-9.016-13.645-18.257-13.645z" fill="url(#b)" opacity=".522" transform="translate(328 136)"/><path d="M348.427 179.414c3.38 0 6.311 1.127 8.565 3.044-2.592-3.383-6.65-5.638-11.27-5.638-8.678 0-16.341 7.443-17.017 16.69v1.916h6.31c-.675-9.246 5.41-16.012 13.412-16.012zm165.892-14.659c-5.184 0-10.256 2.255-14.2 5.976 1.69-19.17-10.932-34.618-28.625-34.618-15.553 0-29.753 11.953-34.711 27.852-4.621-6.315-11.608-10.261-19.61-10.261-14.2 0-26.146 12.742-26.71 28.416 0 1.692 0 3.383.226 4.962-2.592-2.481-5.973-3.834-9.692-3.834-7.1 0-13.186 5.187-14.99 12.178 4.622-3.834 10.595-5.75 18.258-5.75 5.635 0 10.82 1.352 15.44 3.833 0-.564-.113-1.015-.113-1.466 0-16.012 11.495-28.867 25.583-28.867 7.888 0 14.876 4.06 19.61 10.261 3.38-15.11 15.1-26.612 28.4-26.612 14.988 0 26.145 14.547 25.018 32.589-.113 1.353-.225 2.706-.45 3.946 3.493-6.99 9.917-11.727 17.13-11.727 6.31 0 11.72 3.721 14.876 9.585.112-9.36-6.311-16.463-15.44-16.463z" fill="#FFF"/><path d="M17.722 40.82c-8.678 0-16.341 7.443-17.017 16.69v1.916h31.33c.113-.676.225-1.24.225-1.917.564-9.246-5.86-16.689-14.538-16.689z" fill="url(#a)" opacity=".522" transform="translate(1515 163)"/><path d="M213.367 46.007c-4.621 0-8.904 1.466-12.284 3.834.112-.564.225-1.24.338-1.804 1.803-10.6-4.96-19.17-15.102-19.17-5.184 0-10.256 2.256-14.2 5.977 1.69-19.17-10.932-34.618-28.625-34.618-15.553 0-29.753 11.952-34.711 27.852-4.621-6.315-11.608-10.261-19.61-10.261-14.2 0-26.146 12.742-26.71 28.416 0 1.691 0 3.383.226 4.961-2.592-2.48-5.973-3.834-9.692-3.834-7.1 0-13.299 5.3-14.99 12.292h193.617c-1.465-7.894-9.016-13.645-18.257-13.645z" fill="url(#b)" opacity=".522" transform="translate(1515 163)"/><path d="M1535.427 206.414c3.38 0 6.311 1.127 8.565 3.044-2.592-3.383-6.65-5.638-11.27-5.638-8.678 0-16.341 7.443-17.017 16.69v1.916h6.31c-.675-9.246 5.41-16.012 13.412-16.012zm165.892-14.659c-5.184 0-10.256 2.255-14.2 5.976 1.69-19.17-10.932-34.618-28.625-34.618-15.553 0-29.753 11.953-34.711 27.852-4.621-6.315-11.608-10.261-19.61-10.261-14.2 0-26.146 12.742-26.71 28.416 0 1.692 0 3.383.226 4.962-2.592-2.481-5.973-3.834-9.692-3.834-7.1 0-13.186 5.187-14.99 12.178 4.622-3.834 10.595-5.75 18.258-5.75 5.635 0 10.82 1.352 15.44 3.833 0-.564-.113-1.015-.113-1.466 0-16.012 11.495-28.867 25.583-28.867 7.888 0 14.876 4.06 19.61 10.261 3.38-15.11 15.1-26.612 28.4-26.612 14.988 0 26.145 14.547 25.018 32.589-.113 1.353-.225 2.706-.45 3.946 3.493-6.99 9.917-11.727 17.13-11.727 6.31 0 11.72 3.721 14.876 9.585.112-9.36-6.311-16.463-15.44-16.463z" fill="#FFF"/><path d="M11.313 27C5.544 27 .45 31.8 0 37.764V39h20.827c.075-.436.15-.8.15-1.236C21.352 31.8 17.081 27 11.313 27z" fill="url(#a)" opacity=".522" transform="translate(536)"/><path d="M141.836 30.816a14.21 14.21 0 0 0-8.185 2.58c.075-.379.15-.834.226-1.214 1.201-7.135-3.304-12.903-10.062-12.903-3.454 0-6.833 1.518-9.461 4.023C115.48 10.398 107.07 0 95.282 0 84.92 0 75.459 8.046 72.155 18.748c-3.079-4.25-7.734-6.907-13.065-6.907-9.461 0-17.42 8.576-17.796 19.127 0 1.138 0 2.277.15 3.34-1.727-1.67-3.98-2.581-6.457-2.581-4.73 0-8.86 3.567-9.987 8.273h129c-.976-5.313-6.007-9.184-12.164-9.184z" fill="url(#b)" opacity=".522" transform="translate(536)"/><path d="M549.382 28.942c2.243 0 4.187.752 5.682 2.03-1.72-2.255-4.411-3.759-7.476-3.759-5.757 0-10.84 4.962-11.289 11.126v1.278h4.187c-.449-6.164 3.588-10.675 8.896-10.675zM659.43 19.17c-3.44 0-6.804 1.503-9.42 3.984 1.12-12.78-7.252-23.079-18.99-23.079-10.317 0-19.736 7.969-23.026 18.568-3.065-4.21-7.7-6.84-13.008-6.84-9.42 0-17.344 8.494-17.718 18.944 0 1.127 0 2.255.15 3.307-1.72-1.653-3.963-2.556-6.43-2.556-4.71 0-8.747 3.459-9.943 8.12 3.065-2.557 7.027-3.835 12.11-3.835 3.739 0 7.178.903 10.243 2.556 0-.375-.075-.676-.075-.977 0-10.675 7.626-19.245 16.97-19.245 5.234 0 9.87 2.707 13.01 6.841 2.242-10.073 10.017-17.741 18.839-17.741 9.943 0 17.344 9.697 16.597 21.725-.075.903-.15 1.805-.3 2.632 2.318-4.661 6.58-7.819 11.364-7.819 4.187 0 7.775 2.481 9.868 6.39.075-6.24-4.186-10.975-10.242-10.975z" fill="#FFF"/><path d="M11.313 27C5.544 27 .45 31.8 0 37.764V39h20.827c.075-.436.15-.8.15-1.236C21.352 31.8 17.081 27 11.313 27z" fill="url(#a)" opacity=".522" transform="translate(80 248)"/><path d="M141.836 30.816a14.21 14.21 0 0 0-8.185 2.58c.075-.379.15-.834.226-1.214 1.201-7.135-3.304-12.903-10.062-12.903-3.454 0-6.833 1.518-9.461 4.023C115.48 10.398 107.07 0 95.282 0 84.92 0 75.459 8.046 72.155 18.748c-3.079-4.25-7.734-6.907-13.065-6.907-9.461 0-17.42 8.576-17.796 19.127 0 1.138 0 2.277.15 3.34-1.727-1.67-3.98-2.581-6.457-2.581-4.73 0-8.86 3.567-9.987 8.273h129c-.976-5.313-6.007-9.184-12.164-9.184z" fill="url(#b)" opacity=".522" transform="translate(80 248)"/><path d="M93.382 276.942c2.243 0 4.187.752 5.682 2.03-1.72-2.255-4.411-3.759-7.476-3.759-5.757 0-10.84 4.962-11.289 11.126v1.278h4.187c-.449-6.164 3.588-10.675 8.896-10.675zm110.048-9.772c-3.44 0-6.804 1.503-9.42 3.984 1.12-12.78-7.252-23.079-18.99-23.079-10.317 0-19.736 7.969-23.026 18.568-3.065-4.21-7.7-6.84-13.008-6.84-9.42 0-17.344 8.494-17.718 18.944 0 1.127 0 2.255.15 3.307-1.72-1.653-3.963-2.556-6.43-2.556-4.71 0-8.747 3.459-9.943 8.12 3.065-2.557 7.027-3.835 12.11-3.835 3.739 0 7.178.903 10.243 2.556 0-.375-.075-.676-.075-.977 0-10.675 7.626-19.245 16.97-19.245 5.234 0 9.87 2.707 13.01 6.841 2.242-10.073 10.017-17.741 18.839-17.741 9.943 0 17.344 9.697 16.597 21.725-.075.903-.15 1.805-.3 2.632 2.318-4.661 6.58-7.819 11.364-7.819 4.187 0 7.775 2.481 9.868 6.39.075-6.24-4.186-10.975-10.242-10.975z" fill="#FFF"/><path d="M11.313 27C5.544 27 .45 31.8 0 37.764V39h20.827c.075-.436.15-.8.15-1.236C21.352 31.8 17.081 27 11.313 27z" fill="url(#a)" opacity=".522" transform="translate(1891 238)"/><path d="M141.836 30.816a14.21 14.21 0 0 0-8.185 2.58c.075-.379.15-.834.226-1.214 1.201-7.135-3.304-12.903-10.062-12.903-3.454 0-6.833 1.518-9.461 4.023C115.48 10.398 107.07 0 95.282 0 84.92 0 75.459 8.046 72.155 18.748c-3.079-4.25-7.734-6.907-13.065-6.907-9.461 0-17.42 8.576-17.796 19.127 0 1.138 0 2.277.15 3.34-1.727-1.67-3.98-2.581-6.457-2.581-4.73 0-8.86 3.567-9.987 8.273h129c-.976-5.313-6.007-9.184-12.164-9.184z" fill="url(#b)" opacity=".522" transform="translate(1891 238)"/><path d="M1904.382 266.942c2.243 0 4.187.752 5.682 2.03-1.72-2.255-4.411-3.759-7.476-3.759-5.757 0-10.84 4.962-11.289 11.126v1.278h4.187c-.449-6.164 3.588-10.675 8.896-10.675zm110.048-9.772c-3.44 0-6.804 1.503-9.42 3.984 1.12-12.78-7.252-23.079-18.99-23.079-10.317 0-19.736 7.969-23.026 18.568-3.065-4.21-7.7-6.84-13.008-6.84-9.42 0-17.344 8.494-17.718 18.944 0 1.127 0 2.255.15 3.307-1.72-1.653-3.963-2.556-6.43-2.556-4.71 0-8.747 3.459-9.943 8.12 3.065-2.557 7.027-3.835 12.11-3.835 3.739 0 7.178.903 10.243 2.556 0-.375-.075-.676-.075-.977 0-10.675 7.626-19.245 16.97-19.245 5.234 0 9.87 2.707 13.01 6.841 2.242-10.073 10.017-17.741 18.839-17.741 9.943 0 17.344 9.697 16.597 21.725-.075.903-.15 1.805-.3 2.632 2.318-4.661 6.58-7.819 11.364-7.819 4.187 0 7.775 2.481 9.868 6.39.075-6.24-4.186-10.975-10.242-10.975z" fill="#FFF"/><path d="M11.313 27C5.544 27 .45 31.8 0 37.764V39h20.827c.075-.436.15-.8.15-1.236C21.352 31.8 17.081 27 11.313 27z" fill="url(#a)" opacity=".522" transform="translate(2149 298)"/><path d="M141.836 30.816a14.21 14.21 0 0 0-8.185 2.58c.075-.379.15-.834.226-1.214 1.201-7.135-3.304-12.903-10.062-12.903-3.454 0-6.833 1.518-9.461 4.023C115.48 10.398 107.07 0 95.282 0 84.92 0 75.459 8.046 72.155 18.748c-3.079-4.25-7.734-6.907-13.065-6.907-9.461 0-17.42 8.576-17.796 19.127 0 1.138 0 2.277.15 3.34-1.727-1.67-3.98-2.581-6.457-2.581-4.73 0-8.86 3.567-9.987 8.273h129c-.976-5.313-6.007-9.184-12.164-9.184z" fill="url(#b)" opacity=".522" transform="translate(2149 298)"/><path d="M2162.382 326.942c2.243 0 4.187.752 5.682 2.03-1.72-2.255-4.411-3.759-7.476-3.759-5.757 0-10.84 4.962-11.289 11.126v1.278h4.187c-.449-6.164 3.588-10.675 8.896-10.675zm110.048-9.772c-3.44 0-6.804 1.503-9.42 3.984 1.12-12.78-7.252-23.079-18.99-23.079-10.317 0-19.736 7.969-23.026 18.568-3.065-4.21-7.7-6.84-13.008-6.84-9.42 0-17.344 8.494-17.718 18.944 0 1.127 0 2.255.15 3.307-1.72-1.653-3.963-2.556-6.43-2.556-4.71 0-8.747 3.459-9.943 8.12 3.065-2.557 7.027-3.835 12.11-3.835 3.739 0 7.178.903 10.243 2.556 0-.375-.075-.676-.075-.977 0-10.675 7.626-19.245 16.97-19.245 5.234 0 9.87 2.707 13.01 6.841 2.242-10.073 10.017-17.741 18.839-17.741 9.943 0 17.344 9.697 16.597 21.725-.075.903-.15 1.805-.3 2.632 2.318-4.661 6.58-7.819 11.364-7.819 4.187 0 7.775 2.481 9.868 6.39.075-6.24-4.186-10.975-10.242-10.975z" fill="#FFF"/><path d="M11.313 27C5.544 27 .45 31.8 0 37.764V39h20.827c.075-.436.15-.8.15-1.236C21.352 31.8 17.081 27 11.313 27z" fill="url(#a)" opacity=".522" transform="translate(1790 20)"/><path d="M141.836 30.816a14.21 14.21 0 0 0-8.185 2.58c.075-.379.15-.834.226-1.214 1.201-7.135-3.304-12.903-10.062-12.903-3.454 0-6.833 1.518-9.461 4.023C115.48 10.398 107.07 0 95.282 0 84.92 0 75.459 8.046 72.155 18.748c-3.079-4.25-7.734-6.907-13.065-6.907-9.461 0-17.42 8.576-17.796 19.127 0 1.138 0 2.277.15 3.34-1.727-1.67-3.98-2.581-6.457-2.581-4.73 0-8.86 3.567-9.987 8.273h129c-.976-5.313-6.007-9.184-12.164-9.184z" fill="url(#b)" opacity=".522" transform="translate(1790 20)"/><path d="M1803.382 48.942c2.243 0 4.187.752 5.682 2.03-1.72-2.255-4.411-3.759-7.476-3.759-5.757 0-10.84 4.962-11.289 11.126v1.278h4.187c-.449-6.164 3.588-10.675 8.896-10.675zm110.048-9.772c-3.44 0-6.804 1.503-9.42 3.984 1.12-12.78-7.252-23.079-18.99-23.079-10.317 0-19.736 7.969-23.026 18.568-3.065-4.21-7.7-6.84-13.008-6.84-9.42 0-17.344 8.494-17.718 18.944 0 1.127 0 2.255.15 3.307-1.72-1.653-3.963-2.556-6.43-2.556-4.71 0-8.747 3.459-9.943 8.12 3.065-2.557 7.027-3.835 12.11-3.835 3.739 0 7.178.903 10.243 2.556 0-.375-.075-.676-.075-.977 0-10.675 7.626-19.245 16.97-19.245 5.234 0 9.87 2.707 13.01 6.841 2.242-10.073 10.017-17.741 18.839-17.741 9.943 0 17.344 9.697 16.597 21.725-.075.903-.15 1.805-.3 2.632 2.318-4.661 6.58-7.819 11.364-7.819 4.187 0 7.775 2.481 9.868 6.39.075-6.24-4.186-10.975-10.242-10.975z" fill="#FFF"/><path d="M17.722 40.82c-8.678 0-16.341 7.443-17.017 16.69v1.916h31.33c.113-.676.225-1.24.225-1.917.564-9.246-5.86-16.689-14.538-16.689z" fill="url(#a)" opacity=".522" transform="translate(1186 238)"/><path d="M213.367 46.007c-4.621 0-8.904 1.466-12.284 3.834.112-.564.225-1.24.338-1.804 1.803-10.6-4.96-19.17-15.102-19.17-5.184 0-10.256 2.256-14.2 5.977 1.69-19.17-10.932-34.618-28.625-34.618-15.553 0-29.753 11.952-34.711 27.852-4.621-6.315-11.608-10.261-19.61-10.261-14.2 0-26.146 12.742-26.71 28.416 0 1.691 0 3.383.226 4.961-2.592-2.48-5.973-3.834-9.692-3.834-7.1 0-13.299 5.3-14.99 12.292h193.617c-1.465-7.894-9.016-13.645-18.257-13.645z" fill="url(#b)" opacity=".522" transform="translate(1186 238)"/><path d="M1206.427 281.414c3.38 0 6.311 1.127 8.565 3.044-2.592-3.383-6.65-5.638-11.27-5.638-8.678 0-16.341 7.443-17.017 16.69v1.916h6.31c-.675-9.246 5.41-16.012 13.412-16.012zm165.892-14.659c-5.184 0-10.256 2.255-14.2 5.976 1.69-19.17-10.932-34.618-28.625-34.618-15.553 0-29.753 11.953-34.711 27.852-4.621-6.315-11.608-10.261-19.61-10.261-14.2 0-26.146 12.742-26.71 28.416 0 1.692 0 3.383.226 4.962-2.592-2.481-5.973-3.834-9.692-3.834-7.1 0-13.186 5.187-14.99 12.178 4.622-3.834 10.595-5.75 18.258-5.75 5.635 0 10.82 1.352 15.44 3.833 0-.564-.113-1.015-.113-1.466 0-16.012 11.495-28.867 25.583-28.867 7.888 0 14.876 4.06 19.61 10.261 3.38-15.11 15.1-26.612 28.4-26.612 14.988 0 26.145 14.547 25.018 32.589-.113 1.353-.225 2.706-.45 3.946 3.493-6.99 9.917-11.727 17.13-11.727 6.31 0 11.72 3.721 14.876 9.585.112-9.36-6.311-16.463-15.44-16.463z" fill="#FFF"/><path d="M17.722 40.82c-8.678 0-16.341 7.443-17.017 16.69v1.916h31.33c.113-.676.225-1.24.225-1.917.564-9.246-5.86-16.689-14.538-16.689z" fill="url(#a)" opacity=".522" transform="translate(2440 258)"/><path d="M213.367 46.007c-4.621 0-8.904 1.466-12.284 3.834.112-.564.225-1.24.338-1.804 1.803-10.6-4.96-19.17-15.102-19.17-5.184 0-10.256 2.256-14.2 5.977 1.69-19.17-10.932-34.618-28.625-34.618-15.553 0-29.753 11.952-34.711 27.852-4.621-6.315-11.608-10.261-19.61-10.261-14.2 0-26.146 12.742-26.71 28.416 0 1.691 0 3.383.226 4.961-2.592-2.48-5.973-3.834-9.692-3.834-7.1 0-13.299 5.3-14.99 12.292h193.617c-1.465-7.894-9.016-13.645-18.257-13.645z" fill="url(#b)" opacity=".522" transform="translate(2440 258)"/><path d="M2460.427 301.414c3.38 0 6.311 1.127 8.565 3.044-2.592-3.383-6.65-5.638-11.27-5.638-8.678 0-16.341 7.443-17.017 16.69v1.916h6.31c-.675-9.246 5.41-16.012 13.412-16.012zm165.892-14.659c-5.184 0-10.256 2.255-14.2 5.976 1.69-19.17-10.932-34.618-28.625-34.618-15.553 0-29.753 11.953-34.711 27.852-4.621-6.315-11.608-10.261-19.61-10.261-14.2 0-26.146 12.742-26.71 28.416 0 1.692 0 3.383.226 4.962-2.592-2.481-5.973-3.834-9.692-3.834-7.1 0-13.186 5.187-14.99 12.178 4.622-3.834 10.595-5.75 18.258-5.75 5.635 0 10.82 1.352 15.44 3.833 0-.564-.113-1.015-.113-1.466 0-16.012 11.495-28.867 25.583-28.867 7.888 0 14.876 4.06 19.61 10.261 3.38-15.11 15.1-26.612 28.4-26.612 14.988 0 26.145 14.547 25.018 32.589-.113 1.353-.225 2.706-.45 3.946 3.493-6.99 9.917-11.727 17.13-11.727 6.31 0 11.72 3.721 14.876 9.585.112-9.36-6.311-16.463-15.44-16.463z" fill="#FFF"/><path d="M11.313 27C5.544 27 .45 31.8 0 37.764V39h20.827c.075-.436.15-.8.15-1.236C21.352 31.8 17.081 27 11.313 27z" fill="url(#a)" opacity=".522" transform="translate(1174 27)"/><path d="M139.119 30.046a13.89 13.89 0 0 0-7.994 2.516c.073-.37.146-.814.22-1.184 1.173-6.957-3.227-12.581-9.828-12.581-3.374 0-6.674 1.48-9.241 3.922C113.376 10.14 105.162 0 93.647 0c-10.12 0-19.362 7.844-22.589 18.279-3.007-4.144-7.554-6.734-12.761-6.734-9.241 0-17.015 8.362-17.382 18.649 0 1.11 0 2.22.147 3.256-1.687-1.628-3.887-2.516-6.308-2.516-4.62 0-8.654 3.478-9.754 8.066h126c-.953-5.18-5.867-8.954-11.881-8.954z" fill="url(#b)" opacity=".522" transform="translate(1174 27)"/><path d="M1187.083 55.219c2.192 0 4.092.733 5.554 1.979-1.68-2.199-4.312-3.665-7.309-3.665-5.627 0-10.597 4.838-11.036 10.848v1.246h4.093c-.438-6.01 3.508-10.408 8.698-10.408zm107.583-9.529c-3.362 0-6.65 1.466-9.209 3.885 1.096-12.46-7.09-22.502-18.564-22.502-10.086 0-19.295 7.77-22.51 18.104-2.997-4.104-7.529-6.67-12.718-6.67-9.209 0-16.956 8.283-17.321 18.471 0 1.1 0 2.199.146 3.225-1.681-1.612-3.874-2.492-6.285-2.492-4.605 0-8.552 3.372-9.721 7.916 2.997-2.492 6.87-3.738 11.84-3.738 3.654 0 7.016.88 10.013 2.492 0-.367-.073-.66-.073-.953 0-10.408 7.455-18.764 16.59-18.764 5.117 0 9.648 2.639 12.718 6.67 2.192-9.821 9.793-17.298 18.417-17.298 9.72 0 16.956 9.456 16.226 21.183-.074.88-.147 1.759-.293 2.565 2.266-4.544 6.432-7.622 11.11-7.622 4.092 0 7.6 2.418 9.647 6.23.073-6.084-4.093-10.702-10.013-10.702z" fill="#FFF"/><path d="M11.313 27C5.544 27 .45 31.8 0 37.764V39h20.827c.075-.436.15-.8.15-1.236C21.352 31.8 17.081 27 11.313 27z" fill="url(#a)" opacity=".522" transform="translate(754 223)"/><path d="M139.119 30.046a13.89 13.89 0 0 0-7.994 2.516c.073-.37.146-.814.22-1.184 1.173-6.957-3.227-12.581-9.828-12.581-3.374 0-6.674 1.48-9.241 3.922C113.376 10.14 105.162 0 93.647 0c-10.12 0-19.362 7.844-22.589 18.279-3.007-4.144-7.554-6.734-12.761-6.734-9.241 0-17.015 8.362-17.382 18.649 0 1.11 0 2.22.147 3.256-1.687-1.628-3.887-2.516-6.308-2.516-4.62 0-8.654 3.478-9.754 8.066h126c-.953-5.18-5.867-8.954-11.881-8.954z" fill="url(#b)" opacity=".522" transform="translate(754 223)"/><path d="M767.083 251.219c2.192 0 4.092.733 5.554 1.979-1.68-2.199-4.312-3.665-7.309-3.665-5.627 0-10.597 4.838-11.036 10.848v1.246h4.093c-.438-6.01 3.508-10.408 8.698-10.408zm107.583-9.529c-3.362 0-6.65 1.466-9.209 3.885 1.096-12.46-7.09-22.502-18.564-22.502-10.086 0-19.295 7.77-22.51 18.104-2.997-4.104-7.529-6.67-12.718-6.67-9.209 0-16.956 8.283-17.321 18.471 0 1.1 0 2.199.146 3.225-1.681-1.612-3.874-2.492-6.285-2.492-4.605 0-8.552 3.372-9.721 7.916 2.997-2.492 6.87-3.738 11.84-3.738 3.654 0 7.016.88 10.013 2.492 0-.367-.073-.66-.073-.953 0-10.408 7.455-18.764 16.59-18.764 5.117 0 9.648 2.639 12.718 6.67 2.192-9.821 9.793-17.298 18.417-17.298 9.72 0 16.956 9.456 16.226 21.183-.074.88-.147 1.759-.293 2.565 2.266-4.544 6.432-7.622 11.11-7.622 4.092 0 7.6 2.418 9.647 6.23.073-6.084-4.093-10.702-10.013-10.702z" fill="#FFF"/><path d="M11.313 27C5.544 27 .45 31.8 0 37.764V39h20.827c.075-.436.15-.8.15-1.236C21.352 31.8 17.081 27 11.313 27z" fill="url(#a)" opacity=".522" transform="translate(2428 47)"/><path d="M139.119 30.046a13.89 13.89 0 0 0-7.994 2.516c.073-.37.146-.814.22-1.184 1.173-6.957-3.227-12.581-9.828-12.581-3.374 0-6.674 1.48-9.241 3.922C113.376 10.14 105.162 0 93.647 0c-10.12 0-19.362 7.844-22.589 18.279-3.007-4.144-7.554-6.734-12.761-6.734-9.241 0-17.015 8.362-17.382 18.649 0 1.11 0 2.22.147 3.256-1.687-1.628-3.887-2.516-6.308-2.516-4.62 0-8.654 3.478-9.754 8.066h126c-.953-5.18-5.867-8.954-11.881-8.954z" fill="url(#b)" opacity=".522" transform="translate(2428 47)"/><path d="M2441.083 75.219c2.192 0 4.092.733 5.554 1.979-1.68-2.199-4.312-3.665-7.309-3.665-5.627 0-10.597 4.838-11.036 10.848v1.246h4.093c-.438-6.01 3.508-10.408 8.698-10.408zm107.583-9.529c-3.362 0-6.65 1.466-9.209 3.885 1.096-12.46-7.09-22.502-18.564-22.502-10.086 0-19.295 7.77-22.51 18.104-2.997-4.104-7.529-6.67-12.718-6.67-9.209 0-16.956 8.283-17.321 18.471 0 1.1 0 2.199.146 3.225-1.681-1.612-3.874-2.492-6.285-2.492-4.605 0-8.552 3.372-9.721 7.916 2.997-2.492 6.87-3.738 11.84-3.738 3.654 0 7.016.88 10.013 2.492 0-.367-.073-.66-.073-.953 0-10.408 7.455-18.764 16.59-18.764 5.117 0 9.648 2.639 12.718 6.67 2.192-9.821 9.793-17.298 18.417-17.298 9.72 0 16.956 9.456 16.226 21.183-.074.88-.147 1.759-.293 2.565 2.266-4.544 6.432-7.622 11.11-7.622 4.092 0 7.6 2.418 9.647 6.23.073-6.084-4.093-10.702-10.013-10.702z" fill="#FFF"/><path d="M17.722 40.82c-8.678 0-16.341 7.443-17.017 16.69v1.916h31.33c.113-.676.225-1.24.225-1.917.564-9.246-5.86-16.689-14.538-16.689z" fill="url(#a)" opacity=".522" transform="translate(856 56)"/><path d="M213.367 46.007c-4.621 0-8.904 1.466-12.284 3.834.112-.564.225-1.24.338-1.804 1.803-10.6-4.96-19.17-15.102-19.17-5.184 0-10.256 2.256-14.2 5.977 1.69-19.17-10.932-34.618-28.625-34.618-15.553 0-29.753 11.952-34.711 27.852-4.621-6.315-11.608-10.261-19.61-10.261-14.2 0-26.146 12.742-26.71 28.416 0 1.691 0 3.383.226 4.961-2.592-2.48-5.973-3.834-9.692-3.834-7.1 0-13.299 5.3-14.99 12.292h193.617c-1.465-7.894-9.016-13.645-18.257-13.645z" fill="url(#b)" opacity=".522" transform="translate(856 56)"/><path d="M876.427 99.414c3.38 0 6.311 1.127 8.565 3.044-2.592-3.383-6.65-5.638-11.27-5.638-8.678 0-16.341 7.443-17.017 16.69v1.916h6.31c-.675-9.246 5.41-16.012 13.412-16.012zm165.892-14.659c-5.184 0-10.256 2.255-14.2 5.976 1.69-19.17-10.932-34.618-28.625-34.618-15.553 0-29.753 11.953-34.711 27.852-4.621-6.315-11.608-10.261-19.61-10.261-14.2 0-26.146 12.742-26.71 28.416 0 1.692 0 3.383.226 4.962-2.592-2.481-5.973-3.834-9.692-3.834-7.1 0-13.186 5.187-14.99 12.178 4.622-3.834 10.595-5.75 18.258-5.75 5.635 0 10.82 1.352 15.44 3.833 0-.564-.113-1.015-.113-1.466 0-16.012 11.495-28.867 25.583-28.867 7.888 0 14.876 4.06 19.61 10.261 3.38-15.11 15.1-26.612 28.4-26.612 14.988 0 26.145 14.547 25.018 32.589-.113 1.353-.225 2.706-.45 3.946 3.493-6.99 9.917-11.727 17.13-11.727 6.31 0 11.72 3.721 14.876 9.585.112-9.36-6.311-16.463-15.44-16.463z" fill="#FFF"/><path d="M17.722 40.82c-8.678 0-16.341 7.443-17.017 16.69v1.916h31.33c.113-.676.225-1.24.225-1.917.564-9.246-5.86-16.689-14.538-16.689z" fill="url(#a)" opacity=".522" transform="translate(2110 76)"/><path d="M213.367 46.007c-4.621 0-8.904 1.466-12.284 3.834.112-.564.225-1.24.338-1.804 1.803-10.6-4.96-19.17-15.102-19.17-5.184 0-10.256 2.256-14.2 5.977 1.69-19.17-10.932-34.618-28.625-34.618-15.553 0-29.753 11.952-34.711 27.852-4.621-6.315-11.608-10.261-19.61-10.261-14.2 0-26.146 12.742-26.71 28.416 0 1.691 0 3.383.226 4.961-2.592-2.48-5.973-3.834-9.692-3.834-7.1 0-13.299 5.3-14.99 12.292h193.617c-1.465-7.894-9.016-13.645-18.257-13.645z" fill="url(#b)" opacity=".522" transform="translate(2110 76)"/><path d="M2130.427 119.414c3.38 0 6.311 1.127 8.565 3.044-2.592-3.383-6.65-5.638-11.27-5.638-8.678 0-16.341 7.443-17.017 16.69v1.916h6.31c-.675-9.246 5.41-16.012 13.412-16.012zm165.892-14.659c-5.184 0-10.256 2.255-14.2 5.976 1.69-19.17-10.932-34.618-28.625-34.618-15.553 0-29.753 11.953-34.711 27.852-4.621-6.315-11.608-10.261-19.61-10.261-14.2 0-26.146 12.742-26.71 28.416 0 1.692 0 3.383.226 4.962-2.592-2.481-5.973-3.834-9.692-3.834-7.1 0-13.186 5.187-14.99 12.178 4.622-3.834 10.595-5.75 18.258-5.75 5.635 0 10.82 1.352 15.44 3.833 0-.564-.113-1.015-.113-1.466 0-16.012 11.495-28.867 25.583-28.867 7.888 0 14.876 4.06 19.61 10.261 3.38-15.11 15.1-26.612 28.4-26.612 14.988 0 26.145 14.547 25.018 32.589-.113 1.353-.225 2.706-.45 3.946 3.493-6.99 9.917-11.727 17.13-11.727 6.31 0 11.72 3.721 14.876 9.585.112-9.36-6.311-16.463-15.44-16.463z" fill="#FFF"/><path d="M17.722 40.82c-8.678 0-16.341 7.443-17.017 16.69v1.916h31.33c.113-.676.225-1.24.225-1.917.564-9.246-5.86-16.689-14.538-16.689z" fill="url(#a)" opacity=".522" transform="translate(2688 136)"/><path d="M213.367 46.007c-4.621 0-8.904 1.466-12.284 3.834.112-.564.225-1.24.338-1.804 1.803-10.6-4.96-19.17-15.102-19.17-5.184 0-10.256 2.256-14.2 5.977 1.69-19.17-10.932-34.618-28.625-34.618-15.553 0-29.753 11.952-34.711 27.852-4.621-6.315-11.608-10.261-19.61-10.261-14.2 0-26.146 12.742-26.71 28.416 0 1.691 0 3.383.226 4.961-2.592-2.48-5.973-3.834-9.692-3.834-7.1 0-13.299 5.3-14.99 12.292h193.617c-1.465-7.894-9.016-13.645-18.257-13.645z" fill="url(#b)" opacity=".522" transform="translate(2688 136)"/><path d="M2708.427 179.414c3.38 0 6.311 1.127 8.565 3.044-2.592-3.383-6.65-5.638-11.27-5.638-8.678 0-16.341 7.443-17.017 16.69v1.916h6.31c-.675-9.246 5.41-16.012 13.412-16.012zm165.892-14.659c-5.184 0-10.256 2.255-14.2 5.976 1.69-19.17-10.932-34.618-28.625-34.618-15.553 0-29.753 11.953-34.711 27.852-4.621-6.315-11.608-10.261-19.61-10.261-14.2 0-26.146 12.742-26.71 28.416 0 1.692 0 3.383.226 4.962-2.592-2.481-5.973-3.834-9.692-3.834-7.1 0-13.186 5.187-14.99 12.178 4.622-3.834 10.595-5.75 18.258-5.75 5.635 0 10.82 1.352 15.44 3.833 0-.564-.113-1.015-.113-1.466 0-16.012 11.495-28.867 25.583-28.867 7.888 0 14.876 4.06 19.61 10.261 3.38-15.11 15.1-26.612 28.4-26.612 14.988 0 26.145 14.547 25.018 32.589-.113 1.353-.225 2.706-.45 3.946 3.493-6.99 9.917-11.727 17.13-11.727 6.31 0 11.72 3.721 14.876 9.585.112-9.36-6.311-16.463-15.44-16.463z" fill="#FFF"/><path d="M13.497 26.92c-5.973 0-11.383 5.074-12.059 11.388-.225 1.804 0 3.496.676 5.075h19.497c.902-1.466 1.465-3.27 1.69-5.075.677-6.314-3.718-11.389-9.804-11.389z" fill="url(#c)" opacity=".522" transform="translate(186 20)"/><path d="M159.667 28.385c-3.945 0-7.664 1.24-10.481 3.27.112-.564.338-1.24.45-1.804 1.916-11.05-5.184-20.072-15.89-20.072-4.846 0-9.58 1.917-13.411 4.962-1.24.902-2.367 2.03-3.381 3.157-.113-.338-.113-.676-.225-1.015C113.686 7.298 105.459.645 94.978.645c-3.268 0-6.65.677-9.692 1.917-7.326 2.932-13.75 9.021-17.356 16.69-.113.225-.113.45-.225.563-3.268-2.255-6.988-3.608-11.045-3.608-8.677 0-16.228 5.863-20.173 14.32-1.69 3.609-2.592 7.669-2.817 11.954v.676h141.774c0-.225.113-.451.113-.676.113-7.668-6.874-14.096-15.89-14.096z" fill="url(#d)" opacity=".522" transform="translate(186 20)"/><path d="M202.54 49.4c1.916 0 3.606.677 4.958 1.691-1.803-2.48-4.62-4.172-8.001-4.172-5.973 0-11.383 5.075-12.059 11.39-.225 1.803 0 3.495.676 5.074h4.846c-.45-1.354-.676-2.707-.563-4.285.563-5.413 5.071-9.698 10.143-9.698zm120.136-13.983c5.184 0 9.692 2.707 12.735 6.992-1.578-7.33-7.663-12.517-15.665-12.517-4.846 0-9.58 1.917-13.411 4.962-1.24.902-2.367 2.03-3.381 3.157-.113-.338-.113-.677-.225-1.015-3.043-9.585-11.27-16.238-21.751-16.238-3.268 0-6.65.677-9.692 1.917-7.326 2.932-13.75 9.021-17.356 16.69-.113.225-.113.45-.225.563-3.268-2.255-6.988-3.609-11.045-3.609-8.677 0-16.228 5.864-20.173 14.321-1.69 3.609-2.592 7.668-2.817 11.953v.677h10.593v-1.58c.902-11.276 9.693-20.41 19.723-20.41 4.62 0 8.79 2.03 11.72 5.3 3.945-9.36 13.073-16.125 23.104-16.125 10.368 0 18.595 7.217 20.736 17.027 3.72-7.217 10.143-12.066 17.13-12.066z" fill="#FFF"/><path d="M13.497 26.92c-5.973 0-11.383 5.074-12.059 11.388-.225 1.804 0 3.496.676 5.075h19.497c.902-1.466 1.465-3.27 1.69-5.075.677-6.314-3.718-11.389-9.804-11.389z" fill="url(#c)" opacity=".522" transform="translate(1440 40)"/><path d="M159.667 28.385c-3.945 0-7.664 1.24-10.481 3.27.112-.564.338-1.24.45-1.804 1.916-11.05-5.184-20.072-15.89-20.072-4.846 0-9.58 1.917-13.411 4.962-1.24.902-2.367 2.03-3.381 3.157-.113-.338-.113-.676-.225-1.015C113.686 7.298 105.459.645 94.978.645c-3.268 0-6.65.677-9.692 1.917-7.326 2.932-13.75 9.021-17.356 16.69-.113.225-.113.45-.225.563-3.268-2.255-6.988-3.608-11.045-3.608-8.677 0-16.228 5.863-20.173 14.32-1.69 3.609-2.592 7.669-2.817 11.954v.676h141.774c0-.225.113-.451.113-.676.113-7.668-6.874-14.096-15.89-14.096z" fill="url(#d)" opacity=".522" transform="translate(1440 40)"/><path d="M1456.54 69.4c1.916 0 3.606.677 4.958 1.691-1.803-2.48-4.62-4.172-8.001-4.172-5.973 0-11.383 5.075-12.059 11.39-.225 1.803 0 3.495.676 5.074h4.846c-.45-1.354-.676-2.707-.563-4.285.563-5.413 5.071-9.698 10.143-9.698zm120.136-13.983c5.184 0 9.692 2.707 12.735 6.992-1.578-7.33-7.663-12.517-15.665-12.517-4.846 0-9.58 1.917-13.411 4.962-1.24.902-2.367 2.03-3.381 3.157-.113-.338-.113-.677-.225-1.015-3.043-9.585-11.27-16.238-21.751-16.238-3.268 0-6.65.677-9.692 1.917-7.326 2.932-13.75 9.021-17.356 16.69-.113.225-.113.45-.225.563-3.268-2.255-6.988-3.609-11.045-3.609-8.677 0-16.228 5.864-20.173 14.321-1.69 3.609-2.592 7.668-2.817 11.953v.677h10.593v-1.58c.902-11.276 9.693-20.41 19.723-20.41 4.62 0 8.79 2.03 11.72 5.3 3.945-9.36 13.073-16.125 23.104-16.125 10.368 0 18.595 7.217 20.736 17.027 3.72-7.217 10.143-12.066 17.13-12.066z" fill="#FFF"/></g></svg>