<svg width="168" height="168" xmlns="http://www.w3.org/2000/svg"><g fill="none" fill-rule="evenodd"><path d="M10 84c0 40.804 33.196 74 74 74s74-33.196 74-74c0-40.802-33.196-74-74-74S10 43.198 10 84m2.784 0c0-39.269 31.945-71.216 71.216-71.216 39.27 0 71.216 31.947 71.216 71.217 0 39.27-31.947 71.218-71.216 71.218-39.271 0-71.216-31.948-71.216-71.218"/><path d="M10 84c0 40.804 33.196 74 74 74s74-33.196 74-74c0-40.802-33.196-74-74-74S10 43.198 10 84m2.784 0c0-39.269 31.945-71.216 71.216-71.216 39.27 0 71.216 31.947 71.216 71.217 0 39.27-31.947 71.218-71.216 71.218-39.271 0-71.216-31.948-71.216-71.218" fill="#3F6B83"/><path d="M16 85c0 38.047 30.955 69 69 69 38.048 0 69-30.953 69-69s-30.952-69-69-69c-38.045 0-69 30.953-69 69m1.864 0c0-37.02 30.116-67.138 67.137-67.138 37.02 0 67.137 30.118 67.137 67.138 0 37.02-30.117 67.136-67.137 67.136-37.02 0-67.137-30.116-67.137-67.136"/><path d="M16 84c0 37.496 30.506 68 68 68 37.497 0 68-30.504 68-68 0-37.496-30.503-68-68-68-37.494 0-68 30.504-68 68m1.837 0c0-36.483 29.68-66.165 66.164-66.165S150.165 47.517 150.165 84c0 36.483-29.68 66.163-66.164 66.163S17.837 120.483 17.837 84" fill="#3F6B83"/><path d="M17 84c0 36.945 30.058 67 67 67s67-30.055 67-67c0-36.944-30.058-67-67-67S17 47.056 17 84m2.887 0c0-35.354 28.76-64.113 64.113-64.113 35.352 0 64.113 28.76 64.113 64.112 0 35.353-28.76 64.116-64.113 64.116-35.352 0-64.113-28.763-64.113-64.116m59.948-72.857l-.835.052.023.852C79.099 14.823 81.286 17 84 17s4.902-2.177 4.976-4.954l.023-.852-.833-.052A67.231 67.231 0 0 0 84 11c-1.256 0-2.62.046-4.166.142m1.044 1.707a56.158 56.158 0 0 1 6.245 0c-.397 1.392-1.638 2.388-3.123 2.388-1.485 0-2.728-.996-3.122-2.388m-1.855 143.106l-.023.855.835.048A67.13 67.13 0 0 0 84 157c1.254 0 2.618-.046 4.166-.142l.833-.048-.023-.855C88.902 153.177 86.715 151 84 151s-4.902 2.177-4.978 4.955m1.856-.803c.394-1.392 1.637-2.389 3.122-2.389 1.485 0 2.726.997 3.123 2.39a60.076 60.076 0 0 1-3.123.085c-.995 0-1.99-.028-3.122-.086" fill="#3F6B83"/><path d="M75.896 11.1c-3.002.33-6.032.85-9.005 1.543l-.891.206.181.874c.53 2.54 2.778 4.277 5.335 4.277.318 0 .644-.026.971-.081 2.936-.507 4.892-3.158 4.451-6.037L76.806 11l-.91.1zm-7.56 3.111a75.175 75.175 0 0 1 6.75-1.157c-.166 1.51-1.32 2.771-2.928 3.047a3.706 3.706 0 0 1-.63.053c-1.369 0-2.6-.759-3.191-1.943zm28.178 134.872c-2.936.503-4.892 3.154-4.452 6.035l.133.882.91-.1c3-.332 6.032-.85 9.004-1.543l.891-.206-.181-.874c-.53-2.54-2.776-4.277-5.337-4.277a5.76 5.76 0 0 0-.968.083m.328 1.816c.215-.034.425-.052.635-.052 1.364 0 2.596.758 3.19 1.942-2.237.49-4.501.877-6.752 1.156.165-1.507 1.32-2.77 2.927-3.046M63.66 13.257a65.094 65.094 0 0 0-7.89 3.093l-.77.359.305.84c.78 2.146 2.65 3.451 4.654 3.451.575 0 1.16-.107 1.736-.333 2.58-1.01 3.912-4.004 3.037-6.812L64.464 13l-.803.257zm-6.332 4.41a64.694 64.694 0 0 1 5.921-2.32c.105 1.543-.736 3.005-2.149 3.56a3.119 3.119 0 0 1-1.133.216c-1.038 0-2.021-.535-2.639-1.455zm49.976 129.667l.002-.002c-2.58 1.012-3.913 4.004-3.038 6.813l.268.855.802-.257a65.67 65.67 0 0 0 7.896-3.092l.766-.36-.304-.84c-.78-2.144-2.649-3.451-4.654-3.451-.577 0-1.163.11-1.738.334m.595 1.761a3.084 3.084 0 0 1 1.133-.216c1.039 0 2.022.534 2.64 1.454a63.529 63.529 0 0 1-5.922 2.319c-.103-1.54.738-3.005 2.149-3.557M51.18 18.414a70.305 70.305 0 0 0-7.461 4.628l-.719.512.45.787C44.429 26.055 46.106 27 47.838 27c.875 0 1.764-.243 2.582-.75 2.437-1.51 3.29-4.78 1.944-7.437L51.951 18l-.77.414zm-5.664 5.657a67.838 67.838 0 0 1 5.597-3.471c.355 1.531-.253 3.165-1.585 3.99a3.2 3.2 0 0 1-1.688.49 3.226 3.226 0 0 1-2.324-1.01zm72.064 117.678c-2.435 1.512-3.29 4.779-1.943 7.441l.413.81.772-.412a70.216 70.216 0 0 0 7.46-4.63l.718-.513-.45-.788c-.978-1.714-2.654-2.657-4.385-2.657a4.89 4.89 0 0 0-2.585.749m.893 1.66c1.334-.827 2.954-.577 4.01.518a67.611 67.611 0 0 1-5.595 3.474c-.356-1.532.25-3.166 1.585-3.993M40.53 24.51a74.166 74.166 0 0 0-6.876 5.524l-.654.594.598.642A5.486 5.486 0 0 0 37.62 33a5.503 5.503 0 0 0 3.453-1.204c2.249-1.8 2.576-4.93.741-7.126l-.561-.67-.723.51zm-4.85 6.15a72.112 72.112 0 0 1 5.148-4.141c.625 1.334.277 2.932-.953 3.916a3.602 3.602 0 0 1-2.254.787c-.68 0-1.357-.188-1.942-.562zm91.249 104.546c-2.251 1.8-2.576 4.927-.742 7.124l.56.67.722-.512a73.72 73.72 0 0 0 6.877-5.523l.654-.592-.6-.642a5.48 5.48 0 0 0-4.017-1.731 5.52 5.52 0 0 0-3.454 1.206m1.196 1.36a3.636 3.636 0 0 1 4.197-.226 72.083 72.083 0 0 1-5.152 4.14c-.624-1.334-.274-2.93.955-3.914M31.033 32.654a73.904 73.904 0 0 0-5.523 6.877l-.51.722.67.56A4.985 4.985 0 0 0 28.877 42c1.46 0 2.9-.658 3.917-1.929 1.793-2.24 1.561-5.521-.525-7.471l-.642-.6-.594.654zm-3.515 7.176a71.242 71.242 0 0 1 4.142-5.15 3.627 3.627 0 0 1-.226 4.193c-.664.83-1.605 1.26-2.559 1.26-.46 0-.922-.1-1.357-.303zm107.686 87.101h.003c-1.794 2.239-1.562 5.522.524 7.47l.644.599.59-.652a73.831 73.831 0 0 0 5.525-6.876l.51-.723-.67-.561c-.956-.798-2.087-1.188-3.209-1.188-1.457.002-2.898.658-3.917 1.931m1.362 1.197v-.002c.664-.83 1.605-1.26 2.557-1.26.46 0 .922.102 1.357.306a72.362 72.362 0 0 1-4.14 5.15 3.628 3.628 0 0 1 .226-4.194M23.043 43.717a69.668 69.668 0 0 0-4.627 7.463l-.416.77.813.413a5.874 5.874 0 0 0 2.665.637c1.907 0 3.744-.925 4.772-2.583h.001c1.51-2.433.668-5.493-1.909-6.968L23.551 43l-.508.717zM20.6 51.113a68.851 68.851 0 0 1 3.469-5.596c1.096 1.056 1.35 2.677.522 4.009-.671 1.083-1.873 1.686-3.122 1.686a3.84 3.84 0 0 1-.87-.099zm121.148 66.468c-1.508 2.437-.668 5.498 1.91 6.971l.79.448.51-.716a69.818 69.818 0 0 0 4.628-7.464l.414-.77-.813-.411a5.887 5.887 0 0 0-2.666-.639c-1.906 0-3.744.925-4.773 2.581m1.662.892c.828-1.333 2.458-1.94 3.989-1.584a68.817 68.817 0 0 1-3.467 5.595c-1.098-1.058-1.348-2.677-.522-4.011M16.346 54.767a65.69 65.69 0 0 0-3.09 7.892l-.256.805.857.267A5.85 5.85 0 0 0 15.61 64c2.208 0 4.256-1.262 5.056-3.305 1.012-2.58-.357-5.385-3.119-6.388l-.84-.307-.362.767zm-.997 7.483a63.656 63.656 0 0 1 2.319-5.92c1.252.84 1.794 2.358 1.238 3.77-.52 1.331-1.852 2.16-3.29 2.16-.09 0-.18-.004-.267-.01zm131.984 44.053c-1.013 2.58.358 5.389 3.12 6.392l.84.305.36-.767a65.23 65.23 0 0 0 3.09-7.894l.257-.803-.857-.267a5.848 5.848 0 0 0-1.753-.269c-2.21 0-4.256 1.26-5.057 3.303m1.76.596c.554-1.414 2.025-2.256 3.56-2.15a64.575 64.575 0 0 1-2.32 5.922c-1.252-.84-1.794-2.357-1.24-3.772M12.643 66.89a77.006 77.006 0 0 0-1.542 9.004l-.101.909.88.133c.274.043.543.064.808.064 2.554 0 4.77-1.856 5.228-4.516.506-2.937-1.334-5.705-4.192-6.3L12.85 66l-.206.89zm1.568 1.446c1.364.681 2.165 2.214 1.887 3.82-.273 1.606-1.535 2.764-3.044 2.93a75.3 75.3 0 0 1 1.157-6.75zm135.873 27.178c-.508 2.941 1.336 5.709 4.195 6.303l.872.183.21-.89a77.528 77.528 0 0 0 1.54-9.006l.099-.908-.88-.136a5.437 5.437 0 0 0-.808-.06c-2.562 0-4.774 1.855-5.228 4.514m1.817.33c.277-1.607 1.535-2.767 3.045-2.93a74.25 74.25 0 0 1-1.156 6.753c-1.366-.683-2.167-2.215-1.89-3.822M11.14 78.835A68.315 68.315 0 0 0 11 83c0 1.254.045 2.618.14 4.165l.052.835.853-.024C14.823 87.9 17 85.715 17 83s-2.177-4.9-4.955-4.976L11.192 78l-.053.835zM12.761 83c0-.961.03-1.99.086-3.122 1.39.394 2.389 1.636 2.389 3.122s-.999 2.73-2.39 3.123A63.091 63.091 0 0 1 12.763 83zm143.194-4.976C153.175 78.1 151 80.285 151 83s2.175 4.901 4.955 4.976l.851.024.053-.835c.095-1.547.141-2.91.141-4.165 0-1.254-.046-2.618-.14-4.165l-.054-.835-.85.024zM152.763 83c0-1.486.997-2.728 2.388-3.122.058 1.132.087 2.16.087 3.122 0 .961-.03 1.989-.087 3.123-1.391-.394-2.388-1.637-2.388-3.123zM11.88 91.06l-.88.136.1.908c.332 3.003.85 6.031 1.543 9.007l.206.889.875-.183c2.858-.594 4.698-3.362 4.192-6.303-.455-2.66-2.672-4.514-5.232-4.514a5.5 5.5 0 0 0-.804.06m1.174 1.854c1.507.163 2.77 1.323 3.044 2.93.278 1.608-.523 3.14-1.887 3.823a75.385 75.385 0 0 1-1.157-6.753m141.225-26.731c-2.859.596-4.703 3.364-4.195 6.301.458 2.662 2.675 4.516 5.23 4.516.265 0 .533-.021.805-.064l.881-.133-.099-.909c-.33-3-.85-6.029-1.54-9.003l-.21-.891-.872.183zm-2.378 5.974c-.278-1.607.523-3.14 1.889-3.82.49 2.236.877 4.496 1.156 6.748-1.51-.165-2.768-1.323-3.045-2.928zM13.857 103.27l-.857.266.257.803a65.714 65.714 0 0 0 3.09 7.894l.362.767.839-.305c2.762-1.003 4.131-3.812 3.12-6.392v.002C19.864 104.261 17.82 103 15.61 103a5.85 5.85 0 0 0-1.754.27m1.492 1.479c1.537-.106 3.005.738 3.557 2.149v.001c.556 1.415.014 2.932-1.238 3.772a64.078 64.078 0 0 1-2.32-5.922m135.106-50.442c-2.762 1.003-4.133 3.808-3.12 6.388.803 2.043 2.847 3.305 5.056 3.305.582 0 1.172-.087 1.754-.27l.857-.266-.257-.805a65.392 65.392 0 0 0-3.09-7.892l-.36-.767-.84.307zm-1.36 5.794c-.554-1.413-.012-2.932 1.24-3.77a63.848 63.848 0 0 1 2.32 5.922 4.187 4.187 0 0 1-.247.008c-1.44 0-2.789-.823-3.313-2.16zm-130.28 55.538l-.813.41.416.773a69.658 69.658 0 0 0 4.627 7.462l.508.716.791-.448c2.577-1.473 3.419-4.534 1.91-6.97h-.002c-1.028-1.657-2.863-2.582-4.77-2.582-.9 0-1.814.206-2.667.639m1.787 1.25c1.528-.357 3.165.251 3.99 1.584.828 1.334.575 2.953-.521 4.011a68.834 68.834 0 0 1-3.47-5.595M143.658 43.45c-2.578 1.474-3.418 4.534-1.91 6.967 1.029 1.658 2.866 2.583 4.774 2.583.898 0 1.812-.204 2.665-.637l.813-.412-.414-.771a69.683 69.683 0 0 0-4.629-7.463l-.51-.717-.789.45zm-.248 6.076c-.826-1.332-.576-2.953.522-4.009a68.337 68.337 0 0 1 3.467 5.596 3.802 3.802 0 0 1-.868.099c-1.246 0-2.45-.603-3.121-1.686zm-117.74 76.66l-.67.562.51.722a74.369 74.369 0 0 0 5.523 6.877l.594.653.642-.598c2.086-1.95 2.318-5.233.525-7.472-1.017-1.272-2.458-1.93-3.915-1.93a4.987 4.987 0 0 0-3.209 1.186m1.848.985c1.337-.626 2.932-.276 3.916.954a3.632 3.632 0 0 1 .226 4.197 72.401 72.401 0 0 1-4.142-5.15M135.73 32.6c-2.085 1.95-2.317 5.232-.523 7.471h-.003c1.019 1.271 2.46 1.929 3.917 1.929a4.99 4.99 0 0 0 3.209-1.187l.67-.56-.51-.722a73.383 73.383 0 0 0-5.525-6.877l-.59-.654-.644.6zm.836 6.273a3.627 3.627 0 0 1-.227-4.194 70.415 70.415 0 0 1 4.141 5.152 3.194 3.194 0 0 1-1.356.303c-.952 0-1.892-.43-2.558-1.261zM34.598 135.731l-.598.642.654.592a74.164 74.164 0 0 0 6.875 5.523l.723.512.561-.67c1.835-2.195 1.508-5.323-.741-7.124A5.515 5.515 0 0 0 38.619 134c-1.48 0-2.95.585-4.02 1.731m2.08.609a3.627 3.627 0 0 1 4.196.226c1.23.984 1.578 2.58.953 3.914a71.265 71.265 0 0 1-5.149-4.14m89.508-111.67c-1.834 2.195-1.509 5.326.742 7.126a5.505 5.505 0 0 0 3.45 1.204 5.48 5.48 0 0 0 4.021-1.73l.6-.642-.654-.594a73.635 73.635 0 0 0-6.877-5.524l-.722-.51-.56.67zm1.938 5.765c-1.23-.984-1.58-2.582-.955-3.916a72.949 72.949 0 0 1 5.152 4.14 3.613 3.613 0 0 1-1.943.563 3.601 3.601 0 0 1-2.254-.787zM43.45 143.658l-.45.788.719.513a69.72 69.72 0 0 0 7.461 4.629l.771.412.412-.812c1.346-2.66.493-5.926-1.944-7.438a4.892 4.892 0 0 0-2.584-.75c-1.73 0-3.407.945-4.384 2.658m2.065.27c1.057-1.094 2.676-1.344 4.012-.518 1.332.826 1.94 2.46 1.585 3.991a67.854 67.854 0 0 1-5.597-3.473m70.121-125.115c-1.347 2.658-.492 5.927 1.943 7.437.82.507 1.709.75 2.585.75 1.73 0 3.407-.945 4.384-2.66l.451-.786-.717-.512a70.22 70.22 0 0 0-7.46-4.628L116.05 18l-.413.813zm2.836 5.78c-1.334-.828-1.94-2.462-1.585-3.993a68.084 68.084 0 0 1 5.595 3.47 3.228 3.228 0 0 1-2.324 1.01 3.203 3.203 0 0 1-1.686-.487zM54.305 150.451l-.305.84.77.36a65.392 65.392 0 0 0 7.89 3.092l.804.257.268-.855c.875-2.809-.457-5.801-3.037-6.81a4.725 4.725 0 0 0-1.74-.335c-2.003 0-3.87 1.307-4.65 3.451m2.023-.118c.84-1.252 2.36-1.792 3.772-1.238 1.413.552 2.254 2.018 2.15 3.557a63.69 63.69 0 0 1-5.922-2.319m47.94-136.478c-.875 2.808.458 5.803 3.036 6.812a4.757 4.757 0 0 0 1.738.333c2.004 0 3.875-1.305 4.654-3.452l.304-.84-.766-.358a65.079 65.079 0 0 0-7.896-3.093l-.802-.257-.268.855zm3.63 5.051c-1.41-.554-2.251-2.016-2.148-3.559a64.025 64.025 0 0 1 5.921 2.32c-.617.92-1.602 1.456-2.639 1.456a3.12 3.12 0 0 1-1.133-.217zM66.181 153.277l-.181.874.89.206a76.965 76.965 0 0 0 9.006 1.542l.91.101.132-.882c.441-2.88-1.515-5.532-4.451-6.035a5.76 5.76 0 0 0-.967-.083c-2.561 0-4.809 1.735-5.339 4.277m2.156-.488c.68-1.364 2.21-2.167 3.821-1.89 1.608.276 2.762 1.54 2.927 3.046a73.954 73.954 0 0 1-6.748-1.156M92.062 11.882c-.44 2.879 1.516 5.53 4.452 6.037.326.055.651.081.971.081 2.556-.002 4.804-1.737 5.334-4.277l.181-.874-.89-.206a76.581 76.581 0 0 0-9.005-1.542l-.91-.101-.133.882zm4.78 4.219c-1.606-.276-2.762-1.538-2.927-3.047 2.25.28 4.515.669 6.752 1.157-.594 1.184-1.828 1.943-3.196 1.943-.208 0-.418-.017-.63-.053zM83 149h2V18h-2z" fill="#3F6B83"/><path fill="#3F6B83" d="M62 23.66L106.215 147l1.785-.66L63.783 23z"/><path fill="#3F6B83" d="M42 34.243L126.52 135l1.48-1.24L43.48 33z"/><path fill="#3F6B83" d="M28 51.662L141.04 117l.96-1.662L28.96 50z"/><path fill="#3F6B83" d="M20 72.923L149.663 96l.337-1.923L20.337 71z"/><path fill="#3F6B83" d="M19 94.077L19.337 96 149 72.923 148.663 71z"/><path fill="#3F6B83" d="M27 115.338l.96 1.662L141 51.662 140.04 50z"/><path fill="#3F6B83" d="M41 133.76l1.48 1.24L127 34.243 125.52 33z"/><path fill="#3F6B83" d="M61 146.34l1.783.66L107 23.66l-1.785-.66zM84.5 0C79.813 0 76 3.727 76 8.306c0 1.238.28 2.444.834 3.576L77.38 13h14.236l.547-1.118A8.049 8.049 0 0 0 93 8.306C93 3.726 89.187 0 84.5 0zm-7.119 155l-.547 1.118a8.066 8.066 0 0 0-.834 3.576c0 4.58 3.813 8.306 8.5 8.306 4.687 0 8.5-3.725 8.5-8.306 0-1.24-.28-2.444-.836-3.576L91.617 155H77.381zM55.594 4.5c-4.405 1.556-6.684 6.298-5.08 10.574a8.13 8.13 0 0 0 2.035 3.061l.905.865 13.382-4.728.123-1.226a7.955 7.955 0 0 0-.468-3.614C65.236 6.084 61.97 4 58.497 4c-.965 0-1.944.16-2.903.5m46.57 148.226l-.121 1.225a7.902 7.902 0 0 0 .466 3.619c.777 2.071 2.337 3.726 4.396 4.655a8.708 8.708 0 0 0 6.501.275c4.401-1.557 6.685-6.3 5.081-10.576a8.185 8.185 0 0 0-2.037-3.061l-.906-.863-13.38 4.726zM30.032 18.9c-1.737 1.395-2.802 3.352-3 5.51-.195 2.162.497 4.264 1.954 5.927a8.366 8.366 0 0 0 2.986 2.163l1.152.5L44 24.266l-.313-1.171a7.932 7.932 0 0 0-1.71-3.193c-1.456-1.66-3.5-2.68-5.758-2.867a8.6 8.6 0 0 0-6.187 1.866M125 142.74l.315 1.175a7.911 7.911 0 0 0 1.71 3.19c1.673 1.91 4.081 2.895 6.506 2.895a8.682 8.682 0 0 0 5.445-1.895c3.58-2.878 4.05-8.01 1.042-11.437a8.346 8.346 0 0 0-2.98-2.165l-1.154-.503L125 142.74zM11.125 41.233a8.494 8.494 0 0 0-.836 6.425 8.404 8.404 0 0 0 3.907 5.142 8.251 8.251 0 0 0 3.537 1.101l1.248.099L26 41.718l-.708-1.041a8.332 8.332 0 0 0-2.714-2.545A8.272 8.272 0 0 0 18.403 37a8.38 8.38 0 0 0-7.278 4.233M142 125.278l.708 1.044a8.373 8.373 0 0 0 2.716 2.54 8.289 8.289 0 0 0 4.178 1.138 8.5 8.5 0 0 0 2.185-.29 8.35 8.35 0 0 0 5.092-3.946c2.31-4.042.935-9.23-3.07-11.566a8.297 8.297 0 0 0-3.539-1.1l-1.248-.098L142 125.278zM.126 69.024c-.787 4.616 2.206 9.034 6.673 9.85a7.933 7.933 0 0 0 3.626-.191l1.182-.34L14 64.328l-.999-.736a7.909 7.909 0 0 0-3.35-1.46A8.041 8.041 0 0 0 8.21 62C4.304 62 .83 64.91.126 69.024m156.447 20.292l-1.18.343L153 103.673l1 .738a8.036 8.036 0 0 0 4.778 1.589c3.914 0 7.393-2.905 8.095-7.026a8.679 8.679 0 0 0-1.361-6.353c-1.262-1.856-3.147-3.098-5.31-3.49a7.89 7.89 0 0 0-3.63.185M6.797 89.13c-2.163.393-4.047 1.635-5.306 3.491A8.63 8.63 0 0 0 0 97.37v.23c.005.457.048.916.126 1.375C.831 103.094 4.31 106 8.224 106a8.022 8.022 0 0 0 4.774-1.589l1.002-.738-2.393-14.014-1.182-.343A7.92 7.92 0 0 0 8.221 89c-.477 0-.95.044-1.424.13m151.551-26.001a7.927 7.927 0 0 0-3.351 1.46l-.997.736 2.393 14.017 1.18.34a7.95 7.95 0 0 0 2.212.318c.47 0 .945-.044 1.416-.13 2.164-.393 4.051-1.635 5.31-3.494a8.683 8.683 0 0 0 1.362-6.355c-.702-4.12-4.186-7.021-8.104-7.021-.469 0-.943.042-1.421.129M17.73 114.099c-1.264.1-2.453.47-3.54 1.099-4.004 2.336-5.38 7.524-3.069 11.566a8.35 8.35 0 0 0 5.093 3.945 8.504 8.504 0 0 0 2.185.291 8.284 8.284 0 0 0 4.177-1.138 8.281 8.281 0 0 0 2.716-2.544l.708-1.04L18.979 114l-1.248.099zm127.691-74.967a8.39 8.39 0 0 0-2.713 2.542L142 42.717 149.02 55l1.247-.099a8.256 8.256 0 0 0 3.537-1.101 8.398 8.398 0 0 0 3.907-5.143 8.488 8.488 0 0 0-.837-6.425A8.387 8.387 0 0 0 149.595 38c-1.42 0-2.857.364-4.174 1.132M31.968 135.503a8.374 8.374 0 0 0-2.982 2.165c-1.457 1.66-2.15 3.763-1.953 5.926.197 2.16 1.262 4.117 2.999 5.511A8.667 8.667 0 0 0 35.475 151c2.422 0 4.826-.982 6.502-2.894a7.912 7.912 0 0 0 1.71-3.191l.313-1.176L33.123 135l-1.155.503zM132.781 17.037c-2.255.187-4.3 1.206-5.756 2.866a7.931 7.931 0 0 0-1.71 3.193L125 24.267 135.88 33l1.15-.501a8.302 8.302 0 0 0 2.984-2.162c1.457-1.662 2.15-3.764 1.953-5.926-.196-2.158-1.262-4.115-2.995-5.507a8.587 8.587 0 0 0-6.19-1.867m-80.233 132.83a8.132 8.132 0 0 0-2.036 3.058c-1.603 4.278.676 9.02 5.081 10.577a8.717 8.717 0 0 0 2.899.498c3.475 0 6.743-2.083 8-5.43a7.99 7.99 0 0 0 .466-3.616l-.123-1.227L53.454 149l-.905.867zM102.51 9.43a7.886 7.886 0 0 0-.467 3.617l.123 1.226L115.544 19l.906-.863a8.164 8.164 0 0 0 2.037-3.063c1.604-4.277-.68-9.02-5.081-10.577a8.676 8.676 0 0 0-2.9-.497c-3.474-.002-6.742 2.082-7.997 5.43"/></g></svg>