<svg width="3000" height="682" xmlns="http://www.w3.org/2000/svg"><defs><linearGradient x1="0%" y1="49.961%" x2="99.999%" y2="49.961%" id="a"><stop stop-color="#75B000" offset="0%"/><stop stop-color="#8BB90D" offset="15.56%"/><stop stop-color="#A3C31B" offset="36.88%"/><stop stop-color="#ACC720" offset="50%"/><stop stop-color="#A3C31B" offset="63.12%"/><stop stop-color="#8BB90D" offset="84.44%"/><stop stop-color="#75B000" offset="100%"/></linearGradient><linearGradient x1="50.015%" y1="2934.553%" x2="50.015%" y2="421.453%" id="b"><stop stop-color="#145C80" offset="0%"/><stop stop-color="#1B6588" offset="18.72%"/><stop stop-color="#2D7D9F" offset="49.25%"/><stop stop-color="#4AA5C4" offset="87.57%"/><stop stop-color="#55B3D1" offset="100%"/></linearGradient><linearGradient x1="50.015%" y1="2768.156%" x2="50.015%" y2="255.056%" id="c"><stop stop-color="#145C80" offset="0%"/><stop stop-color="#1B6588" offset="18.72%"/><stop stop-color="#2D7D9F" offset="49.25%"/><stop stop-color="#4AA5C4" offset="87.57%"/><stop stop-color="#55B3D1" offset="100%"/></linearGradient><linearGradient x1="50.015%" y1="2601.748%" x2="50.015%" y2="88.649%" id="d"><stop stop-color="#145C80" offset="0%"/><stop stop-color="#1B6588" offset="18.72%"/><stop stop-color="#2D7D9F" offset="49.25%"/><stop stop-color="#4AA5C4" offset="87.57%"/><stop stop-color="#55B3D1" offset="100%"/></linearGradient><linearGradient x1="50.015%" y1="2435.351%" x2="50.015%" y2="-77.748%" id="e"><stop stop-color="#145C80" offset="0%"/><stop stop-color="#1B6588" offset="18.72%"/><stop stop-color="#2D7D9F" offset="49.25%"/><stop stop-color="#4AA5C4" offset="87.57%"/><stop stop-color="#55B3D1" offset="100%"/></linearGradient><linearGradient x1="50.015%" y1="2268.955%" x2="50.015%" y2="-244.145%" id="f"><stop stop-color="#145C80" offset="0%"/><stop stop-color="#1B6588" offset="18.72%"/><stop stop-color="#2D7D9F" offset="49.25%"/><stop stop-color="#4AA5C4" offset="87.57%"/><stop stop-color="#55B3D1" offset="100%"/></linearGradient><linearGradient x1="50.015%" y1="2102.547%" x2="50.015%" y2="-410.552%" id="g"><stop stop-color="#145C80" offset="0%"/><stop stop-color="#1B6588" offset="18.72%"/><stop stop-color="#2D7D9F" offset="49.25%"/><stop stop-color="#4AA5C4" offset="87.57%"/><stop stop-color="#55B3D1" offset="100%"/></linearGradient><linearGradient x1="50.015%" y1="1935.35%" x2="50.015%" y2="-577.75%" id="h"><stop stop-color="#145C80" offset="0%"/><stop stop-color="#1B6588" offset="18.72%"/><stop stop-color="#2D7D9F" offset="49.25%"/><stop stop-color="#4AA5C4" offset="87.57%"/><stop stop-color="#55B3D1" offset="100%"/></linearGradient><linearGradient x1="50.015%" y1="1768.954%" x2="50.015%" y2="-744.146%" id="i"><stop stop-color="#145C80" offset="0%"/><stop stop-color="#1B6588" offset="18.72%"/><stop stop-color="#2D7D9F" offset="49.25%"/><stop stop-color="#4AA5C4" offset="87.57%"/><stop stop-color="#55B3D1" offset="100%"/></linearGradient><linearGradient x1="50.015%" y1="1602.546%" x2="50.015%" y2="-910.552%" id="j"><stop stop-color="#145C80" offset="0%"/><stop stop-color="#1B6588" offset="18.72%"/><stop stop-color="#2D7D9F" offset="49.25%"/><stop stop-color="#4AA5C4" offset="87.57%"/><stop stop-color="#55B3D1" offset="100%"/></linearGradient><linearGradient x1="50.015%" y1="1436.15%" x2="50.015%" y2="-1076.95%" id="k"><stop stop-color="#145C80" offset="0%"/><stop stop-color="#1B6588" offset="18.72%"/><stop stop-color="#2D7D9F" offset="49.25%"/><stop stop-color="#4AA5C4" offset="87.57%"/><stop stop-color="#55B3D1" offset="100%"/></linearGradient><linearGradient x1="50.015%" y1="1269.753%" x2="50.015%" y2="-1243.347%" id="l"><stop stop-color="#145C80" offset="0%"/><stop stop-color="#1B6588" offset="18.72%"/><stop stop-color="#2D7D9F" offset="49.25%"/><stop stop-color="#4AA5C4" offset="87.57%"/><stop stop-color="#55B3D1" offset="100%"/></linearGradient><linearGradient x1="50.015%" y1="1103.346%" x2="50.015%" y2="-1409.754%" id="m"><stop stop-color="#145C80" offset="0%"/><stop stop-color="#1B6588" offset="18.72%"/><stop stop-color="#2D7D9F" offset="49.25%"/><stop stop-color="#4AA5C4" offset="87.57%"/><stop stop-color="#55B3D1" offset="100%"/></linearGradient><linearGradient x1="50.015%" y1="281.294%" x2="50.015%" y2="-473.844%" id="n"><stop stop-color="#145C80" offset="0%"/><stop stop-color="#1B6588" offset="18.72%"/><stop stop-color="#2D7D9F" offset="49.25%"/><stop stop-color="#4AA5C4" offset="87.57%"/><stop stop-color="#55B3D1" offset="100%"/></linearGradient><linearGradient x1="50.153%" y1="2601.748%" x2="50.153%" y2="88.649%" id="o"><stop stop-color="#145C80" offset="0%"/><stop stop-color="#1B6588" offset="18.72%"/><stop stop-color="#2D7D9F" offset="49.25%"/><stop stop-color="#4AA5C4" offset="87.57%"/><stop stop-color="#55B3D1" offset="100%"/></linearGradient><linearGradient x1="50.153%" y1="2435.351%" x2="50.153%" y2="-77.748%" id="p"><stop stop-color="#145C80" offset="0%"/><stop stop-color="#1B6588" offset="18.72%"/><stop stop-color="#2D7D9F" offset="49.25%"/><stop stop-color="#4AA5C4" offset="87.57%"/><stop stop-color="#55B3D1" offset="100%"/></linearGradient><linearGradient x1="50.153%" y1="2268.955%" x2="50.153%" y2="-244.145%" id="q"><stop stop-color="#145C80" offset="0%"/><stop stop-color="#1B6588" offset="18.72%"/><stop stop-color="#2D7D9F" offset="49.25%"/><stop stop-color="#4AA5C4" offset="87.57%"/><stop stop-color="#55B3D1" offset="100%"/></linearGradient><linearGradient x1="50.153%" y1="2102.547%" x2="50.153%" y2="-410.552%" id="r"><stop stop-color="#145C80" offset="0%"/><stop stop-color="#1B6588" offset="18.72%"/><stop stop-color="#2D7D9F" offset="49.25%"/><stop stop-color="#4AA5C4" offset="87.57%"/><stop stop-color="#55B3D1" offset="100%"/></linearGradient><linearGradient x1="50.153%" y1="1935.35%" x2="50.153%" y2="-577.75%" id="s"><stop stop-color="#145C80" offset="0%"/><stop stop-color="#1B6588" offset="18.72%"/><stop stop-color="#2D7D9F" offset="49.25%"/><stop stop-color="#4AA5C4" offset="87.57%"/><stop stop-color="#55B3D1" offset="100%"/></linearGradient><linearGradient x1="50.153%" y1="1768.954%" x2="50.153%" y2="-744.146%" id="t"><stop stop-color="#145C80" offset="0%"/><stop stop-color="#1B6588" offset="18.72%"/><stop stop-color="#2D7D9F" offset="49.25%"/><stop stop-color="#4AA5C4" offset="87.57%"/><stop stop-color="#55B3D1" offset="100%"/></linearGradient><linearGradient x1="50.153%" y1="1602.546%" x2="50.153%" y2="-910.552%" id="u"><stop stop-color="#145C80" offset="0%"/><stop stop-color="#1B6588" offset="18.72%"/><stop stop-color="#2D7D9F" offset="49.25%"/><stop stop-color="#4AA5C4" offset="87.57%"/><stop stop-color="#55B3D1" offset="100%"/></linearGradient><linearGradient x1="50.153%" y1="1436.15%" x2="50.153%" y2="-1076.95%" id="v"><stop stop-color="#145C80" offset="0%"/><stop stop-color="#1B6588" offset="18.72%"/><stop stop-color="#2D7D9F" offset="49.25%"/><stop stop-color="#4AA5C4" offset="87.57%"/><stop stop-color="#55B3D1" offset="100%"/></linearGradient><linearGradient x1="50.153%" y1="1269.753%" x2="50.153%" y2="-1243.347%" id="w"><stop stop-color="#145C80" offset="0%"/><stop stop-color="#1B6588" offset="18.72%"/><stop stop-color="#2D7D9F" offset="49.25%"/><stop stop-color="#4AA5C4" offset="87.57%"/><stop stop-color="#55B3D1" offset="100%"/></linearGradient><linearGradient x1="50.153%" y1="1103.346%" x2="50.153%" y2="-1409.754%" id="x"><stop stop-color="#145C80" offset="0%"/><stop stop-color="#1B6588" offset="18.72%"/><stop stop-color="#2D7D9F" offset="49.25%"/><stop stop-color="#4AA5C4" offset="87.57%"/><stop stop-color="#55B3D1" offset="100%"/></linearGradient><linearGradient x1="50.153%" y1="281.295%" x2="50.153%" y2="-473.844%" id="y"><stop stop-color="#145C80" offset="0%"/><stop stop-color="#1B6588" offset="18.72%"/><stop stop-color="#2D7D9F" offset="49.25%"/><stop stop-color="#4AA5C4" offset="87.57%"/><stop stop-color="#55B3D1" offset="100%"/></linearGradient><linearGradient x1="49.981%" y1="99.997%" x2="49.981%" y2="-.01%" id="z"><stop stop-color="#145C80" offset="0%"/><stop stop-color="#1B6588" offset="18.72%"/><stop stop-color="#2D7D9F" offset="49.25%"/><stop stop-color="#4AA5C4" offset="87.57%"/><stop stop-color="#55B3D1" offset="100%"/></linearGradient><linearGradient x1="50.048%" y1="635.164%" x2="50.048%" y2="-13912.115%" id="A"><stop stop-color="#80C9E6" offset="0%"/><stop stop-color="#8AD9F7" offset="100%"/></linearGradient><linearGradient x1="50.045%" y1="1264.412%" x2="50.045%" y2="-13737.928%" id="B"><stop stop-color="#80C9E6" offset="0%"/><stop stop-color="#8AD9F7" offset="100%"/></linearGradient><linearGradient x1="50.024%" y1="1820.042%" x2="50.024%" y2="-12727.685%" id="C"><stop stop-color="#80C9E6" offset="0%"/><stop stop-color="#8AD9F7" offset="100%"/></linearGradient><linearGradient x1="50.002%" y1="2410.961%" x2="50.002%" y2="-12136.767%" id="D"><stop stop-color="#80C9E6" offset="0%"/><stop stop-color="#8AD9F7" offset="100%"/></linearGradient><linearGradient x1="50.056%" y1="3095.681%" x2="50.056%" y2="-11906.659%" id="E"><stop stop-color="#80C9E6" offset="0%"/><stop stop-color="#8AD9F7" offset="100%"/></linearGradient><linearGradient x1="50.052%" y1="3708.156%" x2="50.052%" y2="-11294.066%" id="F"><stop stop-color="#80C9E6" offset="0%"/><stop stop-color="#8AD9F7" offset="100%"/></linearGradient><linearGradient x1="50.032%" y1="4317.572%" x2="50.032%" y2="-10684.772%" id="G"><stop stop-color="#80C9E6" offset="0%"/><stop stop-color="#8AD9F7" offset="100%"/></linearGradient><linearGradient x1="50.011%" y1="4780.682%" x2="50.011%" y2="-9767.045%" id="H"><stop stop-color="#80C9E6" offset="0%"/><stop stop-color="#8AD9F7" offset="100%"/></linearGradient><linearGradient x1="50.062%" y1="5539.378%" x2="50.062%" y2="-9462.75%" id="I"><stop stop-color="#80C9E6" offset="0%"/><stop stop-color="#8AD9F7" offset="100%"/></linearGradient><linearGradient x1="50.059%" y1="5965.355%" x2="50.059%" y2="-8581.921%" id="J"><stop stop-color="#80C9E6" offset="0%"/><stop stop-color="#8AD9F7" offset="100%"/></linearGradient><linearGradient x1="50.039%" y1="6761.341%" x2="50.039%" y2="-8241.003%" id="K"><stop stop-color="#80C9E6" offset="0%"/><stop stop-color="#8AD9F7" offset="100%"/></linearGradient><linearGradient x1="50.039%" y1="7370.616%" x2="50.039%" y2="-7631.512%" id="L"><stop stop-color="#80C9E6" offset="0%"/><stop stop-color="#8AD9F7" offset="100%"/></linearGradient><linearGradient x1="50.039%" y1="7983.228%" x2="50.039%" y2="-7019.113%" id="M"><stop stop-color="#80C9E6" offset="0%"/><stop stop-color="#8AD9F7" offset="100%"/></linearGradient><linearGradient x1="50.039%" y1="8595.731%" x2="50.039%" y2="-6406.609%" id="N"><stop stop-color="#80C9E6" offset="0%"/><stop stop-color="#8AD9F7" offset="100%"/></linearGradient><linearGradient x1="50.039%" y1="9205.116%" x2="50.039%" y2="-5797.225%" id="O"><stop stop-color="#80C9E6" offset="0%"/><stop stop-color="#8AD9F7" offset="100%"/></linearGradient><linearGradient x1="50.039%" y1="9814.497%" x2="50.039%" y2="-5187.844%" id="P"><stop stop-color="#80C9E6" offset="0%"/><stop stop-color="#8AD9F7" offset="100%"/></linearGradient><linearGradient x1="50.039%" y1="10426.844%" x2="50.039%" y2="-4575.284%" id="Q"><stop stop-color="#80C9E6" offset="0%"/><stop stop-color="#8AD9F7" offset="100%"/></linearGradient><linearGradient x1="50.039%" y1="11036.531%" x2="50.039%" y2="-3966.016%" id="R"><stop stop-color="#80C9E6" offset="0%"/><stop stop-color="#8AD9F7" offset="100%"/></linearGradient><linearGradient x1="50.039%" y1="11648.691%" x2="50.039%" y2="-3353.397%" id="S"><stop stop-color="#80C9E6" offset="0%"/><stop stop-color="#8AD9F7" offset="100%"/></linearGradient><linearGradient x1="50.039%" y1="12258.087%" x2="50.039%" y2="-2744.041%" id="T"><stop stop-color="#80C9E6" offset="0%"/><stop stop-color="#8AD9F7" offset="100%"/></linearGradient><linearGradient x1="50.039%" y1="12870.381%" x2="50.039%" y2="-2131.5%" id="U"><stop stop-color="#80C9E6" offset="0%"/><stop stop-color="#8AD9F7" offset="100%"/></linearGradient><linearGradient x1="50.039%" y1="13480.153%" x2="50.039%" y2="-1522.188%" id="V"><stop stop-color="#80C9E6" offset="0%"/><stop stop-color="#8AD9F7" offset="100%"/></linearGradient><linearGradient x1="50.039%" y1="14089.3%" x2="50.039%" y2="-912.791%" id="W"><stop stop-color="#80C9E6" offset="0%"/><stop stop-color="#8AD9F7" offset="100%"/></linearGradient><linearGradient x1="50.039%" y1="14702.044%" x2="50.039%" y2="-300.3%" id="X"><stop stop-color="#80C9E6" offset="0%"/><stop stop-color="#8AD9F7" offset="100%"/></linearGradient><linearGradient x1="-36.695%" y1="116.104%" x2="94.024%" y2="16.413%" id="Y"><stop stop-color="#FFF" offset="0%"/><stop stop-color="#80C9E6" offset="100%"/></linearGradient><linearGradient x1="-106.096%" y1="91.514%" x2="964.62%" y2="-193.175%" id="Z"><stop stop-color="#FFF" offset="0%"/><stop stop-color="#80C9E6" offset="100%"/></linearGradient><linearGradient x1="-135.624%" y1="172.76%" x2="65.871%" y2="40.046%" id="aa"><stop stop-color="#FFF" offset="0%"/><stop stop-color="#80C9E6" offset="100%"/></linearGradient><linearGradient x1="-202.644%" y1="77.528%" x2="2156.071%" y2="-191.749%" id="ab"><stop stop-color="#FFF" offset="0%"/><stop stop-color="#80C9E6" offset="100%"/></linearGradient><linearGradient x1="-398.51%" y1="183.429%" x2="407.469%" y2="-55.787%" id="ac"><stop stop-color="#FFF" offset="0%"/><stop stop-color="#80C9E6" offset="100%"/></linearGradient><linearGradient x1="-251.528%" y1="70.084%" x2="1667.975%" y2="-57.158%" id="ad"><stop stop-color="#FFF" offset="0%"/><stop stop-color="#80C9E6" offset="100%"/></linearGradient><linearGradient x1="-97.523%" y1="111.931%" x2="109.695%" y2="26.037%" id="ae"><stop stop-color="#FFF" offset="0%"/><stop stop-color="#80C9E6" offset="100%"/></linearGradient><linearGradient x1="-215.532%" y1="89.559%" x2="568.781%" y2="-27.416%" id="af"><stop stop-color="#FFF" offset="0%"/><stop stop-color="#80C9E6" offset="100%"/></linearGradient></defs><g fill="none" fill-rule="evenodd"><g fill-rule="nonzero"><path fill="url(#a)" d="M0 .451h1916.775v63.228H0z" transform="translate(553 632)"/><path fill="#C2D94C" d="M2469.775 668.066l-565.296 2.254-6.762 1.916 572.058 2.142zM553 666.714l775.365 3.38 9.354 2.706L553 676.18z"/><path fill="#CEE657" d="M2051.889 632.45H901.013l37.077 4.96 901.137 4.959z"/></g><g fill-rule="nonzero"><path fill="url(#a)" d="M0 .451h1916.775v63.228H0z" transform="matrix(-1 0 0 1 554 632)"/><path fill="#C2D94C" d="M554 666.714l-775.365 3.38-9.354 2.706L554 676.18z"/><path fill="#CEE657" d="M-944.889 632.45H205.987l-37.077 4.96-901.137 4.959z"/></g><g fill-rule="nonzero"><path fill="url(#a)" d="M0 .451h1916.775v63.228H0z" transform="matrix(-1 0 0 1 4383 632)"/><path fill="#C2D94C" d="M2466.225 668.066l565.296 2.254 6.762 1.916-572.058 2.142z"/><path fill="#CEE657" d="M2884.111 632.45h1150.876l-37.077 4.96-901.137 4.959z"/></g><g fill-rule="nonzero"><path d="M1771.048 592.685c-1.465-3.381-3.72-6.086-9.58-6.988-5.86-.902-12.284-.113-18.031.789-7.213-7.1-17.243-5.748-22.653-.902-3.832-15.553-22.201-19.272-32.795-7.213-4.733-4.057-13.411-4.395-19.497-3.606-5.184-17.695-25.808-17.132-32.908-5.298-5.973-1.127-13.411 1.578-13.636 10.031-10.82-1.352-18.258 7.664-19.16 11.609-1.239 5.072 1.128 10.144 5.636 12.172 2.817 1.24 6.086 1.465 9.354 1.465 3.155 9.58 14.087 8.34 26.259 10.257 7.325 1.127 16.115 2.028 19.947-2.029 3.494.113 7.1 0 10.594-.338 4.057-.45 6.536-2.93 6.762-6.199h6.536c.79 1.465 2.141 3.72 5.41 5.635 8.227 4.847 27.385 2.48 36.627.902 5.747-1.014 8.903-1.916 10.255-6.424h38.205c9.129-.113 5.41-15.328-7.325-13.863z" fill="#6BA058"/><path d="M1771.048 592.685c-1.465-3.381-3.72-6.086-9.58-6.988-5.86-.902-12.284-.113-18.031.789-7.213-7.1-17.243-5.748-22.653-.902-3.832-15.553-22.201-19.272-32.795-7.213-4.733-4.057-13.411-4.395-19.497-3.606-5.184-17.695-25.808-17.132-32.908-5.298-5.973-1.127-13.411 1.578-13.636 10.031-10.82-1.352-18.258 7.664-19.16 11.609-1.239 5.072 1.128 10.144 5.636 12.172 2.366 1.015 5.071 1.353 7.889 1.465-9.354-2.254-5.072-21.865 18.595-17.244-.225-12.51 18.933-16.455 26.033-9.242-1.578 1.353-4.846 3.72-4.846 9.017 0 1.69.451 3.381 1.24 4.846 2.367-10.481 17.13-16.23 32.908-1.69 15.778-8.904 28.4-.676 30.654 3.268 6.536-7.438 23.328-2.705 25.808-1.24 2.817-2.028 6.536-3.268 10.593-3.268 6.988 0 12.848 3.494 14.764 8.34.789-.112 1.465-.338 2.254-.338 4.282 0 7.889 2.592 8.79 5.974 1.353-4.283-3.155-11.496-12.058-10.482z" fill="#B6D656"/></g><g fill-rule="nonzero"><path d="M362.35 592.685c-1.466-3.381-3.72-6.086-9.58-6.988-5.86-.902-12.284-.113-18.032.789-7.213-7.1-17.243-5.748-22.652-.902-3.832-15.553-22.202-19.272-32.796-7.213-4.733-4.057-13.41-4.395-19.496-3.606-5.184-17.695-25.808-17.132-32.908-5.298-5.973-1.127-13.411 1.578-13.637 10.031-10.819-1.352-18.257 7.664-19.159 11.609-1.24 5.072 1.127 10.144 5.635 12.172 2.818 1.24 6.086 1.465 9.354 1.465 3.156 9.58 14.088 8.34 26.26 10.257 7.324 1.127 16.115 2.028 19.947-2.029 3.493.113 7.1 0 10.593-.338 4.058-.45 6.537-2.93 6.762-6.199h6.537c.789 1.465 2.141 3.72 5.41 5.635 8.226 4.847 27.385 2.48 36.626.902 5.748-1.014 8.903-1.916 10.256-6.424h38.205c9.128-.113 5.41-15.328-7.326-13.863z" fill="#6BA058"/><path d="M362.35 592.685c-1.466-3.381-3.72-6.086-9.58-6.988-5.86-.902-12.284-.113-18.032.789-7.213-7.1-17.243-5.748-22.652-.902-3.832-15.553-22.202-19.272-32.796-7.213-4.733-4.057-13.41-4.395-19.496-3.606-5.184-17.695-25.808-17.132-32.908-5.298-5.973-1.127-13.411 1.578-13.637 10.031-10.819-1.352-18.257 7.664-19.159 11.609-1.24 5.072 1.127 10.144 5.635 12.172 2.367 1.015 5.072 1.353 7.89 1.465-9.355-2.254-5.072-21.865 18.595-17.244-.226-12.51 18.933-16.455 26.033-9.242-1.578 1.353-4.846 3.72-4.846 9.017 0 1.69.45 3.381 1.24 4.846 2.366-10.481 17.13-16.23 32.907-1.69 15.778-8.904 28.4-.676 30.654 3.268 6.537-7.438 23.329-2.705 25.808-1.24 2.818-2.028 6.537-3.268 10.594-3.268 6.987 0 12.848 3.494 14.763 8.34.79-.112 1.466-.338 2.254-.338 4.283 0 7.89 2.592 8.79 5.974 1.353-4.283-3.155-11.496-12.058-10.482z" fill="#B6D656"/></g><g fill-rule="nonzero"><path d="M1386.92 596.714c-2.366-1.127-4.845-1.353-7.325-1.353-2.817-9.13-19.046-20.4-35.387-13.863-1.465-6.875-6.65-13.412-14.313-13.074-6.536.338-8.34 4.283-8.678 9.13-6.31-4.058-20.961-5.298-31.555-.79-.564-18.709-28.625-18.37-38.656-2.028-13.298-5.523-20.06 6.086-17.58 11.496-9.58 1.352-17.694 12.736-12.51 18.146 4.508 4.733 14.425 3.606 20.286 3.606 9.917.113 17.355.226 27.273.226 5.522 0 11.72-2.367 12.622-4.96 7.438 2.706 13.073 2.593 20.286 1.804 3.38 4.057 12.284 7.213 23.779 3.381 21.976 10.707 46.882 2.367 50.15 1.014 7.439 1.353 16.567 2.93 17.356-3.155.79-4.058-2.028-7.777-5.747-9.58z" fill="#6BA058"/><path d="M1386.92 596.714c-2.366-1.127-4.845-1.353-7.325-1.353-2.817-9.13-19.046-20.4-35.387-13.863-1.465-6.875-6.65-13.412-14.313-13.074-6.536.338-8.34 4.283-8.678 9.13-6.31-4.058-20.961-5.298-31.555-.79-.564-18.709-28.625-18.37-38.656-2.028-13.298-5.523-20.06 6.086-17.58 11.496-9.58 1.352-17.694 12.736-12.623 18.146 0-.338-.113-.564-.113-.902-.112-8.904 13.412-14.201 25.132-9.693 1.578-10.143 12.284-13.975 20.06-11.045 4.396-8.228 16.905-6.537 19.723-3.381-2.254 1.803-6.086 7.551-5.297 14.652 7.663-22.316 41.248-9.919 41.811-5.748 3.832-8.566 22.427-2.93 22.878 4.395 3.606-3.156 8.79-5.072 14.65-5.072 9.13 0 17.356 6.312 19.61 12.736 6.311-2.141 13.411.676 13.299 6.65 0-.113.112-.226.112-.45.79-4.284-2.028-8.003-5.747-9.806z" fill="#B6D656"/></g><g fill-rule="nonzero"><path d="M2878 596.714c-2.367-1.127-4.846-1.353-7.325-1.353-2.818-9.13-19.046-20.4-35.388-13.863-1.465-6.875-6.649-13.412-14.312-13.074-6.537.338-8.34 4.283-8.678 9.13-6.311-4.058-20.962-5.298-31.556-.79-.563-18.709-28.625-18.37-38.655-2.028-13.299-5.523-20.06 6.086-17.581 11.496-9.58 1.352-17.694 12.736-12.51 18.146 4.508 4.733 14.426 3.606 20.286 3.606 9.917.113 17.356.226 27.273.226 5.522 0 11.72-2.367 12.622-4.96 7.438 2.706 13.073 2.593 20.286 1.804 3.38 4.057 12.284 7.213 23.78 3.381 21.975 10.707 46.882 2.367 50.15 1.014 7.438 1.353 16.567 2.93 17.356-3.155.789-4.058-2.029-7.777-5.748-9.58z" fill="#6BA058"/><path d="M2878 596.714c-2.367-1.127-4.846-1.353-7.325-1.353-2.818-9.13-19.046-20.4-35.388-13.863-1.465-6.875-6.649-13.412-14.312-13.074-6.537.338-8.34 4.283-8.678 9.13-6.311-4.058-20.962-5.298-31.556-.79-.563-18.709-28.625-18.37-38.655-2.028-13.299-5.523-20.06 6.086-17.581 11.496-9.58 1.352-17.694 12.736-12.622 18.146 0-.338-.113-.564-.113-.902-.113-8.904 13.411-14.201 25.132-9.693 1.577-10.143 12.284-13.975 20.06-11.045 4.395-8.228 16.905-6.537 19.722-3.381-2.254 1.803-6.086 7.551-5.297 14.652 7.664-22.316 41.248-9.919 41.811-5.748 3.832-8.566 22.427-2.93 22.878 4.395 3.607-3.156 8.79-5.072 14.651-5.072 9.129 0 17.356 6.312 19.61 12.736 6.31-2.141 13.41.676 13.298 6.65 0-.113.113-.226.113-.45.789-4.284-2.029-8.003-5.748-9.806z" fill="#B6D656"/></g><g fill-rule="nonzero"><path d="M877.684 592.565c-1.465-3.38-3.719-6.086-9.58-6.987-5.86-.902-12.283-.113-18.031.789-7.213-7.1-17.243-5.748-22.652-.902-3.832-15.554-22.202-19.273-32.796-7.213-4.733-4.058-13.41-4.396-19.496-3.607-5.185-17.695-25.808-17.131-32.908-5.297-5.973-1.127-13.411 1.578-13.637 10.03-10.819-1.352-18.257 7.665-19.159 11.61-1.24 5.071 1.127 10.143 5.635 12.172 2.818 1.24 6.086 1.465 9.354 1.465 3.156 9.58 14.088 8.34 26.259 10.256 7.325 1.127 16.116 2.029 19.948-2.028 3.493.112 7.1 0 10.593-.339 4.057-.45 6.537-2.93 6.762-6.198h6.537c.789 1.465 2.141 3.719 5.41 5.635 8.226 4.846 27.385 2.48 36.626.902 5.748-1.015 8.903-1.916 10.256-6.425h38.205c9.128-.112 5.409-15.328-7.326-13.863z" fill="#6BA058"/><path d="M877.684 592.565c-1.465-3.38-3.719-6.086-9.58-6.987-5.86-.902-12.283-.113-18.031.789-7.213-7.1-17.243-5.748-22.652-.902-3.832-15.554-22.202-19.273-32.796-7.213-4.733-4.058-13.41-4.396-19.496-3.607-5.185-17.695-25.808-17.131-32.908-5.297-5.973-1.127-13.411 1.578-13.637 10.03-10.819-1.352-18.257 7.665-19.159 11.61-1.24 5.071 1.127 10.143 5.635 12.172 2.367 1.014 5.072 1.352 7.89 1.465-9.355-2.254-5.072-21.865 18.594-17.244-.225-12.51 18.934-16.455 26.034-9.242-1.578 1.352-4.846 3.72-4.846 9.017 0 1.69.45 3.38 1.24 4.846 2.366-10.482 17.13-16.23 32.907-1.69 15.778-8.905 28.4-.677 30.654 3.268 6.537-7.439 23.329-2.705 25.808-1.24 2.818-2.029 6.537-3.268 10.594-3.268 6.987 0 12.848 3.493 14.763 8.34.79-.113 1.465-.338 2.254-.338 4.283 0 7.89 2.592 8.79 5.973 1.353-4.283-3.042-11.496-12.058-10.482z" fill="#B6D656"/></g><path fill="#FFF" fill-rule="nonzero" d="M824.378 327.48H885.8v304.984h-61.42z"/><path d="M860.329 350.923h23.667v14.088h-23.667zm0 23.443h23.667v14.088h-23.667zm0 23.443h23.667v14.088h-23.667zm0 23.443h23.667v14.088h-23.667zm0 23.556h23.667v14.088h-23.667zm0 23.442h23.667v14.089h-23.667zm0 23.444h23.667v14.088h-23.667zm0 23.443h23.667v14.088h-23.667zm0 23.443h23.667v14.088h-23.667zm0 23.442h23.667v14.088h-23.667zm0 23.556h23.667v46.886h-23.667z" fill="#377A99" fill-rule="nonzero"/><path fill="#E1F2FA" fill-rule="nonzero" d="M1021.487 632.464H885.798V327.48h41.023v-46.886h53.757v-46.999h40.91z"/><path fill="#FFF" fill-rule="nonzero" d="M926.815 327.415h-61.42V280.53h61.42z"/><path fill="#FFF" fill-rule="nonzero" d="M980.488 280.574h-61.421v-46.886h61.42z"/><path fill="#90B7C1" fill-rule="nonzero" d="M938.09 562.022h83.397v14.088H938.09z"/><g fill-rule="nonzero"><path fill="url(#b)" d="M.789 0h83.397v14.088H.789z" transform="translate(937.302 304.037)"/><path fill="url(#c)" d="M.789 23.443h83.397v14.088H.789z" transform="translate(937.302 304.037)"/><path fill="url(#d)" d="M.789 46.886h83.397v14.088H.789z" transform="translate(937.302 304.037)"/><path fill="url(#e)" d="M.789 70.329h83.397v14.088H.789z" transform="translate(937.302 304.037)"/><path fill="url(#f)" d="M.789 93.772h83.397v14.088H.789z" transform="translate(937.302 304.037)"/><path fill="url(#g)" d="M.789 117.215h83.397v14.088H.789z" transform="translate(937.302 304.037)"/><path fill="url(#h)" d="M.789 140.77h83.397v14.088H.789z" transform="translate(937.302 304.037)"/><path fill="url(#i)" d="M.789 164.213h83.397v14.088H.789z" transform="translate(937.302 304.037)"/><path fill="url(#j)" d="M.789 187.656h83.397v14.088H.789z" transform="translate(937.302 304.037)"/><path fill="url(#k)" d="M.789 211.099h83.397v14.088H.789z" transform="translate(937.302 304.037)"/><path fill="url(#l)" d="M.789 234.542h83.397v14.088H.789z" transform="translate(937.302 304.037)"/><path fill="url(#m)" d="M.789 257.985h83.397v14.088H.789z" transform="translate(937.302 304.037)"/><path fill="url(#n)" d="M.789 281.541h83.397v46.886H.789z" transform="translate(937.302 304.037)"/></g><g fill-rule="nonzero"><path fill="url(#o)" d="M.789.676h17.017v14.088H.789z" transform="translate(883.206 350.247)"/><path fill="url(#p)" d="M.789 24.119h17.017v14.088H.789z" transform="translate(883.206 350.247)"/><path fill="url(#q)" d="M.789 47.562h17.017V61.65H.789z" transform="translate(883.206 350.247)"/><path fill="url(#r)" d="M.789 71.005h17.017v14.088H.789z" transform="translate(883.206 350.247)"/><path fill="url(#s)" d="M.789 94.561h17.017v14.088H.789z" transform="translate(883.206 350.247)"/><path fill="url(#t)" d="M.789 118.004h17.017v14.088H.789z" transform="translate(883.206 350.247)"/><path fill="url(#u)" d="M.789 141.447h17.017v14.088H.789z" transform="translate(883.206 350.247)"/><path fill="url(#v)" d="M.789 164.89h17.017v14.088H.789z" transform="translate(883.206 350.247)"/><path fill="url(#w)" d="M.789 188.333h17.017v14.088H.789z" transform="translate(883.206 350.247)"/><path fill="url(#x)" d="M.789 211.775h17.017v14.088H.789z" transform="translate(883.206 350.247)"/><path fill="url(#y)" d="M.789 235.331h17.017v46.886H.789z" transform="translate(883.206 350.247)"/></g><path d="M865.288 354.755h18.708v10.256h-18.708zm0 23.443h18.708v10.256h-18.708zm0 23.442h18.708v10.257h-18.708zm0 23.444h18.708v10.256h-18.708zm0 23.443h18.708v10.256h-18.708zm0 23.555h18.708v10.256h-18.708zm0 23.443h18.708v10.256h-18.708zm0 23.443h18.708v10.256h-18.708zm0 23.442h18.708v10.257h-18.708zm0 23.444h18.708v10.256h-18.708zm0 23.443h18.708v43.167h-18.708z" fill="#A0CFDB" fill-rule="nonzero"/><path fill="#A0CFDB" opacity=".5" d="M980.578 491.693h20.511v14.088h-20.51zm.007-79.735h-21.187V397.87h21.187zm20.391 173.62h20.511v46.886h-20.51zm-20.391-32.86h-21.187V538.63h21.187z"/><g fill-rule="nonzero"><path d="M1068.595 577.688c-4.508-6.537-12.735-8.904-20.173-6.311-3.38 1.24-6.085 3.38-8.114 6.198-4.62 3.607-6.987 10.257-6.65 16.23.564 8.904 9.13 15.666 17.244 17.357 8.34 1.69 16.566-.564 20.736-8.566 3.832-7.213 1.465-18.37-3.043-24.908z" fill="#6BA058"/><path d="M1036.927 598.877c-.338-5.86 2.93-10.594 7.55-13.3 1.917-2.704-1.239-5.522 6.425-8.452 7.212-2.705 14.425 1.014 20.06 6.199.563.563.901 1.352 1.24 2.028-.902-2.817-2.142-5.522-3.607-7.664-4.508-6.537-12.735-8.904-20.173-6.311-3.38 1.24-6.085 3.38-8.114 6.198-4.62 3.607-6.987 10.257-6.65 16.23.226 3.832 1.917 7.213 4.396 9.918-.564-1.465-1.014-3.155-1.127-4.846z" fill="#B6D656"/><path d="M1055.973 611.613h-2.029v.676c-.112 6.762 0 13.525 0 20.175h2.029v-20.851z" fill="#614A3E"/></g><g fill-rule="nonzero"><path d="M997.57 573.832c-4.959-2.818-12.284-3.381-17.807-2.141-2.93.676-4.958 2.366-6.649 4.508-8.677 6.424-10.593 18.935-2.254 26.824 7.664 7.213 21.526 7.664 28.964.113 7.438-7.664 7.55-23.781-2.254-29.304z" fill="#6BA058"/><path d="M977.622 581.721c1.578-1.916 3.494-3.493 6.311-4.17 5.184-1.127 12.172-.563 16.905 2.03 1.352.788 2.48 1.69 3.494 2.817-1.127-3.607-3.269-6.763-6.65-8.566-4.958-2.818-12.284-3.381-17.806-2.141-2.93.676-4.959 2.366-6.649 4.508-8.678 6.424-10.594 18.935-2.254 26.824 1.127 1.014 2.254 1.916 3.606 2.592-6.874-7.438-4.846-18.145 3.043-23.894z" fill="#B6D656"/><path d="M986.413 608.433h-2.029v24.006h2.029v-24.006z" fill="#614A3E"/></g><g fill-rule="nonzero"><path d="M544.57 573.832c-4.959-2.818-12.284-3.381-17.807-2.141-2.93.676-4.958 2.366-6.649 4.508-8.677 6.424-10.593 18.935-2.254 26.824 7.664 7.213 21.526 7.664 28.964.113 7.438-7.664 7.55-23.781-2.254-29.304z" fill="#6BA058"/><path d="M524.622 581.721c1.578-1.916 3.494-3.493 6.311-4.17 5.184-1.127 12.172-.563 16.905 2.03 1.352.788 2.48 1.69 3.494 2.817-1.127-3.607-3.269-6.763-6.65-8.566-4.958-2.818-12.284-3.381-17.806-2.141-2.93.676-4.959 2.366-6.649 4.508-8.678 6.424-10.594 18.935-2.254 26.824 1.127 1.014 2.254 1.916 3.606 2.592-6.874-7.438-4.846-18.145 3.043-23.894z" fill="#B6D656"/><path d="M533.413 608.433h-2.029v24.006h2.029v-24.006z" fill="#614A3E"/></g><g fill-rule="nonzero"><path d="M2625.57 573.832c-4.959-2.818-12.284-3.381-17.807-2.141-2.93.676-4.958 2.366-6.649 4.508-8.677 6.424-10.593 18.935-2.254 26.824 7.664 7.213 21.526 7.664 28.964.113 7.438-7.664 7.55-23.781-2.254-29.304z" fill="#6BA058"/><path d="M2605.622 581.721c1.578-1.916 3.494-3.493 6.311-4.17 5.184-1.127 12.172-.563 16.905 2.03 1.352.788 2.48 1.69 3.494 2.817-1.127-3.607-3.269-6.763-6.65-8.566-4.958-2.818-12.284-3.381-17.806-2.141-2.93.676-4.959 2.366-6.649 4.508-8.678 6.424-10.594 18.935-2.254 26.824 1.127 1.014 2.254 1.916 3.606 2.592-6.874-7.438-4.846-18.145 3.043-23.894z" fill="#B6D656"/><path d="M2614.413 608.433h-2.029v24.006h2.029v-24.006z" fill="#614A3E"/></g><g fill-rule="nonzero"><path d="M926.486 575.34c-6.537-6.537-16.567-10.03-24.907-4.733-3.831 2.366-5.86 6.086-6.423 10.143-1.804 2.818-2.818 6.312-2.705 10.37.225 9.692 6.31 14.764 14.989 17.807 9.466 3.381 17.919 2.817 23.892-6.086 6.198-9.468 2.705-19.837-4.846-27.5z" fill="#6BA058"/><path d="M896.959 596.078c-.113-3.494.901-6.424 2.704-8.79.564-3.382 1.578-7.89 8.002-9.355 8.002-1.804 16.003-.79 22.202 4.733 1.352 1.24 2.592 2.592 3.719 3.945-1.24-4.058-3.832-8.002-7.1-11.27-6.537-6.538-16.567-10.032-24.907-4.734-3.831 2.366-5.86 6.086-6.423 10.143-1.804 2.818-2.818 6.312-2.705 10.37.225 7.776 4.17 12.51 10.143 15.665-3.494-2.48-5.523-5.86-5.635-10.707z" fill="#B6D656"/><path d="M914.089 610.73v22.09h2.028v-21.864c-.676-.113-1.352-.113-2.028-.226z" fill="#614A3E"/></g><g fill-rule="nonzero"><path d="M2554.486 575.34c-6.537-6.537-16.567-10.03-24.907-4.733-3.831 2.366-5.86 6.086-6.423 10.143-1.804 2.818-2.818 6.312-2.705 10.37.225 9.692 6.31 14.764 14.989 17.807 9.466 3.381 17.919 2.817 23.892-6.086 6.198-9.468 2.705-19.837-4.846-27.5z" fill="#6BA058"/><path d="M2524.959 596.078c-.113-3.494.901-6.424 2.704-8.79.564-3.382 1.578-7.89 8.002-9.355 8.002-1.804 16.003-.79 22.202 4.733 1.352 1.24 2.592 2.592 3.719 3.945-1.24-4.058-3.832-8.002-7.1-11.27-6.537-6.538-16.567-10.032-24.907-4.734-3.831 2.366-5.86 6.086-6.423 10.143-1.804 2.818-2.818 6.312-2.705 10.37.225 7.776 4.17 12.51 10.143 15.665-3.494-2.48-5.523-5.86-5.635-10.707z" fill="#B6D656"/><path d="M2542.089 610.73v22.09h2.028v-21.864c-.676-.113-1.352-.113-2.028-.226z" fill="#614A3E"/></g><g fill-rule="nonzero"><path d="M736.237 599.937c-1.353-2.592-4.283-4.621-8.227-4.396a11.788 11.788 0 0 0-5.523-5.184c-5.41-2.592-12.51-2.48-19.046-2.142-3.38-7.776-14.876-10.369-23.103-5.297-4.733-9.693-34.035-16.004-41.811 1.015-13.975-3.382-16.116 6.65-16.567 9.58-3.831 0-7.55.45-9.917 3.944-2.48 3.494-3.494 7.439-.789 10.595 3.268 3.832 15.89 3.494 20.85 3.494 10.48 0 16.002-.902 17.355-3.494 2.592.563 5.184.563 8.114.45 2.48 5.974 10.481 6.876 16.567 6.312 4.62-.45 9.692-2.93 12.96-5.973 8.34.45 16.905-.451 25.019-1.804 4.283 5.636 14.425 2.705 20.06.564 3.832-1.24 5.86-3.945 4.058-7.664z" fill="#6BA058"/><path d="M736.237 599.937c-1.353-2.592-4.283-4.621-8.227-4.396a11.788 11.788 0 0 0-5.523-5.184c-5.41-2.592-12.51-2.48-19.046-2.142-3.38-7.776-14.876-10.369-23.103-5.297-4.733-9.693-34.035-16.004-41.811 1.015-13.975-3.382-16.116 6.65-16.567 9.58-3.831 0-7.55.45-9.917 3.944-2.48 3.494-3.494 7.439-.789 10.595 1.014 1.24 3.156 2.028 5.522 2.592-2.93-8.678 3.72-11.045 9.692-10.594.676-5.861 7.664-10.482 16.116-10.482 2.367 0 4.508.338 6.537 1.014 2.592-8.904 22.877-8.453 27.836-4.057-.901 1.352-1.578 2.48-1.578 4.846 0 1.69.564 3.269 1.465 4.621 5.523-17.357 25.47-8.453 27.724-1.014 2.142-.451 4.395-.79 6.762-.79 6.199 0 11.72 1.804 15.214 4.622 4.846-2.705 10.481 1.69 10.256 5.184.225-1.127.113-2.48-.563-4.057z" fill="#B6D656"/></g><g fill-rule="nonzero"><path d="M2364.237 599.937c-1.353-2.592-4.283-4.621-8.227-4.396a11.788 11.788 0 0 0-5.523-5.184c-5.41-2.592-12.51-2.48-19.046-2.142-3.38-7.776-14.876-10.369-23.103-5.297-4.733-9.693-34.035-16.004-41.811 1.015-13.975-3.382-16.116 6.65-16.567 9.58-3.831 0-7.55.45-9.917 3.944-2.48 3.494-3.494 7.439-.789 10.595 3.268 3.832 15.89 3.494 20.85 3.494 10.48 0 16.002-.902 17.355-3.494 2.592.563 5.184.563 8.114.45 2.48 5.974 10.481 6.876 16.567 6.312 4.62-.45 9.692-2.93 12.96-5.973 8.34.45 16.905-.451 25.019-1.804 4.283 5.636 14.425 2.705 20.06.564 3.832-1.24 5.86-3.945 4.058-7.664z" fill="#6BA058"/><path d="M2364.237 599.937c-1.353-2.592-4.283-4.621-8.227-4.396a11.788 11.788 0 0 0-5.523-5.184c-5.41-2.592-12.51-2.48-19.046-2.142-3.38-7.776-14.876-10.369-23.103-5.297-4.733-9.693-34.035-16.004-41.811 1.015-13.975-3.382-16.116 6.65-16.567 9.58-3.831 0-7.55.45-9.917 3.944-2.48 3.494-3.494 7.439-.789 10.595 1.014 1.24 3.156 2.028 5.522 2.592-2.93-8.678 3.72-11.045 9.692-10.594.676-5.861 7.664-10.482 16.116-10.482 2.367 0 4.508.338 6.537 1.014 2.592-8.904 22.877-8.453 27.836-4.057-.901 1.352-1.578 2.48-1.578 4.846 0 1.69.564 3.269 1.465 4.621 5.523-17.357 25.47-8.453 27.724-1.014 2.142-.451 4.395-.79 6.762-.79 6.199 0 11.72 1.804 15.214 4.622 4.846-2.705 10.481 1.69 10.256 5.184.225-1.127.113-2.48-.563-4.057z" fill="#B6D656"/></g><g fill-rule="nonzero"><path d="M162.538 599.937c-1.352-2.592-4.282-4.621-8.227-4.396a11.788 11.788 0 0 0-5.522-5.184c-5.41-2.592-12.51-2.48-19.046-2.142-3.381-7.776-14.876-10.369-23.103-5.297-4.734-9.693-34.035-16.004-41.811 1.015-13.975-3.382-16.116 6.65-16.567 9.58-3.832 0-7.55.45-9.918 3.944-2.479 3.494-3.493 7.439-.788 10.595 3.268 3.832 15.89 3.494 20.849 3.494 10.48 0 16.003-.902 17.355-3.494 2.592.563 5.184.563 8.115.45 2.479 5.974 10.48 6.876 16.566 6.312 4.62-.45 9.692-2.93 12.96-5.973 8.34.45 16.905-.451 25.02-1.804 4.282 5.636 14.425 2.705 20.06.564 3.832-1.24 5.86-3.945 4.057-7.664z" fill="#6BA058"/><path d="M162.538 599.937c-1.352-2.592-4.282-4.621-8.227-4.396a11.788 11.788 0 0 0-5.522-5.184c-5.41-2.592-12.51-2.48-19.046-2.142-3.381-7.776-14.876-10.369-23.103-5.297-4.734-9.693-34.035-16.004-41.811 1.015-13.975-3.382-16.116 6.65-16.567 9.58-3.832 0-7.55.45-9.918 3.944-2.479 3.494-3.493 7.439-.788 10.595 1.014 1.24 3.155 2.028 5.522 2.592-2.93-8.678 3.719-11.045 9.692-10.594.676-5.861 7.663-10.482 16.116-10.482 2.366 0 4.508.338 6.536 1.014 2.592-8.904 22.878-8.453 27.837-4.057-.902 1.352-1.578 2.48-1.578 4.846 0 1.69.563 3.269 1.465 4.621 5.522-17.357 25.47-8.453 27.724-1.014 2.141-.451 4.395-.79 6.762-.79 6.198 0 11.72 1.804 15.214 4.622 4.846-2.705 10.481 1.69 10.256 5.184.225-1.127.112-2.48-.564-4.057z" fill="#B6D656"/></g><g fill-rule="nonzero"><path d="M2010.348 611.162v-.789l-1.69-57.706-.452-14.088-10.706-370.353-.676-24.57-.564-19.386-2.479-87.573-.676-21.527-.113-3.72h-140.76l-1.69 73.26-.226 8.228-.789 33.36-.676 28.515-1.803 80.811-3.607 154.408-1.014 43.054-.789 33.36-.225 11.722-.113 3.607-.113 6.312-.225 11.946-.113 3.607-.45 18.371-.113 3.607-.338 12.623-.113 5.748-.113 3.607-.112 4.733-.339 13.638v3.719l-.45 18.371-.113 3.607-.45 18.37-.114 3.608-.45 18.37h173.104l-.45-20.85zM1981.27 26.553l-.112.226-14.876 28.74h-71.79l-6.761-9.016-11.495-15.441-3.269-4.396h108.303v-.113z" fill="#E1F2FA"/><path fill="url(#z)" d="M139.746 621.464H67.844L57.59 379.144V84.305l82.157-2.705z" transform="translate(1836.905 11)"/><path fill="#FFF" d="M1847.837 632.464h56.912l-10.255-242.32V88.768l-42.262-77.09-8.79 378.468 4.395 66.046z"/><path fill="#A0CFDB" d="M2010.911 632.464h-34.26V88.767l16.341-77.203.113 3.719.676 21.527 1.578 55.113.338 11.834.113 3.72.45 16.906v1.465l.113 3.607.45 14.313.114 4.058.112 3.719.451 16.793.113 1.578.112 3.607.451 18.37.113 3.608.563 18.37.113 3.72.564 18.371.112 3.607.451 18.37.113 3.72.563 18.371.113 3.607.563 18.371v3.72l.564 18.37.113 3.607.563 18.371.113 3.72.563 18.37.113 3.607.45 18.372.114 3.606.563 18.371.113 3.72.563 18.37.113 3.607.45 18.372.113 3.719.564 18.371.113 3.607.563 18.37.113 3.72.45 18.371.113 3.607.338 12.623.226 5.748.112 3.72.113 4.62.45 13.638v3.72l.564 18.37.113 3.607.564 18.371v.789l.112 2.93z"/><path fill="#FFF" d="M1976.65 92.6l-82.156 2.704v-6.537h82.157z"/><path fill="url(#A)" d="M82.157 506.954v3.72H9.58l-.225-3.72z" transform="translate(1894.381 103.42)"/><path fill="url(#B)" d="M82.157 484.976v3.607H8.565l-.113-3.607z" transform="translate(1894.381 103.42)"/><path fill="url(#C)" d="M82.157 462.886v3.719H7.663l-.112-3.72z" transform="translate(1894.381 103.42)"/><path fill="url(#D)" d="M82.157 440.908v3.72H6.762l-.113-3.72z" transform="translate(1894.381 103.42)"/><path fill="url(#E)" d="M82.157 418.93v3.607H5.86l-.225-3.607z" transform="translate(1894.381 103.42)"/><path fill="url(#F)" d="M82.157 396.84v3.606H4.846l-.113-3.606z" transform="translate(1894.381 103.42)"/><path fill="url(#G)" d="M82.157 374.862v3.606H3.944l-.112-3.606z" transform="translate(1894.381 103.42)"/><path fill="url(#H)" d="M82.157 352.771v3.72H3.043l-.113-3.72z" transform="translate(1894.381 103.42)"/><path fill="url(#I)" d="M82.157 330.794v3.606H2.141l-.225-3.606z" transform="translate(1894.381 103.42)"/><path fill="url(#J)" d="M82.157 308.703v3.72H1.24l-.226-3.72z" transform="translate(1894.381 103.42)"/><path fill="url(#K)" d="M82.157 286.725v3.607H.338l-.225-3.607z" transform="translate(1894.381 103.42)"/><path fill="url(#L)" d="M.113 264.748h82.044v3.607H.113z" transform="translate(1894.381 103.42)"/><path fill="url(#M)" d="M.113 242.657h82.044v3.607H.113z" transform="translate(1894.381 103.42)"/><path fill="url(#N)" d="M.113 220.567h82.044v3.607H.113z" transform="translate(1894.381 103.42)"/><path fill="url(#O)" d="M.113 198.589h82.044v3.607H.113z" transform="translate(1894.381 103.42)"/><path fill="url(#P)" d="M.113 176.611h82.044v3.607H.113z" transform="translate(1894.381 103.42)"/><path fill="url(#Q)" d="M.113 154.521h82.044v3.607H.113z" transform="translate(1894.381 103.42)"/><path fill="url(#R)" d="M.113 132.543h82.044v3.607H.113z" transform="translate(1894.381 103.42)"/><path fill="url(#S)" d="M.113 110.452h82.044v3.607H.113z" transform="translate(1894.381 103.42)"/><path fill="url(#T)" d="M.113 88.475h82.044v3.607H.113z" transform="translate(1894.381 103.42)"/><path fill="url(#U)" d="M.113 66.384h82.044v3.607H.113z" transform="translate(1894.381 103.42)"/><path fill="url(#V)" d="M.113 44.406h82.044v3.607H.113z" transform="translate(1894.381 103.42)"/><path fill="url(#W)" d="M.113 22.429h82.044v3.607H.113z" transform="translate(1894.381 103.42)"/><path fill="url(#X)" d="M.113.338h82.044v3.607H.113z" transform="translate(1894.381 103.42)"/><path fill="#8EB9CC" d="M1863.614 632.464h20.962V95.643l-10.03.338v294.164l-10.932 66.046z"/><path d="M1877.701 610.373h6.762v3.607h-6.762zm0-21.978h6.762v3.607h-6.762zm0-22.09h6.762v3.607h-6.762zm0-21.978h6.762v3.607h-6.762zm0-21.977h6.762v3.606h-6.762zm0-22.09h6.762v3.606h-6.762zm0-21.979h6.762v3.607h-6.762zm0-22.091h6.762v3.607h-6.762zm0-21.977h6.762v3.607h-6.762zm0-22.091h6.762v3.607h-6.762zm0-21.978h6.762v3.607h-6.762zm0-22.09h6.762v3.607h-6.762zm0-21.978h6.762v3.607h-6.762zm0-21.978h6.762v3.607h-6.762zm0-22.09h6.762v3.607h-6.762zm0-21.978h6.762v3.607h-6.762zm0-22.09h6.762v3.607h-6.762zm0-21.978h6.762v3.607h-6.762zm0-22.091h6.762v3.607h-6.762zm0-21.977h6.762v3.607h-6.762zm0-22.091h6.762v3.607h-6.762zm0-21.978h6.762v3.607h-6.762zm0-21.977h6.762v3.607h-6.762zm0-22.091h6.762v3.607h-6.762z" fill="#D0EAF5"/><path fill="#2F5373" d="M2010.911 632.464h-34.26V92.599l18.708-.676.338 11.834.113 3.72.45 16.906v1.465l.113 3.607.45 14.313.114 4.058.112 3.719.451 16.793.113 1.578.112 3.607.451 18.37.113 3.608.563 18.37.113 3.72.564 18.371.112 3.607.451 18.37.113 3.72.563 18.371.113 3.607.563 18.371v3.72l.564 18.37.113 3.607.563 18.371.113 3.72.563 18.37.113 3.607.45 18.372.114 3.606.563 18.371.113 3.72.563 18.37.113 3.607.45 18.372.113 3.719.564 18.371.113 3.607.563 18.37.113 3.72.45 18.371.113 3.607.338 12.623.226 5.748.112 3.72.113 4.62.45 13.638v3.72l.564 18.37.113 3.607.564 18.371v.789l.112 2.93z"/><path d="M2010.46 614.092h-33.81v-3.606h33.698v.676zm-.676-22.09h-33.133v-3.607h33.02zm-.676-21.978h-32.457v-3.72h32.457zm-.564-21.978h-31.893v-3.719h31.78zm-.676-22.09h-31.217v-3.607h31.105zm-.563-21.978h-30.654v-3.72h30.541zm-.676-22.09h-29.978v-3.607h29.865zm-.677-21.978h-29.301v-3.72h29.189zm-.563-22.09h-28.738v-3.607h28.625zm-.676-21.978h-28.062v-3.72h27.949zm-.676-22.091h-27.386v-3.606h27.273zm-.564-21.978h-26.822v-3.606h26.71zm-.676-21.977h-26.146v-3.72h26.033zm-.677-22.091h-25.47V324.1h25.358zm-.676-21.978h-24.793v-3.719h24.793zm-.563-22.09h-24.23v-3.607h24.117zm-.676-21.977h-23.554v-3.72h23.441zm-.564-22.091h-22.99v-3.607h22.878zm-.676-21.978h-22.314v-3.72h22.201zm-.676-22.091h-21.638v-3.606h21.525zm-.564-21.977h-21.074v-3.607h20.962zm-.675-21.978h-20.4v-3.72h20.287zm-.677-22.09h-19.722v-3.607h19.61zm-.563-21.978h-19.16v-3.72h19.047z" fill="#588599"/><path fill="#8EB9CC" d="M1872.856 26.553l3.268 4.396h94.216l-5.86 24.57h1.915l14.876-28.966z"/><path fill="#FFF" d="M1992.203 15.283H1854.26l-2.028-3.607 140.76-.112z"/><path fill="#377A99" d="M1863.614 632.464h7.664V456.19l3.268-66.046-10.932 66.046z"/><path fill="#8EB9CC" d="M1847.837 632.464h-9.918l5.522-242.32 4.396 66.047z"/><path d="M1877.701 610.373h6.762v3.607h-6.762zm0-21.978h6.762v3.607h-6.762zm0-22.09h6.762v3.607h-6.762zm0-21.978h6.762v3.607h-6.762zm0-21.977h6.762v3.606h-6.762zm0-22.09h6.762v3.606h-6.762zm0-21.979h6.762v3.607h-6.762zm0-22.091h6.762v3.607h-6.762zm0-21.977h6.762v3.607h-6.762zm0-22.091h6.762v3.607h-6.762zm0-21.978h6.762v3.607h-6.762zm0-22.09h6.762v3.607h-6.762zm0-21.978h6.762v3.607h-6.762zm0-21.978h6.762v3.607h-6.762zm0-22.09h6.762v3.607h-6.762zm0-21.978h6.762v3.607h-6.762zm0-22.09h6.762v3.607h-6.762zm0-21.978h6.762v3.607h-6.762zm0-22.091h6.762v3.607h-6.762zm0-21.977h6.762v3.607h-6.762zm0-22.091h6.762v3.607h-6.762zm0-21.978h6.762v3.607h-6.762zm0-21.977h6.762v3.607h-6.762zm0-22.091h6.762v3.607h-6.762zm-29.864 506.616v3.72h-9.58l.113-3.72zm0-21.978v3.607h-9.016l.112-3.607zm0-22.09v3.72h-8.566l.113-3.72zm0-21.978v3.72h-8.002l.113-3.72zm0-21.977v3.606h-7.551l.112-3.607zm0-22.091v3.606h-6.988l.113-3.606zm0-21.978v3.607h-6.537l.113-3.607zm0-22.091v3.72h-5.974l.113-3.72z" fill="#D4EFFA"/><path fill="#8EB9CC" d="M1969.438 632.464h7.213l-.113-418.592z"/><path fill="#2F5473" d="M1908.581 632.464h-3.832l-10.255-242.32V95.305l82.157-2.705-.113 3.269-75.057 4.62V404.12z"/><path fill="url(#Y)" d="M57.589 311.746l82.157-49.478-.113-17.47-82.044 49.479z" transform="translate(1836.905 11)"/><path fill="url(#Z)" d="M47.671 300.363l-10.03 5.973v17.47l10.03-5.974z" transform="translate(1836.905 11)"/><path fill="url(#aa)" d="M55.786 50.154l1.352 32.009 80.241-48.464V.902z" transform="translate(1839.159 351.374)"/><path fill="url(#ab)" d="M6.987 79.57l-3.719 2.255-.789 33.361 6.199-3.72v-6.649z" transform="translate(1839.159 351.374)"/><path fill="url(#ac)" d="M31.105 65.144l-6.086 36.405 20.398-12.285V56.466z" transform="translate(1839.159 351.374)"/><path fill="url(#ad)" d="M8.678 132.88l-6.65 4.058-1.915 80.698 8.565-5.072z" transform="translate(1839.159 351.374)"/><path fill="url(#ae)" d="M61.308 180.668l76.184-45.871-.113-79.684-79.227 47.9z" transform="translate(1839.159 351.374)"/><path fill="url(#af)" d="M45.417 110.79L24.456 123.3v79.684l20.961-12.623z" transform="translate(1839.159 351.374)"/></g><g fill-rule="nonzero"><path d="M2078.486 594.82c-.113-3.607-4.508-5.974-8.115-5.185-.788-5.41-6.423-10.144-13.073-10.369-3.493-.113-3.831-.225-7.1-.338-2.704-3.494-6.761-5.973-11.382-5.973-3.72.112-6.987 1.69-9.354 4.282-6.311-3.268-14.2-4.282-20.173-1.24-4.17-11.383-28.85-16.23-34.373 1.353-4.62-4.734-12.397-4.057-15.214-1.352-14.651-8.792-23.554 4.282-22.202 11.496-3.944-2.705-13.411-3.382-14.65 2.93-4.509-2.367-10.482-2.141-15.666.45-5.522-15.327-25.357-14.426-28.963 0-1.127-.563-4.396-.675-5.973-.337-6.199 1.24-13.073 9.58-10.707 16.23 1.916 5.297 12.284 5.184 21.188 5.522.901 2.254 4.62 3.043 6.987 3.156 8.114.338 16.567.45 26.146.676 6.198.113 10.255-.563 12.848-5.297 5.409 4.283 15.552 5.072 21.074.902l.338.676c.451 1.127 1.24 2.141 2.367 2.93 2.254 2.029 5.522 3.381 9.241 3.607 2.029.112 3.945-.226 5.635-.79 1.127 2.368 4.057 4.734 6.875 4.847 6.085.226 15.101 1.127 18.257-1.803.901-.79 2.705-2.818 2.817-3.945 6.199.226 12.51.564 17.356.676 1.69 3.156 8.34 4.96 12.059 3.832 2.479-.789 4.733-2.592 5.41-5.184.112-.564.112-1.127.112-1.578 1.578.113 5.41.225 5.86.225 5.41 6.087 18.595 3.832 29.865 3.156 7.89-.563 15.665-.563 16.68-5.41 12.847.564 17.13-1.69 17.13-5.41-.113-8.453-12.397-15.666-21.3-12.735z" fill="#6BA058"/><path d="M1987.65 596.06c-3.042-.113-5.747.676-7.775 2.14-.79-3.268-3.832-5.86-7.664-5.973-3.944-.112-7.438 2.367-8.34 5.974-.45 0-.788-.113-1.24-.113-7.212-.338-13.298 4.17-13.523 9.918-.113 3.494 1.69 6.875 5.071 8.679-6.085-5.41-2.254-17.132 14.088-13.638 1.014-4.846 8.565-4.057 11.382.338 4.283-5.635 15.665-2.817 18.032-.901-1.24-3.494-5.184-6.2-10.03-6.425z" fill="#B6D656"/><path d="M2078.486 594.82c-.113-3.607-4.508-5.974-8.115-5.185-.788-5.41-6.423-10.144-13.073-10.369-3.493-.113-3.831-.225-7.1-.338-2.704-3.494-6.761-5.973-11.382-5.973-3.72.112-6.987 1.69-9.354 4.282-6.311-3.268-14.2-4.282-20.173-1.24-4.17-11.383-28.85-16.23-34.373 1.353-4.62-4.734-12.397-4.057-15.214-1.352-14.651-8.792-23.554 4.282-22.202 11.496-3.944-2.705-13.411-3.382-14.65 2.93-4.509-2.367-10.482-2.141-15.666.45-5.522-15.327-25.357-14.426-28.963 0-1.127-.563-4.396-.675-5.973-.337-6.199 1.24-13.073 9.58-10.707 16.23 1.127 3.043 4.846 4.282 9.467 4.846-10.03-6.763 9.58-16.568 14.2-12.172 10.819-13.074 25.244-4.17 25.47 1.69 3.38-8.904 15.665-5.184 17.58-3.832 1.917-9.016 9.693-8.904 11.158-8.227 3.043-10.482 17.017-11.835 23.216-7.777 5.635-5.636 13.41-2.93 16.116-.113 12.622-17.131 33.02-5.072 32.57 4.508 1.803-3.494 13.072-10.369 21.863-5.071 2.254-1.466 7.213-4.847 14.65-1.128-5.634.902-10.03 4.847-10.255 9.693-.113 2.142.676 4.058 1.916 5.748-.113-8.565 26.146-12.51 29.189-1.916 8.002-.789 9.467 7.552 9.467 7.552s19.835-4.396 20.736 9.129c.45-.676.676-1.353.676-2.142.113-8.453-12.171-15.666-21.074-12.735z" fill="#B6D656"/><path d="M2039.605 594.82c-1.465-11.271-29.978-6.65-19.61 6.762-.338-4.621 13.073-13.3 19.61-6.762z" fill="#B6D656"/></g></g></svg>