<svg width="574" height="42" xmlns="http://www.w3.org/2000/svg"><g fill="none" fill-rule="evenodd"><path fill="#FFF" d="M289.333 35h126V0h-126z"/><path fill="#DE4961" d="M289.333 35.18h126V23.31h-126z"/><path d="M564.826 14.822l-10.225-7.913C549.066 2.625 540.413 0 532.334 0H420v35h141.39c4.695 0 12.61-3.07 12.61-8.074 0-5.005-6.53-10.06-9.174-12.104" fill="#FFF"/><path d="M78.302 8.927l-8.577 10.47h-3.45V8.927h3.351v6.205l4.733-6.205zm9.268 0l-1.38 2.715h-2.367l-3.155 7.755h-3.943l3.352-7.755h-2.76l1.38-2.715zm-25.436 0h3.351v10.47h-3.351v-1.744h-2.958l1.577-2.133h1.38v-2.521l-4.929 6.398h-3.747zm-3.353 0c-10.648 11.634-6.704 10.277-13.211 10.47 1.38-1.744.592-1.163 2.563-1.744 2.17-2.715 2.761-3.297 2.761-3.297H45.57c2.366-2.716.789-1.939 7.099-2.133 3.152-3.49 2.563-3.296 6.112-3.296z" fill-rule="nonzero" fill="#CF3D55"/><path d="M420 23.333v11.759h128.868c6.173 0 13.477.8 18.448-1.27 4.972-2.072 5.99-4.277 6.561-5.68l-21.376-4.147a36.68 36.68 0 0 0-6.934-.662H420z" fill="#DE4961"/><path fill="#4C4C4C" d="M284.667 35h4.666V0h-4.666zm130.666 0H420V0h-4.667z"/><path d="M410.877 7.035c1.141 0 2.075.907 2.075 2.011V30.69c0 1.105-.936 2.012-2.075 2.012h-7.517c-1.14 0-2.074-.906-2.074-2.012V9.046c0-1.107.933-2.011 2.074-2.011h7.517zm-107.304 0c1.142 0 2.076.907 2.076 2.011V30.69c0 1.105-.936 2.012-2.076 2.012h-7.517c-1.139 0-2.074-.906-2.074-2.012V9.046c0-1.107.934-2.011 2.074-2.011h7.517z" stroke="#01314D" stroke-width=".5"/><path d="M396.972 7h-16.944A2.026 2.026 0 0 0 378 9.011v9.978c0 1.104.915 2.011 2.028 2.011h16.944A2.026 2.026 0 0 0 399 18.989V9.01A2.026 2.026 0 0 0 396.972 7M373.64 7h-16.945c-1.114 0-2.028.906-2.028 2.011v9.978c0 1.104.915 2.011 2.028 2.011h16.945a2.026 2.026 0 0 0 2.027-2.011V9.01A2.025 2.025 0 0 0 373.64 7m-23.333 0h-16.945c-1.114 0-2.029.906-2.029 2.011v9.978c0 1.104.915 2.011 2.03 2.011h16.944a2.026 2.026 0 0 0 2.026-2.011V9.01A2.025 2.025 0 0 0 350.307 7m-23.333 0h-16.945C308.915 7 308 7.906 308 9.011v9.978c0 1.104.915 2.011 2.029 2.011h16.945A2.026 2.026 0 0 0 329 18.989V9.01A2.024 2.024 0 0 0 326.974 7" fill="#01314D"/><path d="M541.594 7.035c1.141 0 2.075.907 2.075 2.011V30.69c0 1.105-.936 2.012-2.075 2.012h-7.517c-1.14 0-2.074-.906-2.074-2.012V9.046c0-1.107.933-2.011 2.074-2.011h7.517zm-107.304 0c1.142 0 2.076.907 2.076 2.011V30.69c0 1.105-.936 2.012-2.076 2.012h-7.517c-1.139 0-2.074-.906-2.074-2.012V9.046c0-1.107.934-2.011 2.074-2.011h7.517z" stroke="#01314D" stroke-width=".5"/><path d="M555.657 7h-5.426c-1.043 0-1.898.907-1.898 2.011v9.978c0 1.104.856 2.011 1.898 2.011h21.436c-1.979-2.427-4.426-4.448-5.796-5.578l-9.893-8.163a12.494 12.494 0 0 0-.321-.259m-74.683 0h-16.946A2.026 2.026 0 0 0 462 9.011v9.978c0 1.104.915 2.011 2.028 2.011h16.945A2.025 2.025 0 0 0 483 18.989V9.01A2.024 2.024 0 0 0 480.974 7M457.64 7h-16.945a2.027 2.027 0 0 0-2.028 2.011v9.978c0 1.104.914 2.011 2.028 2.011h16.944a2.026 2.026 0 0 0 2.028-2.011V9.01A2.025 2.025 0 0 0 457.639 7" fill="#01314D"/><path fill="#FFF" d="M158.667 35h126V0h-126z"/><path fill="#DE4961" d="M158.667 35.203h126v-11.87h-126z"/><path fill="#4C4C4C" d="M154 35h4.667V0H154z"/><path d="M280.265 7.035c1.141 0 2.075.907 2.075 2.011V30.69c0 1.105-.936 2.012-2.075 2.012h-7.517c-1.14 0-2.075-.906-2.075-2.012V9.046c0-1.107.934-2.011 2.075-2.011h7.517zm-109.719 0c1.142 0 2.076.907 2.076 2.011V30.69c0 1.105-.936 2.012-2.076 2.012h-7.517c-1.139 0-2.074-.906-2.074-2.012V9.046c0-1.107.934-2.011 2.074-2.011h7.517z" stroke="#01314D" stroke-width=".5"/><path d="M266.306 7h-16.944a2.027 2.027 0 0 0-2.029 2.011v9.978c0 1.104.915 2.011 2.03 2.011h16.943a2.026 2.026 0 0 0 2.027-2.011V9.01A2.025 2.025 0 0 0 266.306 7m-23.332 0h-16.946A2.026 2.026 0 0 0 224 9.011v9.978c0 1.104.915 2.011 2.028 2.011h16.946A2.026 2.026 0 0 0 245 18.989V9.01A2.025 2.025 0 0 0 242.974 7M219.64 7h-16.945a2.027 2.027 0 0 0-2.028 2.011v9.978c0 1.104.914 2.011 2.028 2.011h16.944a2.026 2.026 0 0 0 2.028-2.011V9.01A2.025 2.025 0 0 0 219.639 7m-25.665 0h-16.945A2.027 2.027 0 0 0 175 9.011v9.978c0 1.104.915 2.011 2.029 2.011h16.945A2.026 2.026 0 0 0 196 18.989V9.01A2.025 2.025 0 0 0 193.974 7" fill="#01314D"/><path d="M9.174 14.822l10.224-7.913C24.934 2.625 33.588 0 41.666 0H154v35H12.61C7.914 35 0 31.93 0 26.926c0-5.005 6.53-10.06 9.174-12.104" fill="#FFF"/><path d="M154 23.333v11.87c-87.44-.096-131.608-.096-132.502 0-8.054 0-13.292-.55-15.716-1.649C2.146 31.906.451 28.96 0 28.144c6.194-2.06 11.193-3.377 15-3.95 5.708-.86 14.652-.86 16.985-.86H154z" fill="#DE4961"/><path d="M39.925 7C41.066 7 42 7.907 42 9.011v21.644c0 1.105-.936 2.012-2.075 2.012h-7.517c-1.14 0-2.075-.906-2.075-2.012V9.011c0-1.107.934-2.011 2.075-2.011h7.517zm109.623.035c1.141 0 2.075.907 2.075 2.011V30.69c0 1.105-.936 2.012-2.075 2.012h-7.517c-1.14 0-2.075-.906-2.075-2.012V9.046c0-1.107.934-2.011 2.075-2.011h7.517z" stroke="#01314D" stroke-width=".5"/><path d="M18.342 7h5.427c1.043 0 1.898.907 1.898 2.011v9.978c0 1.104-.856 2.011-1.898 2.011H2.333c1.979-2.427 4.426-4.448 5.796-5.578l9.892-8.163c.106-.088.213-.173.321-.259m74.686 0h16.943c1.116 0 2.029.906 2.029 2.011v9.978c0 1.104-.915 2.011-2.029 2.011H93.028A2.026 2.026 0 0 1 91 18.989V9.01C91 7.904 91.912 7 93.028 7m25.665 0h16.946c1.115 0 2.028.906 2.028 2.011v9.978c0 1.104-.915 2.011-2.028 2.011h-16.946a2.026 2.026 0 0 1-2.026-2.011V9.01c0-1.107.912-2.011 2.026-2.011" fill="#01314D"/><path d="M287 35H11.667l2.835 3.654C16.36 41.036 18.002 42 21.793 42h530.414c3.79 0 5.434-.964 7.29-3.346L562.334 35H287z" fill="#90B7C1"/></g></svg>